<svg width="24" height="25" viewBox="0 0 24 25" fill="none" xmlns="http://www.w3.org/2000/svg">
<path d="M13.0281 2.36523C14.1535 2.36709 14.7238 2.37304 15.2166 2.38771L15.4107 2.39406C15.6349 2.40203 15.8561 2.41203 16.1228 2.42453C17.1869 2.47369 17.9128 2.64203 18.5503 2.88953C19.2094 3.14369 19.7661 3.48703 20.3219 4.04286C20.8769 4.59869 21.2203 5.15703 21.4753 5.81453C21.7219 6.45119 21.8903 7.17786 21.9403 8.24203C21.9522 8.50869 21.9618 8.72989 21.9697 8.95414L21.976 9.14822C21.9906 9.64097 21.9973 10.2114 21.9994 11.3368L22.0002 12.0825C22.0003 12.1736 22.0003 12.2676 22.0003 12.3646L22.0002 12.6467L21.9996 13.3924C21.9977 14.5178 21.9918 15.0881 21.9771 15.5809L21.9707 15.775C21.9628 15.9992 21.9528 16.2204 21.9403 16.4871C21.8911 17.5512 21.7219 18.2771 21.4753 18.9146C21.2211 19.5737 20.8769 20.1304 20.3219 20.6862C19.7661 21.2412 19.2069 21.5846 18.5503 21.8396C17.9128 22.0862 17.1869 22.2546 16.1228 22.3046C15.8561 22.3165 15.6349 22.3261 15.4107 22.334L15.2166 22.3403C14.7238 22.3549 14.1535 22.3616 13.0281 22.3637L12.2824 22.3645C12.1913 22.3646 12.0973 22.3646 12.0003 22.3646L11.7182 22.3645L10.9725 22.3639C9.8471 22.362 9.27672 22.3561 8.78397 22.3414L8.58989 22.335C8.36564 22.3271 8.14444 22.3171 7.87778 22.3046C6.81361 22.2554 6.08861 22.0862 5.45028 21.8396C4.79194 21.5854 4.23444 21.2412 3.67861 20.6862C3.12278 20.1304 2.78028 19.5712 2.52528 18.9146C2.27778 18.2771 2.11028 17.5512 2.06028 16.4871C2.0484 16.2204 2.03871 15.9992 2.03086 15.775L2.02457 15.5809C2.00994 15.0881 2.00327 14.5178 2.00111 13.3924L2.00098 11.3368C2.00284 10.2114 2.00879 9.64097 2.02346 9.14822L2.02981 8.95414C2.03778 8.72989 2.04778 8.50869 2.06028 8.24203C2.10944 7.17703 2.27778 6.45203 2.52528 5.81453C2.77944 5.15619 3.12278 4.59869 3.67861 4.04286C4.23444 3.48703 4.79278 3.14453 5.45028 2.88953C6.08778 2.64203 6.81278 2.47453 7.87778 2.42453C8.14444 2.41265 8.36564 2.40296 8.58989 2.39511L8.78397 2.38882C9.27672 2.37419 9.8471 2.36752 10.9725 2.36536L13.0281 2.36523ZM12.0003 7.36453C9.23738 7.36453 7.00028 9.60407 7.00028 12.3646C7.00028 15.1275 9.23981 17.3646 12.0003 17.3646C14.7632 17.3646 17.0003 15.125 17.0003 12.3646C17.0003 9.60164 14.7607 7.36453 12.0003 7.36453ZM12.0003 9.36453C13.6572 9.36453 15.0003 10.7072 15.0003 12.3646C15.0003 14.0215 13.6576 15.3646 12.0003 15.3646C10.3434 15.3646 9.00028 14.0219 9.00028 12.3646C9.00028 10.7077 10.3429 9.36453 12.0003 9.36453ZM17.2503 5.86453C16.561 5.86453 16.0003 6.42443 16.0003 7.11368C16.0003 7.80292 16.5602 8.36369 17.2503 8.36369C17.9395 8.36369 18.5003 7.80379 18.5003 7.11368C18.5003 6.42443 17.9386 5.86366 17.2503 5.86453Z" fill="black"/>
</svg>
