<svg width="24" height="25" viewBox="0 0 24 25" fill="none" xmlns="http://www.w3.org/2000/svg">
<g clip-path="url(#clip0_4_2602)">
<path fill-rule="evenodd" clip-rule="evenodd" d="M12 0.365234C18.623 0.365234 24 5.74227 24 12.3652C24 18.9882 18.623 24.3652 12 24.3652C5.37703 24.3652 0 18.9882 0 12.3652C0 5.74227 5.37703 0.365234 12 0.365234ZM8.24827 19.1092V9.73789H5.13277V19.1092H8.24827ZM19.4805 19.1092V13.7352C19.4805 10.8566 17.9436 9.51753 15.8941 9.51753C14.2415 9.51753 13.5013 10.4264 13.0868 11.0647V9.73789H9.97209C10.0134 10.6171 9.97209 19.1092 9.97209 19.1092H13.0868V13.8756C13.0868 13.5955 13.1069 13.3154 13.1895 13.1152C13.4142 12.5558 13.9271 11.9762 14.7877 11.9762C15.9143 11.9762 16.3656 12.8359 16.3656 14.0952V19.1092H19.4805ZM6.71156 5.21914C5.64562 5.21914 4.9492 5.91992 4.9492 6.83844C4.9492 7.73759 5.62444 8.45769 6.67031 8.45769H6.69042C7.77675 8.45769 8.45292 7.73759 8.45292 6.83844C8.43277 5.91992 7.7768 5.21914 6.71156 5.21914Z" fill="black"/>
</g>
<defs>
<clipPath id="clip0_4_2602">
<rect width="24" height="24" fill="white" transform="translate(0 0.365234)"/>
</clipPath>
</defs>
</svg>
