<svg width="24" height="25" viewBox="0 0 24 25" fill="none" xmlns="http://www.w3.org/2000/svg">
<path d="M12.001 22.3652C6.47813 22.3652 2.00098 17.888 2.00098 12.3652C2.00098 6.84238 6.47813 2.36523 12.001 2.36523C17.5238 2.36523 22.001 6.84238 22.001 12.3652C22.001 17.888 17.5238 22.3652 12.001 22.3652ZM8.89113 13.536L8.90378 13.528C9.48351 15.4419 9.77337 16.3989 9.77337 16.3989C9.88564 16.7094 10.04 16.7648 10.2273 16.7395C10.4145 16.7141 10.5139 16.6128 10.6361 16.4949C10.6361 16.4949 11.0324 16.1124 11.825 15.3475L14.3759 17.235C14.8407 17.4918 15.1763 17.3593 15.2917 16.8029L16.9495 8.98164C17.1325 8.25365 16.8115 7.96167 16.247 8.19277L6.51397 11.9523C5.84996 12.2192 5.85317 12.5907 6.39308 12.7563L8.89113 13.536Z" fill="black"/>
</svg>
