<svg width="25" height="25" viewBox="0 0 25 25" fill="none" xmlns="http://www.w3.org/2000/svg">
<g clip-path="url(#clip0_4_2552)">
<path d="M1.01354 12.2216C1.01298 14.2381 1.54391 16.207 2.55347 17.9425L0.916992 23.872L7.03172 22.2809C8.72298 23.1946 10.6179 23.6733 12.5435 23.6735H12.5486C18.9054 23.6735 24.0801 18.5402 24.0828 12.2307C24.084 9.17328 22.8853 6.2983 20.7074 4.13532C18.5298 1.97253 15.6338 0.78081 12.5481 0.779415C6.19052 0.779415 1.01626 5.91244 1.01364 12.2216" fill="url(#paint0_linear_4_2552)"/>
<path d="M0.601276 12.2179C0.60062 14.3069 1.15058 16.3463 2.19614 18.1438L0.500977 24.2859L6.83496 22.6378C8.58018 23.5821 10.5451 24.0799 12.5446 24.0807H12.5497C19.1346 24.0807 24.4951 18.7627 24.498 12.2274C24.4991 9.06012 23.2572 6.08179 21.0015 3.84133C18.7455 1.60114 15.7459 0.366537 12.5497 0.365234C5.96366 0.365234 0.603901 5.68244 0.601276 12.2179ZM4.3733 17.8343L4.1368 17.4617C3.14261 15.893 2.61787 14.0801 2.61862 12.2186C2.62077 6.78654 7.07559 2.36709 12.5535 2.36709C15.2063 2.36821 17.6993 3.39444 19.5745 5.2564C21.4495 7.11854 22.4813 9.59389 22.4806 12.2266C22.4782 17.6587 18.0233 22.0787 12.5497 22.0787H12.5458C10.7635 22.0778 9.01559 21.6028 7.49122 20.7052L7.12846 20.4917L3.36974 21.4697L4.3733 17.8342V17.8343Z" fill="url(#paint1_linear_4_2552)"/>
<path d="M9.56442 7.26294C9.34076 6.76964 9.10538 6.75968 8.89269 6.75103C8.71852 6.74359 8.51942 6.74415 8.32051 6.74415C8.12141 6.74415 7.79792 6.81848 7.52449 7.11475C7.25077 7.41131 6.47949 8.12796 6.47949 9.58555C6.47949 11.0432 7.54933 12.4519 7.69846 12.6497C7.84779 12.8472 9.7638 15.9341 12.7983 17.1216C15.3202 18.1085 15.8334 17.9122 16.3808 17.8628C16.9282 17.8135 18.1472 17.1463 18.3959 16.4545C18.6447 15.7628 18.6447 15.1698 18.5701 15.0459C18.4955 14.9225 18.2964 14.8483 17.9979 14.7002C17.6992 14.5521 16.2315 13.8353 15.9578 13.7364C15.6841 13.6376 15.4851 13.5883 15.286 13.885C15.0869 14.1812 14.5152 14.8483 14.3409 15.0459C14.1669 15.244 13.9926 15.2686 13.6941 15.1204C13.3954 14.9718 12.4339 14.6593 11.2932 13.6501C10.4057 12.8648 9.80654 11.895 9.63238 11.5984C9.45821 11.3022 9.61372 11.1416 9.76342 10.994C9.89756 10.8613 10.0621 10.6481 10.2115 10.4751C10.3603 10.3021 10.41 10.1787 10.5096 9.98108C10.6092 9.78331 10.5594 9.61029 10.4848 9.4621C10.41 9.31392 9.82988 7.84871 9.56442 7.26294Z" fill="white"/>
</g>
<defs>
<linearGradient id="paint0_linear_4_2552" x1="1159.21" y1="2310.04" x2="1159.21" y2="0.779415" gradientUnits="userSpaceOnUse">
<stop stop-color="#1FAF38"/>
<stop offset="1" stop-color="#60D669"/>
</linearGradient>
<linearGradient id="paint1_linear_4_2552" x1="1200.35" y1="2392.43" x2="1200.35" y2="0.365234" gradientUnits="userSpaceOnUse">
<stop stop-color="#F9F9F9"/>
<stop offset="1" stop-color="white"/>
</linearGradient>
<clipPath id="clip0_4_2552">
<rect width="24" height="24" fill="white" transform="translate(0.5 0.365234)"/>
</clipPath>
</defs>
</svg>
