<svg width="28" height="29" viewBox="0 0 28 29" fill="none" xmlns="http://www.w3.org/2000/svg">
<g filter="url(#filter0_d_4_2599)">
<path d="M14.2439 4.36523C14.778 4.36817 16.1143 4.38109 17.5341 4.43796L18.0375 4.45991C19.467 4.52759 20.8953 4.64321 21.6037 4.84073C22.5486 5.10618 23.2913 5.88073 23.5423 6.86255C23.942 8.42164 23.992 11.4646 23.9982 12.201L23.9991 12.3536V12.3643C23.9991 12.3643 23.9991 12.368 23.9991 12.3751L23.9982 12.5277C23.992 13.2641 23.942 16.3071 23.5423 17.8662C23.2878 18.8516 22.5451 19.6262 21.6037 19.888C20.8953 20.0855 19.467 20.2011 18.0375 20.2688L17.5341 20.2907C16.1143 20.3476 14.778 20.3605 14.2439 20.3635L14.0095 20.3643H13.9991C13.9991 20.3643 13.9956 20.3643 13.9887 20.3643L13.7545 20.3635C12.6241 20.3573 7.89772 20.3062 6.39451 19.888C5.4496 19.6225 4.70692 18.848 4.45587 17.8662C4.0562 16.3071 4.00624 13.2641 4 12.5277V12.201C4.00624 11.4646 4.0562 8.42164 4.45587 6.86255C4.7104 5.87709 5.45308 5.10255 6.39451 4.84073C7.89772 4.42246 12.6241 4.37145 13.7545 4.36523H14.2439ZM11.9991 8.86437V15.8643L17.9991 12.3643L11.9991 8.86437Z" fill="black"/>
</g>
<defs>
<filter id="filter0_d_4_2599" x="-2" y="0.365234" width="32" height="32" filterUnits="userSpaceOnUse" color-interpolation-filters="sRGB">
<feFlood flood-opacity="0" result="BackgroundImageFix"/>
<feColorMatrix in="SourceAlpha" type="matrix" values="0 0 0 0 0 0 0 0 0 0 0 0 0 0 0 0 0 0 127 0" result="hardAlpha"/>
<feOffset dy="4"/>
<feGaussianBlur stdDeviation="2"/>
<feComposite in2="hardAlpha" operator="out"/>
<feColorMatrix type="matrix" values="0 0 0 0 0 0 0 0 0 0 0 0 0 0 0 0 0 0 0.25 0"/>
<feBlend mode="normal" in2="BackgroundImageFix" result="effect1_dropShadow_4_2599"/>
<feBlend mode="normal" in="SourceGraphic" in2="effect1_dropShadow_4_2599" result="shape"/>
</filter>
</defs>
</svg>
