<svg width="308" height="231" viewBox="0 0 308 231" fill="none" xmlns="http://www.w3.org/2000/svg">
<g clip-path="url(#clip0_4_947)">
<path opacity="0.3" d="M342.338 -9.00098H-32.2568V240.773H342.338V-9.00098Z" fill="#C9D5F4"/>
<path d="M85.7849 24.6948C85.7849 24.6948 136.857 -0.305525 177.591 15.9343C211.396 29.4116 198.179 46.7224 227.998 45.8177C257.816 44.913 287.267 80.0712 272.31 125.216C264.529 148.702 300.517 168.168 277.66 194.406C249.267 226.998 191.26 202.095 96.8674 213.474C47.1333 219.469 10.8266 169.681 44.9476 131.432C70.1049 103.232 53.8515 97.1637 53.6182 71.0104C53.371 43.2785 85.7849 24.6948 85.7849 24.6948Z" fill="#A4BAEC"/>
<path d="M233.845 33.2216C233.845 33.2216 230.176 64.4228 230.053 65.4629C229.931 66.5029 188.177 61.7418 187.311 61.3386C186.445 60.9355 193.425 28.1931 193.803 28.3295C199.468 30.3722 233.845 33.2216 233.845 33.2216Z" fill="white"/>
<path d="M241.653 61.9537L233.845 33.2217L230.053 65.4635L241.653 61.9537Z" fill="#3940A0"/>
<path d="M198.017 32.5561C197.406 32.5561 196.735 32.4382 196.18 32.0506C195.445 31.5375 195.064 30.6608 195.044 29.4454C195.013 27.5846 195.95 26.8308 196.511 26.5466C197.404 26.0955 198.558 26.2134 199.382 26.8393C200.225 27.4807 200.575 28.5103 200.343 29.6652L199.853 29.5668C200.046 28.6072 199.764 27.7575 199.08 27.2369C198.405 26.7234 197.463 26.625 196.737 26.9922C195.948 27.3913 195.524 28.2595 195.544 29.4369C195.561 30.4835 195.871 31.2248 196.467 31.6409C197.65 32.4672 199.593 31.8058 199.613 31.7983L199.777 32.2699C199.722 32.2889 198.936 32.5561 198.017 32.5561Z" fill="#3940A0"/>
<path d="M204.452 33.7168C203.84 33.7168 203.17 33.5989 202.615 33.2112C201.88 32.6982 201.498 31.8215 201.478 30.6061C201.448 28.7453 202.384 27.9915 202.946 27.7072C203.838 27.2556 204.992 27.373 205.816 28C206.659 28.6409 207.009 29.6709 206.777 30.8259L206.288 30.7275C206.48 29.7679 206.198 28.9186 205.514 28.3976C204.839 27.8841 203.897 27.7851 203.171 28.1528C202.382 28.552 201.958 29.4202 201.978 30.5976C201.995 31.6432 202.305 32.3845 202.9 32.8006C204.079 33.6264 206.028 32.966 206.047 32.959L206.211 33.4305C206.157 33.45 205.372 33.7168 204.452 33.7168Z" fill="#3940A0"/>
<path d="M211.341 34.2207C210.729 34.2207 210.059 34.1028 209.504 33.7151C208.769 33.2021 208.387 32.3254 208.367 31.11C208.337 29.2492 209.273 28.4954 209.835 28.2111C210.727 27.7595 211.881 27.8769 212.705 28.5039C213.548 29.1448 213.898 30.1748 213.666 31.3298L213.177 31.2314C213.37 30.2718 213.087 29.4225 212.403 28.9015C211.728 28.388 210.787 28.2891 210.061 28.6567C209.271 29.0559 208.847 29.9241 208.867 31.1015C208.884 32.1481 209.195 32.8894 209.79 33.3055C210.973 34.1318 212.916 33.4699 212.936 33.4629L213.1 33.9344C213.046 33.9539 212.261 34.2207 211.341 34.2207Z" fill="#3940A0"/>
<path d="M218.953 34.5865C218.341 34.5865 217.67 34.4686 217.115 34.081C216.381 33.5679 215.999 32.6912 215.979 31.4758C215.948 29.615 216.885 28.8607 217.447 28.5769C218.339 28.1259 219.493 28.2432 220.317 28.8702C221.16 29.5111 221.51 30.5412 221.278 31.6961L220.788 31.5977C220.981 30.6381 220.699 29.7888 220.015 29.2678C219.34 28.7538 218.399 28.6549 217.672 29.023C216.883 29.4222 216.459 30.2904 216.478 31.4678C216.495 32.5134 216.805 33.2547 217.4 33.6708C218.579 34.4966 220.528 33.8362 220.548 33.8292L220.712 34.3008C220.658 34.3192 219.872 34.5865 218.953 34.5865Z" fill="#3940A0"/>
<path d="M227.06 35.2073C226.448 35.2073 225.778 35.0894 225.222 34.7013C224.488 34.1883 224.106 33.3115 224.086 32.0961C224.055 30.2353 224.992 29.4815 225.554 29.1973C226.446 28.7457 227.601 28.8636 228.424 29.4905C229.267 30.1314 229.617 31.1615 229.385 32.3164L228.895 32.218C229.089 31.2584 228.806 30.4092 228.122 29.8881C227.447 29.3746 226.505 29.2762 225.78 29.6434C224.99 30.0425 224.566 30.9107 224.585 32.0882C224.602 33.1337 224.913 33.875 225.507 34.2912C226.686 35.1169 228.637 34.4565 228.655 34.45L228.819 34.9216C228.765 34.9401 227.98 35.2073 227.06 35.2073Z" fill="#3940A0"/>
<path d="M225.372 61.8107L190.699 58.4093L194.561 34.2656L229.649 37.6366L225.372 61.8107ZM191.277 57.9642L224.96 61.2687L229.063 38.0822L194.98 34.8081L191.277 57.9642Z" fill="#3940A0"/>
<path d="M199.492 35.1384L196.081 58.666L196.576 58.7378L199.987 35.2102L199.492 35.1384Z" fill="#3940A0"/>
<path d="M222.838 37.2137L219.35 60.9512L219.845 61.0239L223.332 37.2864L222.838 37.2137Z" fill="#3940A0"/>
<path d="M214.721 36.4454L210.406 60.083L210.898 60.1728L215.213 36.5352L214.721 36.4454Z" fill="#3940A0"/>
<path d="M206.856 35.6734L203.32 59.373L203.814 59.4467L207.35 35.7471L206.856 35.6734Z" fill="#3940A0"/>
<path d="M194.007 39.2077L193.951 39.7041L228.355 43.5755L228.41 43.0791L194.007 39.2077Z" fill="#3940A0"/>
<path d="M192.872 46.3084L192.815 46.8047L227.089 50.7382L227.146 50.2419L192.872 46.3084Z" fill="#3940A0"/>
<path d="M191.775 53.2158L191.725 53.7129L225.969 57.155L226.018 56.658L191.775 53.2158Z" fill="#3940A0"/>
<path d="M207.088 44.0054C207.088 44.0054 209.416 39.8112 212.26 42.4384C215.129 45.0899 209.495 48.4509 207.379 45.9916C207.379 45.9916 211.073 46.3188 211.857 44.3261C212.642 42.3334 208.691 42.3319 207.088 44.0054Z" fill="#CA6E70"/>
<path d="M96.7138 49.4326C96.7138 49.4326 82.0028 58.1647 82.4538 59.1333C82.9053 60.1025 85.506 63.6213 85.506 63.6213L99.766 53.9206L96.7138 49.4326Z" fill="#3940A0"/>
<path d="M89.8197 52.0039C89.8197 52.0039 71.5844 62.3106 72.3865 63.8637C73.1887 65.4168 77.4071 71.246 77.4071 71.246L94.8402 59.3862L89.8197 52.0039Z" fill="#D5A168"/>
<path d="M121.094 36.9267C116.457 30.1084 107.172 28.3405 100.355 32.9783C93.5381 37.6161 91.771 46.9027 96.4075 53.721C101.045 60.5393 110.329 62.3067 117.146 57.6694C123.963 53.0316 125.731 43.745 121.094 36.9267ZM99.9837 51.2882C96.6902 46.4451 97.9459 39.849 102.788 36.555C107.63 33.261 114.225 34.5164 117.518 39.3595C120.812 44.2026 119.556 50.7986 114.714 54.0926C109.872 57.3867 103.277 56.1313 99.9837 51.2882Z" fill="white"/>
<path d="M58.3958 30.839C58.3958 30.839 77.2159 26.1948 78.0994 27.4796C78.983 28.7644 81.9822 49.9043 81.9822 49.9043L62.1692 53.5L58.3958 30.839Z" fill="white"/>
<path d="M61.5957 35.2964L61.1587 35.0541C61.1712 35.0326 62.3973 32.8766 64.6274 33.4106C65.3616 33.5874 65.8531 33.8037 66.2482 33.9771C66.9474 34.2853 67.1837 34.3887 67.8819 33.8492C69.1675 32.8571 70.0616 32.2881 71.6179 32.7422C72.2292 32.9205 72.5554 33.2752 72.7936 33.534C72.907 33.6569 73.0194 33.7823 73.0853 33.7808C73.1577 33.7778 73.3505 33.6818 73.8305 33.0689C74.7849 31.851 74.9717 31.7136 76.7498 32.0558L76.6554 32.5464C75.1096 32.2491 75.0926 32.2686 74.253 33.3392C73.7241 34.0145 73.4104 34.2673 73.1048 34.2793C72.8091 34.2963 72.6238 34.0875 72.4255 33.8722C72.2047 33.6329 71.955 33.3611 71.477 33.2213C70.117 32.8246 69.3768 33.3247 68.1861 34.2443C67.2521 34.9647 66.7981 34.7649 66.0459 34.4337C65.6693 34.2678 65.2008 34.0615 64.5101 33.8957C62.6541 33.4511 61.6382 35.221 61.5957 35.2964Z" fill="#3940A0"/>
<path d="M64.8797 49.1079L64.4426 48.8657C64.4551 48.8437 65.6808 46.6881 67.9114 47.2221C68.6456 47.399 69.137 47.6153 69.5316 47.7886C70.2309 48.0964 70.4671 48.2003 71.1653 47.6608C72.451 46.6692 73.3445 46.0992 74.9018 46.5538C75.5126 46.7321 75.8393 47.0868 76.0775 47.3455C76.1909 47.4684 76.3078 47.5973 76.3692 47.5923C76.4416 47.5898 76.6344 47.4934 77.1144 46.881C78.0689 45.6626 78.2552 45.5247 80.0343 45.8679L79.9399 46.3584C78.3925 46.0602 78.377 46.0807 77.537 47.1517C77.008 47.8266 76.6944 48.0794 76.3892 48.0919C76.089 48.1009 75.9087 47.8995 75.7099 47.6842C75.4897 47.4449 75.2394 47.1732 74.762 47.0333C73.4024 46.6372 72.6622 47.1367 71.471 48.0564C70.5375 48.7767 70.0835 48.5769 69.3308 48.2457C68.9542 48.0799 68.4858 47.8736 67.795 47.7077C65.9365 47.2626 64.9221 49.0325 64.8797 49.1079Z" fill="#3940A0"/>
<path d="M62.8565 40.0615L62.4194 39.8192C62.4314 39.7977 63.6571 37.6402 65.8882 38.1757C66.6229 38.3526 67.1143 38.5689 67.5089 38.7427C68.2082 39.0504 68.4439 39.1548 69.1427 38.6148C70.4373 37.6157 71.1195 37.2545 72.6738 37.7076C73.2132 37.865 73.5828 38.1587 73.8795 38.3945C74.0973 38.5669 74.2856 38.7182 74.4075 38.6907C74.5183 38.6683 74.7226 38.5074 75.0692 37.8695C75.1776 37.6697 75.256 37.5008 75.321 37.3604C75.7095 36.5237 75.9133 36.5092 77.3318 36.782L77.2374 37.2725C76.0207 37.0382 76.0207 37.0382 75.774 37.5708C75.705 37.7186 75.6226 37.8965 75.5078 38.1078C75.1312 38.8011 74.841 39.1119 74.5068 39.1798C74.1537 39.2512 73.8705 39.0244 73.5689 38.7852C73.2922 38.5654 72.979 38.3166 72.5335 38.1867C71.1889 37.7941 70.6485 38.0833 69.4478 39.01C68.5143 39.7298 68.0603 39.5305 67.3076 39.1993C66.931 39.0334 66.4626 38.8271 65.7718 38.6613C63.9148 38.2157 62.8984 39.9861 62.8565 40.0615Z" fill="#3940A0"/>
<path d="M63.8235 45.0032L63.6707 44.5277C63.9124 44.4497 63.9169 44.4467 64.0278 44.3683C64.1781 44.2614 64.4903 44.0396 65.5601 43.4616C66.555 42.9241 66.7668 42.9726 67.2862 43.2054C67.498 43.3003 67.7617 43.4192 68.2237 43.5231C69.6062 43.8343 70.3135 43.2873 71.4442 42.2952C72.3308 41.5179 72.7968 41.6887 73.5679 41.972C73.954 42.1138 74.435 42.2902 75.1347 42.4126C77.0282 42.7418 77.9472 40.852 77.9562 40.833L78.4072 41.0473C78.3967 41.0698 77.3104 43.3013 75.0483 42.9051C74.3046 42.7747 73.8007 42.5899 73.3956 42.441C72.6784 42.1788 72.4367 42.0894 71.7729 42.6713C70.5522 43.7424 69.6976 44.3678 68.1133 44.0111C67.6024 43.8962 67.3012 43.7609 67.081 43.6619C66.7024 43.4926 66.623 43.4561 65.7969 43.9017C64.754 44.4652 64.4583 44.675 64.3165 44.7759C64.1636 44.8838 64.1177 44.9083 63.8235 45.0032Z" fill="#3940A0"/>
<path d="M46.5219 175.433C46.5219 175.433 64.4266 182.862 64.3756 184.421C64.3247 185.98 54.1991 204.777 54.1991 204.777L36.1172 195.914L46.5219 175.433Z" fill="#D5A168"/>
<path d="M60.2082 187.644C59.1389 186.486 59.1134 186.492 57.8038 186.857C56.9777 187.087 56.5751 187.103 56.3219 186.932C56.0792 186.768 56.0487 186.492 56.0173 186.201C55.9818 185.877 55.9418 185.51 55.6402 185.114C54.7806 183.987 53.8871 183.949 52.3837 183.985C51.207 184.002 50.9582 183.58 50.5487 182.868C50.3439 182.511 50.0892 182.066 49.6317 181.523C48.401 180.06 46.5335 180.885 46.4546 180.92L46.2468 180.466C46.2698 180.456 48.5363 179.446 50.0137 181.202C50.5002 181.78 50.7674 182.246 50.9817 182.62C51.3623 183.283 51.4951 183.513 52.3722 183.486C53.9934 183.448 55.0528 183.521 56.0367 184.812C56.4228 185.318 56.4753 185.797 56.5137 186.147C56.5317 186.313 56.5507 186.484 56.6021 186.519C56.6626 186.559 56.8743 186.597 57.6245 186.388C59.1154 185.975 59.3472 185.974 60.5753 187.305L60.2082 187.644Z" fill="#3940A0"/>
<path d="M54.6587 200.71C53.5893 199.553 53.5648 199.559 52.2538 199.923C51.4277 200.154 51.0251 200.17 50.7719 199.999C50.5291 199.834 50.4987 199.559 50.4672 199.268C50.4317 198.944 50.3918 198.577 50.0901 198.181C49.2305 197.054 48.337 197.016 46.8336 197.051C45.6534 197.072 45.4082 196.646 44.9986 195.934C44.7938 195.577 44.5391 195.133 44.0816 194.59C42.8444 193.12 40.924 193.978 40.905 193.986L40.6968 193.533C40.7198 193.522 42.9863 192.513 44.4637 194.268C44.9502 194.846 45.2169 195.312 45.4317 195.686C45.8117 196.349 45.9381 196.574 46.8221 196.552C48.4459 196.516 49.5022 196.587 50.4867 197.878C50.8728 198.384 50.9252 198.864 50.9637 199.214C50.9816 199.379 51.0001 199.55 51.0521 199.585C51.1115 199.626 51.3253 199.663 52.074 199.455C53.5648 199.041 53.7961 199.04 55.0253 200.372L54.6587 200.71Z" fill="#3940A0"/>
<path d="M57.8723 191.793C57.0332 190.883 57.0332 190.882 56.5177 191.164C56.3744 191.242 56.2026 191.336 55.9853 191.438C55.2706 191.773 54.853 191.851 54.5439 191.707C54.2187 191.557 54.1238 191.205 54.0229 190.833C53.9305 190.492 53.8256 190.106 53.5444 189.737C52.6944 188.622 52.088 188.538 50.5722 188.568C49.3854 188.583 49.1467 188.164 48.7371 187.451C48.5324 187.095 48.2776 186.65 47.8201 186.107C46.584 184.638 44.6626 185.494 44.6431 185.504L44.4353 185.049C44.4573 185.039 46.7243 184.029 48.2022 185.785C48.6887 186.363 48.9559 186.83 49.1707 187.203C49.5508 187.866 49.6731 188.093 50.5612 188.069C52.1979 188.033 52.9596 188.146 53.942 189.435C54.2831 189.881 54.4065 190.337 54.5054 190.703C54.5783 190.97 54.6408 191.202 54.7546 191.254C54.857 191.303 55.1172 191.294 55.7745 190.986C55.9803 190.89 56.1436 190.8 56.279 190.726C57.0891 190.283 57.2604 190.392 58.2409 191.454L57.8723 191.793Z" fill="#3940A0"/>
<path d="M54.8763 195.924C54.2031 195.924 53.4329 195.721 52.7696 195.027C52.2482 194.481 51.952 194.033 51.7143 193.673C51.2932 193.035 51.1509 192.823 50.2723 192.895C48.6536 193.033 47.5952 193.028 46.5319 191.802C46.1888 191.406 46.0264 191.119 45.9081 190.909C45.7038 190.546 45.6613 190.471 44.7323 190.34C43.5591 190.174 43.1965 190.168 43.0222 190.165C42.8339 190.162 42.7824 190.154 42.4893 190.055L42.6481 189.582C42.8893 189.663 42.8948 189.663 43.0307 189.665C43.215 189.669 43.5981 189.676 44.8017 189.845C45.9215 190.002 46.0634 190.167 46.3431 190.663C46.4575 190.865 46.5993 191.117 46.9095 191.475C47.8375 192.546 48.731 192.525 50.2299 192.397C51.4031 192.295 51.6778 192.711 52.1313 193.397C52.3581 193.741 52.6403 194.168 53.1312 194.681C54.4508 196.064 56.2633 195.125 56.3403 195.084L56.576 195.525C56.5625 195.532 55.8128 195.924 54.8763 195.924Z" fill="#3940A0"/>
<path d="M41.9714 131.926C36.4419 131.926 31.9597 136.409 31.9597 141.939C31.9597 147.47 36.4424 151.953 41.9714 151.953C47.5004 151.953 51.983 147.469 51.983 141.939C51.9835 136.409 47.5009 131.926 41.9714 131.926ZM41.6312 147.374C38.8787 147.374 36.6471 145.095 36.6471 142.284C36.6471 139.473 38.8787 137.195 41.6312 137.195C44.3838 137.195 46.6153 139.473 46.6153 142.284C46.6153 145.095 44.3843 147.374 41.6312 147.374Z" fill="#3940A0"/>
<path d="M39.9322 136.71C39.9322 136.71 39.175 129.819 40.2349 127.32C40.5156 126.658 44.0203 126.487 44.2341 127.998C44.291 128.402 44.3989 136.407 44.1716 136.558C43.9449 136.71 39.9322 136.71 39.9322 136.71Z" fill="#3940A0"/>
<path d="M44.0483 147.307C44.0483 147.307 44.8055 154.197 43.7456 156.697C43.4649 157.358 39.9602 157.529 39.7464 156.018C39.6895 155.615 39.5816 147.609 39.8089 147.458C40.0356 147.307 44.0483 147.307 44.0483 147.307Z" fill="#3940A0"/>
<path d="M43.8298 136.806C43.8298 136.806 48.1661 131.398 50.6824 130.381C51.3482 130.111 53.9479 132.469 53.0309 133.689C52.7856 134.014 47.2027 139.751 46.935 139.698C46.6673 139.644 43.8298 136.806 43.8298 136.806Z" fill="#3940A0"/>
<path d="M39.2488 147.21C39.2488 147.21 34.9125 152.618 32.3962 153.636C31.7304 153.905 29.1307 151.548 30.0477 150.328C30.293 150.002 35.8759 144.265 36.1436 144.319C36.4114 144.372 39.2488 147.21 39.2488 147.21Z" fill="#3940A0"/>
<path d="M47.1727 144.3C47.1727 144.3 52.5799 148.637 53.5973 151.154C53.8665 151.819 51.5095 154.42 50.2899 153.502C49.9642 153.257 44.2284 147.673 44.2819 147.405C44.3353 147.138 47.1727 144.3 47.1727 144.3Z" fill="#3940A0"/>
<path d="M36.77 139.717C36.77 139.717 31.3629 135.38 30.3455 132.863C30.0762 132.197 32.4332 129.597 33.6529 130.514C33.9785 130.759 39.7143 136.343 39.6609 136.611C39.6074 136.879 36.77 139.717 36.77 139.717Z" fill="#3940A0"/>
<path d="M36.4234 144.393C36.4234 144.393 29.5339 145.151 27.0351 144.091C26.3738 143.81 26.2025 140.304 27.7134 140.091C28.1169 140.034 36.1208 139.926 36.2721 140.153C36.4234 140.38 36.4234 144.393 36.4234 144.393Z" fill="#3940A0"/>
<path d="M46.6118 140.277C46.6118 140.277 53.5014 139.519 56.0002 140.579C56.6614 140.86 56.8328 144.366 55.3219 144.579C54.9183 144.636 46.9145 144.744 46.7631 144.517C46.6118 144.29 46.6118 140.277 46.6118 140.277Z" fill="#3940A0"/>
<path d="M234.965 74.166C231.539 74.166 228.761 76.944 228.761 80.3704C228.761 83.7968 231.539 86.5748 234.965 86.5748C238.39 86.5748 241.168 83.7968 241.168 80.3704C241.168 76.944 238.391 74.166 234.965 74.166ZM234.754 83.7373C233.048 83.7373 231.666 82.3256 231.666 80.5837C231.666 78.8423 233.048 77.4301 234.754 77.4301C236.459 77.4301 237.842 78.8418 237.842 80.5837C237.842 82.3256 236.459 83.7373 234.754 83.7373Z" fill="white"/>
<path d="M233.701 77.1301C233.701 77.1301 233.232 72.8605 233.889 71.3124C234.062 70.9027 236.234 70.7963 236.366 71.7325C236.402 71.9828 236.469 76.9423 236.328 77.0362C236.187 77.1301 233.701 77.1301 233.701 77.1301Z" fill="white"/>
<path d="M236.252 83.6953C236.252 83.6953 236.72 87.9649 236.064 89.513C235.89 89.9227 233.718 90.0291 233.586 89.0929C233.55 88.8426 233.483 83.8831 233.624 83.7892C233.765 83.6953 236.252 83.6953 236.252 83.6953Z" fill="white"/>
<path d="M236.116 77.1899C236.116 77.1899 238.803 73.8389 240.362 73.2085C240.775 73.0416 242.385 74.5023 241.817 75.2581C241.665 75.4599 238.206 79.0142 238.04 78.9812C237.874 78.9483 236.116 77.1899 236.116 77.1899Z" fill="white"/>
<path d="M233.278 83.6363C233.278 83.6363 230.591 86.9873 229.032 87.6177C228.619 87.7846 227.009 86.3239 227.577 85.5681C227.729 85.3663 231.188 81.812 231.354 81.845C231.52 81.8779 233.278 83.6363 233.278 83.6363Z" fill="white"/>
<path d="M238.188 81.832C238.188 81.832 241.538 84.5191 242.168 86.0787C242.335 86.4913 240.875 88.1024 240.119 87.5339C239.917 87.382 236.364 83.9221 236.396 83.7563C236.429 83.5904 238.188 81.832 238.188 81.832Z" fill="white"/>
<path d="M231.742 78.9939C231.742 78.9939 228.392 76.3068 227.761 74.7472C227.594 74.3346 229.055 72.7235 229.811 73.292C230.012 73.4439 233.566 76.9037 233.533 77.0696C233.5 77.2354 231.742 78.9939 231.742 78.9939Z" fill="white"/>
<path d="M231.527 81.8911C231.527 81.8911 227.258 82.3602 225.71 81.7033C225.301 81.5295 225.195 79.3574 226.131 79.225C226.381 79.1896 231.339 79.1226 231.433 79.2635C231.527 79.4044 231.527 81.8911 231.527 81.8911Z" fill="white"/>
<path d="M237.84 79.34C237.84 79.34 242.109 78.8709 243.657 79.5278C244.066 79.7017 244.172 81.8737 243.236 82.0061C242.986 82.0416 238.028 82.1085 237.934 81.9676C237.84 81.8268 237.84 79.34 237.84 79.34Z" fill="white"/>
<path d="M276 91.2817C275.77 91.2817 275.563 91.1218 275.512 90.8876L272.852 78.5902C272.807 78.3819 272.899 78.1681 273.081 78.0577C273.868 77.5796 280.741 73.4434 282.773 73.4434C282.803 73.4434 282.831 73.4444 282.859 73.4459C283.317 73.4753 283.836 73.5083 286.31 86.2158C286.362 86.4865 286.186 86.7488 285.915 86.8013C285.644 86.8532 285.383 86.6774 285.33 86.4061C284.474 82.0091 283.105 75.6489 282.583 74.452C281.133 74.6358 276.699 77.0491 273.903 78.7276L276.489 90.6758C276.547 90.9455 276.375 91.2113 276.106 91.2697C276.071 91.2777 276.035 91.2817 276 91.2817Z" fill="#3940A0"/>
<path d="M275.534 89.3201C275.534 89.3201 276.908 87.3054 278.984 88.5098C280.683 89.4964 278.831 92.0826 276.599 91.8878C273.877 91.6505 275.534 89.3201 275.534 89.3201Z" fill="#3940A0"/>
<path d="M285.315 84.8582C285.315 84.8582 286.689 82.8435 288.764 84.0479C290.465 85.0345 288.612 87.6207 286.379 87.4259C283.657 87.1886 285.315 84.8582 285.315 84.8582Z" fill="#3940A0"/>
<path d="M262.425 78.6002C262.363 78.6002 262.299 78.5882 262.237 78.5632C261.981 78.4593 261.859 78.1676 261.963 77.9123C263.434 74.2991 264.955 70.2723 265.18 69.2242C264.145 68.7921 260.613 68.4839 258.051 68.3815L254.737 77.0311C254.639 77.2889 254.349 77.4178 254.092 77.3189C253.835 77.2205 253.706 76.9312 253.805 76.6735L257.247 67.6906C257.322 67.4918 257.515 67.3579 257.73 67.3699C258.901 67.4093 264.804 67.6496 265.983 68.5338C266.343 68.8046 266.654 69.0379 262.888 78.289C262.81 78.4828 262.623 78.6002 262.425 78.6002Z" fill="#3940A0"/>
<path d="M254.584 75.7213C254.584 75.7213 256.306 75.007 257.131 76.646C257.806 77.9888 255.538 78.8685 254.191 77.81C252.549 76.5191 254.584 75.7213 254.584 75.7213Z" fill="#3940A0"/>
<path d="M262.71 76.9587C262.71 76.9587 264.432 76.2443 265.256 77.8833C265.932 79.2261 263.664 80.1058 262.317 79.0473C260.674 77.7564 262.71 76.9587 262.71 76.9587Z" fill="#3940A0"/>
<path d="M263.553 120.465L254.004 137.013C254.004 137.013 275.479 150.317 276.523 151.083C277.567 151.848 287.259 136.009 286.979 135.078C286.699 134.147 263.553 120.465 263.553 120.465Z" fill="#D5A168"/>
<path d="M269.553 139.688C269.453 139.688 269.379 139.679 269.334 139.66C268.403 139.277 264.812 126.154 263.311 120.529L263.794 120.4C265.651 127.36 268.856 138.622 269.551 139.213C270.314 139.391 280.607 136.63 286.91 134.838L287.046 135.318C284.387 136.075 271.577 139.688 269.553 139.688Z" fill="#3940A0"/>
<path d="M254.061 137.257L253.948 136.77C255.867 136.325 267.106 133.426 267.219 133.396L267.344 133.881C267.231 133.91 255.986 136.81 254.061 137.257Z" fill="#3940A0"/>
<path d="M276.275 151.119C275.58 146.273 274.498 138.918 274.367 138.517L274.598 138.442L274.532 138.177L274.734 138.212C274.854 138.294 274.95 138.358 276.77 151.047L276.275 151.119Z" fill="#3940A0"/>
<path d="M29.1224 182.498L28.7039 182.226C28.7039 182.226 28.9526 181.843 29.4221 181.192L29.8276 181.485C29.3681 182.121 29.1244 182.496 29.1224 182.498Z" fill="#3940A0"/>
<path d="M92.5369 221.156C91.7083 221.131 90.8607 221.079 90.0166 221L90.0635 220.503C90.8966 220.581 91.7342 220.633 92.5523 220.657L92.5369 221.156ZM95.0616 221.15L95.0441 220.651C95.8692 220.621 96.7053 220.564 97.529 220.479L97.5804 220.976C96.7453 221.062 95.8977 221.12 95.0616 221.15ZM87.5113 220.689C86.6922 220.562 85.8571 220.41 85.029 220.235L85.1324 219.746C85.9515 219.92 86.7776 220.07 87.5877 220.195L87.5113 220.689ZM100.082 220.63L99.9968 220.138C100.809 219.998 101.63 219.827 102.436 219.63L102.554 220.115C101.736 220.315 100.905 220.488 100.082 220.63ZM82.5741 219.642C81.7286 219.403 80.9209 219.131 80.1732 218.833L80.3585 218.368C81.0897 218.661 81.8809 218.927 82.71 219.161L82.5741 219.642ZM104.986 219.438L104.837 218.961C105.609 218.719 106.402 218.444 107.193 218.143L107.37 218.609C106.57 218.914 105.768 219.193 104.986 219.438ZM77.8807 217.739C77.1185 217.307 76.4103 216.824 75.777 216.304L76.0942 215.918C76.7055 216.42 77.3898 216.886 78.1275 217.304L77.8807 217.739ZM109.702 217.644L109.498 217.187C110.231 216.862 110.99 216.501 111.756 216.116L111.98 216.563C111.208 216.951 110.441 217.314 109.702 217.644ZM114.209 215.389L113.97 214.951C114.726 214.536 115.453 214.123 116.153 213.721L116.402 214.154C115.699 214.558 114.969 214.973 114.209 215.389ZM73.9729 214.498C73.4405 213.845 72.969 213.127 72.571 212.364L73.014 212.133C73.3961 212.866 73.8491 213.556 74.36 214.183L73.9729 214.498ZM118.575 212.898L118.326 212.465C119.243 211.938 119.923 211.562 120.531 211.243L120.763 211.685C120.161 212.001 119.487 212.375 118.575 212.898ZM123.013 210.642L122.834 210.176C123.772 209.816 124.59 209.619 125.333 209.572L125.364 210.071C124.672 210.114 123.903 210.301 123.013 210.642ZM71.6055 210.004C71.3663 209.237 71.1715 208.403 71.0276 207.528L71.5201 207.447C71.6604 208.3 71.8498 209.11 72.0825 209.856L71.6055 210.004ZM70.7499 205.009C70.7075 204.325 70.6855 203.588 70.6855 202.821L70.6865 202.482L71.186 202.486L71.185 202.821C71.185 203.578 71.2059 204.304 71.2484 204.977L70.7499 205.009ZM71.2679 199.989L70.7689 199.962C70.8094 199.211 70.8653 198.39 70.9407 197.45L71.4387 197.49C71.3633 198.425 71.3078 199.242 71.2679 199.989ZM71.656 194.991L71.1585 194.946L71.2014 194.472C71.2629 193.798 71.3243 193.122 71.3828 192.445L71.8802 192.488C71.8218 193.165 71.7603 193.842 71.6989 194.517L71.656 194.991ZM72.076 189.981L71.5775 189.948C71.639 189.039 71.6809 188.222 71.7069 187.449L72.2059 187.465C72.1799 188.244 72.1369 189.066 72.076 189.981ZM71.7299 184.952C71.7144 184.082 71.6719 183.244 71.603 182.463L72.1005 182.419C72.1704 183.212 72.2139 184.062 72.2293 184.943L71.7299 184.952ZM71.2749 179.999C71.1205 179.158 70.9242 178.348 70.691 177.59L71.1685 177.443C71.4072 178.22 71.6085 179.05 71.7658 179.909L71.2749 179.999ZM31.3381 179.496L30.9475 179.185C31.4669 178.534 32.0104 177.882 32.5643 177.247L32.9409 177.574C32.3919 178.205 31.8525 178.851 31.3381 179.496ZM34.626 175.727L34.2644 175.382C34.8533 174.765 35.4541 174.165 36.0505 173.598L36.3941 173.961C35.8043 174.522 35.2089 175.116 34.626 175.727ZM69.8045 175.282C69.4513 174.53 69.0423 173.808 68.5878 173.134L69.0018 172.855C69.4703 173.55 69.8924 174.294 70.2565 175.069L69.8045 175.282ZM38.2501 172.288L37.9265 171.908C38.5808 171.35 39.244 170.818 39.8973 170.327L40.1975 170.726C39.5517 171.211 38.8969 171.736 38.2501 172.288ZM67.0519 171.206C66.503 170.616 65.8932 170.052 65.2394 169.528L65.5516 169.138C66.2243 169.678 66.8522 170.259 67.417 170.865L67.0519 171.206ZM42.2388 169.297L41.9676 168.878C42.6913 168.409 43.424 167.976 44.1452 167.589L44.3815 168.029C43.6722 168.41 42.9515 168.836 42.2388 169.297ZM63.2116 168.106C62.9214 167.928 62.6217 167.754 62.3126 167.584C61.887 167.349 61.455 167.131 61.0285 166.936L61.2362 166.481C61.6743 166.682 62.1173 166.906 62.5538 167.146C62.87 167.32 63.1771 167.499 63.4738 167.681L63.2116 168.106ZM46.6245 166.959L46.4318 166.498C47.2284 166.165 48.0325 165.879 48.8222 165.649L48.962 166.129C48.1904 166.354 47.4037 166.633 46.6245 166.959ZM58.714 166.064C57.9208 165.828 57.1092 165.651 56.3011 165.537L56.3705 165.043C57.2031 165.16 58.0397 165.342 58.8568 165.585L58.714 166.064ZM51.3754 165.587L51.2985 165.094C52.1441 164.961 52.9961 164.89 53.8312 164.88L53.8372 165.379C53.0261 165.389 52.198 165.459 51.3754 165.587Z" fill="#3940A0"/>
<path d="M128.635 211.325C128.335 211.031 128.02 210.787 127.699 210.599L127.952 210.168C128.308 210.377 128.655 210.646 128.984 210.968L128.635 211.325Z" fill="#3940A0"/>
<path d="M49.3764 45.0245C49.3664 44.986 49.1286 44.0693 48.8834 42.5492L49.3764 42.4698C49.6171 43.9639 49.8568 44.8891 49.8593 44.8981L49.3764 45.0245ZM48.5607 40.056C48.4778 39.2152 48.4209 38.371 48.3919 37.5477L48.8909 37.5303C48.9199 38.3435 48.9758 39.1768 49.0577 40.007L48.5607 40.056ZM48.8869 35.048L48.3879 35.0315C48.4164 34.1763 48.4768 33.3311 48.5677 32.5193L49.0642 32.5747C48.9748 33.374 48.9154 34.2058 48.8869 35.048ZM49.4478 30.1295L48.9588 30.0295C49.1311 29.1873 49.3439 28.3666 49.5906 27.5888L50.0666 27.7401C49.8244 28.5009 49.6161 29.3047 49.4478 30.1295ZM98.9592 28.4225C98.5696 28.4225 98.1821 28.4 97.8075 28.3561L97.8654 27.86C98.221 27.9015 98.5891 27.923 98.9587 27.923C98.9607 27.923 98.9627 27.923 98.9647 27.923C99.3942 27.923 99.8413 27.895 100.294 27.8395L100.355 28.3351C99.8817 28.393 99.4142 28.4225 98.9647 28.4225C98.9632 28.4225 98.9612 28.4225 98.9592 28.4225ZM102.834 27.8051L102.692 27.326C103.425 27.1082 104.206 26.825 105.012 26.4843L105.206 26.9443C104.383 27.292 103.585 27.5818 102.834 27.8051ZM95.3416 27.7176C94.6059 27.4169 93.8782 27.0178 93.117 26.4963L93.3987 26.0841C94.1304 26.5852 94.8277 26.9683 95.5304 27.2551L95.3416 27.7176ZM107.481 25.8718L107.252 25.4277C107.946 25.0695 108.677 24.6654 109.425 24.2263L109.678 24.6569C108.922 25.101 108.184 25.5096 107.481 25.8718ZM50.9517 25.4387L50.4977 25.2304C50.8548 24.4521 51.2618 23.7048 51.7078 23.0089L52.1284 23.2787C51.6949 23.9551 51.2988 24.6819 50.9517 25.4387ZM91.1322 24.9407C90.5548 24.4421 89.9864 23.9206 89.3846 23.3691L89.2707 23.2647L89.6083 22.8965L89.7222 23.0009C90.3211 23.5504 90.8869 24.0689 91.4583 24.5625L91.1322 24.9407ZM111.812 23.3421L111.542 22.922C111.903 22.6897 112.271 22.4484 112.646 22.1976L112.924 22.6128C112.547 22.8655 112.176 23.1083 111.812 23.3421ZM87.4177 21.6022C86.7354 21.0127 86.1051 20.5032 85.4903 20.0441L85.7895 19.644C86.4138 20.11 87.0531 20.6266 87.7443 21.224L87.4177 21.6022ZM53.6058 21.3184L53.2317 20.9877C53.7896 20.3563 54.4019 19.7643 55.0522 19.2283L55.3699 19.6135C54.7401 20.133 54.1462 20.7065 53.6058 21.3184ZM83.444 18.6608C82.7353 18.2322 82.0031 17.8426 81.2679 17.5024L81.4776 17.0493C82.2293 17.397 82.9775 17.7956 83.7027 18.2337L83.444 18.6608ZM57.3777 18.2028L57.122 17.7737C57.8297 17.3525 58.5889 16.9699 59.379 16.6377L59.5728 17.0983C58.8037 17.4215 58.065 17.7936 57.3777 18.2028ZM78.9768 16.5947C78.2127 16.34 77.413 16.1192 76.5999 15.9388L76.7083 15.4508C77.5379 15.6351 78.354 15.8604 79.1347 16.1206L78.9768 16.5947ZM61.8968 16.2845L61.76 15.8039C62.5411 15.5811 63.3672 15.3913 64.2148 15.2409L64.3022 15.7325C63.4711 15.8799 62.662 16.0657 61.8968 16.2845ZM74.167 15.5177C73.3754 15.4168 72.5463 15.3459 71.7042 15.3059L71.7277 14.8068C72.5833 14.8473 73.4253 14.9197 74.23 15.0221L74.167 15.5177ZM66.7521 15.4078L66.7071 14.9102C67.277 14.8588 67.8674 14.8208 68.4622 14.7983C68.7169 14.7884 68.9687 14.7809 69.2174 14.7764L69.2274 15.2759C68.9822 15.2809 68.7334 15.2879 68.4817 15.2974C67.8953 15.3194 67.3135 15.3568 66.7521 15.4078Z" fill="#3940A0"/>
<path d="M259.16 163.053L254.592 194.954L294.778 201.673L300.089 169.896C292.247 168.585 259.16 163.053 259.16 163.053Z" fill="#3940A0"/>
<path d="M261.931 166.725L258.445 191.47L292.647 197.189L297.191 172.62C286.344 170.806 261.931 166.725 261.931 166.725Z" fill="white"/>
<path d="M263.979 190.102C263.979 190.102 264.744 180.471 265.008 180.335C265.272 180.2 269.713 181.091 269.713 181.091C269.713 181.091 268.923 190.869 268.561 190.868C268.199 190.867 263.979 190.102 263.979 190.102Z" fill="#C8423E"/>
<path d="M276.788 192.228C276.788 192.228 278.505 176.896 278.787 176.656C279.068 176.416 283.494 177.394 283.494 177.394C283.494 177.394 281.738 192.96 281.369 192.994C281.001 193.028 276.788 192.228 276.788 192.228Z" fill="#87BECA"/>
<path d="M270.56 191.194C270.56 191.194 271.824 178.571 272.097 178.38C272.371 178.19 276.803 179.126 276.803 179.126C276.803 179.126 275.507 191.942 275.141 191.96C274.776 191.978 270.56 191.194 270.56 191.194Z" fill="#D5A168"/>
<path d="M283.596 193.356C283.596 193.356 285.944 174.248 286.238 173.939C286.531 173.629 290.947 174.664 290.947 174.664C290.947 174.664 288.55 194.064 288.178 194.122C287.806 194.179 283.596 193.356 283.596 193.356Z" fill="#3940A0"/>
<path d="M113.938 7.33887L118.894 12.2584L115.168 20.474L120.27 19.1247L120.533 24.5773L140.081 10.5335L113.938 7.33887Z" fill="#87BECA"/>
<path d="M139.508 10.4559L118.881 12.0117L118.918 12.5099L139.546 10.954L139.508 10.4559Z" fill="#3940A0"/>
<path d="M120.524 15.7347L115.007 20.2764L115.324 20.6621L120.841 16.1204L120.524 15.7347Z" fill="#3940A0"/>
<path d="M139.462 10.4637L120.626 15.6934L120.76 16.1747L139.595 10.945L139.462 10.4637Z" fill="#3940A0"/>
<path d="M120.435 15.905L120.017 19.0957L120.513 19.1606L120.931 15.9699L120.435 15.905Z" fill="#3940A0"/>
<path d="M139.114 202.574L139.589 209.541L131.367 213.251L136.09 215.607L132.687 219.876L156.64 222.237L139.114 202.574Z" fill="#D5A168"/>
<path d="M139.74 209.337L139.439 209.736L155.957 222.191L156.258 221.792L139.74 209.337Z" fill="#3940A0"/>
<path d="M131.389 213.003L131.373 213.503L138.515 213.737L138.532 213.238L131.389 213.003Z" fill="#3940A0"/>
<path d="M138.635 213.264L138.417 213.714L156.015 222.226L156.233 221.776L138.635 213.264Z" fill="#3940A0"/>
<path d="M138.35 213.303L135.931 215.425L136.26 215.8L138.679 213.679L138.35 213.303Z" fill="#3940A0"/>
<path d="M281.608 93.9707L281.134 100.938L289.356 104.648L284.633 107.004L288.035 111.272L264.083 113.634L281.608 93.9707Z" fill="#CA4D4F"/>
<path d="M280.983 100.728L264.459 113.175L264.759 113.574L281.283 101.127L280.983 100.728Z" fill="#3940A0"/>
<path d="M289.33 104.397L282.188 104.635L282.205 105.134L289.347 104.897L289.33 104.397Z" fill="#3940A0"/>
<path d="M282.107 104.642L264.51 113.156L264.728 113.606L282.324 105.092L282.107 104.642Z" fill="#3940A0"/>
<path d="M282.386 104.697L282.056 105.073L284.476 107.195L284.805 106.819L282.386 104.697Z" fill="#3940A0"/>
<path d="M243.239 209.542C247.585 209.542 251.108 206.019 251.108 201.673C251.108 197.326 247.585 193.803 243.239 193.803C238.893 193.803 235.371 197.326 235.371 201.673C235.371 206.019 238.893 209.542 243.239 209.542Z" fill="#D5A168"/>
<path d="M240.921 198.795L240.47 199.01L242.259 202.759L242.71 202.544L240.921 198.795Z" fill="#3940A0"/>
<path d="M243.256 197.68L242.805 197.896L244.594 201.645L245.045 201.43L243.256 197.68Z" fill="#3940A0"/>
<path d="M243.713 206.273C241.064 206.273 239.697 203.402 239.682 203.368L240.134 203.158C240.202 203.303 241.826 206.688 244.982 205.535C245.891 205.204 246.504 204.665 246.804 203.933C247.408 202.46 246.566 200.656 246.558 200.638L247.008 200.423C247.047 200.504 247.953 202.439 247.267 204.119C246.913 204.987 246.201 205.622 245.153 206.004C244.637 206.193 244.157 206.273 243.713 206.273Z" fill="#3940A0"/>
<path d="M7.03971 68.1309C7.03971 68.1309 38.4257 55.9864 40.2133 57.582C42.0009 59.1776 58.3851 108.767 57.0596 109.729C55.734 110.691 26.0142 120.778 24.0488 121.138C22.0834 121.498 4.4685 69.1136 7.03971 68.1309Z" fill="white"/>
<path d="M11.1503 69.3054C11.1503 69.3054 35.5244 60.0218 36.9044 61.2212C38.2849 62.4206 50.8194 99.8392 49.788 100.571C48.7566 101.302 25.6821 109.025 24.1572 109.304C22.6324 109.583 9.15346 70.0567 11.1503 69.3054Z" fill="#3940A0"/>
<path d="M39.0555 112.628C40.8769 112.628 42.3534 111.151 42.3534 109.33C42.3534 107.508 40.8769 106.031 39.0555 106.031C37.2341 106.031 35.7576 107.508 35.7576 109.33C35.7576 111.151 37.2341 112.628 39.0555 112.628Z" fill="#798B97"/>
<path d="M14.2209 73.3324C14.2209 73.3324 27.7872 68.0482 28.7862 68.1731C29.7851 68.298 30.6377 71.9197 30.3989 72.2943C30.1597 72.669 15.8002 77.2269 15.3008 77.3832C14.8013 77.5396 13.226 73.7175 14.2209 73.3324Z" fill="#87BECA"/>
<path d="M28.8402 90.4556C28.8402 90.4556 42.927 85.1204 43.9259 85.2453C44.9248 85.3702 45.8009 88.8321 45.5616 89.2067C45.3224 89.5814 31.2701 94.6373 30.3561 94.6328C29.8327 94.6303 27.8453 90.8408 28.8402 90.4556Z" fill="#87BECA"/>
<path d="M15.8002 78.9737C15.8002 78.9737 25.1651 75.6666 26.164 75.7915C27.1629 75.9164 28.1444 78.9287 27.9051 79.3034C27.6659 79.678 17.9229 82.6573 17.4235 82.8137C16.924 82.97 15.2873 79.3029 15.8002 78.9737Z" fill="#87BECA"/>
<path d="M34.9839 94.5902C34.9839 94.5902 44.8282 91.1098 45.8272 91.2347C46.8261 91.3596 47.8075 94.3719 47.5683 94.7465C47.329 95.1212 37.6096 98.2619 35.7571 98.7529C35.2511 98.8873 33.989 94.9758 34.9839 94.5902Z" fill="#87BECA"/>
<path d="M18.2981 84.8018C18.2981 84.8018 27.6629 81.4948 28.6618 81.6197C29.6608 81.7445 30.6422 84.7568 30.403 85.1315C30.1637 85.5061 19.9213 88.6418 19.4218 88.7982C18.9224 88.9545 17.3031 85.1869 18.2981 84.8018Z" fill="#87BECA"/>
<path d="M43.7469 49.2796C43.7469 49.2796 32.153 44.8901 27.3716 55.1638C23.5328 63.4123 29.0643 70.333 37.3219 72.6669C36.3384 73.8828 35.0893 75.4854 35.0179 75.866C34.8985 76.498 45.9176 75.7152 49.4258 71.1883C49.4263 71.1873 49.4268 71.1868 49.4273 71.1858C55.0352 65.9935 55.3923 53.5787 43.7469 49.2796Z" fill="white"/>
<path d="M38.0562 67.5788C38.0562 67.5788 32.3459 55.23 36.2576 53.7109C40.1699 52.1917 40.6394 60.0361 40.6394 60.0361C40.6394 60.0361 43.3555 54.617 45.4817 55.168C50.1042 56.3655 43.4748 64.9637 38.0562 67.5788Z" fill="#CA4D4F"/>
<path d="M153.54 52.843C153.54 52.843 155.241 48.5494 153.714 42.7851C152.306 37.4715 151.011 27.1963 161.629 25.1766C172.248 23.1569 174.521 33.0165 173.206 38.6579C172.048 43.6274 165.142 51.4258 164.622 55.4192L153.54 52.843Z" fill="#D5A168"/>
<path d="M153.133 49.7444C153.133 49.7444 166.26 52.308 166.261 52.7966C166.262 53.2847 165.139 60.5726 164.363 60.9637C163.586 61.3549 151.594 58.3381 151.235 57.9115C150.877 57.4849 152.066 49.5331 153.133 49.7444Z" fill="#3940A0"/>
<path d="M155.539 55.2137C155.539 55.2137 161.583 56.2173 161.544 56.6099C161.505 57.0026 160.383 62.9572 159.982 63.3343C159.58 63.7115 154.112 62.2523 153.976 61.9381C153.84 61.6239 155.047 55.1303 155.539 55.2137Z" fill="#3940A0"/>
<path d="M162.217 52.8523C161.908 51.7738 163.43 48.9478 165.191 45.6758C166.985 42.3428 169.218 38.1941 168.651 36.9812C168.386 36.4147 168.109 36.4616 168.019 36.4771C167.689 36.5316 167.314 36.8907 166.991 37.3643C167.567 38.3609 167.632 39.4334 167.322 39.9884C167.088 40.4071 166.672 40.5444 166.212 40.3581C165.993 40.2697 165.64 40.0004 165.73 39.1897C165.789 38.6601 166.043 37.9708 166.403 37.3653C166.181 37.0461 165.895 36.7409 165.539 36.4801C165.144 36.1904 164.753 36.1389 164.373 36.3248C164.178 36.4207 163.992 36.578 163.825 36.7773C164.513 38.7026 164.805 39.97 164.331 40.3791C164.108 40.5709 163.784 40.5504 163.367 40.3191C162.858 40.0374 162.59 39.4574 162.609 38.6866C162.625 38.0467 162.861 37.2859 163.264 36.6939C163.205 36.5316 163.142 36.3612 163.076 36.1834C162.991 35.9576 162.849 35.8467 162.63 35.8337C162.179 35.8107 161.501 36.1949 160.933 36.7409C161.052 37.155 161.108 37.5856 161.112 37.9773C161.12 38.7161 160.951 39.5688 160.453 39.7472C160.267 39.8141 159.978 39.8106 159.657 39.412C159.292 38.9579 159.296 38.307 159.671 37.5796C159.84 37.2504 160.082 36.9137 160.366 36.6045C160.16 36.059 159.812 35.5949 159.278 35.4161C159.229 35.4001 159.171 35.3931 159.086 35.4515C158.087 36.1439 157.299 41.8517 156.979 50.7192C156.973 50.8761 156.969 50.978 156.967 51.0164L156.469 50.9895L156.479 50.7007C156.717 44.1262 157.313 36.0725 158.801 35.0404C158.999 34.9035 159.218 34.8686 159.436 34.9415C160.06 35.1503 160.482 35.6429 160.747 36.2283C161.355 35.6838 162.073 35.3002 162.658 35.3342C163.075 35.3586 163.389 35.5974 163.542 36.0075C163.573 36.089 163.603 36.1694 163.633 36.2488C163.79 36.0955 163.965 35.9676 164.152 35.8757C164.538 35.6868 165.142 35.5674 165.834 36.0765C166.178 36.3287 166.464 36.6175 166.696 36.9222C167.065 36.4282 167.5 36.0545 167.936 35.9831C168.275 35.9271 168.751 36.0185 169.102 36.7684C169.775 38.209 167.761 41.9502 165.629 45.9111C164.063 48.8214 162.443 51.8307 162.696 52.7134L162.217 52.8523ZM163.48 37.3049C163.261 37.727 163.121 38.2235 163.11 38.6996C163.101 39.0328 163.155 39.6303 163.61 39.883C163.875 40.0299 163.988 40.0184 164.005 40.0014C164.153 39.8735 164.159 39.2816 163.48 37.3049ZM166.695 37.8614C166.451 38.3259 166.273 38.8305 166.227 39.2451C166.208 39.412 166.188 39.8101 166.4 39.8955C166.626 39.9874 166.778 39.9415 166.886 39.7457C167.102 39.358 167.059 38.6107 166.695 37.8614ZM160.531 37.1825C160.368 37.3843 160.226 37.5961 160.116 37.8089C159.919 38.1921 159.747 38.7266 160.048 39.0997C160.17 39.2511 160.259 39.2881 160.286 39.2781C160.401 39.2366 160.623 38.8015 160.614 37.9838C160.611 37.7285 160.585 37.4537 160.531 37.1825Z" fill="#3940A0"/>
<path d="M180.185 24.37L176.094 27.0566L176.368 27.4742L180.459 24.7875L180.185 24.37Z" fill="#3940A0"/>
<path d="M183.243 31.7407L178.364 32.1328L178.404 32.6308L183.283 32.2386L183.243 31.7407Z" fill="#3940A0"/>
<path d="M178.151 37.2589L177.984 37.7295L182.595 39.372L182.763 38.9013L178.151 37.2589Z" fill="#3940A0"/>
<path d="M177.667 43.3724L177.507 43.8457L182.145 45.4113L182.304 44.938L177.667 43.3724Z" fill="#3940A0"/>
<path d="M175.175 47.5422L174.866 47.9346L178.715 50.96L179.023 50.5677L175.175 47.5422Z" fill="#3940A0"/>
<path d="M171.752 51.8819L171.296 52.085L173.285 56.558L173.742 56.355L171.752 51.8819Z" fill="#3940A0"/>
<path d="M174.891 19.4421L172.438 23.6787L172.87 23.929L175.323 19.6924L174.891 19.4421Z" fill="#3940A0"/>
<path d="M155.347 18.2287L154.906 18.4619L157.191 22.7911L157.633 22.5578L155.347 18.2287Z" fill="#3940A0"/>
<path d="M149.113 23.232L148.838 23.6484L152.923 26.3467L153.198 25.9303L149.113 23.232Z" fill="#3940A0"/>
<path d="M146.088 29.7374L146.007 30.2305L150.839 31.0168L150.919 30.5237L146.088 29.7374Z" fill="#3940A0"/>
<path d="M143.565 35.2369L143.477 35.7285L148.294 36.595L148.382 36.1034L143.565 35.2369Z" fill="#3940A0"/>
<path d="M148.583 40.9511L143.752 41.7451L143.833 42.2381L148.664 41.444L148.583 40.9511Z" fill="#3940A0"/>
<path d="M149.465 46.4073L145.565 49.3662L145.867 49.7642L149.767 46.8053L149.465 46.4073Z" fill="#3940A0"/>
<path d="M162.379 16.4835L161.879 16.4941L161.983 21.3892L162.483 21.3786L162.379 16.4835Z" fill="#3940A0"/>
<path d="M167.754 16.5024L167.172 21.167L167.667 21.2289L168.25 16.5644L167.754 16.5024Z" fill="#3940A0"/>
<path d="M112.535 92.4156C117.611 92.4156 121.727 88.2997 121.727 83.2225C121.727 78.1452 117.611 74.0293 112.535 74.0293C107.459 74.0293 103.344 78.1452 103.344 83.2225C103.344 88.2997 107.459 92.4156 112.535 92.4156Z" fill="white"/>
<path d="M112.562 84.8628L107.883 79.7084L108.252 79.3732L112.508 84.06L116.323 78.5205L116.734 78.8038L112.562 84.8628Z" fill="#3940A0"/>
<path d="M112.535 95.5229C105.607 95.5229 99.9702 89.8855 99.9702 82.9558C99.9702 76.0261 105.607 70.3887 112.535 70.3887C119.464 70.3887 125.1 76.0266 125.1 82.9558C125.1 89.885 119.463 95.5229 112.535 95.5229ZM112.535 70.8882C105.882 70.8882 100.47 76.3018 100.47 82.9558C100.47 89.6098 105.882 95.0234 112.535 95.0234C119.188 95.0234 124.601 89.6103 124.601 82.9558C124.601 76.3013 119.188 70.8882 112.535 70.8882Z" fill="#3940A0"/>
<path d="M182.588 82.9249C182.588 82.9249 177.162 71.171 179.897 69.4831C182.632 67.7951 184.202 75.4606 184.202 75.4606C184.202 75.4606 187.176 68.2826 189.798 71.8299C191.578 74.2367 182.588 82.9249 182.588 82.9249Z" fill="white"/>
<path d="M84.7581 207.085C84.7581 207.085 73.4009 200.873 74.5931 197.888C75.7853 194.904 81.6115 200.126 81.6115 200.126C81.6115 200.126 79.727 192.589 83.9459 193.877C86.8084 194.751 84.7581 207.085 84.7581 207.085Z" fill="white"/>
<path d="M64.3171 82.9202L63.9175 80.1572L66.1401 81.6783L68.1779 80.1572L67.5121 82.8093L69.5095 84.1816L67.0721 84.6207L65.8859 87.2288L64.9824 84.6207H62.4531L64.3171 82.9202Z" fill="white"/>
<path d="M76.517 173.023L76.118 170.26L78.3406 171.781L80.3784 170.26L79.7126 172.912L81.7094 174.284L79.2726 174.723L78.0858 177.331L77.1828 174.723H74.6536L76.517 173.023Z" fill="white"/>
<path d="M256.345 148.371L258.858 147.156L258.08 149.735L260.145 151.218L257.416 151.384L256.711 153.702L255.556 151.511L252.712 151.168L254.926 149.519L254.162 147.107L256.345 148.371Z" fill="white"/>
<path d="M134.632 39.5383L137.144 38.3234L136.366 40.902L138.431 42.3852L135.702 42.5515L134.997 44.8699L133.842 42.6789L130.998 42.3352L133.212 40.6862L132.448 38.2744L134.632 39.5383Z" fill="white"/>
<path d="M293.461 101.475L293.101 101.128C293.449 100.767 293.788 100.393 294.109 100.015L294.49 100.338C294.162 100.724 293.816 101.106 293.461 101.475ZM296.022 98.3345L295.609 98.0527C296.075 97.3713 296.507 96.6615 296.892 95.9426L297.332 96.1789C296.938 96.9133 296.497 97.6386 296.022 98.3345ZM298.399 93.8905L297.934 93.7052C298.239 92.9428 298.502 92.1556 298.717 91.3648L299.199 91.4962C298.979 92.3049 298.71 93.1107 298.399 93.8905ZM299.722 89.0269L299.229 88.9515C299.352 88.1462 299.433 87.3194 299.468 86.4942L299.967 86.5152C299.931 87.3589 299.849 88.2041 299.722 89.0269ZM299.442 84.0244C299.392 83.2162 299.3 82.3894 299.169 81.5672L299.663 81.4887C299.796 82.3265 299.889 83.1692 299.941 83.9935L299.442 84.0244ZM298.672 79.1439C298.475 78.3606 298.24 77.5608 297.973 76.7675L298.446 76.6081C298.717 77.4139 298.956 78.2262 299.157 79.022L298.672 79.1439ZM297.097 74.4476C296.788 73.7053 296.441 72.9455 296.068 72.1902L296.515 71.9689C296.893 72.7337 297.244 73.503 297.558 74.2553L297.097 74.4476ZM294.905 69.9966C294.51 69.2973 294.081 68.5804 293.628 67.8656L294.05 67.5983C294.507 68.3197 294.941 69.044 295.34 69.7509L294.905 69.9966ZM292.25 65.7964C291.788 65.135 291.296 64.4586 290.785 63.7868L291.183 63.485C291.697 64.1619 292.194 64.8438 292.66 65.5107L292.25 65.7964ZM289.243 61.8335L289.132 61.6982C288.64 61.1002 288.128 60.5197 287.609 59.9722L287.971 59.6285C288.498 60.1845 289.019 60.7735 289.518 61.3809L289.631 61.5188L289.243 61.8335ZM256.573 61.5718C256.481 61.5718 256.388 61.5643 256.295 61.5493L256.376 61.0562C257.128 61.1811 257.797 60.5302 258.191 59.9882L258.595 60.2819C257.981 61.1257 257.282 61.5718 256.573 61.5718ZM254.275 59.8423C254.085 59.4662 253.989 59.0625 253.988 58.6439C253.988 58.1828 254.105 57.7038 254.335 57.2197L254.786 57.4345C254.588 57.8506 254.487 58.2578 254.487 58.6434C254.488 58.9836 254.566 59.3113 254.72 59.618L254.275 59.8423ZM285.834 58.2463C285.215 57.6923 284.57 57.1648 283.92 56.6782L284.219 56.2781C284.881 56.7731 285.537 57.3096 286.167 57.8736L285.834 58.2463ZM259.735 57.9875L259.264 57.8222C259.515 57.1068 259.725 56.307 259.889 55.4438L260.379 55.5372C260.211 56.4244 259.994 57.2487 259.735 57.9875ZM256.276 55.5777L255.945 55.203C256.533 54.6845 257.233 54.193 258.028 53.7414L258.275 54.1755C257.51 54.6106 256.837 55.0821 256.276 55.5777ZM281.873 55.29C281.169 54.8589 280.44 54.4592 279.705 54.102L279.924 53.6529C280.673 54.0171 281.416 54.4247 282.134 54.8643L281.873 55.29ZM277.433 53.1319C276.661 52.8472 275.867 52.5984 275.074 52.3926L275.2 51.909C276.009 52.1188 276.818 52.3726 277.605 52.6633L277.433 53.1319ZM260.498 53.1234L260.455 53.0145L260.208 52.995C260.258 52.3561 260.283 51.6962 260.283 51.0338C260.283 50.8645 260.281 50.6936 260.278 50.5228L260.777 50.5128C260.781 50.6876 260.782 50.861 260.782 51.0338C260.782 51.5254 260.769 52.0154 260.742 52.497C261.378 52.2642 262.042 52.0574 262.72 51.8805L262.845 52.3641C262.034 52.5759 261.245 52.8312 260.498 53.1234ZM272.654 51.893C271.843 51.7677 271.016 51.6817 270.196 51.6383L270.223 51.1392C271.059 51.1837 271.903 51.2711 272.731 51.3995L272.654 51.893ZM265.266 51.8706L265.192 51.3765C266.017 51.2526 266.862 51.1702 267.702 51.1312L267.726 51.6303C266.902 51.6682 266.074 51.7492 265.266 51.8706ZM260.116 48.054C260.024 47.2323 259.894 46.4105 259.727 45.6112L260.216 45.5093C260.386 46.3241 260.519 47.1613 260.613 47.9981L260.116 48.054ZM259.105 43.2184C258.857 42.4266 258.567 41.6473 258.243 40.903L258.702 40.7042C259.032 41.4645 259.328 42.2608 259.582 43.069L259.105 43.2184ZM257.135 38.698L257.039 38.5326C256.64 37.8567 256.229 37.2053 255.819 36.5974L256.233 36.3176C256.649 36.9341 257.065 37.594 257.469 38.2789L257.568 38.4482L257.135 38.698ZM254.354 34.6017C253.82 33.9333 253.269 33.3109 252.718 32.7519L253.074 32.4012C253.637 32.9722 254.199 33.6076 254.745 34.2895L254.354 34.6017ZM250.883 31.1144C250.206 30.5908 249.513 30.1447 248.826 29.7886L249.055 29.345C249.77 29.7146 250.487 30.1772 251.188 30.7192L250.883 31.1144ZM246.553 28.9293C245.994 28.797 245.453 28.7305 244.946 28.7305C244.466 28.7305 244.194 28.793 244.191 28.7935L244.075 28.3074C244.088 28.3044 244.4 28.2305 244.946 28.2305C245.492 28.2305 246.071 28.3019 246.667 28.4428L246.553 28.9293Z" fill="#3940A0"/>
<path d="M62.1855 188.995C64.7031 188.995 66.7441 186.953 66.7441 184.435C66.7441 181.917 64.7031 179.876 62.1855 179.876C59.6679 179.876 57.627 181.917 57.627 184.435C57.627 186.953 59.6679 188.995 62.1855 188.995Z" fill="white"/>
<path d="M62.282 186.923L59.2268 183.991L60.2637 182.909L62.0892 184.661L66.6767 178.446L67.8819 179.336L62.282 186.923Z" fill="#87BECA"/>
<path d="M172.76 122.529C172.76 122.529 196.227 114.076 202.39 96.7454C208.552 79.4151 197.699 57.7102 208.166 46.2167C213.026 40.8795 205.649 53.7803 207.84 52.8162C209.408 52.1258 209.699 51.6702 211.323 51.7197C214.35 51.8121 217.143 55.167 214.652 57.8366C212.485 60.1595 213.46 65.179 214.534 72.8275C215.81 81.9183 225.583 119.804 194.045 134.59C194.045 134.59 172.782 128.86 172.76 122.529Z" fill="#E5B5B7"/>
<path d="M209.741 55.2773L209.342 54.9765C209.422 54.8706 211.316 52.3704 212.901 51.8818L213.049 52.3594C211.616 52.8005 209.76 55.2523 209.741 55.2773Z" fill="#3E2D4A"/>
<path d="M211.466 57.4817L211.052 57.2024C211.13 57.086 212.994 54.342 214.83 53.4014L215.058 53.8465C213.336 54.7277 211.484 57.4542 211.466 57.4817Z" fill="#3E2D4A"/>
<path opacity="0.38" d="M170.117 123.203C170.117 123.203 181.941 120.53 193.955 109.138C193.955 109.138 204.729 112.133 214.462 111.772C214.462 111.772 212.034 122.015 199.206 131.923C199.206 131.923 175.814 128.329 170.117 123.203Z" fill="#C05C5D"/>
<path d="M244.831 93.9294C244.831 93.9294 247.291 85.5215 250.153 82.15C253.015 78.7791 247.888 93.6361 251.657 91.8023C253.153 91.0735 263.848 82.8324 265.101 83.9849C266.353 85.1373 257.795 91.0954 258.123 93.1576C258.449 95.2197 260.997 97.8568 260.149 99.2895C259.301 100.722 256.567 106.29 252.024 106.119C247.481 105.949 246.328 138.33 227.567 147.354C211.901 154.889 175.096 145.67 175.096 145.67L177.763 124.41C177.763 124.41 211.695 135.542 221.807 129.418C233.27 122.477 244.831 93.9294 244.831 93.9294Z" fill="#E5B5B7"/>
<path d="M254.873 97.6134L254.595 97.1983C254.625 97.1783 257.607 95.1571 257.874 93.126L258.37 93.1914C258.073 95.4464 255.004 97.5255 254.873 97.6134Z" fill="#3940A0"/>
<path d="M257.352 99.8098L257.01 99.4457C257.025 99.4312 258.567 97.978 259.676 96.6592L260.059 96.9809C258.931 98.3222 257.368 99.7948 257.352 99.8098Z" fill="#3940A0"/>
<path opacity="0.38" d="M242.554 129.848C242.554 129.848 236.509 129.848 225.915 126.073C225.915 126.073 220.774 134.59 201.772 129.848C201.772 129.848 194.343 140.323 192.192 142.683C190.042 145.042 228.759 163.934 242.554 129.848Z" fill="#C05C5D"/>
<path d="M91.1047 66.2366C91.1047 66.2366 93.5796 65.0627 94.063 62.1863C94.7962 57.8248 90.6223 61.3645 88.9571 61.3645C87.2919 61.3645 86.1586 52.4451 84.4939 52.7983C82.8292 53.1515 81.1016 55.0892 79.7695 56.6973C78.4374 58.3053 74.1091 59.6376 74.1091 61.3026C74.1091 62.9676 75.4412 68.2878 79.4369 70.4568C83.4325 72.6258 75.108 99.3192 86.6521 116.645C96.2921 131.113 123.255 142.151 123.255 142.151L134.012 124.044C134.012 124.044 105.328 113.895 99.7479 103.473C93.4217 91.6571 91.1047 66.2366 91.1047 66.2366Z" fill="#E5B5B7"/>
<path d="M237.395 137.795C237.395 137.795 264.102 167.439 241.01 180.226C221.894 190.812 197.313 158.729 194.864 156.527C192.415 154.324 204.325 140.134 206.419 140.098C208.513 140.061 226.179 168.529 233.102 163.626C243.126 156.527 234.204 149.6 234.204 149.6C234.204 149.6 235.8 138.226 237.395 137.795Z" fill="#E5B5B7"/>
<path d="M143.336 93.3828C143.336 93.3828 148.964 114.409 143.12 121.034C137.275 127.659 118.461 125.393 121.968 150.405C125.474 175.416 126.129 196.717 126.129 196.717H183.734C183.734 196.717 192.806 141.761 183.065 129.45C173.325 117.139 160.869 127.187 161.648 117.494C162.427 107.801 159.31 90.6543 159.31 90.6543L143.336 93.3828Z" fill="#E5B5B7"/>
<path d="M161.747 115.67C161.747 115.67 159.549 126.072 145.568 114.369C145.568 114.369 145.231 105.256 145.231 104.59C145.231 103.924 162.039 105.838 162.125 106.255C162.212 106.671 162.198 114.928 161.747 115.67Z" fill="#CA6E70"/>
<path d="M139.9 123.103C139.9 123.103 146.723 141.429 159.938 137.795C169.095 135.277 164.842 121.783 167.055 122.018C169.268 122.252 176.559 121.192 183.733 128.069C190.907 134.946 191.473 196.718 189.243 196.718C187.015 196.718 125.715 196.928 123.798 196.718C121.881 196.507 118.463 137.561 121.134 132.232C123.805 126.904 120.092 126.142 139.9 123.103Z" fill="#CA4D4F"/>
<path d="M171.762 89.7638C171.762 89.7638 171.461 85.5401 168.917 85.4032C166.372 85.2663 165.322 92.815 168.723 94.0114C172.125 95.2083 171.825 90.2803 171.762 89.7638Z" fill="#E5B5B7"/>
<path d="M141.717 77.976C141.717 77.976 159.311 68.9766 164.831 77.0009C170.35 85.0251 170.982 115.136 156.917 113.949C142.851 112.762 131.797 81.6501 141.717 77.976Z" fill="#E5B5B7"/>
<path d="M141.163 83.6775C141.163 83.6775 138.52 101.334 149.336 104.645C154.579 106.25 152.151 96.8541 159.744 97.3881C165.12 97.7663 164.593 103.614 167.116 99.0596C169.638 94.5052 163.998 80.7936 165.925 81.994C167.853 83.194 177.182 108.286 164.003 113.068C151.566 117.581 142.738 109.821 139.592 98.0015C136.446 86.1823 138.444 80.934 141.163 83.6775Z" fill="#0F172A"/>
<path d="M158.897 96.3893C157.933 96.3893 156.566 96.2594 155.365 96.1185L155.424 95.6225C157.187 95.8298 159.246 95.9682 159.708 95.8528C159.677 95.2458 158.607 92.3125 157.533 89.6884L157.996 89.499C160.547 95.7369 160.227 96.0701 160.108 96.1955C159.973 96.3348 159.519 96.3893 158.897 96.3893Z" fill="#CA6E70"/>
<path d="M140.945 86.1023C140.945 86.1023 139.88 78.6695 149.865 76.2197C161.683 73.3198 164.968 80.5867 166.792 88.588C168.013 93.9432 170.559 83.7299 164.995 75.5054C158.524 65.941 144.693 67.1959 139.469 71.8162C132.976 77.558 132.126 90.4918 137.915 95.0616C143.703 99.631 140.107 89.0616 140.945 86.1023Z" fill="#0F172A"/>
<path d="M136.214 74.5277C139.374 74.5277 141.936 71.9651 141.936 68.8039C141.936 65.6427 139.374 63.0801 136.214 63.0801C133.053 63.0801 130.491 65.6427 130.491 68.8039C130.491 71.9651 133.053 74.5277 136.214 74.5277Z" fill="#0F172A"/>
<path d="M140.116 97.2459C140.116 97.2459 138.747 93.239 136.251 93.756C133.756 94.273 134.667 101.84 138.261 102.129C141.855 102.418 140.309 97.7289 140.116 97.2459Z" fill="#E5B5B7"/>
<path d="M151.061 94.951C151.642 94.7391 151.87 93.9005 151.571 93.0781C151.271 92.2556 150.557 91.7607 149.975 91.9727C149.394 92.1846 149.166 93.0232 149.466 93.8456C149.765 94.6681 150.48 95.163 151.061 94.951Z" fill="#0F172A"/>
<path d="M162.251 92.0082C162.842 91.8257 163.112 90.9997 162.854 90.1632C162.596 89.3268 161.908 88.7966 161.317 88.9791C160.725 89.1616 160.455 89.9876 160.713 90.8241C160.972 91.6605 161.66 92.1907 162.251 92.0082Z" fill="#0F172A"/>
<path d="M138.837 101.094L138.724 100.607C138.845 100.579 139.016 100.507 139.111 100.207C139.442 99.1678 138.52 96.6981 137.616 95.6815C137.359 95.3927 137.129 95.2669 136.928 95.3033C136.594 95.3663 136.336 95.8758 136.272 96.0497L135.804 95.8768C135.839 95.7809 136.168 94.9387 136.835 94.8128C137.22 94.7393 137.608 94.9207 137.99 95.3493C138.918 96.3933 140.003 99.0524 139.587 100.358C139.462 100.755 139.202 101.01 138.837 101.094Z" fill="#CA6E70"/>
<path opacity="0.38" d="M149.827 100.98C151.145 100.98 152.213 99.9113 152.213 98.5934C152.213 97.2754 151.145 96.207 149.827 96.207C148.51 96.207 147.441 97.2754 147.441 98.5934C147.441 99.9113 148.51 100.98 149.827 100.98Z" fill="#C05C5D"/>
<path opacity="0.38" d="M164.579 97.552C165.896 97.552 166.965 96.4836 166.965 95.1656C166.965 93.8477 165.896 92.7793 164.579 92.7793C163.261 92.7793 162.193 93.8477 162.193 95.1656C162.193 96.4836 163.261 97.552 164.579 97.552Z" fill="#C05C5D"/>
<path d="M156.223 105.452C156.223 105.452 154.114 100.131 158.589 98.978C162.426 97.9889 163.585 101.94 163.539 104.383C163.509 105.967 162.92 106.777 160.327 107.503C157.805 108.209 156.22 106.223 156.223 105.452Z" fill="#E5B5B7"/>
<path d="M159.904 104.226C159.797 104.226 159.679 104.209 159.548 104.166C157.701 103.57 156.75 101.324 156.711 101.229L157.172 101.037C157.181 101.058 158.076 103.165 159.701 103.691C159.954 103.772 160.086 103.697 160.165 103.634C160.756 103.155 160.779 101.054 160.655 99.842L161.152 99.791C161.188 100.139 161.472 103.218 160.478 104.022C160.352 104.125 160.162 104.226 159.904 104.226Z" fill="#CA6E70"/>
<path d="M150.946 87.9377C151.291 88.6241 150.036 88.3953 148.913 88.9598C147.79 89.5243 147.224 90.6682 146.88 89.9818C146.535 89.2955 147.166 88.2814 148.289 87.7169C149.411 87.1524 150.602 87.2513 150.946 87.9377Z" fill="#0F172A"/>
<path d="M163.769 86.5227C163.812 87.2895 162.752 86.5801 161.497 86.6505C160.242 86.721 159.268 87.5452 159.225 86.7784C159.182 86.0116 160.164 85.3322 161.419 85.2618C162.674 85.1914 163.726 85.7558 163.769 86.5227Z" fill="#0F172A"/>
<path d="M146.476 77.416C146.476 77.416 141.671 79.5291 142.368 84.1594C142.732 86.5802 147.653 91.0612 141.278 94.3117C141.278 94.3117 134.091 81.346 146.476 77.416Z" fill="#0F172A"/>
<path d="M154.254 75.5775C154.254 75.5775 160.713 75.2473 162.322 79.1657C163.347 81.661 164.152 87.2174 166.355 86.8083C169.231 86.2738 168.592 71.9488 154.254 75.5775Z" fill="#0F172A"/>
<path opacity="0.38" d="M94.3499 124.773C94.3499 124.773 101.3 121.159 110.255 112.915C110.255 112.915 126.795 122.716 136.762 124.605C136.762 124.605 122.356 137.992 121.283 139.347C120.209 140.702 106.848 135.955 94.3499 124.773Z" fill="#C05C5D"/>
<path opacity="0.38" d="M230.493 164.12C230.493 164.12 222.897 176.937 221.337 179.395C221.337 179.395 210.738 172.633 204.145 165.129L216.956 152.186C216.956 152.186 223.611 160.873 230.493 164.12Z" fill="#C05C5D"/>
<path d="M113.902 132.519C113.902 132.519 88.7573 148.843 83.5115 135.015C68.323 94.974 58.4841 89.5849 42.9489 90.1099C34.3432 90.4007 35.5634 91.2129 39.2624 91.9358C42.2407 92.5178 47.1114 92.9199 47.5704 93.884C48.5988 96.0451 45.636 93.5104 43.9948 96.5531C42.3536 99.5958 43.9638 106.187 46.3108 106.534C48.6577 106.88 52.117 103.201 58.7638 111.145C64.6544 118.186 62.4703 187.759 119.683 156.463C119.683 156.463 118.791 136.54 113.902 132.519Z" fill="#E5B5B7"/>
<path d="M43.4979 99.4079L43.2971 98.9503C43.397 98.9068 45.764 97.8783 48.1239 97.8633L48.1274 98.3628C45.8723 98.3773 43.5214 99.3974 43.4979 99.4079Z" fill="#3E2D4A"/>
<path opacity="0.38" d="M74.1091 154.718C74.1091 154.718 78.4434 153.157 87.3578 139.606C87.3578 139.606 95.4146 144.136 113.901 132.519C113.901 132.519 114.771 159.068 112.61 159.957C110.451 160.846 89.2942 173.028 74.1091 154.718Z" fill="#C05C5D"/>
<path d="M44.0107 103.744L43.6741 103.375C45.9121 101.333 48.366 101.279 48.4689 101.278L48.4754 101.778C48.4524 101.778 46.1029 101.835 44.0107 103.744Z" fill="#3E2D4A"/>
<path d="M143.119 196.399C143.119 196.399 135.656 134.947 136.762 123.598C136.762 123.598 126.22 122.716 121.551 143.165C118.965 154.491 121.561 194.034 123.798 196.718C126.035 199.402 143.119 196.399 143.119 196.399Z" fill="#3940A0"/>
<path d="M174.39 195.285C174.39 195.285 173.866 133.878 172.76 122.529C172.76 122.529 185.389 139.437 189.218 150.405C193.048 161.373 189.624 194.034 187.387 196.718C185.149 199.402 174.39 195.285 174.39 195.285Z" fill="#3940A0"/>
<path d="M204.145 166.474C204.145 166.474 223.226 152.69 219.734 147.643C206.082 127.91 181.526 123.689 172.76 122.529C172.76 122.529 184.115 143.889 183.986 146.22C183.856 148.551 200.207 168.212 204.145 166.474Z" fill="#3940A0"/>
<path d="M204.348 135.718C204.348 135.718 221.343 134.546 221.783 134.839C222.223 135.132 223.981 154.035 223.541 154.328C223.102 154.621 206.37 155.353 206.37 155.353C206.37 155.353 203.347 135.786 204.348 135.718Z" fill="white"/>
<path d="M206.54 137.127L221.337 136.248C221.337 136.248 218.127 139.325 214.751 139.472C211.375 139.618 205.501 137.189 206.54 137.127Z" fill="#3940A0"/>
<path d="M221.337 137.863C221.337 137.863 227.825 137.433 228.759 139.478C229.694 141.523 231.012 149.761 230.28 150.404C229.548 151.047 223.568 152.205 223.568 152.205L222.516 150.404C222.516 150.404 228.455 148.849 228.196 148.41C227.937 147.97 226.765 140.497 226.765 140.497L221.338 141.376V137.863H221.337Z" fill="white"/>
<path d="M241.01 148.127C241.01 148.127 240.031 139.702 237.395 137.795C234.76 135.887 228.367 135.728 226.05 134.157C223.733 132.586 226.321 138.622 231.344 139.481C235.135 140.129 226.109 139.506 225.609 142.063C225.108 144.62 225.019 150.708 228.656 149.431C233.923 147.581 238.45 153.416 241.01 148.127Z" fill="#E5B5B7"/>
<path d="M225.405 144.336L225.105 143.936C226.608 142.811 230.907 141.983 231.088 141.948L231.182 142.439C231.139 142.447 226.816 143.28 225.405 144.336Z" fill="#3940A0"/>
<path d="M225.452 147.849L225.172 147.436C228.073 145.477 232.035 145.391 232.203 145.388L232.211 145.887C232.171 145.888 228.228 145.976 225.452 147.849Z" fill="#3940A0"/>
<path d="M191.173 96.5732C191.173 96.5732 181.823 112.625 198.398 113.997C214.974 115.37 226.118 115.877 223.266 122.014C220.414 128.152 208.927 132.701 214.421 137.795C214.421 137.795 207.178 136.395 213.422 128.152C219.665 119.91 208.427 128.901 193.194 116.163C177.96 103.425 186.655 102.71 191.173 96.5732Z" fill="white"/>
<path d="M225.384 203.83C225.384 203.83 163.83 206.406 162.231 205.977C160.632 205.548 145.843 189.657 147.042 189.657C148.241 189.657 163.43 189.657 163.43 189.657C163.43 189.657 166.228 160.883 167.827 160.454C169.426 160.024 230.18 159.595 231.379 160.454C232.579 161.313 225.384 203.83 225.384 203.83Z" fill="white"/>
<path d="M162.31 201.836C162.31 201.836 152.704 191.375 153.903 191.375C155.103 191.375 162.697 191.375 162.697 191.375L162.31 201.836Z" fill="#3940A0"/>
<path d="M100.245 152.186C100.245 152.186 89.1255 163.37 89.3752 182.103C89.625 200.836 107.356 206.331 119.343 203.834C131.33 201.336 142.818 188.985 146.314 191.702C149.809 194.418 150.987 194.431 152.234 194.592C152.88 194.676 156.095 193.509 155.634 192.679C150.498 183.435 157.718 192.388 160.798 196.59C161.923 198.125 161.144 181.854 148.062 182.353C139.399 182.684 123.266 193.093 113.776 187.099C104.286 181.104 112.891 170.114 112.891 170.114L100.245 152.186Z" fill="#E5B5B7"/>
<path d="M154.06 194.062C153.412 191.575 151.667 189.81 151.65 189.793L152.003 189.439C152.078 189.515 153.861 191.319 154.543 193.936L154.06 194.062Z" fill="#3940A0"/>
<path d="M152.755 194.604L152.258 194.556C152.322 193.885 150.613 192.028 149.52 191.015L149.86 190.648C150.362 191.115 152.861 193.493 152.755 194.604Z" fill="#3940A0"/>
<path opacity="0.38" d="M94.7683 196.811C94.7683 196.811 104.975 187.661 111.306 185.007C111.306 185.007 108.319 182.261 110.106 175.314L93.213 163.206C93.213 163.206 83.8856 184.043 94.7683 196.811Z" fill="#C05C5D"/>
<path d="M112.977 177.191C112.977 177.191 90.6242 167.494 89.3726 162.846C87.627 156.364 114.233 123.765 136.762 123.598C136.762 123.598 131.397 143.015 134.012 151.239C135.011 154.38 125.062 162.966 112.977 177.191Z" fill="#3940A0"/>
<path d="M196.47 186.522C198.766 186.522 200.628 184.66 200.628 182.363C200.628 180.066 198.766 178.204 196.47 178.204C194.173 178.204 192.312 180.066 192.312 182.363C192.312 184.66 194.173 186.522 196.47 186.522Z" fill="#798B97"/>
<path d="M82.4997 58.7677C82.0842 58.352 82.0073 57.795 81.8904 56.9518C81.8075 56.3524 81.7041 55.606 81.4434 54.6524L81.9253 54.5205C82.195 55.5056 82.3004 56.2694 82.3853 56.8834C82.4917 57.6532 82.5562 58.1177 82.8528 58.4145L82.4997 58.7677Z" fill="#3940A0"/>
<path d="M79.7811 60.8548C78.8181 59.4481 78.5669 57.6492 78.5564 57.5738L79.0514 57.5068C79.0534 57.5243 79.2986 59.2657 80.1931 60.5726L79.7811 60.8548Z" fill="#3940A0"/>
<path d="M77.0889 62.4417C76.126 61.035 75.8747 59.2361 75.8643 59.1607L76.3592 59.0938C76.3612 59.1112 76.6065 60.8527 77.501 62.1595L77.0889 62.4417Z" fill="#3940A0"/>
<path d="M121.275 165.818C119.725 152.052 121.46 134.938 121.478 134.767L121.975 134.819C121.957 134.989 120.227 152.051 121.772 165.763L121.275 165.818Z" fill="#334054"/>
<path d="M188.968 150.418C188.446 140.921 186.426 129.608 186.405 129.494L186.897 129.405C186.917 129.519 188.943 140.863 189.467 150.391L188.968 150.418Z" fill="#334054"/>
<path d="M141.611 71.3546L141.162 71.1358C142.474 68.4383 142.681 66.4006 141.776 65.0803C140.417 63.0991 136.957 63.3673 136.922 63.3693L136.88 62.8718C137.033 62.8578 140.666 62.5791 142.188 64.7976C143.202 66.2777 143.008 68.4837 141.611 71.3546Z" fill="#3940A0"/>
<path d="M134.497 75.0233C134.021 75.0233 133.543 74.9653 133.082 74.8235C132.076 74.5127 131.308 73.8438 130.797 72.8343C128.74 68.7649 131.002 65.8791 131.025 65.8506L131.414 66.1633C131.328 66.2707 129.335 68.8364 131.243 72.6085C131.689 73.4917 132.357 74.0761 133.228 74.3454C135.469 75.0368 138.359 73.4687 138.389 73.4522L138.63 73.8898C138.527 73.9463 136.546 75.0233 134.497 75.0233Z" fill="#3940A0"/>
<path d="M135.834 93.105C127.978 81.8392 138.24 72.671 138.345 72.5801L138.673 72.9562C138.572 73.0447 128.647 81.9256 136.244 92.8192L135.834 93.105Z" fill="#3940A0"/>
</g>
<defs>
<clipPath id="clip0_4_947">
<rect width="308" height="230" fill="white" transform="translate(0 0.365234)"/>
</clipPath>
</defs>
</svg>
