<svg width="80" height="25" viewBox="0 0 80 25" fill="none" xmlns="http://www.w3.org/2000/svg">
<g clip-path="url(#clip0_4_360)">
<path d="M18.5776 6.56971V13.9965C18.5776 14.1168 18.5303 14.2323 18.446 14.3174C18.3617 14.4025 18.2474 14.4504 18.1282 14.4504H15.8069C15.6877 14.4503 15.5735 14.4025 15.4892 14.3174C15.4049 14.2322 15.3575 14.1168 15.3575 13.9965V1.91649C15.3575 1.79611 15.4048 1.68065 15.4891 1.59553C15.5734 1.5104 15.6877 1.46258 15.8069 1.46258H17.955C18.0742 1.46258 18.1885 1.5104 18.2728 1.59553C18.3571 1.68065 18.4044 1.79611 18.4044 1.91649V3.61767C18.4044 3.61767 19.1723 1.19099 21.4512 1.19099C21.4512 1.19099 23.7053 0.915803 24.6218 3.44255C24.6218 3.44255 25.3897 1.19099 27.7181 1.19099C27.7181 1.19099 31.1809 0.983049 31.1809 4.60175L31.2072 6.59473V14.0215C31.2072 14.1419 31.1599 14.2573 31.0756 14.3424C30.9913 14.4276 30.877 14.4754 30.7578 14.4754H28.4363C28.3171 14.4753 28.2028 14.4275 28.1185 14.3424C28.0343 14.2573 27.9869 14.1418 27.9869 14.0215L27.9656 5.91926C28.0316 4.08459 26.5621 4.21809 26.5621 4.21809C24.7126 4.25151 24.8905 6.59473 24.8905 6.59473V14.0215C24.8905 14.1419 24.8432 14.2573 24.7589 14.3424C24.6746 14.4276 24.5603 14.4754 24.4411 14.4754H22.1198C22.0006 14.4753 21.8864 14.4275 21.8021 14.3424C21.7178 14.2573 21.6704 14.1418 21.6704 14.0215V6.10259C21.6704 6.10259 21.8061 4.20127 20.1546 4.20127C20.1548 4.20127 18.52 3.98452 18.5776 6.56971ZM78.4142 6.5475V13.974C78.4141 14.0944 78.3668 14.2098 78.2825 14.2949C78.1982 14.3801 78.0839 14.4279 77.9647 14.4279L75.5505 14.4752C75.4313 14.4751 75.317 14.4273 75.2328 14.3422C75.1485 14.2571 75.1011 14.1416 75.1011 14.0213V6.10259C75.1011 6.10259 75.2368 4.20127 73.5855 4.20127C73.5855 4.20127 72.0083 4.12282 72.0083 7.10388V13.9963C72.0083 14.1166 71.9609 14.232 71.8766 14.3172C71.7924 14.4023 71.6781 14.4501 71.5589 14.4502H69.2374C69.1182 14.4501 69.0039 14.4023 68.9197 14.3172C68.8354 14.232 68.788 14.1166 68.788 13.9963V1.91649C68.788 1.79613 68.8354 1.6807 68.9197 1.59559C69.0039 1.51047 69.1182 1.46263 69.2374 1.46258H71.3855C71.5047 1.46258 71.619 1.5104 71.7033 1.59553C71.7876 1.68065 71.8349 1.79611 71.8349 1.91649V3.61767C71.8349 3.61767 72.6028 1.19099 74.8817 1.19099C74.8817 1.19099 77.3229 0.816934 78.1451 3.39552C78.1453 3.39532 78.4142 3.92729 78.4142 6.5475ZM61.6535 1.14096C58.685 1.14096 56.2783 3.66771 56.2783 7.92065C56.2783 11.665 58.1361 14.7003 61.6535 14.7003C64.9727 14.7003 67.0287 11.665 67.0287 7.92065C67.0287 3.74276 64.6222 1.14096 61.6535 1.14096ZM63.5271 8.07075C63.5271 9.67186 63.329 10.5224 63.329 10.5224C63.047 12.215 61.8304 12.2174 61.6511 12.2084C61.4575 12.2162 60.2307 12.1986 59.9768 10.5224C59.9768 10.5224 59.7787 9.67186 59.7787 8.07075V7.80397C59.7787 6.20286 59.9768 5.35227 59.9768 5.35227C60.2307 3.67611 61.4577 3.6585 61.6511 3.6661C61.8304 3.6571 63.047 3.6593 63.329 5.35227C63.329 5.35227 63.5271 6.20286 63.5271 7.80397V8.07075ZM54.931 3.60086V1.86766C54.9309 1.74729 54.8836 1.63187 54.7993 1.54675C54.715 1.46164 54.6007 1.4138 54.4815 1.41375H46.8086C46.6894 1.41375 46.5751 1.46157 46.4908 1.5467C46.4066 1.63182 46.3592 1.74728 46.3592 1.86766V3.58745C46.3593 3.70782 46.4066 3.82324 46.4909 3.90836C46.5752 3.99347 46.6895 4.04131 46.8086 4.04136H50.811L46.0737 10.9822C46.0737 10.9822 45.887 11.2636 45.8931 11.5744V13.6856C45.8931 13.6856 45.8622 14.4095 46.6751 13.9894C46.6751 13.9894 48.1189 13.1084 50.5399 13.1084C50.5399 13.1084 52.9307 13.0784 54.5247 14.0653C54.5247 14.0653 55.1864 14.3691 55.1864 13.701V11.8634C55.1864 11.8634 55.2465 11.377 54.6149 11.0734C54.6149 11.0734 52.7803 10.0559 50.3744 10.2228L54.931 3.60086ZM13.5659 12.2901L12.8392 11.1729C12.608 10.7558 12.6246 10.2887 12.6246 10.2887V5.13532C12.7237 0.682241 7.83558 1.06591 7.83558 1.06591C3.49025 1.06591 2.8484 4.48127 2.8484 4.48127C2.66728 5.16794 3.19399 5.18455 3.19399 5.18455L5.31732 5.40211C5.31732 5.40211 5.67936 5.48576 5.81114 5.05046C5.81114 5.05046 6.09075 3.56043 7.65446 3.56043C9.3559 3.56043 9.33826 5.03525 9.33826 5.03525V6.26991C5.94173 6.38458 4.36772 7.33684 4.36772 7.33684C2.27055 8.53767 2.40253 10.9227 2.40253 10.9227C2.40253 14.8086 6.06856 14.6417 6.06856 14.6417C8.41343 14.6417 9.80058 12.9073 9.80058 12.9073C10.2134 13.6414 10.9731 14.3415 10.9731 14.3415C11.3532 14.7578 11.7493 14.4083 11.7493 14.4083L13.4668 12.9241C13.8465 12.6403 13.5659 12.2901 13.5659 12.2901ZM7.21295 12.242C6.10997 12.242 5.69997 11.1351 5.88308 10.0471C6.06638 8.95917 7.01836 8.10417 9.33846 8.12919V8.79065C9.42069 11.6802 8.13105 12.242 7.21295 12.242ZM44.4132 12.2901L43.6868 11.1729C43.4555 10.7558 43.472 10.2887 43.472 10.2887V5.13532C43.571 0.682241 38.6829 1.06591 38.6829 1.06591C34.3376 1.06591 33.6958 4.48127 33.6958 4.48127C33.5146 5.16794 34.0413 5.18455 34.0413 5.18455L36.1647 5.40211C36.1647 5.40211 36.5267 5.48576 36.6585 5.05046C36.6585 5.05046 36.9381 3.56043 38.5018 3.56043C40.2033 3.56043 40.1856 5.03525 40.1856 5.03525V6.26991C36.7893 6.38458 35.2151 7.33684 35.2151 7.33684C33.1179 8.53767 33.2499 10.9227 33.2499 10.9227C33.2499 14.8086 36.9159 14.6417 36.9159 14.6417C39.2608 14.6417 40.6479 12.9073 40.6479 12.9073C41.0609 13.6414 41.8203 14.3415 41.8203 14.3415C42.2003 14.7578 42.5967 14.4083 42.5967 14.4083L44.314 12.9241C44.6938 12.6403 44.4132 12.2901 44.4132 12.2901ZM38.0603 12.242C36.9573 12.242 36.5473 11.1351 36.7304 10.0471C36.9137 8.95917 37.8657 8.10417 40.1856 8.12919V8.79065C40.2681 11.6802 38.9786 12.242 38.0603 12.242Z" fill="black"/>
<path d="M50.2583 22.0447C50.2583 22.0447 50.0641 22.3859 50.3027 22.4622C50.3027 22.4622 50.5722 22.5685 50.9083 22.2534C50.9083 22.2534 53.3594 20.091 53.4184 16.1538C53.4184 16.1538 53.4365 15.6621 53.2411 15.5276C53.2411 15.5276 52.4732 14.8415 49.712 15.0503C49.712 15.0503 47.3051 15.2144 45.9911 16.3926C45.9911 16.3926 45.873 16.4969 45.873 16.631C45.873 16.631 45.8446 16.9206 46.5669 16.7951C46.5669 16.7951 48.9736 16.4518 50.4059 16.631C50.4059 16.631 51.1445 16.7204 51.3512 16.9742C51.3512 16.9742 51.6908 17.2576 51.5135 18.1968C51.5135 18.1972 51.026 20.5833 50.2583 22.0447Z" fill="#F3971B"/>
<path d="M49.7729 18.2676C49.7729 18.2676 50.1324 18.7379 49.5524 19.1436C49.5524 19.1436 43.3564 24.1491 32.9528 24.1491C32.9528 24.1491 22.2436 24.6826 13.3015 16.477C13.3015 16.477 12.988 16.199 13.1826 15.9406C13.1826 15.9406 13.3566 15.7028 13.807 15.9614C13.807 15.9614 22.2188 21.2553 33.2665 21.2553C33.2665 21.2553 40.9453 21.5555 48.8223 18.1531C48.8223 18.1531 49.4499 17.8247 49.7729 18.2676Z" fill="#F3971B"/>
</g>
<defs>
<clipPath id="clip0_4_360">
<rect width="79" height="24" fill="white" transform="translate(0.842285 0.682617)"/>
</clipPath>
</defs>
</svg>
