<svg width="381" height="253" viewBox="0 0 381 253" fill="none" xmlns="http://www.w3.org/2000/svg">
<g clip-path="url(#clip0_4_2087)">
<path d="M195.326 52.7447C173.919 47.7501 158.333 52.6036 140.533 58.697C131.76 61.721 122.875 64.876 113.609 66.0856C106.705 66.9878 99.7304 67.2297 92.781 67.9101C85.5646 68.5369 78.3935 69.6007 71.3078 71.0954C59.4003 73.7514 38.6536 78.6554 39.9287 94.5515C40.4367 100.922 44.8207 106.713 44.3788 113.084C43.8098 121.258 36.1288 127.584 31.0946 133.36C24.1451 141.328 17.8866 150.168 19.0448 161.246C19.9694 170.182 25.8164 178.034 33.03 183.467C40.2436 188.9 48.778 192.267 57.1854 195.593C69.9972 200.659 80.8278 206.596 90.9014 216.021C96.7383 221.479 102.956 226.887 110.52 229.533C120.68 233.091 133.645 229.996 137.785 219.317C140.04 213.496 140.675 206.717 144.175 201.425C147.828 195.976 155.448 191.38 162.133 192.272C173.055 193.708 177.317 201.747 182.524 210.204C185.064 214.337 188.082 218.137 192.354 220.617C199.679 224.871 206.995 223.213 214.706 221.484C223.046 219.598 231.478 218.138 239.969 217.109C254.381 215.401 268.879 216.167 283.235 217.961C296.87 219.67 316.667 228.545 327.909 216.494C332.836 211.202 333.817 203.965 332.024 197.211C329.453 187.529 323.896 176.784 324.221 166.729C324.658 151.892 331.404 142.033 339.644 130.411C343.591 124.867 346.629 118.688 346.486 111.763C346.161 95.7762 336.062 83.5039 325.531 72.4864C315.001 61.469 304.526 48.9597 293.893 39.2224" stroke="#ED725A" stroke-width="1.2902" stroke-miterlimit="10"/>
<path d="M348.386 69.0644C348.387 69.8972 348.139 70.7116 347.673 71.4044C347.207 72.0972 346.545 72.6374 345.77 72.9566C344.994 73.2757 344.141 73.3595 343.318 73.1973C342.495 73.035 341.738 72.6341 341.145 72.0453C340.551 71.4564 340.147 70.7061 339.984 69.8893C339.82 69.0724 339.905 68.2259 340.226 67.4567C340.548 66.6875 341.092 66.0303 341.791 65.5682C342.489 65.1062 343.31 64.8601 344.149 64.8611C344.706 64.8604 345.257 64.9687 345.771 65.1797C346.286 65.3907 346.753 65.7003 347.147 66.0907C347.54 66.4812 347.852 66.9448 348.065 67.4551C348.277 67.9654 348.387 68.5123 348.386 69.0644Z" stroke="#ED725A" stroke-width="1.2902" stroke-miterlimit="10"/>
<path d="M206.492 211.439C206.492 212.271 206.243 213.083 205.778 213.775C205.312 214.466 204.651 215.005 203.876 215.323C203.102 215.641 202.25 215.724 201.428 215.562C200.607 215.4 199.852 215 199.259 214.412C198.667 213.824 198.263 213.075 198.1 212.259C197.936 211.444 198.02 210.599 198.341 209.831C198.661 209.063 199.205 208.406 199.901 207.944C200.598 207.483 201.417 207.236 202.255 207.236C202.812 207.235 203.363 207.344 203.877 207.555C204.391 207.766 204.859 208.075 205.252 208.466C205.646 208.856 205.958 209.32 206.171 209.83C206.383 210.34 206.492 210.887 206.492 211.439Z" stroke="#ED725A" stroke-width="1.2902" stroke-miterlimit="10"/>
<path d="M191.688 28.3506C192.107 28.3499 192.522 28.4311 192.909 28.5897C193.296 28.7482 193.648 28.9808 193.944 29.2743C194.24 29.5678 194.475 29.9164 194.636 30.3002C194.796 30.6839 194.879 31.0952 194.879 31.5106V94.0066C194.877 94.8452 194.541 95.649 193.942 96.2414C193.344 96.8339 192.534 97.1667 191.688 97.1667H69.4484C68.6036 97.1667 67.7935 96.8338 67.1961 96.2411C66.5988 95.6485 66.2632 94.8447 66.2632 94.0066V31.5106C66.2632 30.6725 66.5988 29.8687 67.1961 29.2761C67.7935 28.6835 68.6036 28.3506 69.4484 28.3506H191.688ZM191.688 27.5946H69.4484C68.4015 27.5946 67.3975 28.0071 66.6573 28.7415C65.9171 29.476 65.5012 30.472 65.5012 31.5106V94.0066C65.5012 95.0452 65.9171 96.0413 66.6573 96.7757C67.3975 97.5101 68.4015 97.9227 69.4484 97.9227H191.688C192.736 97.9227 193.74 97.5103 194.481 96.776C195.222 96.0418 195.639 95.0457 195.641 94.0066V31.5106C195.641 30.9953 195.54 30.4849 195.341 30.0085C195.143 29.5322 194.852 29.0994 194.485 28.7347C194.118 28.3701 193.682 28.0808 193.202 27.8834C192.722 27.6861 192.208 27.5845 191.688 27.5845V27.5946Z" fill="white"/>
<path d="M66.2632 36.7761H194.879V93.9952C194.879 94.8334 194.543 95.6371 193.946 96.2298C193.348 96.8224 192.538 97.1553 191.693 97.1553H69.4483C68.6036 97.1553 67.7934 96.8224 67.1961 96.2298C66.5988 95.6371 66.2632 94.8334 66.2632 93.9952V36.7761Z" fill="#AFB9E8"/>
<path d="M73.7461 32.8084C73.7461 33.1662 73.6391 33.5161 73.4387 33.8136C73.2383 34.1112 72.9535 34.3431 72.6203 34.48C72.287 34.617 71.9203 34.6528 71.5666 34.583C71.2128 34.5132 70.8878 34.3408 70.6328 34.0878C70.3777 33.8348 70.204 33.5124 70.1337 33.1614C70.0633 32.8104 70.0994 32.4466 70.2375 32.116C70.3755 31.7854 70.6092 31.5028 70.9092 31.304C71.2091 31.1051 71.5617 30.999 71.9224 30.999C72.406 30.999 72.8699 31.1897 73.2119 31.529C73.5539 31.8683 73.7461 32.3285 73.7461 32.8084Z" stroke="white" stroke-width="1.2902" stroke-miterlimit="10"/>
<path d="M80.8125 32.8084C80.8125 33.1662 80.7055 33.5161 80.5051 33.8136C80.3047 34.1112 80.0199 34.3431 79.6867 34.48C79.3534 34.617 78.9867 34.6528 78.633 34.583C78.2792 34.5132 77.9542 34.3408 77.6992 34.0878C77.4441 33.8348 77.2704 33.5124 77.2001 33.1614C77.1297 32.8104 77.1658 32.4466 77.3039 32.116C77.4419 31.7854 77.6756 31.5028 77.9756 31.304C78.2755 31.1051 78.6281 30.999 78.9888 30.999C79.4724 30.999 79.9363 31.1897 80.2783 31.529C80.6203 31.8683 80.8125 32.3285 80.8125 32.8084Z" stroke="white" stroke-width="1.2902" stroke-miterlimit="10"/>
<path d="M66.2632 36.7761H194.879" stroke="white" stroke-width="1.2902" stroke-miterlimit="10"/>
<path d="M184.536 88.3903C183.245 86.6918 181.036 85.1244 179.313 86.2987C177.866 87.2815 177.789 89.4991 177.927 91.3387C173.88 85.6315 169.018 80.5382 163.494 76.2187C160.543 73.9205 157.144 71.7936 153.517 72.0708C149.89 72.348 148.005 77.4031 148.945 81.2033C139.034 68.1849 127.985 58.9517 116.474 50.9633C112.562 48.2467 108.204 45.6209 103.54 44.0685C98.5872 42.4154 91.7394 40.475 87.2842 44.3155C85.369 45.9585 84.3683 48.4685 84.0939 50.9733C83.7587 54.0679 84.287 57.3389 85.1099 60.3225C87.1419 67.4541 90.4084 74.1825 94.193 80.5229C97.9776 86.8632 106.304 97.2758 106.304 97.2758H188.468C187.852 94.0568 186.508 91.0185 184.536 88.3903Z" fill="#909DF4"/>
<path d="M141.325 84.5363C141.325 84.5363 125.547 70.9636 118.78 68.6603C112.014 66.357 98.1098 70.0564 97.9523 70.0564C97.7949 70.0564 85.5063 97.1767 85.5063 97.1767H135.834L141.325 84.5363Z" fill="#EF9748"/>
<path d="M171.292 121.376C172.443 122.565 173.639 123.711 174.878 124.813C176.072 125.877 177.378 126.829 178.541 127.913C178.831 128.185 179.095 128.477 179.354 128.77C180.345 129.804 181.218 130.944 181.96 132.166C182.041 132.339 182.149 132.497 182.28 132.635C182.344 132.702 182.424 132.752 182.513 132.781C182.602 132.809 182.697 132.814 182.788 132.796C182.881 132.759 182.964 132.701 183.031 132.628C183.099 132.555 183.149 132.468 183.179 132.373C183.465 131.598 183.483 130.75 183.23 129.964C183.098 129.46 182.915 128.956 182.773 128.452C182.607 128.037 182.53 127.593 182.544 127.147C185.922 128.548 188.671 131.083 191.754 133.048C192.384 133.452 193.786 133.598 194.01 133.048C194.32 132.313 189.824 129.016 187.766 126.824C189.369 127.58 190.906 128.465 192.364 129.47C193.325 130.208 194.403 130.782 195.554 131.169C196.204 131.37 197.698 131.673 197.393 130.498C197.275 130.157 197.064 129.856 196.783 129.626C194.751 127.686 192.338 126.315 190.225 124.491C192.603 125.423 194.797 127.091 197.337 127.177C197.587 127.209 197.84 127.153 198.053 127.021C198.125 126.977 198.188 126.919 198.237 126.851C198.287 126.783 198.322 126.706 198.341 126.624C198.36 126.543 198.362 126.458 198.347 126.376C198.333 126.293 198.302 126.214 198.257 126.144C198.036 125.837 197.743 125.587 197.403 125.418C195.031 123.976 192.557 122.394 190.185 120.942C191.44 121.353 192.668 121.841 193.862 122.404C195.063 122.971 196.391 123.221 197.718 123.13C198.14 123.079 198.663 122.807 198.567 122.399C198.495 122.206 198.354 122.046 198.17 121.95L189.534 116.079C188.727 115.529 187.914 114.98 187.086 114.461C186.07 113.836 184.932 113.377 184.002 112.672C183.281 112.127 182.402 111.719 181.625 111.245C179.704 110.076 177.845 108.811 176.037 107.47" fill="#FFCAA3"/>
<path d="M182.621 127.127C181.716 126.734 180.792 126.366 179.857 126.033" stroke="black" stroke-width="0.860136" stroke-miterlimit="10"/>
<path d="M187.914 126.817C186.683 125.979 185.408 125.207 184.094 124.504" stroke="black" stroke-width="0.860136" stroke-miterlimit="10"/>
<path d="M190.246 124.439L187.198 122.529" stroke="black" stroke-width="0.860136" stroke-miterlimit="10"/>
<path d="M191.358 121.564C190.605 121.15 189.88 120.687 189.189 120.178" stroke="black" stroke-width="0.860136" stroke-miterlimit="10"/>
<path d="M122.427 69.0688C128.66 71.0143 131.79 71.1907 137.362 74.6128C143.255 78.2668 157.926 93.6086 157.926 93.6086C157.926 93.6086 177.703 107.443 185.114 112.675L171.8 125.275C157.068 116.541 141.96 106.123 130.794 93.1853" fill="#EF9748"/>
<path d="M99.8015 94.5264C99.8015 94.5264 105.984 91.2353 108.712 90.5801C112.481 89.6376 116.952 89.3705 118.145 89.7333C118.709 89.9047 120.817 90.7665 121.925 92.0467C123.098 92.5507 123.576 92.8077 124.272 93.1001C124.968 93.3924 125.288 94.2038 126.024 94.8237C126.761 95.4437 127.548 97.1724 127.548 97.1724C127.548 97.1724 121.986 97.1724 120.436 97.2429C118.887 97.3135 117.19 100.267 113.695 101.275" fill="#FFCAA3"/>
<path d="M112.537 66.6302C108.249 66.5949 104.073 65.4861 99.7961 65.4861C92.0237 65.4861 87.5635 69.5181 83.784 75.1326C80.847 79.6097 78.3076 84.3315 76.1944 89.2446C73.8272 94.6878 71.1754 100.746 70.4845 106.688C70.128 109.41 70.5967 112.175 71.8307 114.631C74.1726 119.097 79.3796 119.878 82.4174 120.215C85.4553 120.553 90.774 119.53 93.3852 117.927C101.475 112.982 109.102 107.326 116.174 101.028L101.417 93.5236L94.3351 96.2704L103.276 79.8702" fill="#EF9748"/>
<path d="M102.55 81.2185L94.3354 96.2881" stroke="black" stroke-width="0.860136" stroke-miterlimit="10"/>
<path d="M101.417 93.5437L88.7169 98.4325C85.8264 99.5413 82.9968 101.744 80.6956 103.79" stroke="black" stroke-width="0.860136" stroke-miterlimit="10"/>
<path d="M96.3472 95.5847L111.638 104.919" stroke="black" stroke-width="0.860136" stroke-miterlimit="10"/>
<path d="M137.444 88.2839C135.412 91.6003 132.618 97.1543 132.618 97.1543" stroke="black" stroke-width="0.860136" stroke-miterlimit="10"/>
<path d="M179.715 108.854L164.881 121.112" stroke="black" stroke-width="0.860136" stroke-miterlimit="10"/>
<path d="M121.341 93.6052C122.417 93.8863 123.509 94.1 124.612 94.2453C124.957 94.2622 125.294 94.3552 125.598 94.5175" stroke="black" stroke-width="0.860136" stroke-miterlimit="10"/>
<path d="M122.29 92.3139C122.098 92.2208 121.899 92.14 121.696 92.072C120.657 91.6176 119.54 91.3628 118.404 91.321" stroke="black" stroke-width="0.860136" stroke-miterlimit="10"/>
<path d="M118.836 97.8424C119.429 97.4495 120.116 97.2183 120.828 97.1721C122.291 97.0209 123.876 97.3334 125.262 96.7891" stroke="black" stroke-width="0.860136" stroke-miterlimit="10"/>
<path d="M63.8503 107.758C64.0096 110.636 64.9476 113.419 66.5656 115.813C68.1835 118.208 70.4218 120.126 73.0451 121.366" stroke="black" stroke-width="0.860136" stroke-miterlimit="10"/>
<path d="M59.7554 107.505C59.8722 111.254 61.4318 114.888 63.8499 117.05" stroke="black" stroke-width="0.860136" stroke-miterlimit="10"/>
<path d="M143.007 71.1558C147.523 74.949 151.71 79.1115 155.524 83.5995" stroke="black" stroke-width="0.860136" stroke-miterlimit="10"/>
<path d="M143.103 66.6558C146.256 68.9773 149.136 71.6435 151.688 74.6038" stroke="black" stroke-width="0.860136" stroke-miterlimit="10"/>
<path d="M106.68 74.2717C104.319 73.3521 102.05 72.2148 99.9028 70.8748C98.9533 70.3706 98.0767 69.7417 97.2968 69.0049C96.5113 68.2587 96.0533 67.2358 96.0217 66.1573C96.0988 65.1689 96.4962 64.2318 97.1546 63.4861C99.0748 61.0871 102.184 59.8372 105.283 59.56C108.381 59.2828 111.45 59.8724 114.457 60.568C118.983 61.6264 123.601 63.0376 127.086 66.0817C128.097 66.911 128.923 67.9411 129.509 69.1057C130.217 70.7685 130.394 72.6067 130.017 74.3725C129.612 76.1341 129.027 77.8499 128.27 79.4932" fill="#EF9748"/>
<path d="M118.872 56.5417L112.776 58.3007L112.908 61.3247L109.829 66.5361C109.829 66.5361 117.109 69.3333 119.847 75.0335C120.661 75.1795 121.5 75.0695 122.248 74.7189C122.996 74.3683 123.615 73.7946 124.018 73.078L127 66.1228" fill="#FFCAA3"/>
<path d="M133.202 62.5988C133.71 59.6051 134.36 56.3694 134.309 53.9905C134.269 51.9745 133.954 48.9253 132.643 47.3478C130.952 45.3318 127.878 45.2814 125.292 44.9941C121.051 44.5254 118.125 48.3356 116.865 51.8989C115.937 54.5635 115.937 57.4596 116.865 60.1242C118.033 63.8084 122.173 68.7577 127.558 68.1479C130.428 67.8253 132.648 65.764 133.202 62.5988Z" fill="#FFCAA3"/>
<path d="M128.016 56.0607C127.96 56.5043 127.64 56.8319 127.3 56.7966C127.118 56.7425 126.964 56.6215 126.87 56.4584C126.775 56.2953 126.747 56.1025 126.792 55.9196C126.842 55.4711 127.162 55.1435 127.508 55.1838C127.689 55.2389 127.842 55.3601 127.936 55.5229C128.03 55.6857 128.059 55.8779 128.016 56.0607Z" fill="black"/>
<path d="M133.868 56.6168C133.817 57.0603 133.497 57.3879 133.151 57.3476C132.969 57.2946 132.814 57.1738 132.72 57.0104C132.625 56.847 132.598 56.6536 132.643 56.4706C132.694 56.0271 133.014 55.6995 133.36 55.7348C133.542 55.7899 133.696 55.9119 133.79 56.0758C133.884 56.2397 133.912 56.4332 133.868 56.6168Z" fill="black"/>
<path d="M131.267 55.6309C131.201 56.6664 131.201 57.705 131.267 58.7405C131.267 59.3806 131.267 60.5096 130.454 60.6557C129.863 60.6661 129.274 60.588 128.707 60.4239" stroke="black" stroke-width="0.860136" stroke-miterlimit="10"/>
<path d="M129.154 62.2523L126.954 60.4177C126.954 60.4177 125.339 62.5093 126.172 63.2704C127.508 64.4951 129.154 62.2523 129.154 62.2523Z" fill="white"/>
<path d="M132.719 47.9861C133.69 49.4981 134.243 50.7026 134.269 55.2185C134.738 55.1257 135.193 54.9697 135.62 54.7548C135.833 54.6473 136.023 54.4989 136.179 54.318C136.334 54.1372 136.451 53.9276 136.524 53.7014C136.753 52.8497 136.113 52.008 136.077 51.131C136.096 50.4914 136.31 49.8726 136.692 49.3569C137.001 48.9743 137.222 48.5286 137.337 48.0516C137.348 47.7064 137.275 47.3637 137.126 47.0517C136.977 46.7397 136.755 46.4674 136.479 46.2573C135.33 45.2493 133.796 44.8109 132.475 44.0549C131.835 43.6869 131.495 43.1124 130.901 42.6789C130.233 42.1893 129.518 41.7656 128.767 41.4139C127.03 40.5995 125.145 40.1417 123.225 40.0682C121.394 39.9875 119.566 40.2824 117.856 40.9345C116.145 41.5867 114.588 42.582 113.283 43.8583C109.864 47.2553 108.493 53.7317 110.637 57.4663C111.846 59.5781 112.953 61.3169 112.953 61.3169C113.095 61.5336 116.047 58.9027 116.23 58.5449C116.388 58.169 116.51 57.7792 116.595 57.3806C116.976 56.0501 118.312 55.8283 119.455 55.415C121.122 54.8052 121.955 53.3335 122.28 51.6703C122.441 50.7092 122.521 49.7365 122.519 48.7622C122.519 48.9789 123.865 49.4527 124.043 49.5132C126.071 50.1452 128.235 50.2062 130.296 49.6896C130.914 49.5645 131.496 49.3027 131.998 48.9235C132.14 48.8328 132.933 48.2028 132.719 47.9861Z" fill="#1E1611"/>
<path d="M120.299 65.4802C122.005 67.0761 124.214 68.0376 126.553 68.2018" stroke="black" stroke-width="0.860136" stroke-miterlimit="10"/>
<path d="M124.46 52.8986C124.642 52.5494 124.907 52.2493 125.232 52.0241C125.557 51.7989 125.932 51.6554 126.325 51.6058C126.719 51.5562 127.118 51.6021 127.49 51.7395C127.861 51.8769 128.193 52.1017 128.458 52.3946" stroke="black" stroke-width="0.860136" stroke-miterlimit="10"/>
<path d="M131.907 52.9924C132.002 52.7238 132.182 52.4926 132.42 52.333C132.658 52.1733 132.941 52.0935 133.228 52.1054C133.497 52.1868 133.732 52.3547 133.894 52.5828C134.057 52.8109 134.139 53.0862 134.127 53.3654" stroke="black" stroke-width="0.860136" stroke-miterlimit="10"/>
<path d="M130.114 57.2103C129.998 57.5675 129.812 57.8981 129.565 58.1827C129.319 58.4673 129.018 58.7003 128.679 58.8679C128.341 59.0355 127.972 59.1344 127.595 59.1587C127.218 59.183 126.839 59.1323 126.482 59.0096C125.756 58.7455 125.165 58.2092 124.834 57.5163C124.503 56.8234 124.46 56.0293 124.714 55.3052C124.83 54.9484 125.017 54.6183 125.264 54.334C125.51 54.0498 125.811 53.8171 126.15 53.6496C126.488 53.482 126.856 53.3831 127.233 53.3584C127.611 53.3337 127.989 53.3839 128.346 53.5059C129.072 53.77 129.663 54.3063 129.994 54.9992C130.325 55.6922 130.368 56.4862 130.114 57.2103Z" stroke="#572A2F" stroke-width="0.860136" stroke-miterlimit="10"/>
<path d="M135.59 57.92C135.31 59.4975 134.284 60.6315 133.299 60.44C132.313 60.2485 131.729 58.8322 132.008 57.2547C132.288 55.6772 133.309 54.5432 134.299 54.7347C135.29 54.9262 135.864 56.3425 135.59 57.92Z" stroke="#572A2F" stroke-width="0.860136" stroke-miterlimit="10"/>
<path d="M132.268 56.4321L130.261 56.0583" stroke="#572A2F" stroke-width="0.860136" stroke-miterlimit="10"/>
<path d="M124.83 55.0349L118.78 55.4885" stroke="#572A2F" stroke-width="0.860136" stroke-miterlimit="10"/>
<path d="M120.513 56.5735C120.482 55.1169 118.481 53.9779 117.201 54.4416C114.071 55.5554 115.128 61.1196 118.034 61.6488C118.857 61.8 120.035 61.4824 120.33 60.5551" fill="#FFCAA3"/>
<path d="M116.972 56.9189L119.664 59.3381" stroke="black" stroke-width="0.860136" stroke-miterlimit="10"/>
<path d="M119.131 54.7986C119.804 55.1967 120.336 55.7918 120.655 56.5021" stroke="black" stroke-width="0.860136" stroke-miterlimit="10"/>
<path d="M115.412 59.0283C115.814 60.2178 116.637 61.4778 117.952 61.6894C118.415 61.7833 118.896 61.7181 119.316 61.5047C119.736 61.2912 120.07 60.9422 120.264 60.5151" stroke="black" stroke-width="0.860136" stroke-miterlimit="10"/>
<path d="M108.504 50.8396C108.518 48.8779 108.828 46.9295 109.423 45.0587C110.028 43.1811 111.181 41.5237 112.735 40.2959C113.628 39.6738 114.595 39.1658 115.616 38.7839C116.463 38.4272 117.34 38.1439 118.237 37.9372C121.605 37.2266 125.1 38.285 128.255 39.6508" fill="#FFC36C"/>
<path d="M129.763 39.9087C128.366 38.6802 126.549 38.0275 124.683 38.0842C124.327 38.1044 123.972 38.1499 123.622 38.2203C121.178 38.7243 118.973 39.9692 116.86 41.2443C114.031 42.9781 111.206 44.8479 109.133 47.4284C108.322 48.3161 107.806 49.4299 107.655 50.6187C107.64 51.2804 107.752 51.939 107.985 52.5591C108.454 53.7883 109.112 54.9377 109.936 55.9661C116.154 50.1953 123.144 45.6291 131.206 42.9176C131.127 41.7694 130.612 40.6938 129.763 39.9087Z" fill="#FFC36C"/>
<path d="M108.909 47.741C112.718 42.9895 117.979 39.5936 123.901 38.0642" stroke="black" stroke-width="0.860136" stroke-miterlimit="10"/>
<path d="M111.637 48.5771C112.335 49.9353 113.246 51.1754 114.335 52.2513" stroke="black" stroke-width="0.860136" stroke-miterlimit="10"/>
<path d="M117.77 43.1152C118.57 44.7851 119.557 46.3606 120.711 47.8125" stroke="black" stroke-width="0.860136" stroke-miterlimit="10"/>
<path d="M124.277 39.6443C125.62 41.0211 126.764 42.5765 127.676 44.266" stroke="black" stroke-width="0.860136" stroke-miterlimit="10"/>
<path d="M126.522 38.8574C127.686 40.3049 128.665 41.8894 129.438 43.5749" stroke="black" stroke-width="0.860136" stroke-miterlimit="10"/>
<path d="M108.585 49.3875C108.988 51.4191 110.115 53.2387 111.76 54.5131" stroke="black" stroke-width="0.860136" stroke-miterlimit="10"/>
<path d="M104.993 64.614C107.965 65.7178 110.967 66.8316 113.629 68.5704C116.291 70.3092 118.953 72.7536 119.898 75.7575" stroke="black" stroke-width="0.860136" stroke-miterlimit="10"/>
<path d="M121.92 74.8429C123.294 74.1909 124.378 73.061 124.968 71.6677" stroke="black" stroke-width="0.860136" stroke-miterlimit="10"/>
<path d="M96.0117 65.8406C97.3884 73.6727 107.802 72.1759 112.654 74.6051" stroke="black" stroke-width="0.860136" stroke-miterlimit="10"/>
<path d="M130.129 71.533C129.98 72.6216 129.536 73.6496 128.843 74.5066C127.766 75.7514 126.085 76.2655 124.495 76.7191" stroke="black" stroke-width="0.860136" stroke-miterlimit="10"/>
<path d="M125.933 74.8406C126.654 79.7647 127.386 85.2835 127.157 90.2579" stroke="black" stroke-width="0.860136" stroke-miterlimit="10"/>
<path d="M114.899 73.7095C115.651 75.7557 115.295 81.3048 115.214 86.3095" stroke="black" stroke-width="0.860136" stroke-miterlimit="10"/>
<path d="M49.0168 137.992H168.488V213.97C168.488 214.808 168.153 215.612 167.555 216.204C166.958 216.797 166.148 217.13 165.303 217.13H52.202C51.3573 217.13 50.5471 216.797 49.9498 216.204C49.3524 215.612 49.0168 214.808 49.0168 213.97V137.992Z" fill="#D4BCDD"/>
<path d="M165.298 127.75C166.143 127.75 166.954 128.083 167.552 128.675C168.15 129.268 168.487 130.071 168.488 130.91V213.969C168.487 214.808 168.15 215.612 167.552 216.204C166.954 216.797 166.143 217.129 165.298 217.129H52.2021C51.3573 217.129 50.5472 216.796 49.9498 216.204C49.3525 215.611 49.0169 214.807 49.0169 213.969V130.9C49.0169 130.062 49.3525 129.258 49.9498 128.665C50.5472 128.073 51.3573 127.74 52.2021 127.74H165.298M165.298 126.984H52.2021C51.1565 126.987 50.1546 127.4 49.4158 128.134C48.6769 128.868 48.2614 129.863 48.26 130.9V213.959C48.26 214.998 48.6759 215.994 49.4161 216.728C50.1563 217.463 51.1603 217.875 52.2072 217.875H165.298C166.345 217.875 167.35 217.463 168.091 216.729C168.832 215.994 169.249 214.998 169.25 213.959V130.9C169.248 129.861 168.83 128.866 168.09 128.132C167.349 127.398 166.345 126.985 165.298 126.984Z" fill="white"/>
<path d="M58.1096 133.175C58.1106 133.611 57.9813 134.037 57.7379 134.4C57.4946 134.763 57.1483 135.046 56.7427 135.213C56.3371 135.381 55.8906 135.425 55.4597 135.341C55.0287 135.256 54.6327 135.047 54.3217 134.739C54.0107 134.431 53.7988 134.039 53.7127 133.611C53.6266 133.184 53.6703 132.741 53.8382 132.338C54.006 131.935 54.2906 131.591 54.6558 131.349C55.0209 131.107 55.4503 130.977 55.8896 130.977C56.4775 130.977 57.0414 131.209 57.4576 131.621C57.8738 132.033 58.1082 132.591 58.1096 133.175Z" stroke="white" stroke-width="1.2902" stroke-miterlimit="10"/>
<path d="M64.4803 135.372C65.7035 135.372 66.6951 134.388 66.6951 133.175C66.6951 131.961 65.7035 130.977 64.4803 130.977C63.257 130.977 62.2654 131.961 62.2654 133.175C62.2654 134.388 63.257 135.372 64.4803 135.372Z" stroke="white" stroke-width="1.2902" stroke-miterlimit="10"/>
<path d="M49.0168 137.992H168.488" stroke="white" stroke-width="1.2902" stroke-miterlimit="10"/>
<path d="M157.007 217.132C155.406 213.214 153.229 209.554 150.545 206.27C148.91 204.254 146.989 202.364 144.597 201.482C142.204 200.6 139.192 200.978 137.561 202.994C136.311 204.506 136.073 206.648 135.885 208.634C131.922 204.421 127.914 200.157 123.083 197.042C118.252 193.928 112.415 191.69 106.797 192.909C100.584 194.24 100.584 202.022 100.584 202.022C100.584 202.022 96.7787 196.73 96.4384 196.236C93.881 192.586 91.0448 189.137 87.9548 185.919C84.9474 182.734 82.0874 179.367 78.7041 176.595C75.3208 173.823 69.8497 170.285 65.3132 171.963C62.951 172.835 62.3008 174.866 62.824 177.21C63.332 179.402 63.5708 181.6 64.2566 183.762C60.4415 179.543 56.1032 175.658 51.0486 173.032C47.4164 171.137 39.837 167.921 36.0677 171.016C35.5452 171.503 35.1314 172.093 34.8532 172.748C34.5749 173.404 34.4383 174.11 34.4522 174.821C34.2846 183.555 40.6397 192.94 45.7197 199.391C50.9622 206.008 57.2817 211.87 63.8299 217.132H157.007Z" fill="#FFDD99"/>
<path d="M134.051 177.691C133.375 181.406 133.574 185.251 133.594 189.031C133.614 192.811 133.919 195.306 132.537 198.748C131.288 201.853 128.681 202.911 127.32 205.955C126.624 207.503 123.998 217.129 123.998 217.129H88.7069C88.7069 217.129 87.6909 202.009 93.157 189.092C98.6231 176.174 105.405 173.866 105.405 173.866L125.476 168.705L134.051 177.691Z" fill="#735D9D"/>
<path d="M180.289 155.118C181.335 153.868 182.798 153.102 184.053 152.059C185.206 151.121 186.085 149.806 187.03 148.667C188.142 147.23 189.176 145.736 190.129 144.191C191.271 142.642 192.57 141.211 194.005 139.922C194.213 139.746 194.385 139.533 194.513 139.292C194.562 139.182 194.586 139.062 194.585 138.941C194.583 138.82 194.556 138.701 194.505 138.591C194.453 138.481 194.379 138.384 194.287 138.305C194.194 138.226 194.086 138.167 193.969 138.133C192.941 137.932 191.876 138.053 190.921 138.481C190.342 138.693 188.381 139.378 188.269 138.289C188.132 137.055 189.173 135.265 189.575 134.106C190.083 132.619 190.626 131.128 191.048 129.605C191.47 128.083 191.358 125.377 190.581 125.332C189.803 125.286 190.388 125.75 190.184 125.836C190.51 125.412 189.946 124.434 189.478 124.147C189.011 123.86 188.406 124.797 188.269 125.306C188.427 124.802 187.985 123.986 187.614 123.956C187.07 123.905 186.649 124.414 186.324 124.833C186.042 125.279 185.681 125.67 185.257 125.987C185.26 125.63 185.207 125.274 185.099 124.933C184.744 124.732 184.337 125.059 184.083 125.362C178.881 131.455 175.361 139.01 169.59 144.877" fill="#E27769"/>
<path d="M188.392 137.452C188.392 138.964 188.391 140.451 188.275 141.948" stroke="black" stroke-width="0.860136" stroke-miterlimit="10"/>
<path d="M190.022 125.499C189.57 126.915 188.691 128.115 188.031 129.43C186.984 131.527 186.044 133.674 185.074 135.806" stroke="black" stroke-width="0.860136" stroke-miterlimit="10"/>
<path d="M188.234 125.223C187.916 125.887 187.553 126.529 187.147 127.144C186.715 127.799 186.238 128.424 185.77 129.064C184.452 130.888 183.264 132.801 182.214 134.789" stroke="black" stroke-width="0.860136" stroke-miterlimit="10"/>
<path d="M185.079 126.236C184.684 126.957 184.192 127.622 183.616 128.212C181.922 130.154 180.469 132.291 179.288 134.577" stroke="black" stroke-width="0.860136" stroke-miterlimit="10"/>
<path d="M115.351 170.718C121.666 168.097 125.806 165.346 132.054 162.553C137.693 160.033 145.602 157.967 151.16 155.281C158.846 151.561 166.055 147.459 172.369 141.834L183.85 153.819C183.85 153.819 167.64 170.244 161.965 173.445C148.32 181.156 143.352 182.603 129.164 189.961" fill="#735D9D"/>
<path d="M133.431 187.899C133.514 185.059 134.161 182.264 135.336 179.674" stroke="black" stroke-width="0.860136" stroke-miterlimit="10"/>
<path d="M168.539 144.995L179.923 157.67" stroke="black" stroke-width="0.860136" stroke-miterlimit="10"/>
<path d="M113.517 205.492C118.333 205.583 123.124 206.334 127.299 208.854C128.236 209.395 129.047 210.126 129.68 210.998C130.312 211.871 130.753 212.866 130.972 213.919C131.436 215.837 131.585 217.816 131.414 219.781C131.407 219.87 131.372 219.956 131.315 220.026C131.258 220.096 131.181 220.148 131.094 220.174C130.857 220.173 130.624 220.116 130.413 220.007C130.413 220.007 130.825 221.933 130.413 222.331C130.109 222.613 129.54 222.23 129.321 221.998C129.092 221.698 128.895 221.375 128.732 221.036C128.732 221.036 129.016 222.144 128.773 222.336C128.417 222.618 127.376 221.902 127.132 221.177C126.979 221.59 126.73 221.968 126.349 221.867C125.146 221.55 124.206 219.851 123.215 219.025C121.899 217.911 120.132 217.835 118.491 217.86C117.735 217.888 116.979 217.873 116.225 217.815C115.477 217.685 114.736 217.517 114.005 217.311C112.591 217.042 111.16 216.874 109.723 216.807" fill="#E27769"/>
<path d="M122.427 215.431C123.748 215.976 125.15 216.586 125.892 217.704C126.103 218.043 126.273 218.405 126.4 218.783C126.684 219.564 126.908 220.366 127.126 221.167" stroke="black" stroke-width="0.860136" stroke-miterlimit="10"/>
<path d="M124.302 213.052C125.065 213.509 125.777 214.045 126.426 214.65C127.08 215.256 127.583 216.005 127.894 216.838C128.042 217.319 128.153 217.811 128.224 218.309C128.394 219.337 128.563 220.362 128.732 221.384" stroke="black" stroke-width="0.860136" stroke-miterlimit="10"/>
<path d="M126.883 211.437C128.14 212.372 129.106 213.638 129.672 215.091C130.115 216.396 130.392 217.75 130.495 219.123L130.647 220.419" stroke="black" stroke-width="0.860136" stroke-miterlimit="10"/>
<path d="M108.204 171.646C108.204 171.646 98.2417 173.108 94.4215 175.29C88.4424 178.697 85.816 183.893 82.006 192.713C78.196 201.533 76.6517 205.399 76.6161 208.337C76.5603 212.641 78.511 217.147 86.4866 217.147H111.887L117.017 205.258L97.2308 202.188L102.692 189.503" fill="#735D9D"/>
<path d="M117.053 205.238L97.2661 202.169L102.727 189.483" stroke="black" stroke-width="0.860136" stroke-miterlimit="10"/>
<path d="M90.2407 203.983C90.3931 203.983 93.4005 202.118 97.2664 202.169" stroke="black" stroke-width="0.860136" stroke-miterlimit="10"/>
<path d="M111.592 204.39L106.167 217.126" stroke="black" stroke-width="0.860136" stroke-miterlimit="10"/>
<path d="M123.662 174.674C123.915 173.283 123.927 171.86 123.697 170.466" stroke="black" stroke-width="0.860136" stroke-miterlimit="10"/>
<path d="M102.58 174.335C103.781 177.081 105.989 179.272 108.757 180.463C112.095 181.915 116.626 182.182 119.817 180.242C121.191 179.429 122.291 178.229 122.976 176.794" stroke="black" stroke-width="0.860136" stroke-miterlimit="10"/>
<path d="M158.77 179.437C164.73 176.419 170.144 172.44 174.792 167.664" stroke="black" stroke-width="0.860136" stroke-miterlimit="10"/>
<path d="M169.865 176.586C172.75 174.369 175.451 171.925 177.942 169.278" stroke="black" stroke-width="0.860136" stroke-miterlimit="10"/>
<path d="M74.4669 200.902C73.2118 204.987 72.765 209.274 73.1512 213.527" stroke="black" stroke-width="0.860136" stroke-miterlimit="10"/>
<path d="M70.4947 201.51C69.6992 203.799 69.2473 206.191 69.1536 208.611" stroke="black" stroke-width="0.860136" stroke-miterlimit="10"/>
<path d="M111.551 159.497L106.101 163.116L107.279 166.981L105.664 172.807C105.611 172.99 105.6 173.182 105.631 173.369C105.661 173.556 105.733 173.735 105.842 173.891C106.856 175.355 108.225 176.541 109.823 177.342C111.421 178.143 113.196 178.531 114.986 178.472C120.772 178.472 120.69 174.657 120.69 174.657L121.747 166.548" fill="#E27769"/>
<path d="M122.509 159.009C121.011 156.237 120.157 154.524 118.582 152.618C117.251 151.001 115.026 148.712 112.949 148.259C110.261 147.674 107.732 149.594 105.446 151.001C101.686 153.304 101.752 158.268 103.022 161.963C103.998 164.805 106.014 165.889 108.554 167.623C111.877 169.885 119.106 170.909 122.204 168.429C124.526 166.574 124.094 161.942 122.509 159.009Z" fill="#E27769"/>
<path d="M114.477 158.764C114.498 158.887 114.484 159.014 114.435 159.129C114.387 159.245 114.306 159.344 114.204 159.417C114.101 159.489 113.979 159.531 113.853 159.538C113.727 159.545 113.602 159.516 113.492 159.456C113.381 159.395 113.29 159.305 113.229 159.196C113.168 159.086 113.14 158.962 113.147 158.837C113.153 158.712 113.196 158.592 113.268 158.49C113.341 158.388 113.442 158.308 113.558 158.26C113.747 158.212 113.947 158.237 114.118 158.331C114.289 158.425 114.418 158.579 114.477 158.764Z" fill="black"/>
<path d="M119.812 155.849C119.827 155.973 119.807 156.097 119.755 156.21C119.702 156.323 119.619 156.418 119.515 156.487C119.41 156.555 119.289 156.593 119.164 156.596C119.039 156.599 118.915 156.568 118.807 156.505C118.699 156.442 118.611 156.351 118.553 156.241C118.495 156.131 118.468 156.008 118.477 155.884C118.486 155.76 118.53 155.641 118.603 155.541C118.676 155.44 118.776 155.362 118.892 155.315C119.085 155.27 119.288 155.3 119.46 155.4C119.631 155.499 119.757 155.66 119.812 155.849Z" fill="black"/>
<path d="M116.956 157.714C117.569 158.216 118.254 158.625 118.988 158.928C119.435 159.13 120.924 159.528 120.594 160.244C120.294 160.693 119.928 161.094 119.506 161.433" stroke="black" stroke-width="0.860136" stroke-miterlimit="10"/>
<path d="M106.054 171.322C106.054 171.322 106.735 169.598 106.898 168.978C107.177 167.935 106.293 167.885 105.988 166.962C105.883 166.451 105.911 165.922 106.07 165.425C106.298 164.417 106.827 163.268 106.354 162.24C106.054 161.595 105.409 161.181 104.896 160.682C104.383 160.183 103.961 159.422 104.271 158.772C104.632 158.011 105.714 157.956 106.374 157.422C107.035 156.887 107.187 155.945 107.142 155.103C107.015 154.269 106.985 153.424 107.05 152.583C107.066 152.432 107.126 152.288 107.223 152.17C107.548 151.837 108.086 152.17 108.493 152.382C108.858 152.566 109.261 152.667 109.671 152.675C110.081 152.684 110.487 152.601 110.86 152.432C111.056 152.361 111.235 152.251 111.386 152.109C111.537 151.967 111.657 151.795 111.739 151.605C111.804 151.358 111.847 151.105 111.866 150.849C111.878 150.722 111.916 150.598 111.979 150.486C112.042 150.374 112.128 150.276 112.232 150.199C112.398 150.115 112.585 150.08 112.77 150.098C113.363 150.126 113.934 150.328 114.411 150.678C114.553 150.832 114.726 150.957 114.918 151.043C115.11 151.13 115.318 151.177 115.529 151.182C115.996 151.095 116.475 151.083 116.946 151.147C117.504 151.383 117.964 151.801 118.251 152.331C119.186 153.675 120.123 155.019 121.061 156.363C121.566 155.717 121.962 154.993 122.234 154.221C122.367 153.835 122.406 153.423 122.346 153.019C122.287 152.615 122.132 152.231 121.894 151.898C121.386 151.283 120.543 151.011 120.116 150.345C119.689 149.68 119.72 148.551 119.669 147.72C119.62 146.797 119.323 145.905 118.81 145.134C118.575 144.75 118.243 144.434 117.848 144.215C117.453 143.996 117.007 143.882 116.555 143.884C116.052 144.002 115.543 144.092 115.031 144.156C114.71 144.132 114.396 144.048 114.106 143.909C112.73 143.325 111.541 142.397 110.174 141.782C108.808 141.168 107.096 141.006 105.912 141.913C105.308 142.377 104.896 143.088 104.251 143.471C102.351 144.59 99.6282 142.463 97.8197 143.738C96.6513 144.549 96.6158 146.303 95.6302 147.326C94.3755 148.632 92.0742 148.289 90.662 149.413C89.2498 150.537 89.2193 152.805 90.0829 154.413C90.5096 155.209 91.1294 156.03 90.9465 156.933C90.7692 157.467 90.4702 157.953 90.0727 158.354C89.5449 158.973 89.194 159.722 89.0567 160.521C88.9948 160.918 89.0319 161.324 89.1647 161.704C89.2976 162.083 89.5221 162.425 89.8187 162.698C90.2048 163.021 90.789 163.172 91.0836 163.59C91.374 164.17 91.5384 164.804 91.5662 165.45C91.5881 165.938 91.6596 166.423 91.7796 166.897C92.1809 168.172 93.5982 168.913 94.9394 168.913C95.5591 168.913 96.2449 168.797 96.7529 169.15C97.1264 169.5 97.4163 169.929 97.6013 170.405C98.0432 171.11 98.7295 171.631 99.5312 171.869C100.333 172.108 101.195 172.047 101.955 171.7C102.519 171.418 103.037 170.969 103.662 170.959C104.287 170.949 105.465 171.423 106.054 171.322Z" fill="#2C221D"/>
<path d="M114.808 169.735C116.484 170.149 119.669 170.239 122.082 168.727" stroke="black" stroke-width="0.860136" stroke-miterlimit="10"/>
<path d="M110.277 158.626C110.277 156.952 111.384 155.35 113.198 155.667" stroke="black" stroke-width="0.860136" stroke-miterlimit="10"/>
<path d="M116.535 154.475C116.534 154.199 116.614 153.929 116.765 153.696C116.915 153.464 117.13 153.279 117.383 153.165C117.63 153.03 117.91 152.966 118.192 152.979C118.473 152.992 118.746 153.083 118.978 153.241" stroke="black" stroke-width="0.860136" stroke-miterlimit="10"/>
<path d="M109.001 163.467C108.041 162.303 105.694 162.625 104.937 163.83C103.103 166.718 107.543 170.584 110.256 169.172C111.023 168.774 111.78 167.766 111.419 166.829" fill="#E27769"/>
<path d="M106.34 165.993L110.089 166.261" stroke="black" stroke-width="0.860136" stroke-miterlimit="10"/>
<path d="M106.72 162.882C107.519 162.787 108.327 162.938 109.036 163.315" stroke="black" stroke-width="0.860136" stroke-miterlimit="10"/>
<path d="M106.426 168.703C107.518 169.419 109.001 169.923 110.2 169.268C110.637 169.051 110.986 168.693 111.191 168.254C111.396 167.814 111.444 167.319 111.328 166.848" stroke="black" stroke-width="0.860136" stroke-miterlimit="10"/>
<path d="M117.541 161.713C117.297 162.61 117.597 163.784 118.633 163.971C119.022 164.033 119.421 163.959 119.761 163.761C120.102 163.564 120.362 163.254 120.497 162.887" stroke="black" stroke-width="0.860136" stroke-miterlimit="10"/>
<path d="M208.341 52.0417H327.944V107.578C327.944 108.416 327.609 109.219 327.011 109.812C326.414 110.405 325.604 110.738 324.759 110.738H211.526C210.681 110.738 209.871 110.405 209.274 109.812C208.676 109.219 208.341 108.416 208.341 107.578V52.0417Z" fill="#D5D8BC"/>
<path d="M324.759 43.6124C325.604 43.6124 326.414 43.9454 327.011 44.538C327.609 45.1306 327.944 45.9344 327.944 46.7725V107.575C327.944 108.413 327.609 109.217 327.011 109.81C326.414 110.402 325.604 110.735 324.759 110.735H211.526C210.681 110.735 209.871 110.402 209.274 109.81C208.676 109.217 208.341 108.413 208.341 107.575V46.7725C208.341 45.9344 208.676 45.1306 209.274 44.538C209.871 43.9454 210.681 43.6124 211.526 43.6124H324.759ZM324.759 42.8564H211.526C210.479 42.8578 209.476 43.2708 208.736 44.0049C207.996 44.739 207.58 45.7343 207.579 46.7725V107.575C207.58 108.613 207.996 109.609 208.736 110.343C209.476 111.077 210.479 111.49 211.526 111.491H324.759C325.805 111.49 326.809 111.077 327.549 110.343C328.288 109.609 328.705 108.613 328.706 107.575V46.7725C328.705 45.7343 328.288 44.739 327.549 44.0049C326.809 43.2708 325.805 42.8578 324.759 42.8564Z" fill="white"/>
<path d="M213.995 46.2675C214.356 46.2665 214.709 46.3717 215.009 46.57C215.31 46.7682 215.545 47.0504 215.683 47.3809C215.822 47.7115 215.859 48.0754 215.789 48.4267C215.719 48.778 215.546 49.1009 215.291 49.3545C215.036 49.608 214.712 49.7808 214.358 49.851C214.004 49.9213 213.637 49.8857 213.303 49.7489C212.97 49.6121 212.685 49.3802 212.484 49.0826C212.283 48.7849 212.176 48.4349 212.176 48.0768C212.176 47.5978 212.368 47.1384 212.709 46.7992C213.05 46.46 213.512 46.2688 213.995 46.2675ZM213.995 45.5115C213.483 45.5115 212.984 45.6619 212.558 45.9438C212.133 46.2257 211.802 46.6264 211.606 47.0951C211.41 47.5639 211.359 48.0797 211.459 48.5773C211.559 49.0749 211.805 49.532 212.167 49.8908C212.528 50.2496 212.989 50.4939 213.49 50.5929C213.992 50.6919 214.512 50.6411 214.984 50.4469C215.457 50.2528 215.861 49.9239 216.145 49.5021C216.429 49.0802 216.581 48.5842 216.581 48.0768C216.579 47.3969 216.306 46.7451 215.822 46.2643C215.337 45.7835 214.68 45.5128 213.995 45.5115Z" fill="white"/>
<path d="M221.066 46.2675C221.427 46.2675 221.779 46.3736 222.079 46.5724C222.379 46.7712 222.613 47.0538 222.751 47.3844C222.889 47.715 222.925 48.0788 222.855 48.4298C222.784 48.7808 222.611 49.1032 222.355 49.3563C222.1 49.6093 221.775 49.7816 221.422 49.8514C221.068 49.9212 220.701 49.8854 220.368 49.7485C220.035 49.6115 219.75 49.3796 219.55 49.0821C219.349 48.7845 219.242 48.4347 219.242 48.0768C219.241 47.839 219.288 47.6035 219.38 47.3836C219.471 47.1638 219.605 46.9641 219.775 46.7959C219.944 46.6278 220.146 46.4945 220.367 46.4039C220.589 46.3132 220.826 46.2668 221.066 46.2675ZM221.066 45.5115C220.554 45.5105 220.054 45.6601 219.628 45.9414C219.202 46.2226 218.87 46.623 218.673 47.0916C218.477 47.5603 218.425 48.0763 218.524 48.5742C218.623 49.0722 218.869 49.5298 219.231 49.889C219.592 50.2483 220.053 50.4931 220.554 50.5925C221.056 50.6919 221.576 50.6414 222.049 50.4474C222.522 50.2534 222.926 49.9246 223.21 49.5026C223.495 49.0806 223.647 48.5844 223.647 48.0768C223.645 47.3977 223.373 46.7468 222.89 46.2661C222.406 45.7854 221.75 45.5141 221.066 45.5115Z" fill="white"/>
<path d="M208.341 52.0417H327.944" stroke="white" stroke-width="1.2902" stroke-miterlimit="10"/>
<path d="M311.612 100.245C309.372 96.5359 306.999 92.6853 303.321 90.4173C299.644 88.1493 294.259 88.0687 291.51 91.4253C289.077 94.3939 289.529 98.7182 290.113 102.513C287.406 99.0823 284.243 96.0306 280.71 93.4413C277.993 91.4555 274.995 89.7319 271.698 89.1069C268.275 88.4618 264.363 89.1724 261.538 91.2741C257.703 94.1469 257.759 98.6627 258.135 103.017C253.482 94.2628 248.305 85.5739 241.137 78.5783C239.283 76.7639 237.104 75.1965 234.594 74.501C233.157 74.1028 231.546 74.0272 230.246 74.7732C228.285 75.9072 227.767 78.4675 227.706 80.7203C227.638 83.4384 227.952 86.1526 228.64 88.7843C227.391 87.4292 225.743 86.4982 223.931 86.1232C222.933 85.9461 221.909 85.9792 220.925 86.2206C219.941 86.4619 219.019 86.906 218.22 87.5239C217.42 88.1419 216.76 88.9199 216.284 89.8074C215.807 90.6949 215.524 91.672 215.453 92.6752C215.209 97.0701 217.901 101.243 219.964 104.958C220.746 106.364 221.554 107.77 222.443 109.116C222.616 109.378 223.276 110.683 223.677 110.683H317.545C315.569 107.417 313.588 103.521 311.612 100.245Z" fill="#B5AE6B"/>
<mask id="mask0_4_2087" style="mask-type:luminance" maskUnits="userSpaceOnUse" x="208" y="43" width="120" height="68">
<path d="M324.759 43.6157H211.526C209.766 43.6157 208.34 45.0305 208.34 46.7758V107.578C208.34 109.324 209.766 110.738 211.526 110.738H324.759C326.518 110.738 327.944 109.324 327.944 107.578V46.7758C327.944 45.0305 326.518 43.6157 324.759 43.6157Z" fill="white"/>
</mask>
<g mask="url(#mask0_4_2087)">
<path d="M319.827 106.575L288.437 46.8917L279.517 46.3726L272.511 52.0426L254.493 65.0407L274.747 123.943L319.827 106.575Z" fill="white"/>
<path d="M260.853 64.187C261.737 64.9067 262.772 65.4199 263.883 65.6886C264.993 65.9573 266.151 65.9747 267.269 65.7393" stroke="black" stroke-width="0.860136" stroke-miterlimit="10"/>
<path d="M269.463 65.04C271.676 64.304 273.593 62.8841 274.933 60.9885C276.274 59.0929 276.967 56.8212 276.911 54.5063" stroke="black" stroke-width="0.860136" stroke-miterlimit="10"/>
<path d="M311.262 84.385C305.826 74.1135 289.529 41.7265 285.232 43.3242C280.299 45.1537 274.747 49.8762 274.747 49.8762C274.747 49.8762 277.408 58.3182 277.612 59.1145C278.347 62.0377 279.107 64.9508 279.893 67.8538C281.838 75.0913 283.576 82.4396 285.989 89.5258C288.432 96.7381 291.14 103.875 294.056 110.916C295.229 113.738 296.169 117.044 298.394 119.252C299.654 120.527 301.442 121.419 303.215 121.268C304.448 121.074 305.632 120.644 306.7 120.003C311.546 117.483 325.064 111.47 325.064 111.47C325.064 111.47 318.109 97.3479 311.262 84.385Z" fill="#4C4139"/>
<path d="M283.57 123.877C282.25 119.109 279.989 114.719 278.318 110.083C276.128 104.035 274.183 97.8706 271.922 91.8276C268.478 82.6095 263.591 69.8684 259.852 60.7661C259.852 60.7661 252.994 64.6671 251.612 65.6146C250.23 66.5621 250.53 68.815 250.53 68.815C255.991 89.0052 272.516 134.864 272.516 134.864C274.477 133.856 279.329 131.135 281.284 130.106C283.865 128.756 284.312 126.558 283.57 123.877Z" fill="#4C4139"/>
<path d="M252.984 64.772C259.324 74.4337 264.256 82.296 270.865 91.7813" stroke="black" stroke-width="0.860136" stroke-miterlimit="10"/>
<path d="M283.352 45.7651C284.666 58.5835 285.467 71.4372 285.755 84.3262" stroke="black" stroke-width="0.860136" stroke-miterlimit="10"/>
</g>
<path d="M217.556 114.175C216.228 115.183 214.874 116.134 213.492 117.028C212.151 117.895 210.708 118.631 209.392 119.548C209.062 119.77 208.762 120.022 208.458 120.269C207.317 121.139 206.276 122.131 205.354 123.227C205.245 123.385 205.113 123.526 204.962 123.646C204.886 123.703 204.796 123.739 204.7 123.753C204.605 123.766 204.509 123.755 204.419 123.721C204.332 123.665 204.258 123.591 204.203 123.504C204.147 123.417 204.112 123.319 204.099 123.217C203.939 122.407 204.055 121.566 204.429 120.828C204.637 120.324 204.891 119.881 205.115 119.402C205.342 119.015 205.488 118.586 205.542 118.142C201.986 119.009 198.877 121.095 195.524 122.567C194.838 122.864 193.441 122.804 193.294 122.219C193.106 121.448 198.059 118.873 200.436 117.028C198.734 117.529 197.075 118.168 195.478 118.938C194.413 119.519 193.257 119.919 192.059 120.123C191.389 120.228 189.865 120.299 190.347 119.18C190.521 118.864 190.777 118.599 191.089 118.414C193.38 116.806 195.996 115.829 198.369 114.342C195.869 114.901 193.451 116.217 190.911 115.909C190.66 115.904 190.419 115.811 190.23 115.647C190.167 115.593 190.114 115.526 190.076 115.451C190.039 115.377 190.016 115.295 190.01 115.212C190.004 115.129 190.014 115.045 190.041 114.966C190.067 114.886 190.109 114.813 190.164 114.75C190.429 114.479 190.757 114.276 191.119 114.16C193.69 113.097 196.382 111.902 198.953 110.844C197.641 111.065 196.345 111.368 195.072 111.751C193.797 112.127 192.446 112.17 191.15 111.877C190.738 111.761 190.266 111.413 190.424 111.025C190.524 110.845 190.689 110.708 190.886 110.642L200.35 106.167C201.239 105.749 202.123 105.33 203.022 104.942C204.978 104.111 206.867 103.153 208.828 102.321C210.884 101.444 212.953 100.596 215.036 99.7761" fill="#D16159"/>
<path d="M205.465 118.128C206.425 117.876 207.396 117.654 208.371 117.472" stroke="black" stroke-width="0.860136" stroke-miterlimit="10"/>
<path d="M200.289 117.005C201.636 116.368 203.017 115.801 204.424 115.306" stroke="black" stroke-width="0.860136" stroke-miterlimit="10"/>
<path d="M198.354 114.303L201.65 112.882" stroke="black" stroke-width="0.860136" stroke-miterlimit="10"/>
<path d="M197.698 111.289C198.509 110.998 199.298 110.653 200.06 110.256" stroke="black" stroke-width="0.860136" stroke-miterlimit="10"/>
<path d="M251.612 65.6152C249.383 67.0173 247.317 68.6585 245.45 70.5091C243.062 73.0896 229.006 89.9887 229.006 89.9887C229.006 89.9887 214.609 98.602 206.359 103.36L215.392 117.941C215.392 117.941 232.115 111.973 240.649 106.031C248.401 100.623 263.245 82.9175 263.245 82.9175" fill="#4C4139"/>
<path d="M257.495 89.9947L252.973 76.0439" stroke="black" stroke-width="0.860136" stroke-miterlimit="10"/>
<path d="M213.954 98.9265L223.961 114.354" stroke="black" stroke-width="0.860136" stroke-miterlimit="10"/>
<path d="M212.725 113.649L221.026 109.834" stroke="black" stroke-width="0.860136" stroke-miterlimit="10"/>
<path d="M218.282 109.641C218.302 109.822 218.249 110.003 218.135 110.146C218.02 110.288 217.853 110.379 217.67 110.399C217.488 110.419 217.304 110.366 217.161 110.253C217.018 110.139 216.926 109.973 216.906 109.792C216.896 109.702 216.903 109.611 216.929 109.525C216.954 109.438 216.996 109.357 217.053 109.287C217.11 109.216 217.18 109.158 217.26 109.114C217.34 109.071 217.427 109.043 217.518 109.033C217.608 109.023 217.7 109.031 217.787 109.056C217.874 109.081 217.956 109.123 218.027 109.18C218.098 109.236 218.157 109.306 218.201 109.385C218.245 109.464 218.272 109.551 218.282 109.641Z" stroke="black" stroke-width="0.860136" stroke-miterlimit="10"/>
<path d="M214.228 111.462C214.613 111.462 214.924 111.153 214.924 110.771C214.924 110.39 214.613 110.081 214.228 110.081C213.844 110.081 213.532 110.39 213.532 110.771C213.532 111.153 213.844 111.462 214.228 111.462Z" stroke="black" stroke-width="0.860136" stroke-miterlimit="10"/>
<path d="M228.91 90.1975L228.874 89.9153C230.794 89.3479 232.618 88.4985 234.284 87.3953" stroke="black" stroke-width="0.860136" stroke-miterlimit="10"/>
<path d="M235.681 73.7578C238.41 70.4972 241.722 67.7635 245.45 65.6938" stroke="black" stroke-width="0.860136" stroke-miterlimit="10"/>
<path d="M237.871 66.3414C240.45 64.4377 243.259 62.8613 246.232 61.6492" stroke="black" stroke-width="0.860136" stroke-miterlimit="10"/>
<path d="M265.404 39.8025L267.436 45.7094L274.609 52.589C274.609 52.589 274.797 56.6865 270.738 60.9806C266.679 65.2746 262.351 62.3817 262.351 62.3817L257.124 54.7965" fill="#D16159"/>
<path d="M248.615 55.1965C247.792 52.5757 246.75 46.9158 246.832 44.7637C246.845 42.926 247.49 41.1479 248.66 39.7237C250.22 37.9093 253.883 38.5594 256.225 38.3377C260.07 37.9748 262.468 42.4957 263.555 45.7314C264.383 48.2211 264.779 50.7714 263.931 53.3216C262.549 57.4494 258.114 61.6175 253.42 60.4935C250.87 59.8988 249.427 57.7367 248.615 55.1965Z" fill="#D16159"/>
<path d="M269.036 39.0655C268.416 38.4103 267.573 37.9013 267.299 37.0495C267.146 36.5808 266.907 35.1646 266.755 34.6908C265.897 32.0599 263.672 31.1628 261.167 31.6114C260.893 29.0914 258.205 28.8545 255.996 28.8293C255.071 28.8647 254.151 28.6798 253.313 28.29C252.44 27.8263 251.652 27.1762 250.631 27.0754C249.711 27.0175 248.797 27.2658 248.035 27.781C245.414 29.4895 244.667 32.7958 241.431 33.7937C240.415 34.1112 239.359 34.207 238.485 34.8622C238.155 35.1004 237.876 35.4013 237.664 35.7474C237.452 36.0934 237.311 36.4778 237.25 36.8782C237.118 38.0323 237.891 38.7329 238.683 39.4385C239.144 39.8128 239.51 40.2891 239.752 40.8292C239.993 41.3692 240.104 41.958 240.075 42.5482C239.989 43.2998 239.866 44.0467 239.704 44.7859C239.497 45.7969 239.589 46.8456 239.967 47.8065C240.345 48.7674 240.995 49.5997 241.838 50.2039C242.214 50.4761 242.727 50.7079 244.114 51.0305C245.089 51.2422 247.619 50.8793 247.619 50.8793C247.319 49.2121 247.116 47.5294 247.009 45.8393C247.015 44.5294 247.44 43.2552 248.223 42.2004C248.899 41.2882 250.372 40.9656 251.469 41.016C253.11 41.0866 254.68 41.9837 256.316 41.7972C256.995 41.7106 257.637 41.4384 258.17 41.011C260.37 42.4222 262.645 44.4986 263.148 47.0287C263.148 47.1547 263.494 48.6516 263.382 48.6768C265.267 48.2837 267.639 48.1325 268.462 46.0913C268.751 45.3857 268.604 44.6498 268.828 43.9342C269.011 43.3445 269.544 42.9262 269.793 42.3415C270.296 41.268 269.859 39.9374 269.036 39.0655Z" fill="#2C221D"/>
<path d="M261.203 46.7369C261.3 45.109 263.565 43.9195 264.998 44.4941C268.452 45.8751 267.03 52.0541 263.753 52.5228C262.824 52.6539 261.518 52.2456 261.213 51.1973" fill="#D16159"/>
<path d="M265.145 47.2781L262.031 49.8686" stroke="black" stroke-width="0.860136" stroke-miterlimit="10"/>
<path d="M262.828 44.7917C262.066 45.2117 261.453 45.8539 261.071 46.6313" stroke="black" stroke-width="0.860136" stroke-miterlimit="10"/>
<path d="M266.801 49.7021C266.293 51.0176 265.323 52.3885 263.854 52.5699C263.332 52.6564 262.796 52.5637 262.334 52.3071C261.873 52.0506 261.513 51.6455 261.314 51.1587" stroke="black" stroke-width="0.860136" stroke-miterlimit="10"/>
<path d="M260.045 59.0525C261.253 58.1847 262.213 57.019 262.829 55.6707" stroke="black" stroke-width="0.860136" stroke-miterlimit="10"/>
<path d="M251.414 48.9431C251.571 50.3896 251.729 51.8411 251.896 53.2926C251.899 53.4948 251.967 53.6908 252.089 53.8521C252.638 54.4317 253.903 54.1545 254.492 53.8067" stroke="black" stroke-width="0.860136" stroke-miterlimit="10"/>
<path d="M255.869 54.3989L253.329 55.8656C253.329 55.8656 254.31 57.7253 255.29 57.3776C257.124 56.682 255.869 54.3989 255.869 54.3989Z" fill="white"/>
<path d="M252.699 45.8083C252.843 45.5505 253.037 45.3238 253.27 45.1412C253.502 44.9586 253.77 44.8239 254.056 44.7448C254.533 44.5947 255.039 44.5521 255.535 44.6201C256.032 44.6881 256.507 44.865 256.926 45.1379" stroke="black" stroke-width="0.860136" stroke-miterlimit="10"/>
<path d="M246.796 47.9068C246.836 47.6607 246.926 47.4253 247.061 47.2148C247.195 47.0042 247.371 46.823 247.578 46.6821C247.897 46.4727 248.271 46.3611 248.653 46.3611C249.035 46.3611 249.409 46.4727 249.727 46.6821" stroke="black" stroke-width="0.860136" stroke-miterlimit="10"/>
<path d="M256.031 47.9709C256.027 48.1207 255.982 48.2666 255.899 48.392C255.816 48.5175 255.7 48.6175 255.563 48.6809C255.426 48.7444 255.274 48.7686 255.124 48.7511C254.973 48.7335 254.831 48.6748 254.713 48.5815C254.595 48.4882 254.505 48.364 254.454 48.2229C254.403 48.0818 254.392 47.9293 254.424 47.7827C254.455 47.636 254.527 47.5009 254.632 47.3926C254.736 47.2843 254.869 47.207 255.015 47.1695C255.257 47.1452 255.498 47.2154 255.688 47.3652C255.877 47.5149 256.001 47.7322 256.031 47.9709Z" fill="black"/>
<path d="M250.215 49.6887C250.211 49.8385 250.165 49.9844 250.083 50.1098C250 50.2353 249.883 50.3353 249.746 50.3987C249.61 50.4621 249.457 50.4864 249.307 50.4689C249.157 50.4513 249.015 50.3926 248.897 50.2993C248.779 50.2059 248.689 50.0818 248.638 49.9407C248.587 49.7996 248.576 49.6471 248.608 49.5004C248.639 49.3538 248.711 49.2187 248.815 49.1104C248.92 49.0021 249.053 48.9248 249.199 48.8873C249.441 48.8604 249.684 48.9296 249.874 49.0798C250.064 49.23 250.187 49.4489 250.215 49.6887Z" fill="black"/>
<path d="M248.681 41.7371C247.594 42.3167 247.121 43.5817 246.385 44.5645C245.781 45.3572 244.984 45.9846 244.069 46.3875C243.153 46.7904 242.15 46.9557 241.152 46.8678" stroke="#635149" stroke-width="0.860136" stroke-miterlimit="10"/>
<path d="M258.358 40.8822C259.349 39.9726 260.045 38.7923 260.36 37.4902" stroke="#635149" stroke-width="0.860136" stroke-miterlimit="10"/>
<path d="M262.3 111.116H353.811V171.127C353.811 171.965 353.476 172.769 352.878 173.362C352.281 173.954 351.471 174.287 350.626 174.287H265.485C264.641 174.287 263.831 173.954 263.233 173.362C262.636 172.769 262.3 171.965 262.3 171.127V111.116Z" fill="#F9D4BB"/>
<path d="M350.627 102.676C351.471 102.676 352.281 103.009 352.879 103.602C353.476 104.194 353.812 104.998 353.812 105.836V171.124C353.812 171.962 353.476 172.766 352.879 173.359C352.281 173.951 351.471 174.284 350.627 174.284H265.486C264.641 174.284 263.831 173.951 263.233 173.359C262.636 172.766 262.301 171.962 262.301 171.124V105.846C262.301 105.431 262.383 105.02 262.543 104.637C262.703 104.254 262.938 103.905 263.233 103.612C263.529 103.318 263.88 103.086 264.267 102.927C264.653 102.768 265.067 102.686 265.486 102.686H350.627M350.627 101.93H265.486C264.439 101.932 263.436 102.345 262.696 103.079C261.956 103.813 261.54 104.808 261.539 105.846V171.124C261.54 172.163 261.956 173.158 262.696 173.892C263.436 174.626 264.439 175.039 265.486 175.04H350.627C351.673 175.039 352.676 174.626 353.416 173.892C354.156 173.158 354.572 172.163 354.574 171.124V105.846C354.572 104.808 354.156 103.813 353.416 103.079C352.676 102.345 351.673 101.932 350.627 101.93Z" fill="white"/>
<path d="M269.783 107.148C269.783 107.506 269.676 107.856 269.476 108.153C269.276 108.451 268.991 108.683 268.658 108.82C268.324 108.957 267.958 108.992 267.604 108.923C267.25 108.853 266.925 108.68 266.67 108.427C266.415 108.174 266.241 107.852 266.171 107.501C266.101 107.15 266.137 106.786 266.275 106.456C266.413 106.125 266.647 105.842 266.946 105.644C267.246 105.445 267.599 105.339 267.96 105.339C268.443 105.339 268.907 105.529 269.249 105.869C269.591 106.208 269.783 106.668 269.783 107.148Z" stroke="white" stroke-width="1.2902" stroke-miterlimit="10"/>
<path d="M276.86 107.148C276.86 107.506 276.753 107.856 276.552 108.153C276.352 108.451 276.067 108.683 275.734 108.82C275.401 108.957 275.034 108.992 274.68 108.923C274.327 108.853 274.002 108.68 273.747 108.427C273.491 108.174 273.318 107.852 273.247 107.501C273.177 107.15 273.213 106.786 273.351 106.456C273.489 106.125 273.723 105.842 274.023 105.644C274.323 105.445 274.675 105.339 275.036 105.339C275.52 105.339 275.984 105.529 276.326 105.869C276.668 106.208 276.86 106.668 276.86 107.148Z" stroke="white" stroke-width="1.2902" stroke-miterlimit="10"/>
<path d="M262.3 111.116H353.811" stroke="white" stroke-width="1.2902" stroke-miterlimit="10"/>
<path d="M330.225 149.965C328.127 149.602 327.538 155.192 328.544 157.051C325.78 153.135 322.29 147.138 319.527 143.227C316.433 138.832 312.735 133.363 307.152 131.932C302.123 130.647 299.501 134.991 299.425 139.426C299.372 143.688 299.757 147.943 300.573 152.127C301.437 156.663 302.559 161.854 305.054 165.821C302.402 161.602 298.155 160.176 293.415 160.569C291.206 160.751 288.91 161.487 287.518 163.195C285.282 165.932 286.121 170.896 287.071 174.283H293.294H348.02C348.02 174.283 337.022 151.144 330.225 149.965Z" fill="#EF9748"/>
<path d="M266.852 142.086C257.759 142.222 248.747 140.317 240.05 137.686C231.353 135.055 215.503 129.279 215.503 129.279L210.982 142.832C210.982 142.832 234.406 157.553 265.577 160.068" fill="#E27769"/>
<path d="M286.323 145.769C280.263 140.668 267.136 141.031 263.372 141.177C259.608 141.323 252.902 140.219 252.902 140.219L250.443 160.637C250.443 160.637 264.378 162.955 272.135 163.519" fill="#2C221D"/>
<path d="M269.239 150.671C270.189 153.332 269.747 157.223 269.747 160.071C269.747 162.591 270.652 163.992 271.027 166.481C271.474 169.46 273.176 171.587 274.975 174.288H313.583L311.551 153.055L306.323 145.52L295.229 142.582L270.179 149.134" fill="#2C221D"/>
<path d="M281.365 145.518C280.916 146.891 280.768 148.343 280.934 149.777C281.208 151.41 282.254 152.443 283.748 153.053" stroke="#6D574E" stroke-width="0.860136" stroke-miterlimit="10"/>
<path d="M285.648 153.503C292.491 154.718 299.689 149.869 300.38 143.69" stroke="#6D574E" stroke-width="0.860136" stroke-miterlimit="10"/>
<path d="M337.113 171.835C336.481 170.259 335.577 168.804 334.441 167.536C331.493 163.923 328.201 160.6 324.611 157.612L311.693 169.275L319.689 176.966L310.352 193.754L322.732 197.282C322.732 197.282 332.211 186.894 335.838 181.109C337.596 178.236 338.221 175.025 337.113 171.835Z" fill="#E27769"/>
<path d="M312.8 189.984C312.8 189.984 307.385 197.715 306.831 199.111C306.367 200.46 306.048 201.854 305.881 203.269C305.373 206.954 307.339 210.739 308.838 212.528C309.01 212.727 309.247 212.861 309.508 212.906C310.062 213.007 310.286 212.719 310.276 212.069L311.185 213.299C311.295 213.474 311.445 213.623 311.622 213.732C311.809 213.787 312.009 213.78 312.192 213.712C312.375 213.645 312.531 213.521 312.638 213.359C312.88 212.996 313.052 212.591 313.146 212.165C313.466 212.629 313.969 213.112 314.451 212.83C314.723 212.599 314.936 212.307 315.072 211.978C315.209 211.65 315.266 211.294 315.239 210.94C315.396 211.444 316.087 211.469 316.463 211.091C316.811 210.656 317.029 210.132 317.093 209.579C317.294 208.181 317.711 206.821 318.327 205.547C318.822 204.776 319.363 204.036 319.948 203.33C321.711 200.921 322.584 197.846 323.153 194.822" fill="#E27769"/>
<path d="M316.351 201.909L315.62 203.517C315.422 203.95 315.224 204.384 315.066 204.837C314.355 206.875 314.47 209.106 315.386 211.062" stroke="black" stroke-width="0.860136" stroke-miterlimit="10"/>
<path d="M312.278 201.707C311.77 204.141 311.582 207.069 311.932 208.899C312.187 210.084 312.659 211.214 313.324 212.23" stroke="black" stroke-width="0.860136" stroke-miterlimit="10"/>
<path d="M308.706 200.79C308.706 200.79 308.391 202.589 308.315 203.602C308.076 206.827 308.508 209.947 310.281 212.336" stroke="black" stroke-width="0.860136" stroke-miterlimit="10"/>
<path d="M214.401 143.063L211.475 142.78C210.601 142.725 209.734 142.58 208.89 142.347C208.337 142.156 207.799 141.927 207.279 141.661C205.115 140.613 204.008 140.301 201.935 139.091C200.752 138.384 199.525 137.751 198.262 137.196C197.023 136.667 195.722 136.38 194.584 135.659C194.48 135.603 194.394 135.519 194.335 135.417C194.311 135.329 194.311 135.237 194.335 135.15C194.599 133.295 198.399 133.718 199.923 134.142C200.358 134.309 200.826 134.371 201.29 134.323C201.28 133.729 201.104 133.15 200.782 132.65C199.928 131.138 198.679 129.918 197.551 128.618C196.504 127.393 195.448 126.174 194.503 124.883C193.604 123.679 192.674 121.053 193.38 120.73C194.086 120.408 193.71 121.048 193.939 121.078C193.482 120.801 193.655 119.687 193.985 119.249C194.315 118.81 195.219 119.475 195.509 119.899C195.184 119.49 195.295 118.568 195.631 118.387C196.139 118.145 196.698 118.472 197.155 118.745C197.58 119.06 198.061 119.296 198.572 119.44C198.439 119.107 198.36 118.755 198.338 118.397C198.592 118.084 199.09 118.246 199.441 118.432C206.507 122.252 212.537 128.038 220.05 131.445" fill="#E27769"/>
<path d="M199.76 131.219C200.594 132.486 201.184 133.894 201.503 135.372" stroke="black" stroke-width="0.860136" stroke-miterlimit="10"/>
<path d="M193.893 120.662C194.828 121.816 196.083 122.617 197.175 123.61C198.917 125.193 200.573 126.856 202.255 128.499" stroke="black" stroke-width="0.860136" stroke-miterlimit="10"/>
<path d="M195.458 119.761C195.995 120.267 196.567 120.735 197.169 121.163C197.81 121.621 198.485 122.029 199.151 122.458C201.048 123.684 202.856 125.042 204.561 126.52" stroke="black" stroke-width="0.860136" stroke-miterlimit="10"/>
<path d="M198.77 119.57C199.398 120.104 200.1 120.546 200.853 120.886C203.138 122.092 205.27 123.566 207.203 125.275" stroke="black" stroke-width="0.860136" stroke-miterlimit="10"/>
<path d="M214.686 143.505C214.686 143.505 210.688 142.971 209.057 142.543" stroke="black" stroke-width="0.860136" stroke-miterlimit="10"/>
<path d="M303.067 144.675C305.816 144.937 308.569 145.179 311.195 146.187C314.502 147.426 317.378 149.755 320.085 152.134C322.915 154.624 325.8 158.005 328.554 160.601L314.452 172.833L304.444 163.156" fill="#2C221D"/>
<path d="M319.669 176.956C320.893 175.416 322.304 174.031 323.87 172.834" stroke="black" stroke-width="0.860136" stroke-miterlimit="10"/>
<path d="M310.326 168.868L325.038 157.05" stroke="#6D574E" stroke-width="0.860136" stroke-miterlimit="10"/>
<path d="M255.823 161.488L257.962 140.894" stroke="#6D574E" stroke-width="0.860136" stroke-miterlimit="10"/>
<path d="M269.239 157.612C269.239 157.612 270.215 162.007 270.479 163.892" stroke="#6D574E" stroke-width="0.860136" stroke-miterlimit="10"/>
<path d="M303.946 163.158C306.994 165.497 314.431 172.85 314.431 172.85" stroke="#6D574E" stroke-width="0.860136" stroke-miterlimit="10"/>
<path d="M288.249 130.061L294.853 132.707L294.467 137.057L297.779 143.412C297.779 143.412 296.164 149.405 288.904 150.896C282.778 152.156 282.915 148.23 282.915 148.23L279.999 139.874" fill="#E27769"/>
<path d="M274.365 133.421C275.336 130.16 275.859 128.159 277.103 125.791C278.15 123.775 279.989 120.887 282.097 119.944C284.81 118.735 287.914 120.221 290.652 121.204C295.147 122.837 296.163 128.084 295.655 132.277C295.254 135.498 293.359 137.085 291.053 139.474C288.035 142.599 280.614 145.26 276.778 143.315C273.913 141.858 273.334 136.863 274.365 133.421Z" fill="#E27769"/>
<path d="M321.325 153.12C323.093 152.541 323.962 150.479 323.865 149.013C323.708 146.654 322.595 145.434 322.412 143.973C322.295 143.025 322.58 142.063 322.499 141.11C322.392 140.324 322.087 139.577 321.613 138.939C321.139 138.3 320.511 137.79 319.786 137.456C318.329 136.799 316.716 136.556 315.128 136.755C313.908 136.866 312.689 137.123 311.48 136.952C310.473 136.775 309.51 136.405 308.646 135.863C307.066 134.983 305.707 133.762 304.668 132.29C302.966 129.77 302.6 126.58 301.29 123.828C300.623 122.441 299.715 121.182 298.607 120.108C295.935 117.498 293.39 116.53 289.606 116.404C287.01 116.318 283.398 116.661 281.412 119.065C281.412 119.065 277.576 119.161 275.742 121.081C273.568 123.354 273.71 126.625 275.626 129.276C276.606 127.678 277.439 125.99 278.877 124.765C278.803 124.9 278.775 125.055 278.798 125.207C278.821 125.359 278.893 125.499 279.004 125.607C279.23 125.819 279.526 125.942 279.837 125.955C280.666 125.939 281.472 125.685 282.158 125.224C281.915 125.867 281.811 126.554 281.854 127.24C281.85 127.386 281.895 127.529 281.981 127.648C282.104 127.763 282.269 127.825 282.438 127.819C283.006 127.861 283.576 127.757 284.093 127.518C284.61 127.279 285.056 126.912 285.389 126.454C285.079 127.29 284.805 128.339 285.43 128.974C285.67 129.18 285.965 129.312 286.28 129.356C286.594 129.4 286.915 129.353 287.203 129.221C287.782 128.947 288.3 128.561 288.727 128.087C288.508 128.298 288.793 129.503 288.849 129.78C288.97 130.387 289.14 130.984 289.357 131.564C289.982 133.361 290.807 135.084 291.815 136.7C292.877 138.358 294.391 139.618 295.473 141.236C296.159 142.244 296.738 143.378 297.663 144.199C298.856 145.234 300.298 145.947 301.848 146.271C303.372 146.573 304.896 146.437 306.42 146.387C312.034 146.205 316.291 148.993 321.346 153.095" fill="#893D33"/>
<path d="M308.229 117.055C307.922 116.27 307.443 115.563 306.827 114.984C304.642 112.968 299.872 113.114 298.242 115.831C297.342 117.343 297.779 119.243 298.46 120.84L299.801 123.759C300.742 124.256 301.789 124.526 302.856 124.545C303.923 124.565 304.979 124.333 305.938 123.869C306.729 123.513 307.408 122.95 307.9 122.239C308.392 121.529 308.68 120.698 308.732 119.837C308.763 118.885 308.591 117.937 308.229 117.055Z" fill="#893D33"/>
<path d="M288.757 133.982C289.214 132.632 291.393 132.143 292.47 132.949C295.061 134.895 292.445 139.773 289.575 139.431C288.767 139.33 287.761 138.69 287.761 137.747" fill="#E27769"/>
<path d="M291.952 135.326L288.736 136.803" stroke="black" stroke-width="0.860136" stroke-miterlimit="10"/>
<path d="M290.576 132.705C289.839 132.888 289.176 133.291 288.676 133.859" stroke="black" stroke-width="0.860136" stroke-miterlimit="10"/>
<path d="M292.791 137.742C292.069 138.75 290.931 139.668 289.651 139.491C289.193 139.444 288.764 139.244 288.436 138.924C288.107 138.603 287.898 138.181 287.843 137.727" stroke="black" stroke-width="0.860136" stroke-miterlimit="10"/>
<path d="M281.462 144.156C283.646 143.941 285.742 143.188 287.558 141.964" stroke="black" stroke-width="0.860136" stroke-miterlimit="10"/>
<path d="M278.292 131.771C277.874 132.629 277.283 133.393 276.555 134.014C276.37 134.137 276.199 134.281 276.047 134.442C275.939 134.566 275.861 134.712 275.818 134.871C275.776 135.029 275.771 135.194 275.803 135.355C275.836 135.515 275.906 135.666 276.006 135.796C276.106 135.926 276.235 136.032 276.382 136.106" stroke="black" stroke-width="0.860136" stroke-miterlimit="10"/>
<path d="M276.936 138.034C277.177 138.241 277.473 138.375 277.788 138.418C278.103 138.462 278.425 138.415 278.714 138.281C279.435 137.898 279.45 136.981 279.476 136.265" stroke="black" stroke-width="0.860136" stroke-miterlimit="10"/>
<path d="M281.813 130.003C282.341 129.885 282.89 129.885 283.418 130.003C283.951 130.117 284.431 130.404 284.78 130.82C285.157 131.39 285.388 132.042 285.455 132.72" stroke="black" stroke-width="0.860136" stroke-miterlimit="10"/>
<path d="M275.94 128.012C276.197 127.841 276.495 127.74 276.803 127.719C277.112 127.699 277.421 127.76 277.698 127.896C277.974 128.037 278.217 128.233 278.413 128.472C278.609 128.71 278.753 128.986 278.836 129.282" stroke="black" stroke-width="0.860136" stroke-miterlimit="10"/>
<path d="M282.702 133.007C282.493 133.435 282.077 133.662 281.767 133.511C281.607 133.394 281.499 133.22 281.464 133.026C281.429 132.832 281.47 132.632 281.579 132.468C281.782 132.039 282.204 131.812 282.514 131.964C282.674 132.08 282.784 132.253 282.819 132.448C282.854 132.642 282.812 132.842 282.702 133.007Z" fill="black"/>
<path d="M276.997 131.151C276.789 131.58 276.372 131.806 276.057 131.655C275.898 131.539 275.789 131.367 275.754 131.173C275.719 130.98 275.76 130.781 275.869 130.617C276.077 130.189 276.499 129.962 276.809 130.113C276.966 130.231 277.073 130.403 277.108 130.596C277.143 130.788 277.103 130.987 276.997 131.151Z" fill="black"/>
<path d="M336.179 189.596C339.292 186.452 341.459 182.51 342.438 178.211" stroke="black" stroke-width="0.860136" stroke-miterlimit="10"/>
<path d="M343.271 187.856C344.209 186.019 344.803 184.027 345.023 181.979" stroke="black" stroke-width="0.860136" stroke-miterlimit="10"/>
<path d="M282.676 89.9658C282.676 89.9658 277.388 92.3699 273.837 93.9676C271.83 94.8697 268.462 97.3393 267.314 99.2193C265.851 101.613 265.47 104.572 265.638 107.011C265.868 108.873 266.534 110.656 267.583 112.217C268.305 113.382 269.072 114.591 269.737 114.435C270.403 114.279 270.169 112.651 270.169 112.651C270.429 113.272 270.756 113.863 271.145 114.415C271.388 114.576 271.652 114.722 271.927 114.591C272.251 114.445 272.514 114.189 272.669 113.871C272.787 113.575 272.847 113.261 272.846 112.943C272.869 112.505 272.869 112.066 272.846 111.628C272.994 111.955 273.136 112.973 273.415 112.918C273.797 112.823 274.141 112.617 274.406 112.328C274.864 111.708 275.208 111.012 275.422 110.272C275.414 110.443 275.438 110.614 275.493 110.776C275.524 110.858 275.576 110.93 275.644 110.985C275.711 111.041 275.793 111.078 275.879 111.093C276.352 110.912 276.781 110.634 277.139 110.277C277.708 109.506 277.921 108.483 278.333 107.621C278.648 106.958 279.042 106.336 279.506 105.766C279.993 105.135 280.594 104.6 281.279 104.189C282.62 103.488 283.448 103.302 284.835 102.677C286.026 102.181 287.085 101.419 287.929 100.449" fill="#D16159"/>
<path d="M275.27 110.575C275.377 109.426 275.514 108.281 275.697 107.147C275.791 106.385 275.981 105.636 276.261 104.92C276.836 103.794 277.616 102.785 278.562 101.941" stroke="black" stroke-width="0.860136" stroke-miterlimit="10"/>
<path d="M272.959 111.885C272.593 109.952 272.475 107.981 272.608 106.019C272.604 105.475 272.657 104.933 272.765 104.401C273.051 103.504 273.502 102.669 274.096 101.936" stroke="black" stroke-width="0.860136" stroke-miterlimit="10"/>
<path d="M270.225 113.03C269.533 111.15 269.057 109.199 268.808 107.214C268.775 106.832 268.765 106.448 268.778 106.065C268.853 104.629 269.274 103.232 270.007 101.992" stroke="black" stroke-width="0.860136" stroke-miterlimit="10"/>
<path d="M287.172 61.5225L296.478 78.9407L275.711 93.0527L289.382 103.732C289.382 103.732 312.679 96.2078 319.029 92.4731C324.007 89.5398 326.141 81.9294 316.55 69.5159C306.959 57.1024 300.324 49.7339 298.353 47.6675C294.132 43.2071 289.077 41.3524 284.378 43.7111" fill="#4C4139"/>
<path d="M287.172 61.5203L296.479 78.9385L275.717 93.0455" stroke="black" stroke-width="0.860136" stroke-miterlimit="10"/>
<path d="M287.711 98.9257C287.712 99.0624 287.672 99.1964 287.596 99.3106C287.52 99.4249 287.412 99.5141 287.284 99.5672C287.157 99.6202 287.017 99.6346 286.882 99.6085C286.747 99.5825 286.622 99.5171 286.524 99.4207C286.426 99.3244 286.36 99.2014 286.332 99.0673C286.305 98.9332 286.319 98.7941 286.371 98.6677C286.424 98.5412 286.513 98.4331 286.627 98.357C286.742 98.2809 286.877 98.2402 287.015 98.2402C287.198 98.2402 287.375 98.3123 287.505 98.4407C287.635 98.5691 287.709 98.7434 287.711 98.9257Z" stroke="black" stroke-width="0.860136" stroke-miterlimit="10"/>
<path d="M291.302 97.4725C291.687 97.4725 291.998 97.1634 291.998 96.782C291.998 96.4007 291.687 96.0916 291.302 96.0916C290.918 96.0916 290.606 96.4007 290.606 96.782C290.606 97.1634 290.918 97.4725 291.302 97.4725Z" stroke="black" stroke-width="0.860136" stroke-miterlimit="10"/>
<path d="M283.042 98.7727C283.118 98.8331 291.993 94.3979 291.993 94.3979" stroke="black" stroke-width="0.860136" stroke-miterlimit="10"/>
<path d="M283.53 87.7334C283.616 87.6729 299.486 100.333 299.486 100.333" stroke="black" stroke-width="0.860136" stroke-miterlimit="10"/>
<path d="M295.971 79.1117C297.921 78.3607 299.877 77.5443 301.96 77.2368C304.193 76.9773 306.446 76.9418 308.686 77.131" stroke="black" stroke-width="0.860136" stroke-miterlimit="10"/>
<path d="M289.382 103.73L316.275 94.033" stroke="black" stroke-width="0.860136" stroke-miterlimit="10"/>
<path d="M294.081 39.3512C288.706 34.3414 283.22 29.3569 276.865 25.6424C265.099 18.7678 248.681 19.8313 240.568 24.836C234.335 28.6765 231.053 33.4544 227.055 39.3764C222.046 46.7902 216.794 54.7635 208.539 58.3117C204.52 60.0404 200.096 60.5646 195.793 61.3962C191.49 62.2278 187.091 63.4877 183.794 66.3555C180.497 69.2233 178.623 74.0919 180.401 78.0634C181.803 81.1882 185.247 83.1538 188.686 83.2496C192.125 83.3454 195.488 81.7376 197.962 79.389C204.287 73.341 207.233 57.4095 195.549 52.8231" stroke="#ED725A" stroke-width="1.2902" stroke-miterlimit="10"/>
<path d="M38.8767 147.318C39.7309 151.049 41.5043 154.513 44.038 157.398C47.3451 161.138 54.0913 163.557 56.9869 158.119C58.3382 155.599 59.0189 151.501 55.7982 149.692C55.5702 149.545 55.3075 149.46 55.0362 149.445C54.7543 149.472 54.4872 149.582 54.2697 149.762C54.0522 149.942 53.8944 150.183 53.817 150.453C52.9585 152.746 54.325 155.226 56.2097 157.065C57.0774 157.985 58.1462 158.696 59.3339 159.142C59.9586 159.375 60.6261 159.475 61.2924 159.434C61.9587 159.393 62.6087 159.213 63.1997 158.905C64.8965 157.897 65.3435 155.619 65.2317 154.001" stroke="#8F96DB" stroke-width="1.2902" stroke-miterlimit="10"/>
<path d="M31.7747 55.2318C34.7617 51.4921 38.7901 48.1102 43.3164 46.3815C45.9394 45.4079 48.776 45.1435 51.5359 45.6154C52.8211 45.8674 54.3146 46.2706 55.0919 47.4147C55.8691 48.5588 54.9496 50.8671 56.6159 51.5526C57.052 51.6952 57.519 51.7178 57.9671 51.6181C59.3845 51.4064 60.7662 50.983 62.1886 50.7764C63.6075 50.4979 65.0785 50.6616 66.3999 51.2451C67.6801 51.8902 68.6504 53.2611 68.4624 54.6925C68.3862 55.2469 68.1424 55.7912 68.2491 56.3406C68.4218 57.2578 69.4683 57.7366 70.403 57.8526C72.3435 58.029 74.1876 57.9685 75.8386 59.1982C77.0476 60.1054 77.7436 61.7182 77.1238 63.0186" stroke="#FFDD99" stroke-width="1.2902" stroke-miterlimit="10"/>
<path d="M158.496 51.6738C159.253 50.0106 160.096 48.3424 161.412 47.0673C162.727 45.7922 164.607 44.9605 166.41 45.3083C167.345 45.4897 168.224 45.9686 169.174 45.9484C170.484 45.9484 171.602 44.9404 172.191 43.7661C172.781 42.5918 172.948 41.2914 173.207 40.0163C173.588 38.0003 174.223 35.8986 175.61 34.3665C176.997 32.8343 179.39 32.0077 181.269 32.92" stroke="#FFDD99" stroke-width="1.2902" stroke-miterlimit="10"/>
<path d="M69.9751 221.385C70.497 218.293 68.3944 215.368 65.2787 214.85C62.163 214.332 59.2141 216.418 58.6921 219.509C58.1702 222.601 60.2728 225.526 63.3885 226.044C66.5042 226.562 69.4531 224.476 69.9751 221.385Z" stroke="#909DF4" stroke-width="1.2902" stroke-miterlimit="10"/>
<path d="M161.671 31.6579C164.232 31.6579 166.309 29.5977 166.309 27.0564C166.309 24.515 164.232 22.4548 161.671 22.4548C159.109 22.4548 157.033 24.515 157.033 27.0564C157.033 29.5977 159.109 31.6579 161.671 31.6579Z" stroke="#8F96DB" stroke-width="1.2902" stroke-miterlimit="10"/>
<path d="M326.73 203.602L329.803 223.697L341.889 214.862L326.73 203.602Z" fill="#FFDD99"/>
<path d="M22.5041 181.554L30.6778 172.361L16.7129 172.855L22.5041 181.554Z" stroke="#8F96DB" stroke-width="1.2902" stroke-miterlimit="10"/>
<path d="M35.5695 204.33C37.3987 204.33 38.8816 202.859 38.8816 201.044C38.8816 199.229 37.3987 197.758 35.5695 197.758C33.7402 197.758 32.2573 199.229 32.2573 201.044C32.2573 202.859 33.7402 204.33 35.5695 204.33Z" fill="#FFDD99"/>
<path d="M42.6411 63.9949L34.6858 81.2166L58.9987 77.7188L42.6411 63.9949Z" fill="#ED725A"/>
<path d="M27.0352 106.91C27.0352 107.31 26.9153 107.701 26.6909 108.033C26.4665 108.365 26.1476 108.623 25.7748 108.775C25.402 108.927 24.9922 108.966 24.5973 108.886C24.2025 108.806 23.8405 108.611 23.5573 108.327C23.2742 108.042 23.0827 107.681 23.0072 107.288C22.9317 106.895 22.9756 106.489 23.1333 106.121C23.291 105.753 23.5554 105.44 23.8928 105.222C24.2303 105.003 24.6257 104.889 25.0286 104.894C25.5631 104.901 26.0734 105.116 26.449 105.494C26.8246 105.871 27.0352 106.38 27.0352 106.91Z" fill="#909DF4"/>
<path d="M299.658 28.3458C299.658 28.7446 299.539 29.1343 299.316 29.4659C299.093 29.7974 298.775 30.0558 298.404 30.2084C298.033 30.361 297.624 30.4009 297.23 30.3231C296.836 30.2453 296.474 30.0533 296.189 29.7714C295.905 29.4894 295.712 29.1302 295.633 28.7391C295.555 28.3481 295.595 27.9427 295.749 27.5743C295.903 27.206 296.163 26.8911 296.497 26.6696C296.831 26.4481 297.224 26.3298 297.626 26.3298C298.165 26.3298 298.682 26.5422 299.063 26.9203C299.444 27.2984 299.658 27.8112 299.658 28.3458Z" fill="#ED725A"/>
<path d="M336.595 202.353C337.37 202.043 338.208 201.919 339.04 201.99C339.872 202.061 340.676 202.325 341.386 202.761C342.585 203.562 343.21 205.059 344.652 205.528C346.766 206.213 348.635 204.258 350.677 204.122C352.44 204.006 353.862 205.195 354.553 206.722C355.069 208.066 355.343 209.489 355.361 210.926" stroke="#8F96DB" stroke-width="1.2902" stroke-miterlimit="10"/>
<path d="M321.056 65.6893C321.44 64.7874 322.086 64.0188 322.91 63.4806C323.735 62.9423 324.702 62.6586 325.689 62.6653C326.705 62.6653 327.721 63.0231 328.676 62.7711C331.693 61.995 331.439 56.7887 334.421 55.8865C336.484 55.2615 338.729 57.2473 340.751 56.4913C342.488 55.8462 342.915 53.6739 343.469 51.915C344.249 49.5389 345.677 47.4232 347.594 45.8017C349.51 44.1802 351.842 43.1161 354.33 42.7271" stroke="#8F96DB" stroke-width="1.2902" stroke-miterlimit="10"/>
<path d="M298.069 170.276C298.914 170.276 299.724 170.609 300.321 171.202C300.919 171.794 301.254 172.598 301.254 173.436V229.38C301.254 230.218 300.919 231.022 300.321 231.615C299.724 232.207 298.914 232.54 298.069 232.54H206.7C206.282 232.541 205.867 232.46 205.48 232.301C205.094 232.143 204.742 231.91 204.446 231.616C204.15 231.323 203.916 230.974 203.756 230.59C203.596 230.207 203.514 229.796 203.515 229.38V173.436C203.515 172.598 203.851 171.794 204.448 171.202C205.045 170.609 205.855 170.276 206.7 170.276H298.069ZM298.069 169.52H206.7C205.654 169.522 204.65 169.935 203.911 170.669C203.171 171.403 202.754 172.398 202.753 173.436V229.38C202.753 230.419 203.169 231.415 203.909 232.149C204.649 232.884 205.653 233.296 206.7 233.296H298.069C299.115 233.295 300.119 232.882 300.859 232.148C301.598 231.414 302.015 230.419 302.016 229.38V173.436C302.015 172.398 301.598 171.403 300.859 170.669C300.119 169.935 299.115 169.522 298.069 169.52Z" fill="white"/>
<path d="M203.515 178.7H301.244V229.398C301.244 230.236 300.908 231.039 300.311 231.632C299.713 232.225 298.903 232.558 298.059 232.558H206.7C205.855 232.558 205.045 232.225 204.448 231.632C203.85 231.039 203.515 230.236 203.515 229.398V178.7Z" fill="#C5B3DD"/>
<path d="M210.993 174.75C210.993 175.107 210.886 175.457 210.685 175.755C210.485 176.052 210.2 176.284 209.867 176.421C209.534 176.558 209.167 176.594 208.813 176.524C208.459 176.454 208.134 176.282 207.879 176.029C207.624 175.776 207.451 175.454 207.38 175.103C207.31 174.752 207.346 174.388 207.484 174.057C207.622 173.727 207.856 173.444 208.156 173.245C208.456 173.046 208.808 172.94 209.169 172.94C209.653 172.94 210.116 173.131 210.459 173.47C210.801 173.809 210.993 174.27 210.993 174.75Z" stroke="white" stroke-width="1.2902" stroke-miterlimit="10"/>
<path d="M218.059 174.75C218.059 175.108 217.951 175.458 217.751 175.755C217.55 176.053 217.265 176.285 216.932 176.422C216.598 176.558 216.231 176.594 215.877 176.524C215.523 176.454 215.198 176.281 214.943 176.027C214.689 175.774 214.515 175.451 214.446 175.099C214.376 174.748 214.413 174.384 214.551 174.054C214.69 173.723 214.925 173.441 215.225 173.243C215.526 173.044 215.879 172.939 216.24 172.94C216.479 172.94 216.716 172.987 216.937 173.078C217.158 173.169 217.359 173.302 217.528 173.47C217.697 173.639 217.831 173.838 217.922 174.058C218.013 174.277 218.059 174.512 218.059 174.75Z" stroke="white" stroke-width="1.2902" stroke-miterlimit="10"/>
<path d="M203.515 178.7H301.254" stroke="white" stroke-width="1.2902" stroke-miterlimit="10"/>
<path d="M287.528 220.458C282.666 215.111 277.012 212.47 274.142 213.115C269.915 214.063 270.682 224.763 270.804 229.062C268.755 226.712 266.241 224.804 263.418 223.457C261.305 222.449 258.892 221.754 256.611 222.308C254.33 222.862 252.313 224.989 252.582 227.303C247.222 219.43 239.956 213.019 231.45 208.655C226.095 205.918 211.536 200.218 209.042 206.135C206.309 212.621 221.818 232.59 221.818 232.59H297.002C297.002 232.59 291.932 225.282 287.528 220.458Z" fill="#A29DCE"/>
<path d="M193.619 163.395C190.86 160.527 188.208 154.983 187.467 152.03C186.811 149.429 186.227 146.768 184.988 144.364C184.652 143.714 183.22 142.217 183.743 141.441C184.79 139.873 187.335 141.945 187.995 142.872C188.234 143.205 189.108 144.611 189.545 144.696C189.981 144.782 190.169 143.094 190.225 142.368C190.446 139.499 190.446 136.618 190.225 133.75C189.981 130.857 190.398 128.316 191.312 128.206C192.227 128.095 192.191 128.619 192.359 128.8C192.506 127.883 193.349 126.784 193.883 127.102C194.037 127.214 194.162 127.359 194.25 127.527C194.338 127.695 194.387 127.88 194.391 128.069C194.456 128.438 194.546 128.801 194.66 129.158C194.66 129.158 195.168 127.203 196.149 128.311C196.631 128.866 197.373 131.839 197.845 132.772C197.723 132.214 197.723 131.636 197.845 131.078C197.957 130.68 198.181 130.358 198.612 130.574C198.721 130.643 198.814 130.734 198.886 130.841C198.958 130.948 199.006 131.068 199.029 131.194C199.511 132.52 200.695 134.657 201.127 136.002L202.478 140.216C203.321 142.852 204.144 145.629 204.749 148.381C205.313 150.926 207.37 157.201 207.37 157.201" fill="#A04B4B"/>
<path d="M192.313 128.93C192.557 130.442 193.116 132.362 193.421 134.076C193.858 136.525 194.056 138.798 194.437 140.961" stroke="black" stroke-width="0.860136" stroke-miterlimit="10"/>
<path d="M194.772 129.178C195.066 130.468 195.574 132.262 195.91 133.714C196.479 136.168 196.895 138.376 197.388 140.533" stroke="black" stroke-width="0.860136" stroke-miterlimit="10"/>
<path d="M197.82 132.705C198.542 135.053 199.588 137.745 200.416 140.723" stroke="black" stroke-width="0.860136" stroke-miterlimit="10"/>
<path d="M189.824 144.546C189.636 145.785 189.545 147.106 188.711 148.19" stroke="black" stroke-width="0.860136" stroke-miterlimit="10"/>
<path d="M287.02 232.559C286.044 229.968 284.988 227.247 283.53 224.873C282.091 222.428 280.089 220.355 277.688 218.825C276.57 218.178 275.409 217.607 274.213 217.116L264.642 212.923L248.986 206.875L246.085 204.199C244.216 202.475 242.353 200.74 240.497 198.992L240.284 198.791C226.11 185.369 215.569 170.375 206.365 152.881L189.829 160.073C189.829 160.073 196.982 184.265 203.779 194.522C212.755 208.079 223.139 220.412 227.828 224.318C228.664 227.11 229.626 229.859 230.713 232.564L287.02 232.559Z" fill="#FCDDD2"/>
<path d="M192.486 168.392L210.225 159.929" stroke="black" stroke-width="0.860136" stroke-miterlimit="10"/>
<path d="M193.37 158.529L199.354 171.406" stroke="black" stroke-width="0.860136" stroke-miterlimit="10"/>
<path d="M198.993 161.234C198.993 161.465 198.924 161.69 198.795 161.881C198.666 162.073 198.483 162.222 198.269 162.31C198.054 162.398 197.818 162.421 197.591 162.376C197.363 162.331 197.154 162.22 196.99 162.058C196.826 161.895 196.714 161.687 196.669 161.461C196.624 161.236 196.647 161.002 196.736 160.789C196.824 160.576 196.975 160.394 197.168 160.266C197.361 160.138 197.588 160.07 197.82 160.07C198.131 160.071 198.428 160.194 198.648 160.413C198.868 160.631 198.992 160.926 198.993 161.234Z" stroke="#D8A798" stroke-width="0.860136" stroke-miterlimit="10"/>
<path d="M262.915 232.207L265.358 229.047C266.219 227.895 267.14 226.788 268.117 225.731C271.007 222.635 274.902 220.646 279.12 220.111" stroke="#D8A798" stroke-width="0.860136" stroke-miterlimit="10"/>
<path d="M227.335 222.803C227.37 218.57 228.714 214.45 231.186 210.999C234.259 206.68 238.775 203.58 244.236 203.439" stroke="#D8A798" stroke-width="0.860136" stroke-miterlimit="10"/>
<path d="M227.751 224.145C226.969 221.831 226.522 219.241 225.282 217.119" stroke="black" stroke-width="0.860136" stroke-miterlimit="10"/>
<path d="M243.997 205.153L242.981 218.055C242.981 218.055 247.35 222.475 253.364 219.598C259.379 216.72 263.763 211.246 263.763 211.246L261.797 203.248" fill="#A04B4B"/>
<path d="M267.893 189.067C267.29 187.171 266.151 185.486 264.611 184.213C260.923 181.22 256.87 181.3 252.927 183.608C249.488 185.624 244.764 188.78 242.138 191.809C239.43 194.938 237.616 198.824 240.385 202.483C244.835 208.365 257.322 206.369 263.275 201.546C265.704 199.58 267.99 196.39 268.355 193.25C268.497 191.839 268.34 190.414 267.893 189.067Z" fill="#A04B4B"/>
<path d="M252.145 185.254C250.159 186.262 247.99 186.524 245.816 186.766C244.769 186.892 243.387 187.239 243.575 188.6C243.697 189.477 244.469 190.233 245.099 190.767" fill="#A04B4B"/>
<path d="M243.489 198.656L244.033 197.446C244.378 196.665 243.25 196.141 242.712 195.874C242.326 195.682 242.117 195.506 241.726 195.763C241.63 195.828 241.061 196.368 240.939 196.267L239.892 195.057C239.041 196.6 238.622 198.34 238.678 200.097C238.767 201.527 239.365 202.879 240.365 203.913C240.828 204.385 241.339 204.809 241.889 205.178C245.988 207.627 251.099 207.441 255.559 205.722C256.96 205.238 258.231 204.446 259.278 203.404C245.643 203.222 243.489 198.656 243.489 198.656Z" fill="#1E1611"/>
<path d="M259.766 197.748L259.583 197.713C258.673 197.567 257.774 197.713 256.875 197.406C256.14 197.184 255.506 196.715 255.082 196.08C254.609 195.314 255.254 194.871 255.879 194.533C256.818 194.047 257.687 193.437 258.46 192.718C259.095 192.147 259.558 191.412 259.796 190.595C260.035 189.778 260.04 188.911 259.811 188.092C259.227 186.262 257.413 185.184 256.001 184.024C254.589 182.865 252.908 181.167 253.461 179.226C254.015 177.286 255.93 176.575 257.8 176.848C258.816 176.994 259.832 177.276 260.817 177.12C261.325 177.039 261.833 176.853 262.316 176.742C263.087 176.55 263.897 176.583 264.65 176.836C265.403 177.089 266.067 177.551 266.563 178.168C267.228 179.085 267.487 180.391 268.508 180.895C269.026 181.075 269.563 181.196 270.108 181.258C270.65 181.396 271.153 181.657 271.577 182.02C272.001 182.383 272.334 182.837 272.552 183.349C272.981 184.385 272.992 185.546 272.582 186.59C271.866 188.45 270.799 189.382 271.678 191.433C273.71 196.201 274.569 202.053 269.707 205.48C268.427 206.377 266.822 206.846 265.76 208C265.094 208.71 264.551 209.729 263.581 209.829C263.251 209.833 262.926 209.763 262.628 209.623C262.331 209.483 262.069 209.278 261.864 209.023C261.479 208.581 261.139 208.104 260.848 207.597C260.366 206.939 260.038 206.183 259.887 205.384C259.76 204.235 260.365 203.146 260.903 202.128C261.442 201.11 262.458 199.17 261.229 198.373C260.782 198.081 260.287 197.869 259.766 197.748Z" fill="#1E1611"/>
<path d="M256.763 187.353C256.458 186.43 255.9 185.513 255.036 185.931C254.932 185.99 254.843 186.073 254.778 186.173C254.712 186.273 254.672 186.387 254.66 186.506C254.641 186.742 254.659 186.981 254.716 187.211C254.85 188.319 255.194 189.392 255.732 190.371C255.835 190.579 255.995 190.754 256.194 190.875C257.556 191.505 256.936 187.857 256.763 187.353Z" fill="#1E1611"/>
<path d="M248.224 193.575L244.404 192.718C244.404 192.718 244.028 195.969 245.653 196.291C247.279 196.614 248.224 193.575 248.224 193.575Z" fill="white"/>
<path d="M244.175 189.759C244.494 190.169 244.918 190.487 245.405 190.676" stroke="black" stroke-width="0.860136" stroke-miterlimit="10"/>
<path d="M248.412 186.424C249.842 186.212 251.22 185.738 252.476 185.028" stroke="black" stroke-width="0.860136" stroke-miterlimit="10"/>
<path d="M258.877 197.881C260.284 196.828 262.844 197.836 263.372 199.393C264.637 203.163 258.546 206.308 255.874 203.975C255.117 203.314 254.548 201.959 255.214 201.006" fill="#A04B4B"/>
<path d="M261.173 201.464L256.87 200.733" stroke="black" stroke-width="0.860136" stroke-miterlimit="10"/>
<path d="M261.619 197.844C260.743 197.518 259.788 197.467 258.881 197.697" stroke="black" stroke-width="0.860136" stroke-miterlimit="10"/>
<path d="M255.311 201.053C255.092 201.456 254.993 201.912 255.025 202.368C255.057 202.824 255.22 203.261 255.494 203.629C256.449 205.01 258.75 205.015 260.142 204.425" stroke="black" stroke-width="0.860136" stroke-miterlimit="10"/>
<path d="M252.76 190.461C252.217 190.854 251.546 190.854 251.262 190.461C250.977 190.068 251.19 189.453 251.739 189.055C252.288 188.656 252.953 188.661 253.233 189.055C253.512 189.448 253.304 190.068 252.76 190.461Z" fill="black"/>
<path d="M265.867 210.825C252.151 212.438 243.743 218.672 243.743 218.672L246.131 229.488C258.404 217.896 270.347 215.3 270.464 215.174L265.867 210.825Z" fill="#FCDDD2"/>
<path d="M243.331 211.764L238.175 215.071C238.175 215.071 237.286 224.269 238.983 229.183L243.743 218.71L243.331 211.764Z" fill="#FCDDD2"/>
<path d="M243.743 218.676L246.131 229.492C258.404 217.9 270.347 215.304 270.464 215.178" stroke="black" stroke-width="0.860136" stroke-miterlimit="10"/>
<path d="M243.331 211.764L238.175 215.071C238.175 215.071 237.286 224.269 238.983 229.183L243.743 218.71" stroke="black" stroke-width="0.860136" stroke-miterlimit="10"/>
<path d="M192.415 182.514C193.806 187.414 195.856 192.104 198.511 196.46" stroke="black" stroke-width="0.860136" stroke-miterlimit="10"/>
<path d="M192.867 190.912C193.737 194.058 194.78 197.153 195.991 200.186" stroke="black" stroke-width="0.860136" stroke-miterlimit="10"/>
<path d="M277.601 197.505C277.606 199.768 276.847 201.968 275.447 203.754C274.054 205.526 272.354 207.037 270.428 208.22" stroke="black" stroke-width="0.860136" stroke-miterlimit="10"/>
<path d="M276.062 208.148C277.961 207.074 279.558 205.544 280.705 203.698" stroke="black" stroke-width="0.860136" stroke-miterlimit="10"/>
</g>
<defs>
<clipPath id="clip0_4_2087">
<rect width="381" height="252" fill="white" transform="translate(0 0.365234)"/>
</clipPath>
</defs>
</svg>
