<svg width="106" height="29" viewBox="0 0 106 29" fill="none" xmlns="http://www.w3.org/2000/svg">
<g clip-path="url(#clip0_4_332)">
<path d="M105.822 5.53574C105.81 5.49616 105.798 5.45657 105.783 5.41699C96.5126 5.42095 87.2464 5.41699 77.9801 5.42095C77.9567 5.44866 77.941 5.47636 77.9371 5.51199C77.9371 12.7831 77.9371 20.0503 77.9331 27.3215C77.9918 27.7094 78.2031 28.0616 78.4849 28.3269C78.4967 28.3308 78.5241 28.3347 78.5358 28.3387C78.6806 28.493 78.888 28.5683 79.0836 28.6395C79.2284 28.6316 79.3693 28.6949 79.5141 28.6791H91.0186C91.1282 28.6751 91.2416 28.6949 91.3473 28.6514C91.3512 28.6357 91.3551 28.6079 91.359 28.5921C91.363 28.5723 91.3668 28.5287 91.3708 28.505C91.6173 27.1118 91.856 25.7145 92.1182 24.3213L92.1417 24.1432C91.0774 24.1391 90.0091 24.1432 88.9447 24.1391C88.6864 24.1312 88.4204 24.1391 88.1621 24.1074C87.72 24.0876 87.2739 24.1035 86.8317 24.06C86.2838 24.06 85.7399 24.0085 85.1921 24.0085C84.7616 23.9649 84.3273 23.9808 83.8929 23.961C83.6113 23.9255 83.3216 23.9412 83.036 23.9293C82.5704 23.8779 82.0969 23.9135 81.6312 23.8621C81.1382 23.8661 80.6451 23.8225 80.1521 23.8106C80.156 23.8066 80.1599 23.7908 80.1599 23.7868C80.3243 23.7908 80.4847 23.7789 80.649 23.775C81.013 23.7274 81.3808 23.7591 81.7447 23.7076C82.1243 23.7076 82.4999 23.6562 82.8795 23.6562C83.216 23.6087 83.5565 23.6364 83.8929 23.5889C84.2882 23.5889 84.6756 23.5375 85.0709 23.5335C85.3956 23.4899 85.7243 23.5137 86.0491 23.4702C86.4287 23.4741 86.8044 23.4147 87.1839 23.4187C87.5557 23.3751 87.9352 23.387 88.3069 23.3474C88.2718 23.201 88.2443 23.0545 88.2131 22.908C88.1857 22.817 88.0761 22.8368 88.0057 22.8249C87.1565 22.7021 86.3113 22.5795 85.4661 22.4608C85.5209 22.4172 85.5952 22.437 85.6578 22.4291C86.3152 22.3776 86.9687 22.3182 87.6261 22.2708C87.7748 22.2629 87.9196 22.2351 88.0683 22.2312C88.0018 22.0254 87.9626 21.7997 87.8726 21.6098C86.4679 21.3921 85.063 21.1981 83.6621 20.9646C84.0261 20.9052 84.3939 20.8775 84.7578 20.8379L84.7891 20.826C85.9513 20.7032 87.1174 20.5647 88.2796 20.45C89.7548 20.4421 91.2262 20.446 92.7014 20.45C92.7483 20.4421 92.8306 20.4657 92.8384 20.3985C92.9597 19.7573 93.0771 19.1161 93.1983 18.4748C93.3666 17.5843 93.6327 16.7056 94.0435 15.8941C94.6892 14.5879 95.7105 13.4797 96.9548 12.7435C98.117 12.0548 99.4632 11.7223 100.801 11.6589C101.236 11.6194 101.674 11.6312 102.105 11.6867C102.386 11.7539 102.676 11.8331 102.899 12.0271C103.083 12.1775 103.192 12.3991 103.275 12.6208C103.455 13.1472 103.556 13.6934 103.642 14.2436C103.646 14.4653 103.685 14.7146 103.568 14.9165C103.458 15.1144 103.239 15.2094 103.032 15.2688C102.277 15.4667 101.486 15.2806 100.731 15.4667C100.109 15.6013 99.5298 15.9496 99.1345 16.4523C98.6689 17.0381 98.4223 17.7663 98.2854 18.4947C98.1797 19.1438 98.0467 19.7929 97.941 20.446C98.6845 20.4501 99.4319 20.4421 100.179 20.4501C100.477 20.4501 100.782 20.6163 100.903 20.9012C101.06 21.2654 101.025 21.6771 100.974 22.061C100.911 22.4925 100.809 22.9199 100.618 23.3157C100.457 23.6522 100.191 23.9609 99.8271 24.0797C99.6393 24.1549 99.4358 24.139 99.2362 24.139C98.5788 24.139 97.9214 24.1469 97.264 24.139C97.1584 24.6259 97.0879 25.1246 96.994 25.6194C96.8219 26.5812 96.6536 27.547 96.4814 28.5128C96.4775 28.5445 96.4736 28.6118 96.4736 28.6474C96.7827 28.6632 97.0919 28.6474 97.401 28.6553C99.6941 28.6553 101.991 28.6512 104.288 28.6553C104.535 28.6632 104.785 28.6039 105 28.4811C105.129 28.4337 105.208 28.3188 105.321 28.2555C105.431 28.1922 105.462 28.0617 105.556 27.9785C105.658 27.7964 105.763 27.6065 105.771 27.3926C105.783 27.3926 105.814 27.3887 105.83 27.3847C105.818 20.1018 105.83 12.8188 105.822 5.53574Z" fill="url(#paint0_linear_4_332)" stroke="#FCD109" stroke-width="0.094"/>
<path d="M81.584 0.745576C81.9166 0.638705 82.2649 0.709952 82.6054 0.686203C88.9955 0.690161 95.3856 0.686203 101.776 0.686203C102.155 0.67037 102.488 0.88807 102.84 0.998898C103.122 1.11369 103.415 1.20472 103.697 1.32743C103.756 1.35118 103.799 1.40263 103.842 1.44617C103.838 1.96865 103.842 2.49509 103.842 3.02152C103.846 3.16006 103.822 3.30255 103.869 3.43713C103.951 3.449 103.994 3.51234 104.049 3.56379C104.307 3.68254 104.526 3.87649 104.761 4.03481C105.113 4.28814 105.489 4.50979 105.833 4.77103C105.849 4.87394 105.837 4.98082 105.806 5.07581C105.771 5.18664 105.794 5.30539 105.783 5.41621C96.5124 5.42017 87.2462 5.41621 77.9799 5.42017C77.9604 5.28955 77.9956 5.15893 77.9408 5.03623C77.933 4.93332 77.8978 4.79874 77.9956 4.72749C78.3869 4.45042 78.8017 4.20106 79.1851 3.90815C79.4239 3.75378 79.6547 3.59546 79.8855 3.43713C79.9325 3.35797 79.9169 3.25901 79.9169 3.17193C79.9169 2.598 79.9169 2.02406 79.9208 1.45013C80.0538 1.27597 80.2848 1.25618 80.4686 1.1691C80.8405 1.02661 81.2162 0.88807 81.584 0.745576ZM81.6075 0.812864C81.1066 1.00681 80.6018 1.19285 80.1009 1.3868C80.0344 1.39867 79.9991 1.45805 79.964 1.5095C79.9679 1.54117 79.9718 1.59658 79.9718 1.62825C79.9678 2.10323 79.9718 2.57821 79.9678 3.05319C79.9718 3.17193 79.9561 3.29068 79.9991 3.39755C79.9482 3.449 79.8935 3.50046 79.8308 3.54004C79.2634 3.91211 78.7156 4.31584 78.1482 4.68395C78.0504 4.74333 77.9408 4.82249 77.9721 4.95311C77.9525 5.02435 77.9878 5.08373 78.0621 5.06394C79.2908 5.05602 80.5156 5.07185 81.7444 5.05206C83.5719 5.05206 85.3954 5.05602 87.2228 5.05206L87.2502 5.04019C87.3324 5.05998 87.4145 5.05206 87.5005 5.05206C90.811 5.05206 94.1215 5.05602 97.4359 5.05206C98.4768 5.05602 99.5216 5.05206 100.566 5.05206C102.288 5.05206 104.014 5.0679 105.736 5.05998C105.787 5.0481 105.802 5.01248 105.783 4.94915C105.779 4.88582 105.802 4.79874 105.736 4.75916C105.462 4.62854 105.227 4.42667 104.965 4.26835C104.871 4.18918 104.75 4.14564 104.679 4.03877C104.409 3.8844 104.159 3.69441 103.893 3.52421C103.842 3.49254 103.802 3.44109 103.76 3.39755C103.783 3.31443 103.791 3.22339 103.791 3.13631C103.787 2.63362 103.791 2.13093 103.787 1.62825C103.799 1.54908 103.795 1.45805 103.724 1.40659C103.255 1.23639 102.789 1.05431 102.323 0.880153C102.179 0.808906 102.018 0.769325 101.862 0.745576H81.8617C81.7757 0.749534 81.6936 0.793074 81.6075 0.812864Z" fill="#F8F3B5" stroke="#F8F3B5" stroke-width="0.094"/>
<path d="M79.9723 1.62793C80.3166 1.77438 80.6844 1.8575 81.0327 2C81.2205 2.0752 81.2792 2.28103 81.3614 2.44727C81.2792 2.53039 81.1813 2.59768 81.0835 2.66101C80.7235 2.90642 80.3557 3.14391 79.9996 3.39723C79.9565 3.29036 79.9723 3.17162 79.9683 3.05287C79.9723 2.57789 79.9683 2.10291 79.9723 1.62793ZM102.727 2C103.075 1.86146 103.439 1.76647 103.787 1.62793C103.791 2.13062 103.787 2.6333 103.791 3.13599C103.791 3.22307 103.784 3.31411 103.76 3.39723C103.455 3.18349 103.146 2.98162 102.84 2.77184C102.692 2.66101 102.527 2.57789 102.394 2.44331C102.477 2.27707 102.539 2.0752 102.727 2Z" fill="#F7B402" stroke="#F7B402" stroke-width="0.094"/>
<path d="M85.9436 2.16277C86.374 2.05986 86.8553 2.44776 86.8201 2.90295C86.824 3.35022 86.3583 3.71437 85.9318 3.61146C85.7596 3.55209 85.5952 3.46105 85.4896 3.30668C85.3527 3.0969 85.3213 2.81587 85.4309 2.58629C85.5092 2.36463 85.7205 2.21422 85.9436 2.16277ZM97.1077 2.41213C97.2877 2.21027 97.5733 2.09548 97.8394 2.16673C98.039 2.2261 98.2346 2.35672 98.3207 2.55463C98.4929 2.89503 98.3599 3.35418 98.0233 3.53229C97.7259 3.69854 97.3503 3.61937 97.1233 3.37793C96.8924 3.11273 96.8767 2.67733 97.1077 2.41213Z" fill="#BDA727" stroke="#BDA727" stroke-width="0.094"/>
<path d="M81.0837 2.66204C81.1815 2.5987 81.2793 2.53142 81.3616 2.44829L81.3889 2.476C81.4163 2.68183 81.3967 2.89161 81.4045 3.09743C81.3928 3.71491 81.4163 4.33634 81.3889 4.95381C80.2502 4.95381 79.1115 4.9459 77.9727 4.95381C77.9414 4.82319 78.051 4.74403 78.1488 4.68466C78.7162 4.31655 79.2641 3.91282 79.8315 3.54075C79.8942 3.50117 79.9489 3.44971 79.9997 3.39825C80.3558 3.14493 80.7237 2.90744 81.0837 2.66204ZM102.355 2.58287C102.355 2.53142 102.367 2.48788 102.394 2.44434C102.527 2.57891 102.692 2.66204 102.84 2.77286C103.146 2.98265 103.455 3.18451 103.76 3.39825C103.803 3.44179 103.842 3.49325 103.893 3.52492C104.159 3.69512 104.41 3.88511 104.68 4.03948C104.75 4.14635 104.871 4.18989 104.965 4.26905C105.227 4.42738 105.462 4.62924 105.736 4.75986C105.803 4.79945 105.779 4.88653 105.783 4.94986C104.644 4.95381 103.51 4.9459 102.371 4.95381C102.351 4.79549 102.363 4.63716 102.359 4.48279C102.359 3.84949 102.351 3.21618 102.355 2.58287Z" fill="#F7E62D" stroke="#F7E62D" stroke-width="0.094"/>
<path d="M105.783 4.94869C104.644 4.95265 103.51 4.94473 102.371 4.95265C102.351 4.79432 102.363 4.636 102.359 4.48163C102.359 3.84832 102.351 3.21501 102.355 2.58171C102.355 2.53025 102.367 2.48671 102.394 2.44317C102.477 2.27693 102.539 2.07506 102.727 1.99986C103.075 1.86132 103.439 1.76632 103.788 1.62779C103.799 1.54863 103.795 1.45759 103.725 1.40613C103.255 1.23593 102.79 1.05385 102.324 0.879695C102.179 0.808448 102.019 0.768866 101.862 0.745117H81.8623C81.7762 0.749075 81.6941 0.792615 81.608 0.812406C81.1071 1.00636 80.6023 1.19239 80.1014 1.38634C80.0349 1.39821 79.9996 1.45759 79.9645 1.50904C79.9684 1.54071 79.9723 1.59612 79.9723 1.62779C80.3167 1.77424 80.6844 1.85736 81.0328 1.99986C81.2206 2.07506 81.2793 2.28089 81.3615 2.44713L81.3888 2.47484C81.4162 2.68066 81.3966 2.89044 81.4044 3.09627C81.3927 3.71374 81.4162 4.33518 81.3888 4.95265C80.2501 4.95265 79.1114 4.94473 77.9726 4.95265C77.9531 5.0239 77.9883 5.08327 78.0626 5.06348C79.2913 5.05556 80.5161 5.07139 81.7449 5.0516C83.5724 5.0516 85.3959 5.05556 87.2233 5.0516L87.2507 5.03973C87.3329 5.05952 87.415 5.0516 87.501 5.0516C90.8115 5.0516 94.122 5.05556 97.4364 5.0516C98.4773 5.05556 99.5221 5.0516 100.567 5.0516C102.289 5.0516 104.014 5.06744 105.736 5.05952C105.787 5.04765 105.803 5.01202 105.783 4.94869ZM85.4312 2.58567C85.5094 2.36401 85.7207 2.2136 85.9438 2.16214C86.3742 2.05923 86.8555 2.44713 86.8203 2.90232C86.8242 3.34959 86.3585 3.71374 85.932 3.61083C85.7599 3.55146 85.5954 3.46042 85.4899 3.30605C85.3529 3.09627 85.3216 2.81524 85.4312 2.58567ZM97.1079 2.41151C97.2879 2.20964 97.5736 2.09485 97.8396 2.1661C98.0392 2.22547 98.2349 2.35609 98.321 2.554C98.4931 2.8944 98.3601 3.35355 98.0236 3.53167C97.7261 3.69791 97.3505 3.61875 97.1235 3.3773C96.8927 3.1121 96.8769 2.6767 97.1079 2.41151Z" fill="url(#paint1_radial_4_332)" stroke="#FCD109" stroke-width="0.094"/>
<path d="M98.1048 6.68932C98.1595 6.7012 97.8196 6.35897 97.8861 6.34314C97.9487 6.35106 98.1861 6.16467 98.4731 6.31674C98.76 6.46881 98.6888 6.82469 98.6563 6.95666C98.6175 7.11372 98.5187 7.21394 98.4404 7.2931C98.3974 7.32873 98.3009 7.38414 98.2422 7.38018C98.2774 7.18623 98.1639 7.15457 98.1561 6.95666L98.1048 6.68932Z" fill="url(#paint2_linear_4_332)" stroke="#FCD109" stroke-width="0.094"/>
<path d="M85.5954 6.90395C85.5876 7.10186 85.474 7.13352 85.5093 7.32747C85.4506 7.33143 85.354 7.27602 85.311 7.24039C85.2327 7.16123 85.134 7.06101 85.0952 6.90395C85.0626 6.77202 84.9915 6.41614 85.2784 6.26403C85.5654 6.11192 85.8028 6.29831 85.8654 6.29043C85.9319 6.30626 85.592 6.64849 85.6467 6.63661L85.5954 6.90395Z" fill="url(#paint3_linear_4_332)" stroke="#FCD109" stroke-width="0.094"/>
<path d="M97.592 9.22455C97.6509 9.17285 97.69 9.17285 97.7683 9.17285C97.2987 10.202 96.7509 11.2311 95.9272 12.0324C95.8391 12.1119 95.7461 12.1856 95.6486 12.2531C95.5543 12.3229 95.4619 12.3884 95.37 12.4551C95.28 12.5183 95.1905 12.5819 95.1034 12.6482C94.8804 12.7709 94.6847 12.9411 94.4382 13.0163C93.9882 13.234 93.503 13.3804 93.0139 13.4833C92.8222 13.515 92.6265 13.5625 92.4309 13.5665C92.1882 13.6377 91.93 13.5862 91.6834 13.6021C91.5465 13.6258 91.4251 13.5467 91.2921 13.5625C91.1767 13.546 91.0615 13.5262 90.9471 13.5031C90.8309 13.4791 90.7155 13.4514 90.6011 13.42C88.8073 12.8539 87.0464 11.4686 86.5334 9.59499C86.5102 9.46881 86.4986 9.34076 86.4985 9.21243C86.5533 9.32326 86.6101 9.4333 86.6688 9.54231C87.3986 11.1519 88.8464 12.4185 90.5569 12.8005C90.6957 12.8645 90.846 12.8421 90.9791 12.8975C91.1004 12.8975 91.2178 12.8935 91.3352 12.9331C91.7382 12.941 92.1413 12.9371 92.5443 12.9371C92.599 12.941 92.6499 12.9133 92.7048 12.9014C93.3765 12.8784 94.0347 12.6931 94.6475 12.4121C94.7701 12.3559 94.8909 12.2958 95.0096 12.2325C95.1135 12.1772 95.2149 12.1172 95.3136 12.0529C95.4105 11.9897 95.5047 11.9224 95.596 11.8511C96.3204 11.2707 96.9465 10.5186 97.3717 9.65381C97.4526 9.49817 97.5267 9.35406 97.592 9.22455Z" fill="#BDA727" stroke="#BDA727" stroke-width="0.094"/>
<path d="M96.9544 12.7436C98.1166 12.0549 99.4628 11.7224 100.801 11.659C101.235 11.6195 101.674 11.6313 102.104 11.6868C102.386 11.754 102.675 11.8332 102.899 12.0272C102.785 12.0351 102.675 11.9836 102.562 11.9678C102.241 11.9045 101.908 11.9282 101.584 11.9203C100.641 11.9203 99.6898 11.9955 98.778 12.2567C98.3006 12.4032 97.8232 12.5734 97.3889 12.8267C96.6375 13.2463 95.9606 13.8004 95.4127 14.4654C94.4345 15.6014 93.8592 17.0422 93.5814 18.5107C93.4483 19.2983 93.2957 20.082 93.1744 20.8736C92.9788 20.8934 92.7792 20.8815 92.5835 20.8815C91.7227 20.8776 90.8618 20.8736 90.0009 20.8658C89.817 20.8736 89.6369 20.8302 89.4531 20.842C87.8878 20.8498 86.3226 20.838 84.7573 20.838L84.7886 20.8261C85.9508 20.7033 87.1169 20.5648 88.2791 20.4501C89.7543 20.4422 91.2257 20.446 92.7009 20.4501C92.7478 20.4422 92.8301 20.4658 92.8379 20.3986C92.9592 19.7574 93.0766 19.1162 93.1978 18.4749C93.3662 17.5844 93.6323 16.7057 94.0431 15.8943C94.6888 14.5881 95.7101 13.4798 96.9544 12.7436Z" fill="#0D69B3" stroke="#0D69B3" stroke-width="0.094"/>
<path d="M98.778 12.2554C99.6898 11.9942 100.641 11.9189 101.584 11.9189C101.909 11.9269 102.241 11.9031 102.562 11.9664C102.675 11.9823 102.785 12.0337 102.899 12.0258C103.082 12.1762 103.192 12.3979 103.274 12.6195C103.454 13.146 103.556 13.6922 103.642 14.2424C103.646 14.464 103.685 14.7134 103.568 14.9153C103.458 15.1132 103.239 15.2082 103.032 15.2676C102.276 15.4655 101.486 15.2794 100.731 15.4655C100.109 15.6 99.5294 15.9483 99.1341 16.451C98.6685 17.0368 98.4219 17.765 98.285 18.4935C98.1794 19.1426 98.0463 19.7917 97.9406 20.4448C97.8937 20.5913 97.8663 20.7496 97.8389 20.904C98.5784 20.9159 99.318 20.904 100.058 20.9119C100.339 20.904 100.621 20.9198 100.903 20.9C101.059 21.2642 101.024 21.6759 100.973 22.0598C100.911 22.4912 100.809 22.9187 100.617 23.3145C100.457 23.6509 100.191 23.9597 99.8267 24.0784C99.6389 24.1536 99.4354 24.1378 99.2359 24.1378C98.5784 24.1378 97.921 24.1457 97.2637 24.1378C97.158 24.6247 97.0876 25.1234 96.9937 25.6182C96.8216 26.58 96.6533 27.5458 96.481 28.5116C96.4771 28.5433 96.4732 28.6105 96.4732 28.6462V28.6501C94.7632 28.6501 93.0571 28.6542 91.347 28.6501C91.351 28.6344 91.3549 28.6066 91.3588 28.5907C91.3628 28.571 91.3666 28.5274 91.3706 28.5037C91.3745 28.5354 91.3783 28.5948 91.3823 28.6225C91.4879 28.6344 91.6797 28.6897 91.7071 28.5354C91.9732 27.0788 92.2197 25.6142 92.4937 24.1576C92.388 24.1338 92.2784 24.1339 92.1689 24.1536C92.1533 24.2091 92.1376 24.2644 92.118 24.3198L92.1415 24.1417C91.0772 24.1377 90.0088 24.1417 88.9445 24.1377C88.6862 24.1299 88.4202 24.1377 88.1619 24.1061C87.7197 24.0863 87.2736 24.1021 86.8315 24.0585C86.2836 24.0585 85.7397 24.0071 85.1919 24.0071C84.7614 23.9636 84.3271 23.9794 83.8927 23.9596C83.611 23.924 83.3214 23.9398 83.0358 23.9279C82.5702 23.8764 82.0967 23.9122 81.631 23.8606C81.138 23.8647 80.6449 23.821 80.1519 23.8092C80.1558 23.8052 80.1597 23.7894 80.1597 23.7855C80.324 23.7894 80.4845 23.7775 80.6488 23.7735C81.0127 23.7261 81.3806 23.7577 81.7445 23.7063C82.1241 23.7063 82.4997 23.6548 82.8793 23.6548C83.2158 23.6073 83.5563 23.635 83.8927 23.5875C84.288 23.5875 84.6753 23.536 85.0706 23.5321C85.3954 23.4886 85.7241 23.5123 86.0489 23.4688C86.4285 23.4728 86.8041 23.4134 87.1837 23.4173C87.5555 23.3737 87.935 23.3856 88.3067 23.346C88.2716 23.1996 88.2441 23.0532 88.2129 22.9067C88.1855 22.8156 88.0759 22.8354 88.0055 22.8235C87.1563 22.7008 86.3111 22.5781 85.4659 22.4593C85.5206 22.4157 85.595 22.4355 85.6576 22.4277C86.315 22.3761 86.9685 22.3168 87.6259 22.2694C87.7746 22.2614 87.9194 22.2338 88.0681 22.2298C88.0016 22.0239 87.9624 21.7984 87.8724 21.6083C86.4677 21.3906 85.0628 21.1967 83.6619 20.9632C84.0258 20.9038 84.3937 20.8761 84.7576 20.8365C86.3228 20.8365 87.8881 20.8484 89.4533 20.8405C89.6372 20.8286 89.8172 20.8722 90.0012 20.8643C90.862 20.8722 91.7229 20.8762 92.5838 20.88C92.7795 20.88 92.979 20.892 93.1747 20.8722C93.296 20.0805 93.4486 19.2968 93.5817 18.5092C93.8595 17.0406 94.4347 15.5999 95.413 14.464C95.9608 13.799 96.6378 13.2448 97.3891 12.8252C97.8232 12.572 98.3006 12.4018 98.778 12.2554Z" fill="#107BD4" stroke="#107BD4" stroke-width="0.094"/>
<path d="M97.9407 20.4443C98.6842 20.4484 99.4317 20.4404 100.179 20.4484C100.476 20.4484 100.782 20.6146 100.903 20.8995C100.621 20.9193 100.339 20.9036 100.058 20.9114C99.3181 20.9036 98.5785 20.9155 97.839 20.9036C97.8664 20.7492 97.8937 20.5908 97.9407 20.4443ZM92.1689 24.1532C92.2784 24.1334 92.3881 24.1334 92.4937 24.1571C92.2198 25.6138 91.9732 27.0783 91.7071 28.535C91.6797 28.6892 91.488 28.6339 91.3823 28.622C91.3784 28.5943 91.3745 28.5349 91.3706 28.5032C91.6171 27.11 91.8558 25.7127 92.118 24.3195C92.1376 24.264 92.1532 24.2086 92.1689 24.1532Z" fill="#0D69B3" stroke="#0D69B3" stroke-width="0.094"/>
<path d="M98.2836 6.79952C98.2523 6.74015 98.2484 6.6689 98.2484 6.60161L98.217 6.60557C98.1701 6.43141 98.0254 6.26517 97.8375 6.25725C97.6966 6.24538 97.5205 6.24934 97.4384 6.38392C97.2819 6.59766 97.3561 6.87077 97.3484 7.11222C97.3484 7.12805 97.3523 7.15576 97.3523 7.17159C97.3523 7.33388 97.3327 7.4922 97.3054 7.65053C97.2819 7.69803 97.2702 7.74948 97.2702 7.8049C97.2037 8.17696 97.0706 8.54507 96.8906 8.88152C96.8554 8.92902 96.828 8.98047 96.8163 9.03589C96.6989 9.24171 96.558 9.4317 96.4132 9.6217C96.3897 9.64149 96.3702 9.66524 96.3506 9.68898C96.2488 9.81565 96.1393 9.92252 96.0258 10.0333C95.9984 10.0492 95.9789 10.069 95.9553 10.0848C95.8223 10.2154 95.6736 10.3381 95.5132 10.4371C95.4936 10.449 95.474 10.4648 95.4505 10.4806C94.4487 11.1495 93.2318 11.4266 92.0461 11.4385C91.0405 11.4702 90.0269 11.2525 89.119 10.8131C89.1035 10.8052 89.0643 10.7894 89.0486 10.7814C88.896 10.6983 88.7395 10.6271 88.5986 10.5242C88.5673 10.5083 88.536 10.4885 88.5008 10.4727C88.356 10.3856 88.219 10.2906 88.0899 10.1798C88.0469 10.1402 87.9999 10.1086 87.9529 10.0729C87.8121 9.95814 87.6673 9.83544 87.5461 9.6969C87.5147 9.66128 87.4834 9.62961 87.4521 9.59795C87.0257 9.15067 86.6931 8.60445 86.517 8.01072C86.3486 7.5397 86.3722 7.02514 86.3526 6.53037C86.2117 6.31267 85.9144 6.18996 85.6796 6.32454C85.5818 6.39579 85.57 6.52641 85.4957 6.61745C85.3744 7.92364 85.9261 9.22588 86.8066 10.1679C86.8066 10.1996 86.8222 10.2194 86.8497 10.2313C87.0062 10.3777 87.1587 10.5281 87.3153 10.6706C87.3427 10.6983 87.374 10.726 87.4092 10.7498C87.5657 10.8804 87.734 10.9991 87.8983 11.1218C87.9296 11.1456 87.9609 11.1654 87.9961 11.1852C88.2114 11.3118 88.4148 11.4622 88.6457 11.5493C88.6614 11.5612 88.6888 11.581 88.7044 11.5889C89.4479 11.9491 90.2501 12.1945 91.0718 12.2737C91.1618 12.2737 91.2519 12.2816 91.3419 12.3014C91.7332 12.3251 92.1245 12.3133 92.5158 12.3053C93.7249 12.1985 94.9732 11.9016 95.9828 11.1812L95.9945 11.197C96.0258 11.1693 96.0532 11.1456 96.0845 11.1218C96.2451 11.0031 96.4016 10.8764 96.5581 10.7458C96.5932 10.7181 96.6324 10.6864 96.6677 10.6508C96.8398 10.4608 97.0394 10.2867 97.1842 10.069L97.2077 10.0808C97.2194 10.0611 97.239 10.0215 97.2508 10.0017C97.3838 9.81961 97.5052 9.62961 97.6226 9.43962C97.6303 9.42775 97.6499 9.40795 97.6577 9.39608L97.6421 9.38025C97.6539 9.36442 97.6813 9.33275 97.693 9.31692C97.9082 8.8736 98.0999 8.4105 98.1665 7.91968C98.1939 7.90781 98.2096 7.88406 98.2096 7.85635C98.2135 7.69803 98.2683 7.54762 98.2526 7.38929C98.2874 7.19534 98.2914 6.99743 98.2836 6.79952Z" fill="white" stroke="white" stroke-width="0.094"/>
<mask id="mask0_4_332" style="mask-type:luminance" maskUnits="userSpaceOnUse" x="85" y="6" width="14" height="7">
<path d="M98.2836 6.79952C98.2523 6.74015 98.2484 6.6689 98.2484 6.60161L98.217 6.60557C98.1701 6.43141 98.0254 6.26517 97.8375 6.25725C97.6966 6.24538 97.5205 6.24934 97.4384 6.38392C97.2819 6.59766 97.3561 6.87077 97.3484 7.11222C97.3484 7.12805 97.3523 7.15576 97.3523 7.17159C97.3523 7.33388 97.3327 7.4922 97.3054 7.65053C97.2819 7.69803 97.2702 7.74948 97.2702 7.8049C97.2037 8.17696 97.0706 8.54507 96.8906 8.88152C96.8554 8.92902 96.828 8.98047 96.8163 9.03589C96.6989 9.24171 96.558 9.4317 96.4132 9.6217C96.3897 9.64149 96.3702 9.66524 96.3506 9.68898C96.2488 9.81565 96.1393 9.92252 96.0258 10.0333C95.9984 10.0492 95.9789 10.069 95.9553 10.0848C95.8223 10.2154 95.6736 10.3381 95.5132 10.4371C95.4936 10.449 95.474 10.4648 95.4505 10.4806C94.4487 11.1495 93.2318 11.4266 92.0461 11.4385C91.0405 11.4702 90.0269 11.2525 89.119 10.8131C89.1035 10.8052 89.0643 10.7894 89.0486 10.7814C88.896 10.6983 88.7395 10.6271 88.5986 10.5242C88.5673 10.5083 88.536 10.4885 88.5008 10.4727C88.356 10.3856 88.219 10.2906 88.0899 10.1798C88.0469 10.1402 87.9999 10.1086 87.9529 10.0729C87.8121 9.95814 87.6673 9.83544 87.5461 9.6969C87.5147 9.66128 87.4834 9.62961 87.4521 9.59795C87.0257 9.15067 86.6931 8.60445 86.517 8.01072C86.3486 7.5397 86.3722 7.02514 86.3526 6.53037C86.2117 6.31267 85.9144 6.18996 85.6796 6.32454C85.5818 6.39579 85.57 6.52641 85.4957 6.61745C85.3744 7.92364 85.9261 9.22588 86.8066 10.1679C86.8066 10.1996 86.8222 10.2194 86.8497 10.2313C87.0062 10.3777 87.1587 10.5281 87.3153 10.6706C87.3427 10.6983 87.374 10.726 87.4092 10.7498C87.5657 10.8804 87.734 10.9991 87.8983 11.1218C87.9296 11.1456 87.9609 11.1654 87.9961 11.1852C88.2114 11.3118 88.4148 11.4622 88.6457 11.5493C88.6614 11.5612 88.6888 11.581 88.7044 11.5889C89.4479 11.9491 90.2501 12.1945 91.0718 12.2737C91.1618 12.2737 91.2519 12.2816 91.3419 12.3014C91.7332 12.3251 92.1245 12.3133 92.5158 12.3053C93.7249 12.1985 94.9732 11.9016 95.9828 11.1812L95.9945 11.197C96.0258 11.1693 96.0532 11.1456 96.0845 11.1218C96.2451 11.0031 96.4016 10.8764 96.5581 10.7458C96.5932 10.7181 96.6324 10.6864 96.6677 10.6508C96.8398 10.4608 97.0394 10.2867 97.1842 10.069L97.2077 10.0808C97.2194 10.0611 97.239 10.0215 97.2508 10.0017C97.3838 9.81961 97.5052 9.62961 97.6226 9.43962C97.6303 9.42775 97.6499 9.40795 97.6577 9.39608L97.6421 9.38025C97.6539 9.36442 97.6813 9.33275 97.693 9.31692C97.9082 8.8736 98.0999 8.4105 98.1665 7.91968C98.1939 7.90781 98.2096 7.88406 98.2096 7.85635C98.2135 7.69803 98.2683 7.54762 98.2526 7.38929C98.2874 7.19534 98.2914 6.99743 98.2836 6.79952Z" fill="white"/>
</mask>
<g mask="url(#mask0_4_332)">
<path d="M85.1948 6.66635C85.512 6.76701 86.2408 6.51376 86.447 6.74552M85.3774 7.64267C85.6814 7.53568 86.3332 7.28236 86.6035 7.43159M85.6905 8.61904C85.8374 8.66717 86.1271 8.40605 86.271 8.32953C86.485 8.21566 86.7046 8.12838 86.9427 8.09129M86.1601 9.64816C86.3116 9.4303 86.493 9.24937 86.712 9.09461C86.929 8.94127 87.5227 8.53156 87.7775 8.6718M86.6035 10.387C86.7756 10.2487 86.8456 10.004 87.0262 9.85865C87.2447 9.68283 87.5795 9.65129 87.8036 9.5426M87.3405 10.9345C87.392 10.5518 87.7761 10.09 88.1427 10.1231M87.9079 11.4689C88.1016 11.4493 88.2655 11.0107 88.3965 10.8621C88.5927 10.6394 88.7961 10.571 89.0557 10.4926M89.0296 11.9439C89.0171 11.667 89.3 10.873 89.6297 10.9148M89.8645 12.2078C89.8507 11.8805 90.018 10.8962 90.4123 10.862M90.7253 12.7355C90.6506 12.2779 90.6554 11.6158 91.0123 11.2842M91.795 12.8411C91.7552 12.4596 91.3804 11.6884 91.795 11.3898M92.9427 12.5772C92.7638 12.3674 92.6598 11.5397 92.734 11.3106M94.0384 12.3925C93.9004 12.139 93.7294 11.901 93.6772 11.6068C93.6459 11.431 93.7007 11.1805 93.6732 11.0467M94.9515 11.9967C94.6522 11.7986 94.5691 11.0708 94.6645 10.7564M95.8384 11.6008C95.6256 11.1389 95.3986 10.7807 95.3949 10.2551M96.6993 10.7564C96.3685 10.5313 95.9464 10.1221 95.995 9.67456M97.6124 10.044C97.1098 9.93133 96.5066 9.47641 96.2037 9.06762M98.0298 9.17318C97.6672 9.09453 96.4691 8.62173 96.5428 8.14406M98.4211 8.24962C97.9159 8.06228 97.181 7.89386 96.7776 7.53715M98.682 7.40518C98.3637 7.43273 97.9079 7.2769 97.5844 7.22046C97.2253 7.1578 96.8923 7.03537 96.5428 6.95657M98.3689 6.58719C97.7551 6.62436 97.1792 6.41192 96.6211 6.21777" stroke="#D1D1D1" stroke-width="2"/>
</g>
<path d="M19.8342 8.48886C20.4014 8.4023 21.054 8.34819 21.5354 8.7053C21.8349 8.93249 21.9419 9.34371 21.9205 9.71174C21.9419 10.3177 21.6638 10.9671 21.1289 11.281C20.6581 11.5407 20.0911 11.5622 19.5668 11.5082C19.2138 11.4649 18.8607 11.2702 18.6789 10.9455C18.2722 10.004 18.7751 8.67284 19.8342 8.48886ZM2.86584 9.17066C2.89789 8.84597 3.1868 8.55378 3.51843 8.56466C5.98996 8.56466 8.45068 8.57543 10.9114 8.56466C11.1789 8.54301 11.4678 8.66199 11.5961 8.90008C11.778 9.22477 11.6175 9.58187 11.5961 9.91741C11.5213 10.3718 11.5426 10.978 11.0185 11.151C9.22102 11.2052 7.42357 11.151 5.62612 11.1727C5.45496 12.3198 5.29448 13.4561 5.12325 14.5924C5.12325 14.6357 5.134 14.7332 5.134 14.7763C6.44994 14.7656 7.76589 14.7763 9.08183 14.7656C9.44563 14.7439 9.83072 15.0579 9.79863 15.4474C9.76658 15.8478 9.68096 16.2374 9.62751 16.6378C9.58462 16.9083 9.37069 17.1572 9.09251 17.2114C7.62673 17.2438 6.13956 17.1789 4.67394 17.2438C4.43849 18.8779 4.1603 20.512 3.91421 22.1462C3.8822 22.4709 3.62534 22.7522 3.30439 22.763C2.69462 22.7739 2.0847 22.7739 1.47493 22.763C1.07908 22.7739 0.758086 22.33 0.865031 21.9513C1.51786 17.6876 2.19185 13.4346 2.86584 9.17066ZM13.7358 8.58619C14.2923 8.54297 14.8592 8.57543 15.4156 8.56466C15.758 8.54301 16.1004 8.81351 16.1324 9.17066C16.1324 9.45196 16.0575 9.73339 16.0254 10.0147C15.5761 12.9151 15.116 15.8154 14.6666 18.7157C14.6024 19.1811 14.4848 19.6788 14.6239 20.155C14.7844 20.6312 15.5011 20.4255 15.6723 20.9233C15.7793 21.3238 15.6616 21.7458 15.6295 22.1571C15.5974 22.6982 14.9876 22.8172 14.5704 22.9364C13.661 23.1095 12.5589 22.9796 11.9063 22.222C11.4356 21.6702 11.4034 20.8909 11.4998 20.1983C12.0668 16.5189 12.6338 12.8394 13.2116 9.14901C13.2438 8.87843 13.4577 8.62954 13.7358 8.58619ZM34.9731 9.17066C35.0051 8.84597 35.2941 8.56466 35.615 8.56466H37.2413C37.6478 8.55378 37.9796 8.99753 37.8832 9.38705C37.5088 11.7896 37.1237 14.1921 36.7492 16.5945C37.3162 16.508 37.9582 16.3997 38.3541 15.9344C39.0173 15.1768 39.5631 14.3004 39.9696 13.3805C40.1086 13.0233 40.1835 12.5039 40.6436 12.4389C41.2534 12.4173 41.8739 12.4281 42.4838 12.4389C42.9011 12.4281 43.2113 12.9042 43.0722 13.2938C42.9117 13.8675 42.6443 14.3977 42.3661 14.9064C41.7456 15.9236 41.0609 16.9301 40.1621 17.7309C40.558 18.9321 41.0609 20.1009 41.4995 21.2806C41.6278 21.6701 41.9382 22.1246 41.6493 22.5035C41.3175 22.9579 40.697 22.7306 40.237 22.7847C39.7555 22.7306 39.0601 22.9795 38.7926 22.4276C38.2898 21.248 37.8726 20.036 37.359 18.8564C37.0594 18.8671 36.7492 18.878 36.4496 18.8456C36.4283 18.8889 36.3854 18.9754 36.364 19.0187C36.2035 20.1009 36.0323 21.1831 35.8611 22.2653C35.7969 22.525 35.5936 22.7523 35.3155 22.774C34.7485 22.7956 34.1707 22.7847 33.593 22.7847C33.3468 22.7847 33.1222 22.6224 33.0152 22.406C32.9082 22.1894 32.9724 21.9407 33.0046 21.7026C33.6678 17.5252 34.3205 13.3479 34.9731 9.17066ZM64.7053 10.3503C64.7802 10.0472 65.069 9.84161 65.3687 9.85237C65.7966 9.86326 66.2353 9.84161 66.6738 9.86326C67.027 9.87402 67.3051 10.2312 67.2623 10.5775C67.1981 11.1943 67.0483 11.8112 67.0055 12.428C67.4227 12.428 67.8507 12.4172 68.268 12.428C68.6424 12.428 68.9528 12.8176 68.8885 13.1855C68.835 13.5211 68.7601 13.8458 68.7066 14.1811C68.6531 14.4626 68.4178 14.6898 68.1503 14.7331C67.6367 14.7656 67.1339 14.7115 66.6311 14.7656C66.4171 16.2156 66.1817 17.6658 65.957 19.1161C65.9249 19.4515 65.9035 19.8302 66.0961 20.1225C66.385 20.4796 66.8878 20.3497 67.2944 20.3931C67.6154 20.4904 67.8186 20.8476 67.7651 21.1723C67.7116 21.5402 67.7009 21.9082 67.6154 22.2652C67.487 22.6656 67.0269 22.7414 66.6738 22.8388C65.7002 23.0986 64.5768 23.0986 63.7103 22.525C62.9079 21.973 62.7795 20.9016 62.8651 19.9926C63.0897 18.2394 63.4429 16.4971 63.6354 14.7331C63.3358 14.7438 62.972 14.7872 62.7474 14.5166C62.4907 14.2461 62.619 13.8456 62.6618 13.5101C62.7261 13.153 62.7153 12.6876 63.1005 12.4928C63.4107 12.3737 63.7639 12.4604 64.0955 12.4171C64.2987 11.7246 64.4913 11.032 64.7053 10.3503ZM58.6604 13.8565C59.3344 13.1747 60.1475 12.612 61.0783 12.3307C61.4849 12.1467 62.0091 12.493 61.9985 12.9475C61.9236 13.5428 61.7845 14.1271 61.6882 14.7115C61.6453 15.0037 61.3993 15.2526 61.1104 15.2851C60.0619 15.469 59.1525 16.1074 58.425 16.865C58.2432 17.0924 57.9757 17.3088 57.9436 17.6226C57.719 19.1376 57.4836 20.6527 57.2482 22.1678C57.2161 22.4924 56.9378 22.8064 56.6062 22.7847H54.9799C54.6055 22.8064 54.2739 22.4277 54.3167 22.0488C54.7874 19.0511 55.2582 16.0643 55.7182 13.0665C55.7396 12.7635 55.9536 12.4713 56.2638 12.4388C56.6597 12.4172 57.0555 12.428 57.4621 12.428C57.7831 12.428 58.0826 12.7202 58.0826 13.0557C58.0826 13.521 58.0399 13.9972 58.0292 14.4733C58.286 14.3111 58.4464 14.0514 58.6604 13.8565ZM18.6681 12.4821C19.2458 12.3632 19.8449 12.4606 20.4227 12.428C20.7544 12.3848 21.1074 12.6012 21.1609 12.9367C21.2037 13.2397 21.118 13.5319 21.0859 13.8242C20.6473 16.6055 20.2086 19.3867 19.7807 22.1679C19.7486 22.4819 19.4919 22.7957 19.1602 22.7848C18.5825 22.7848 18.0047 22.7957 17.4163 22.774C17.0525 22.7307 16.785 22.3087 16.8814 21.9515C17.3414 19.0621 17.7801 16.1834 18.2402 13.2938C18.2616 12.98 18.3471 12.612 18.6681 12.4821ZM53.2896 12.6229C51.6954 12.3198 50.0693 12.1034 48.4536 12.2657C47.0093 12.4497 45.5543 13.1099 44.6663 14.3111C43.4359 15.8911 43.0186 18.0123 43.2968 19.982C43.4466 20.9234 43.8531 21.8758 44.6128 22.4601C45.3189 23.0121 46.2711 23.0878 47.1271 22.9471C48.3252 22.709 49.3416 21.93 50.1762 21.0641C50.2189 21.432 50.1334 21.8 50.1548 22.1572C50.1762 22.4925 50.4757 22.8064 50.8074 22.7847H51.8988C52.2197 22.7847 52.4872 22.4819 52.5086 22.1679C52.9686 19.2351 53.4287 16.3131 53.878 13.3913C53.9421 13.0233 53.6534 12.6662 53.2896 12.6229ZM50.2833 17.7201C49.8552 18.5317 49.2561 19.2676 48.582 19.8952C48.1969 20.2199 47.7047 20.5554 47.1806 20.4472C46.667 20.339 46.4209 19.7979 46.3033 19.3325C46.0358 18.1205 46.2819 16.8001 46.9558 15.7505C47.2554 15.2634 47.7368 14.8955 48.2932 14.744C49.0742 14.5491 49.8981 14.6465 50.6577 14.863L50.7005 14.9064C50.6042 15.8478 50.4223 16.7785 50.2833 17.7201ZM32.2878 16.0968C32.277 15.0145 31.9882 13.8783 31.2393 13.0666C30.7258 12.493 29.9554 12.2008 29.2065 12.2116C27.9654 12.1684 26.7992 12.7853 25.8899 13.6076C25.6865 13.77 25.5475 14.0081 25.3228 14.138C25.3228 13.7807 25.3549 13.4237 25.3441 13.0558C25.3549 12.7202 25.0446 12.428 24.7236 12.428H23.6323C23.29 12.428 23.0118 12.7311 22.9904 13.0665C22.3164 17.3954 21.6317 21.7242 20.9577 26.053C20.8614 26.4534 21.2038 26.8647 21.6104 26.8538C22.2095 26.843 22.8193 26.8972 23.4077 26.8105C23.8785 26.6806 23.8678 26.1287 23.9427 25.7283C24.1138 24.7759 24.2316 23.8236 24.3385 22.8604C26.4462 23.2716 28.8963 22.9904 30.469 21.3778C31.7528 19.9602 32.3519 18.0014 32.2878 16.0968ZM29.2921 17.1897C29.2279 18.1854 28.8748 19.1919 28.1901 19.9168C27.3022 20.7719 25.954 20.6527 24.8627 20.3607C24.8415 20.3281 24.8093 20.2632 24.7986 20.2308C24.9697 19.2893 25.0553 18.3369 25.2694 17.4062C25.8685 16.4107 26.5959 15.4041 27.6337 14.8523C28.0189 14.6683 28.5431 14.7116 28.8213 15.0687C29.2921 15.6639 29.3349 16.4647 29.2921 17.1897Z" fill="#107BD4" stroke="#107BD4" stroke-width="0.101"/>
</g>
<defs>
<linearGradient id="paint0_linear_4_332" x1="91.8815" y1="5.41695" x2="91.8815" y2="28.6817" gradientUnits="userSpaceOnUse">
<stop stop-color="#F7E830"/>
<stop offset="1" stop-color="#FDCB06"/>
</linearGradient>
<radialGradient id="paint1_radial_4_332" cx="0" cy="0" r="1" gradientUnits="userSpaceOnUse" gradientTransform="translate(91.762 16.0267) scale(18.7078 18.9232)">
<stop offset="0.596" stop-color="#F29405"/>
<stop offset="0.736" stop-color="#F7D01E"/>
<stop offset="1" stop-color="#FDCB06"/>
</radialGradient>
<linearGradient id="paint2_linear_4_332" x1="98.2813" y1="6.25654" x2="98.288" y2="7.35821" gradientUnits="userSpaceOnUse">
<stop stop-color="#FADA1C"/>
<stop offset="1" stop-color="#FDCB06"/>
</linearGradient>
<linearGradient id="paint3_linear_4_332" x1="85.4701" y1="6.20383" x2="85.4634" y2="7.3055" gradientUnits="userSpaceOnUse">
<stop stop-color="#FADA1C"/>
<stop offset="1" stop-color="#FDCB06"/>
</linearGradient>
<clipPath id="clip0_4_332">
<rect width="105" height="28" fill="white" transform="translate(0.842285 0.682617)"/>
</clipPath>
</defs>
</svg>
