<svg width="102" height="34" viewBox="0 0 102 34" fill="none" xmlns="http://www.w3.org/2000/svg">
<g clip-path="url(#clip0_4_325)">
<path d="M98.6747 20.3906L101.496 22.2712C100.58 23.6197 98.3903 25.9334 94.6044 25.9334C89.903 25.9334 86.4019 22.296 86.4019 17.6688C86.4019 12.7448 89.9402 9.4043 94.2085 9.4043C98.5015 9.4043 100.605 12.8189 101.285 14.6623L101.657 15.6027L90.5959 20.1803C91.4372 21.8382 92.7488 22.6795 94.6044 22.6795C96.4603 22.6795 97.7468 21.764 98.6747 20.3906ZM90.0021 17.4092L97.3882 14.3408C96.9798 13.314 95.7676 12.5841 94.3198 12.5841C92.4765 12.5841 89.9155 14.2172 90.0021 17.4092Z" fill="#FF302F"/>
<path d="M81.0698 0.978714H84.6328V25.1785H81.0698V0.978516V0.978714Z" fill="#20B15A"/>
<path d="M75.4531 10.0482H78.8925V24.7462C78.8925 30.8455 75.2923 33.357 71.0362 33.357C67.0278 33.357 64.6154 30.66 63.7121 28.4702L66.8669 27.1586C67.4359 28.5071 68.8093 30.1033 71.0362 30.1033C73.7704 30.1033 75.4531 28.4082 75.4531 25.2411V24.0534H75.3294C74.5128 25.0431 72.9539 25.9338 70.9745 25.9338C66.8421 25.9338 63.0562 22.3335 63.0562 17.6942C63.0562 13.0298 66.8421 9.39258 70.9745 9.39258C72.9416 9.39258 74.5128 10.271 75.3294 11.236H75.4531V10.0484V10.0482ZM75.7004 17.6942C75.7004 14.7743 73.7581 12.6463 71.2837 12.6463C68.7845 12.6463 66.6812 14.7743 66.6812 17.6942C66.6812 20.5767 68.7845 22.6676 71.2837 22.6676C73.7583 22.6801 75.7006 20.5767 75.7006 17.6942H75.7004Z" fill="#3686F7"/>
<path d="M43.4962 17.6322C43.4962 22.3955 39.7847 25.8967 35.2317 25.8967C30.679 25.8967 26.9673 22.3832 26.9673 17.6322C26.9673 12.8443 30.679 9.35547 35.2317 9.35547C39.7847 9.35547 43.4962 12.8443 43.4962 17.6322ZM39.8836 17.6322C39.8836 14.6631 37.7308 12.6215 35.2317 12.6215C32.7327 12.6215 30.5799 14.6631 30.5799 17.6322C30.5799 20.5767 32.7327 22.643 35.2317 22.643C37.731 22.643 39.8836 20.5767 39.8836 17.6322Z" fill="#FF302F"/>
<path d="M61.547 17.6688C61.547 22.4321 57.8353 25.9332 53.2825 25.9332C48.7296 25.9332 45.0181 22.4319 45.0181 17.6688C45.0181 12.8808 48.7296 9.4043 53.2825 9.4043C57.8353 9.4043 61.547 12.8685 61.547 17.6688ZM57.9219 17.6688C57.9219 14.6996 55.7692 12.658 53.27 12.658C50.771 12.658 48.6181 14.6996 48.6181 17.6688C48.6181 20.6132 50.771 22.6795 53.27 22.6795C55.7815 22.6795 57.9219 20.6009 57.9219 17.6688Z" fill="#FFBA40"/>
<path d="M13.3824 22.3082C8.19845 22.3082 4.1406 18.1264 4.1406 12.9425C4.1406 7.75876 8.19845 3.57698 13.3824 3.57698C16.1785 3.57698 18.2198 4.67803 19.7291 6.08851L22.216 3.6018C20.1128 1.58519 17.3044 0.0507812 13.3824 0.0507812C6.28094 0.0509799 0.305176 5.84125 0.305176 12.9425C0.305176 20.0441 6.28094 25.8342 13.3824 25.8342C17.2178 25.8342 20.1128 24.5723 22.3769 22.2216C24.7028 19.8956 25.4203 16.6294 25.4203 13.9818C25.4203 13.1528 25.3214 12.2992 25.21 11.6683H13.3824V15.1077H21.8077C21.5603 17.2605 20.8798 18.7328 19.8777 19.7347C18.6652 20.9597 16.7477 22.3082 13.3824 22.3082Z" fill="#3686F7"/>
</g>
<defs>
<clipPath id="clip0_4_325">
<rect width="101.685" height="33.3653" fill="white" transform="translate(0.157715)"/>
</clipPath>
</defs>
</svg>
