<svg width="24" height="25" viewBox="0 0 24 25" fill="none" xmlns="http://www.w3.org/2000/svg">
<g clip-path="url(#clip0_4_1960)">
<path d="M21.75 0.927821H2.25C1.80756 0.923318 1.3814 1.09452 1.06504 1.40385C0.74867 1.71319 0.56794 2.13539 0.5625 2.57782V22.1566C0.568923 22.5984 0.750087 23.0196 1.06634 23.3281C1.3826 23.6366 1.8082 23.8073 2.25 23.8028H21.75C22.1925 23.8063 22.6183 23.6346 22.9345 23.325C23.2507 23.0155 23.4316 22.5934 23.4375 22.1509V2.5722C23.4296 2.13106 23.2479 1.71087 22.9319 1.40296C22.6159 1.09504 22.1912 0.924292 21.75 0.927821Z" fill="#0076B2"/>
<path d="M3.947 9.50049H7.34263V20.4261H3.947V9.50049ZM5.64575 4.06299C6.03521 4.06299 6.41593 4.1785 6.73973 4.39491C7.06353 4.61133 7.31586 4.91891 7.46482 5.27876C7.61377 5.63862 7.65265 6.03456 7.57654 6.41651C7.50042 6.79846 7.31273 7.14926 7.0372 7.42452C6.76168 7.69978 6.41071 7.88714 6.02869 7.96289C5.64666 8.03864 5.25075 7.99939 4.89104 7.85009C4.53134 7.70079 4.22399 7.44816 4.00789 7.12415C3.79178 6.80015 3.67663 6.41933 3.677 6.02986C3.6775 5.50804 3.88514 5.00777 4.2543 4.63896C4.62346 4.27015 5.12393 4.06299 5.64575 4.06299ZM9.47263 9.50049H12.7276V11.0005H12.7726C13.2264 10.1417 14.3326 9.23611 15.9845 9.23611C19.4233 9.22861 20.0608 11.4917 20.0608 14.4261V20.4261H16.6651V15.1105C16.6651 13.8449 16.6426 12.2155 14.9008 12.2155C13.1589 12.2155 12.8626 13.5955 12.8626 15.028V20.4261H9.47263V9.50049Z" fill="white"/>
</g>
<defs>
<clipPath id="clip0_4_1960">
<rect width="24" height="24" fill="white" transform="translate(0 0.365234)"/>
</clipPath>
</defs>
</svg>
