<svg width="262" height="43" viewBox="0 0 262 43" fill="none" xmlns="http://www.w3.org/2000/svg">
<path d="M16.4272 1.68726C17.3467 1.12041 18.5072 1.12042 19.4266 1.68726L34.4928 10.9754C35.3369 11.4958 35.8509 12.4165 35.8509 13.4081V30.3329C35.8509 31.3245 35.3369 32.2452 34.4928 32.7656L19.4266 42.0537C18.5072 42.6206 17.3467 42.6206 16.4272 42.0537L1.36102 32.7656C0.516938 32.2452 0.00292969 31.3245 0.00292969 30.3329V13.4081C0.00292969 12.4165 0.51694 11.4958 1.36102 10.9754L16.4272 1.68726Z" fill="#444BAB"/>
<mask id="mask0_10385_11985" style="mask-type:alpha" maskUnits="userSpaceOnUse" x="0" y="1" width="36" height="42">
<path d="M16.4243 1.68726C17.3437 1.12041 18.5042 1.12042 19.4237 1.68726L34.4899 10.9754C35.3339 11.4958 35.848 12.4165 35.848 13.4081V30.3329C35.848 31.3245 35.3339 32.2452 34.4899 32.7656L19.4237 42.0537C18.5042 42.6206 17.3437 42.6206 16.4243 42.0537L1.35809 32.7656C0.514008 32.2452 0 31.3245 0 30.3329V13.4081C0 12.4165 0.51401 11.4958 1.35809 10.9754L16.4243 1.68726Z" fill="#C4C4C4"/>
</mask>
<g mask="url(#mask0_10385_11985)">
<rect x="7.67969" y="20.8533" width="3.21504" height="19.5948" fill="white"/>
<mask id="mask1_10385_11985" style="mask-type:alpha" maskUnits="userSpaceOnUse" x="11" y="13" width="8" height="4">
<rect x="18.2891" y="13.4619" width="3.17485" height="6.43008" transform="rotate(90 18.2891 13.4619)" fill="#CD6767"/>
</mask>
<g mask="url(#mask1_10385_11985)">
<path d="M11.859 16.6368C11.859 16.2198 11.9421 15.807 12.1037 15.4218C12.2653 15.0366 12.5021 14.6866 12.8006 14.3918C13.0992 14.097 13.4536 13.8631 13.8437 13.7036C14.2337 13.544 14.6518 13.4619 15.074 13.4619L15.074 16.6368L11.859 16.6368Z" fill="white"/>
</g>
<mask id="mask2_10385_11985" style="mask-type:alpha" maskUnits="userSpaceOnUse" x="17" y="13" width="8" height="4">
<rect x="24.0029" y="13.4624" width="3.17485" height="6.43008" rx="0.178613" transform="rotate(90 24.0029 13.4624)" fill="#CD6767"/>
</mask>
<g mask="url(#mask2_10385_11985)">
<path d="M17.7515 16.6373C17.6528 16.6373 17.5723 16.5572 17.5779 16.4587C17.6222 15.6818 17.9543 14.9455 18.5145 14.3923C19.1174 13.7969 19.9352 13.4624 20.7879 13.4624C21.6406 13.4624 22.4583 13.7969 23.0613 14.3923C23.6214 14.9455 23.9536 15.6818 23.9978 16.4587C24.0035 16.5572 23.923 16.6373 23.8243 16.6373L20.7879 16.6373L17.7515 16.6373Z" fill="white"/>
</g>
<path d="M19.7081 25.219C19.8068 25.219 19.8867 25.299 19.8867 25.3976L19.8867 28.2152C19.8867 28.3139 19.8068 28.3938 19.7081 28.3938L10.8947 28.3938L10.8947 25.219L19.7081 25.219Z" fill="white"/>
<path d="M24.0146 29.3364L20.7996 29.3364L20.7996 21.8755C20.7996 21.7769 20.8796 21.6969 20.9782 21.6969L23.836 21.6969C23.9347 21.6969 24.0146 21.7769 24.0146 21.8755L24.0146 29.3364Z" fill="white"/>
<path d="M11.8516 16.6362L15.0666 16.6362L15.0666 24.0971C15.0666 24.1958 14.9866 24.2757 14.888 24.2757L12.0302 24.2757C11.9315 24.2757 11.8516 24.1958 11.8516 24.0971L11.8516 16.6362Z" fill="white"/>
<path d="M24.9609 17.5791L24.9609 20.754L16.1977 20.754C16.0991 20.754 16.0191 20.674 16.0191 20.5753L16.0191 17.7577C16.0191 17.6591 16.0991 17.5791 16.1977 17.5791L24.9609 17.5791Z" fill="white"/>
<path d="M20.7998 29.3364L20.7998 32.5113L11.858 32.5113L11.858 29.515C11.858 29.4164 11.9379 29.3364 12.0366 29.3364L20.7998 29.3364Z" fill="white"/>
<rect x="20.749" y="13.4619" width="3.17485" height="5.67656" transform="rotate(90 20.749 13.4619)" fill="white"/>
<mask id="mask3_10385_11985" style="mask-type:alpha" maskUnits="userSpaceOnUse" x="24" y="17" width="5" height="7">
<rect x="28.1709" y="23.9287" width="3.21504" height="6.34971" transform="rotate(-180 28.1709 23.9287)" fill="#CD6767"/>
</mask>
<g mask="url(#mask3_10385_11985)">
<path d="M24.9559 17.579C25.8085 17.579 26.6263 17.9135 27.2292 18.5089C27.8322 19.1043 28.1709 19.9118 28.1709 20.7539L24.9559 20.7539L24.9559 17.579Z" fill="white"/>
</g>
<mask id="mask4_10385_11985" style="mask-type:alpha" maskUnits="userSpaceOnUse" x="24" y="23" width="5" height="7">
<rect x="28.1797" y="29.5835" width="3.21504" height="6.34971" rx="0.178613" transform="rotate(-180 28.1797 29.5835)" fill="#CD6767"/>
</mask>
<g mask="url(#mask4_10385_11985)">
<path d="M24.9646 23.4124C24.9646 23.3138 25.0447 23.2333 25.1432 23.2387C25.9308 23.2819 26.6773 23.61 27.238 24.1637C27.841 24.7591 28.1797 25.5666 28.1797 26.4086C28.1797 27.2507 27.841 28.0582 27.238 28.6536C26.6773 29.2073 25.9308 29.5354 25.1432 29.5786C25.0447 29.584 24.9646 29.5035 24.9646 29.4049L24.9646 26.4086L24.9646 23.4124Z" fill="white"/>
</g>
<rect x="28.1797" y="26.4082" width="3.21504" height="5.65521" transform="rotate(-180 28.1797 26.4082)" fill="white"/>
<path d="M11.8594 32.5105H15.0744L15.0744 42.4517C15.0744 42.5504 14.9944 42.6303 14.8958 42.6303H12.038C11.9393 42.6303 11.8594 42.5504 11.8594 42.4517L11.8594 32.5105Z" fill="white"/>
<mask id="mask5_10385_11985" style="mask-type:alpha" maskUnits="userSpaceOnUse" x="7" y="17" width="4" height="8">
<rect x="7.67969" y="17.6792" width="3.21504" height="6.34971" rx="0.178613" fill="#CD6767"/>
</mask>
<g mask="url(#mask5_10385_11985)">
<ellipse cx="10.8947" cy="20.8541" rx="3.21504" ry="3.17485" fill="white"/>
</g>
<mask id="mask6_10385_11985" style="mask-type:alpha" maskUnits="userSpaceOnUse" x="20" y="29" width="5" height="4">
<rect x="20.7998" y="32.5105" width="3.17485" height="3.21504" transform="rotate(-90 20.7998 32.5105)" fill="#CD6767"/>
</mask>
<g mask="url(#mask6_10385_11985)">
<path d="M24.0023 29.3359C24.0023 29.7528 23.9192 30.1657 23.7576 30.5509C23.596 30.936 23.3592 31.286 23.0607 31.5808C22.7621 31.8757 22.4077 32.1095 22.0176 32.2691C21.6276 32.4286 21.2095 32.5107 20.7873 32.5107L20.7873 29.3359L24.0023 29.3359Z" fill="white"/>
</g>
</g>
<path d="M55.1139 16.4845C56.3767 16.4845 57.4395 16.9096 58.3022 17.7598C59.1649 18.61 59.5962 19.654 59.5962 20.8917C59.5962 22.1295 59.1649 23.1735 58.3022 24.0237C57.4395 24.8739 56.3767 25.299 55.1139 25.299H52.8071V29.6125H50.219V16.4845H55.1139ZM55.1139 22.8797C55.6641 22.8797 56.1204 22.6922 56.483 22.3171C56.8456 21.9295 57.0269 21.4544 57.0269 20.8917C57.0269 20.3166 56.8456 19.8415 56.483 19.4664C56.1204 19.0913 55.6641 18.9038 55.1139 18.9038H52.8071V22.8797H55.1139ZM63.3865 21.8482C63.6116 21.2481 63.9804 20.798 64.493 20.4979C65.0182 20.1978 65.5996 20.0478 66.2372 20.0478V22.7484C65.4995 22.6609 64.8369 22.811 64.2492 23.1985C63.6741 23.5861 63.3865 24.23 63.3865 25.1302V29.6125H60.9672V20.2353H63.3865V21.8482ZM75.2935 28.4498C74.3308 29.4 73.1555 29.8751 71.7677 29.8751C70.3799 29.8751 69.2046 29.4 68.2419 28.4498C67.2917 27.487 66.8165 26.3118 66.8165 24.9239C66.8165 23.5361 67.2917 22.3671 68.2419 21.4169C69.2046 20.4541 70.3799 19.9728 71.7677 19.9728C73.1555 19.9728 74.3308 20.4541 75.2935 21.4169C76.2563 22.3671 76.7376 23.5361 76.7376 24.9239C76.7376 26.3118 76.2563 27.487 75.2935 28.4498ZM69.9485 26.7806C70.4361 27.2682 71.0425 27.5121 71.7677 27.5121C72.4929 27.5121 73.0993 27.2682 73.5869 26.7806C74.0745 26.293 74.3183 25.6741 74.3183 24.9239C74.3183 24.1738 74.0745 23.5549 73.5869 23.0673C73.0993 22.5796 72.4929 22.3358 71.7677 22.3358C71.0425 22.3358 70.4361 22.5796 69.9485 23.0673C69.4734 23.5549 69.2359 24.1738 69.2359 24.9239C69.2359 25.6741 69.4734 26.293 69.9485 26.7806ZM85.6225 20.2353H87.9856V29.1624C87.9856 30.6128 87.5042 31.7193 86.5415 32.482C85.5913 33.2447 84.441 33.626 83.0907 33.626C82.0779 33.626 81.184 33.4322 80.4088 33.0446C79.6461 32.657 79.0585 32.0881 78.6459 31.338L80.7089 30.1564C81.184 31.0316 82.0029 31.4692 83.1657 31.4692C83.9284 31.4692 84.5285 31.2692 84.9661 30.8691C85.4037 30.469 85.6225 29.9001 85.6225 29.1624V28.1497C84.9099 29.0999 83.9096 29.575 82.6218 29.575C81.2965 29.575 80.1837 29.1124 79.2835 28.1872C78.3958 27.2495 77.952 26.1117 77.952 24.7739C77.952 23.4486 78.4021 22.3171 79.3023 21.3794C80.2025 20.4416 81.309 19.9728 82.6218 19.9728C83.9096 19.9728 84.9099 20.4479 85.6225 21.3981V20.2353ZM81.1027 26.6306C81.6028 27.1057 82.2342 27.3433 82.9969 27.3433C83.7596 27.3433 84.3847 27.1057 84.8723 26.6306C85.3725 26.143 85.6225 25.5241 85.6225 24.7739C85.6225 24.0362 85.3725 23.4298 84.8723 22.9547C84.3847 22.4671 83.7596 22.2233 82.9969 22.2233C82.2342 22.2233 81.6028 22.4671 81.1027 22.9547C80.6151 23.4298 80.3713 24.0362 80.3713 24.7739C80.3713 25.5241 80.6151 26.143 81.1027 26.6306ZM92.5987 21.8482C92.8238 21.2481 93.1926 20.798 93.7052 20.4979C94.2304 20.1978 94.8117 20.0478 95.4494 20.0478V22.7484C94.7117 22.6609 94.0491 22.811 93.4614 23.1985C92.8863 23.5861 92.5987 24.23 92.5987 25.1302V29.6125H90.1794V20.2353H92.5987V21.8482ZM103.643 20.2353H106.062V29.6125H103.643V28.506C102.918 29.4188 101.899 29.8751 100.586 29.8751C99.3358 29.8751 98.2605 29.4 97.3603 28.4498C96.4726 27.487 96.0287 26.3118 96.0287 24.9239C96.0287 23.5361 96.4726 22.3671 97.3603 21.4169C98.2605 20.4541 99.3358 19.9728 100.586 19.9728C101.899 19.9728 102.918 20.4291 103.643 21.3419V20.2353ZM99.1795 26.8369C99.6671 27.3245 100.286 27.5683 101.036 27.5683C101.786 27.5683 102.405 27.3245 102.893 26.8369C103.393 26.3368 103.643 25.6991 103.643 24.9239C103.643 24.1488 103.393 23.5174 102.893 23.0298C102.405 22.5296 101.786 22.2796 101.036 22.2796C100.286 22.2796 99.6671 22.5296 99.1795 23.0298C98.6918 23.5174 98.448 24.1488 98.448 24.9239C98.448 25.6991 98.6918 26.3368 99.1795 26.8369ZM118.627 19.9728C119.703 19.9728 120.559 20.3229 121.197 21.023C121.847 21.7232 122.172 22.6609 122.172 23.8362V29.6125H119.753V24.005C119.753 23.4423 119.615 23.0047 119.34 22.6922C119.065 22.3796 118.677 22.2233 118.177 22.2233C117.627 22.2233 117.196 22.4046 116.883 22.7672C116.583 23.1298 116.433 23.6549 116.433 24.3426V29.6125H114.014V24.005C114.014 23.4423 113.876 23.0047 113.601 22.6922C113.326 22.3796 112.939 22.2233 112.438 22.2233C111.901 22.2233 111.469 22.4046 111.144 22.7672C110.832 23.1298 110.675 23.6549 110.675 24.3426V29.6125H108.256V20.2353H110.675V21.2293C111.238 20.3916 112.107 19.9728 113.282 19.9728C114.433 19.9728 115.283 20.4229 115.833 21.3231C116.458 20.4229 117.39 19.9728 118.627 19.9728ZM134.598 19.9728C135.673 19.9728 136.53 20.3229 137.167 21.023C137.817 21.7232 138.142 22.6609 138.142 23.8362V29.6125H135.723V24.005C135.723 23.4423 135.586 23.0047 135.311 22.6922C135.035 22.3796 134.648 22.2233 134.148 22.2233C133.598 22.2233 133.166 22.4046 132.854 22.7672C132.554 23.1298 132.404 23.6549 132.404 24.3426V29.6125H129.984V24.005C129.984 23.4423 129.847 23.0047 129.572 22.6922C129.297 22.3796 128.909 22.2233 128.409 22.2233C127.871 22.2233 127.44 22.4046 127.115 22.7672C126.802 23.1298 126.646 23.6549 126.646 24.3426V29.6125H124.227V20.2353H126.646V21.2293C127.209 20.3916 128.078 19.9728 129.253 19.9728C130.403 19.9728 131.253 20.4229 131.803 21.3231C132.429 20.4229 133.36 19.9728 134.598 19.9728ZM141.398 19.1101C140.997 19.1101 140.647 18.9663 140.347 18.6787C140.06 18.3787 139.916 18.0286 139.916 17.6285C139.916 17.2284 140.06 16.8783 140.347 16.5782C140.647 16.2782 140.997 16.1281 141.398 16.1281C141.81 16.1281 142.16 16.2782 142.448 16.5782C142.748 16.8783 142.898 17.2284 142.898 17.6285C142.898 18.0286 142.748 18.3787 142.448 18.6787C142.16 18.9663 141.81 19.1101 141.398 19.1101ZM140.197 29.6125V20.2353H142.617V29.6125H140.197ZM150.045 19.9728C151.07 19.9728 151.914 20.3166 152.576 21.0043C153.252 21.6919 153.589 22.6422 153.589 23.8549V29.6125H151.17V24.155C151.17 23.5299 151.001 23.0548 150.664 22.7297C150.326 22.3921 149.876 22.2233 149.313 22.2233C148.688 22.2233 148.188 22.4171 147.813 22.8047C147.438 23.1923 147.25 23.7737 147.25 24.5489V29.6125H144.831V20.2353H147.25V21.2856C147.838 20.4104 148.769 19.9728 150.045 19.9728ZM162.838 20.2353H165.201V29.1624C165.201 30.6128 164.72 31.7193 163.757 32.482C162.807 33.2447 161.656 33.626 160.306 33.626C159.293 33.626 158.399 33.4322 157.624 33.0446C156.862 32.657 156.274 32.0881 155.861 31.338L157.924 30.1564C158.399 31.0316 159.218 31.4692 160.381 31.4692C161.144 31.4692 161.744 31.2692 162.182 30.8691C162.619 30.469 162.838 29.9001 162.838 29.1624V28.1497C162.125 29.0999 161.125 29.575 159.837 29.575C158.512 29.575 157.399 29.1124 156.499 28.1872C155.611 27.2495 155.167 26.1117 155.167 24.7739C155.167 23.4486 155.617 22.3171 156.518 21.3794C157.418 20.4416 158.524 19.9728 159.837 19.9728C161.125 19.9728 162.125 20.4479 162.838 21.3981V20.2353ZM158.318 26.6306C158.818 27.1057 159.45 27.3433 160.212 27.3433C160.975 27.3433 161.6 27.1057 162.088 26.6306C162.588 26.143 162.838 25.5241 162.838 24.7739C162.838 24.0362 162.588 23.4298 162.088 22.9547C161.6 22.4671 160.975 22.2233 160.212 22.2233C159.45 22.2233 158.818 22.4671 158.318 22.9547C157.83 23.4298 157.587 24.0362 157.587 24.7739C157.587 25.5241 157.83 26.143 158.318 26.6306ZM177.091 16.4845C178.354 16.4845 179.416 16.9096 180.279 17.7598C181.142 18.61 181.573 19.654 181.573 20.8917C181.573 22.1295 181.142 23.1735 180.279 24.0237C179.416 24.8739 178.354 25.299 177.091 25.299H174.784V29.6125H172.196V16.4845H177.091ZM177.091 22.8797C177.641 22.8797 178.097 22.6922 178.46 22.3171C178.822 21.9295 179.004 21.4544 179.004 20.8917C179.004 20.3166 178.822 19.8415 178.46 19.4664C178.097 19.0913 177.641 18.9038 177.091 18.9038H174.784V22.8797H177.091ZM189.65 20.2353H192.069V29.6125H189.65V28.506C188.924 29.4188 187.905 29.8751 186.593 29.8751C185.342 29.8751 184.267 29.4 183.367 28.4498C182.479 27.487 182.035 26.3118 182.035 24.9239C182.035 23.5361 182.479 22.3671 183.367 21.4169C184.267 20.4541 185.342 19.9728 186.593 19.9728C187.905 19.9728 188.924 20.4291 189.65 21.3419V20.2353ZM185.186 26.8369C185.674 27.3245 186.293 27.5683 187.043 27.5683C187.793 27.5683 188.412 27.3245 188.899 26.8369C189.399 26.3368 189.65 25.6991 189.65 24.9239C189.65 24.1488 189.399 23.5174 188.899 23.0298C188.412 22.5296 187.793 22.2796 187.043 22.2796C186.293 22.2796 185.674 22.5296 185.186 23.0298C184.698 23.5174 184.455 24.1488 184.455 24.9239C184.455 25.6991 184.698 26.3368 185.186 26.8369ZM199.626 22.5609H197.507V26.4618C197.507 26.7869 197.588 27.0244 197.751 27.1745C197.914 27.3245 198.151 27.412 198.464 27.437C198.776 27.4495 199.164 27.4433 199.626 27.4183V29.6125C197.964 29.8001 196.788 29.6438 196.101 29.1437C195.425 28.6436 195.088 27.7496 195.088 26.4618V22.5609H193.456V20.2353H195.088V18.3412L197.507 17.6097V20.2353H199.626V22.5609ZM206.546 19.9728C207.571 19.9728 208.415 20.3166 209.078 21.0043C209.753 21.6919 210.091 22.6422 210.091 23.8549V29.6125H207.671V24.155C207.671 23.5299 207.502 23.0548 207.165 22.7297C206.827 22.3921 206.377 22.2233 205.815 22.2233C205.189 22.2233 204.689 22.4171 204.314 22.8047C203.939 23.1923 203.752 23.7737 203.752 24.5489V29.6125H201.332V16.4845H203.752V21.2856C204.339 20.4104 205.271 19.9728 206.546 19.9728ZM214.388 22.8985C214.388 23.1485 214.551 23.3548 214.876 23.5174C215.213 23.6674 215.62 23.8049 216.095 23.93C216.57 24.0425 217.045 24.1925 217.52 24.3801C217.995 24.5551 218.395 24.8552 218.72 25.2803C219.058 25.7054 219.227 26.2368 219.227 26.8744C219.227 27.8371 218.864 28.5811 218.139 29.1062C217.426 29.6188 216.532 29.8751 215.457 29.8751C213.532 29.8751 212.219 29.1312 211.519 27.6433L213.619 26.4618C213.894 27.2745 214.507 27.6808 215.457 27.6808C216.32 27.6808 216.751 27.412 216.751 26.8744C216.751 26.6243 216.582 26.4243 216.245 26.2743C215.92 26.1117 215.52 25.9679 215.044 25.8429C214.569 25.7179 214.094 25.5616 213.619 25.3741C213.144 25.1865 212.738 24.8927 212.4 24.4926C212.075 24.08 211.912 23.5674 211.912 22.9547C211.912 22.0295 212.25 21.3043 212.925 20.7792C213.613 20.2416 214.463 19.9728 215.476 19.9728C216.239 19.9728 216.932 20.1478 217.558 20.4979C218.183 20.8355 218.677 21.3231 219.039 21.9608L216.976 23.086C216.676 22.4484 216.176 22.1295 215.476 22.1295C215.163 22.1295 214.901 22.1983 214.688 22.3358C214.488 22.4734 214.388 22.6609 214.388 22.8985ZM225.996 19.9728C227.022 19.9728 227.866 20.3166 228.528 21.0043C229.203 21.6919 229.541 22.6422 229.541 23.8549V29.6125H227.122V24.155C227.122 23.5299 226.953 23.0548 226.615 22.7297C226.278 22.3921 225.828 22.2233 225.265 22.2233C224.64 22.2233 224.14 22.4171 223.765 22.8047C223.389 23.1923 223.202 23.7737 223.202 24.5489V29.6125H220.783V16.4845H223.202V21.2856C223.79 20.4104 224.721 19.9728 225.996 19.9728ZM238.733 20.2353H241.153V29.6125H238.733V28.506C238.008 29.4188 236.989 29.8751 235.676 29.8751C234.426 29.8751 233.351 29.4 232.451 28.4498C231.563 27.487 231.119 26.3118 231.119 24.9239C231.119 23.5361 231.563 22.3671 232.451 21.4169C233.351 20.4541 234.426 19.9728 235.676 19.9728C236.989 19.9728 238.008 20.4291 238.733 21.3419V20.2353ZM234.27 26.8369C234.757 27.3245 235.376 27.5683 236.126 27.5683C236.877 27.5683 237.496 27.3245 237.983 26.8369C238.483 26.3368 238.733 25.6991 238.733 24.9239C238.733 24.1488 238.483 23.5174 237.983 23.0298C237.496 22.5296 236.877 22.2796 236.126 22.2796C235.376 22.2796 234.757 22.5296 234.27 23.0298C233.782 23.5174 233.538 24.1488 233.538 24.9239C233.538 25.6991 233.782 26.3368 234.27 26.8369ZM243.346 29.6125V15.9218H245.766V29.6125H243.346ZM255.107 20.2353H257.526V29.6125H255.107V28.506C254.382 29.4188 253.363 29.8751 252.05 29.8751C250.8 29.8751 249.724 29.4 248.824 28.4498C247.936 27.487 247.493 26.3118 247.493 24.9239C247.493 23.5361 247.936 22.3671 248.824 21.4169C249.724 20.4541 250.8 19.9728 252.05 19.9728C253.363 19.9728 254.382 20.4291 255.107 21.3419V20.2353ZM250.643 26.8369C251.131 27.3245 251.75 27.5683 252.5 27.5683C253.25 27.5683 253.869 27.3245 254.357 26.8369C254.857 26.3368 255.107 25.6991 255.107 24.9239C255.107 24.1488 254.857 23.5174 254.357 23.0298C253.869 22.5296 253.25 22.2796 252.5 22.2796C251.75 22.2796 251.131 22.5296 250.643 23.0298C250.156 23.5174 249.912 24.1488 249.912 24.9239C249.912 25.6991 250.156 26.3368 250.643 26.8369Z" fill="#444BAB"/>
</svg>
