<svg width="103" height="23" viewBox="0 0 103 23" fill="none" xmlns="http://www.w3.org/2000/svg">
<g clip-path="url(#clip0_4_354)">
<path d="M102.841 10.6351V8.82261H100.613V6.00494L100.538 6.02835L98.446 6.67509L98.405 6.68777V8.82261H95.1024V7.63252C95.0706 7.18196 95.1998 6.73483 95.4664 6.3722C95.5948 6.22981 95.7531 6.11811 95.9296 6.04522C96.1061 5.97232 96.2965 5.94007 96.4869 5.9508C96.8215 5.9553 97.1513 6.03109 97.4549 6.17321L97.537 6.21027V4.30321L97.4983 4.28907C97.0979 4.16445 96.6797 4.10807 96.261 4.12226C95.6499 4.11252 95.0462 4.25899 94.5061 4.54806C93.9988 4.82386 93.5808 5.24142 93.3021 5.75082C93.0124 6.29232 92.8656 6.90004 92.8758 7.51547V8.82261H91.3247V10.6351H92.8758V18.2696H95.1024V10.6351H98.405V15.4851C98.405 17.4849 99.3377 18.496 101.178 18.496C101.496 18.4941 101.813 18.4587 102.123 18.3901C102.362 18.3492 102.593 18.275 102.812 18.1697L102.841 18.1521V16.3231L102.75 16.3836C102.612 16.4719 102.461 16.5377 102.303 16.5787C102.16 16.6232 102.012 16.6487 101.863 16.6543C101.689 16.6696 101.515 16.6463 101.351 16.586C101.187 16.5258 101.039 16.43 100.915 16.3055C100.681 15.9486 100.574 15.5215 100.613 15.0949V10.6351H102.841ZM86.3512 16.6557C85.9959 16.6745 85.6409 16.6119 85.3129 16.4726C84.9849 16.3333 84.6922 16.121 84.4568 15.8514C83.9685 15.201 83.727 14.3954 83.7761 13.5805C83.7243 12.7467 83.9654 11.9211 84.4568 11.2491C84.6873 10.9776 84.9761 10.7628 85.3012 10.6213C85.6264 10.4797 85.9792 10.415 86.3329 10.4322C86.6758 10.4155 87.018 10.477 87.3342 10.6121C87.6505 10.7472 87.9326 10.9524 88.1596 11.2125C88.6474 11.8785 88.884 12.6985 88.8268 13.5249C88.8832 14.3543 88.6621 15.1788 88.1992 15.8661C87.9734 16.134 87.6887 16.3449 87.3678 16.4818C87.0469 16.6188 86.6988 16.678 86.3512 16.6547M86.4502 8.59142C85.7839 8.5544 85.1173 8.65571 84.4913 8.88908C83.8653 9.12246 83.2933 9.48295 82.8106 9.94831C82.359 10.4465 82.0101 11.0305 81.7843 11.6664C81.5585 12.3022 81.4604 12.9771 81.4955 13.6517C81.4635 14.2979 81.5607 14.9441 81.7812 15.5515C82.0018 16.159 82.3412 16.7153 82.7792 17.1874C83.2356 17.6301 83.7764 17.9743 84.3688 18.1988C84.9612 18.4234 85.5927 18.5237 86.2247 18.4935C86.8812 18.5261 87.5373 18.4207 88.1514 18.184C88.7655 17.9472 89.3243 17.5843 89.7924 17.1181C90.2402 16.6248 90.587 16.0468 90.8127 15.4175C91.0384 14.7881 91.1386 14.1199 91.1074 13.4513C91.1776 12.1465 90.7342 10.8666 89.874 9.89076C89.4234 9.44659 88.8864 9.10186 88.297 8.87844C87.7076 8.65502 87.0787 8.55778 86.4502 8.59288M77.9051 8.59288C76.9792 8.55331 76.0681 8.83774 75.3257 9.39814C75.0065 9.643 74.749 9.96061 74.5743 10.3251C74.3997 10.6895 74.3127 11.0906 74.3206 11.4954C74.3128 11.8965 74.3866 12.2949 74.5373 12.666C74.6869 13.0079 74.915 13.3088 75.2026 13.5439C75.6173 13.8589 76.0719 14.1161 76.5544 14.3087C76.94 14.4617 77.316 14.6386 77.6802 14.8384C77.8718 14.9394 78.0406 15.0794 78.176 15.2496C78.2751 15.4099 78.3232 15.5972 78.3136 15.7861C78.3136 16.4201 77.8433 16.7294 76.8749 16.7294C76.4601 16.7194 76.0494 16.6435 75.6579 16.5045C75.2124 16.3575 74.792 16.1421 74.4113 15.8661L74.3187 15.7992V17.9653L74.3524 17.9814C74.731 18.1484 75.127 18.2719 75.5328 18.3496C75.9471 18.4409 76.3694 18.4899 76.7933 18.496C77.7659 18.5473 78.7267 18.2615 79.5166 17.6858C79.8412 17.4342 80.1022 17.1087 80.2784 16.7357C80.4546 16.3627 80.541 15.9529 80.5304 15.5398C80.5464 14.9502 80.3529 14.3744 79.9849 13.9166C79.4697 13.376 78.8343 12.9672 78.1316 12.724C77.6583 12.5639 77.2128 12.3299 76.8112 12.0305C76.7196 11.9342 76.6487 11.8199 76.6028 11.6947C76.557 11.5695 76.5372 11.4361 76.5447 11.3028C76.5428 11.1713 76.5725 11.0413 76.6314 10.9241C76.6903 10.8068 76.7765 10.7058 76.8826 10.6297C77.1601 10.4358 77.4935 10.3407 77.8303 10.3595C78.2129 10.3613 78.5931 10.4203 78.9585 10.5346C79.3081 10.6375 79.6402 10.7931 79.9439 10.996L80.0346 11.0589V9.00698L79.9999 8.99186C79.6774 8.86204 79.342 8.76753 78.9996 8.70994C78.6381 8.63839 78.271 8.60003 77.9027 8.59532M68.5162 16.6557C68.1609 16.6745 67.806 16.6119 67.478 16.4726C67.1499 16.3333 66.8573 16.121 66.6219 15.8514C66.1342 15.2016 65.893 14.3969 65.9416 13.583C65.8898 12.7491 66.1309 11.9235 66.6223 11.2516C66.8527 10.9799 67.1416 10.7651 67.4667 10.6235C67.7918 10.482 68.1447 10.4173 68.4984 10.4346C68.8413 10.4179 69.1836 10.4794 69.4998 10.6145C69.816 10.7496 70.0981 10.9548 70.3252 11.215C70.813 11.8809 71.0495 12.7009 70.9924 13.5273C71.0487 14.3567 70.8277 15.1812 70.3648 15.8685C70.139 16.1365 69.8543 16.3474 69.5334 16.4843C69.2125 16.6213 68.8643 16.6805 68.5167 16.6572M68.6162 8.59386C67.9499 8.55679 67.2833 8.65806 66.6573 8.89144C66.0313 9.12481 65.4593 9.48534 64.9766 9.95075C64.5249 10.4489 64.176 11.0329 63.9501 11.6688C63.7242 12.3046 63.626 12.9795 63.661 13.6542C63.6291 14.3004 63.7263 14.9466 63.9469 15.554C64.1676 16.1615 64.5071 16.7178 64.9452 17.1898C65.4016 17.6326 65.9424 17.9768 66.5348 18.2013C67.1272 18.4259 67.7587 18.5261 68.3907 18.496C69.0472 18.5285 69.7033 18.4231 70.3174 18.1864C70.9315 17.9496 71.4903 17.5867 71.9584 17.1205C72.4062 16.6272 72.753 16.0492 72.9787 15.4199C73.2044 14.7906 73.3046 14.1223 73.2735 13.4537C73.3436 12.1488 72.9 10.8689 72.0395 9.8932C71.589 9.44909 71.0521 9.1044 70.4628 8.88098C69.8735 8.65756 69.2447 8.56028 68.6162 8.59532M60.2812 10.459V8.82261H58.0817V18.2696H60.2812V13.4366C60.2497 12.7261 60.4417 12.0236 60.8296 11.4301C60.9852 11.1934 61.197 10.9999 61.4457 10.8673C61.6944 10.7347 61.9721 10.6673 62.2533 10.6711C62.477 10.6746 62.6993 10.7074 62.9147 10.7687C63.0959 10.8094 63.2692 10.8803 63.4274 10.9784L63.5201 11.0462V8.80651L63.4843 8.79091C63.2083 8.69126 62.9159 8.64638 62.6231 8.65873C62.0856 8.65338 61.5639 8.84228 61.1521 9.19134C60.7666 9.53338 60.4751 9.97019 60.3058 10.4595L60.2812 10.459ZM54.1428 8.59483C53.2108 8.57587 52.2898 8.7996 51.4682 9.2445C50.7128 9.66451 50.0985 10.3027 49.7042 11.0774C49.2885 11.9198 49.0806 12.8512 49.0983 13.7922C49.0874 14.6408 49.29 15.4783 49.6873 16.226C50.0643 16.9347 50.6357 17.5185 51.333 17.9073C52.0714 18.3088 52.8993 18.5121 53.7377 18.4979C54.662 18.5279 55.5778 18.3114 56.3929 17.8702L56.4219 17.8536V15.8173L56.3292 15.8856C56 16.1268 55.6374 16.3176 55.2531 16.4518C54.9156 16.5791 54.5594 16.6488 54.1992 16.6582C53.8189 16.6769 53.439 16.6143 53.0842 16.4747C52.7294 16.335 52.4077 16.1213 52.1402 15.8475C51.6071 15.2272 51.3347 14.4212 51.3808 13.601C51.3404 12.7579 51.6241 11.9317 52.1726 11.295C52.4356 11.011 52.7558 10.7872 53.1117 10.6388C53.4675 10.4904 53.8507 10.4208 54.2354 10.4346C54.9935 10.4466 55.7275 10.7047 56.3292 11.1706L56.4214 11.2384V9.09233L56.3915 9.07526C56.0712 8.90898 55.7282 8.79178 55.3738 8.7275C54.9695 8.641 54.5575 8.59638 54.1442 8.59435M47.5843 8.82212H45.3848V18.2696H47.5843V8.82261V8.82212ZM46.5073 4.79778C46.1588 4.79219 45.8221 4.92554 45.5702 5.16895C45.4435 5.28644 45.3429 5.42984 45.2752 5.58962C45.2076 5.7494 45.1743 5.9219 45.1777 6.09566C45.1739 6.26623 45.2064 6.43564 45.273 6.59241C45.3397 6.74919 45.4389 6.88966 45.5639 7.00431C45.8192 7.24407 46.1569 7.37389 46.5053 7.36622C46.8547 7.37325 47.1934 7.24379 47.4506 7.0048C47.5773 6.89097 47.6781 6.75076 47.746 6.59381C47.8139 6.43686 47.8474 6.26691 47.8441 6.09566C47.8458 5.92454 47.8128 5.75488 47.7469 5.59723C47.6811 5.43957 47.5838 5.29728 47.4612 5.17919C47.3354 5.05384 47.1859 4.95545 47.0216 4.88991C46.8572 4.82437 46.6815 4.79303 46.5049 4.79778M41.0167 8.12514V18.2701H43.2616V5.0875H40.155L36.2059 14.8789L32.3737 5.0875H29.1392V18.2692H31.2489V8.12417H31.3213L35.3678 18.2692H36.961L40.9448 8.12417H41.0172L41.0167 8.12514Z" fill="#353535"/>
<path d="M11.1895 11.1363H0.842285V0.682617H11.1895V11.1363Z" fill="#F1511B"/>
<path d="M22.6114 11.1363H12.2642V0.682617H22.6114V11.1363Z" fill="#80CC28"/>
<path d="M11.1895 22.6832H0.842285V12.2295H11.1895V22.6832Z" fill="#00ADEF"/>
<path d="M22.6114 22.6832H12.2642V12.2295H22.6114V22.6832Z" fill="#FBBC09"/>
</g>
<defs>
<clipPath id="clip0_4_354">
<rect width="102" height="22" fill="white" transform="translate(0.842285 0.682617)"/>
</clipPath>
</defs>
</svg>
