<svg width="65" height="21" viewBox="0 0 65 21" fill="none" xmlns="http://www.w3.org/2000/svg">
<g clip-path="url(#clip0_4_369)">
<path d="M64.626 6.58439C64.0452 4.92929 62.4618 3.74077 60.6025 3.74077H60.5636C59.3547 3.74077 58.2652 4.24205 57.4898 5.0469C56.7131 4.24205 55.6235 3.74077 54.416 3.74077H54.3771C53.3144 3.74077 52.3432 4.12853 51.5972 4.77011V4.44383C51.5716 4.11883 51.3033 3.86348 50.972 3.86348H48.1197C47.7707 3.86348 47.4891 4.14434 47.4891 4.49307V19.9283C47.4891 20.2773 47.771 20.5579 48.1197 20.5579H50.972C51.29 20.5579 51.5516 20.3211 51.5933 20.015L51.5921 8.93439C51.5921 8.89562 51.5933 8.85965 51.5974 8.82343C51.643 8.32878 52.0065 7.92241 52.581 7.87139H53.1068C53.3469 7.89281 53.5497 7.977 53.7092 8.10404C53.9575 8.30047 54.0955 8.60276 54.0955 8.93439L54.1062 19.9604C54.1062 20.3094 54.3894 20.5915 54.7368 20.5915H57.5891C57.9257 20.5915 58.1997 20.3242 58.2158 19.9913L58.2145 8.91986C58.2132 8.55608 58.3822 8.22725 58.6786 8.0321C58.8248 7.93848 59.0007 7.87572 59.2032 7.85684H59.729C60.3462 7.91042 60.7192 8.377 60.7179 8.91986L60.7287 19.9311C60.7287 20.2801 61.0118 20.5607 61.3592 20.5607H64.2116C64.559 20.5607 64.8421 20.2798 64.8421 19.9311V8.08848C64.8421 7.28082 64.751 6.9372 64.626 6.58439ZM45.316 3.90378H43.6845V1.26195C43.6845 0.945109 43.4269 0.688477 43.109 0.688477C43.0714 0.688477 43.0353 0.693834 43.0002 0.700466C41.1915 1.19511 41.5538 3.69128 38.2521 3.90378H37.9314C37.883 3.90378 37.8374 3.91042 37.7931 3.91985H37.7906L37.7931 3.92113C37.5113 3.98388 37.2993 4.23261 37.2993 4.5321V7.3747C37.2993 7.72087 37.5825 8.00302 37.9311 8.00302H39.6525L39.6499 20.0558C39.6499 20.3994 39.929 20.6775 40.2738 20.6775H43.0939C43.4374 20.6775 43.7165 20.3994 43.7165 20.0558L43.7177 8.00302H45.3157C45.6631 8.00302 45.9462 7.72087 45.9462 7.3747V4.53235C45.9467 4.18593 45.6636 3.90378 45.316 3.90378Z" fill="#54C1F0"/>
<path d="M35.0536 3.90383H32.2013C31.8539 3.90383 31.572 4.18597 31.572 4.53215V10.4094C31.5654 10.7732 31.2702 11.0645 30.9039 11.0645H29.7099C29.3397 11.0645 29.0404 10.7679 29.0404 10.3987L29.0297 4.53215C29.0297 4.18597 28.7465 3.90383 28.3992 3.90383H25.5465C25.1976 3.90383 24.916 4.18597 24.916 4.53215V10.9737C24.916 13.4204 26.6668 15.1651 29.1234 15.1651C29.1234 15.1651 30.9668 15.1651 31.0232 15.1758C31.356 15.2133 31.6148 15.4913 31.6148 15.8337C31.6148 16.1719 31.3611 16.4487 31.0324 16.4901C31.0162 16.4926 31.0014 16.4967 30.984 16.4995L26.8127 16.5143C26.4638 16.5143 26.1822 16.7964 26.1822 17.1426V19.9837C26.1822 20.3314 26.464 20.612 26.8127 20.612H31.4763C33.9341 20.612 35.6836 18.8686 35.6836 16.4207V4.5324C35.6841 4.18597 35.4025 3.90383 35.0536 3.90383ZM7.69541 3.90332H1.46078C1.11877 3.90332 0.842285 4.17985 0.842285 4.51965V7.3046C0.842285 7.30995 0.843565 7.31531 0.843565 7.32067C0.843565 7.33393 0.842285 7.34745 0.842285 7.35944V19.964C0.842285 20.3064 1.09982 20.5857 1.41931 20.5936H4.32542C4.67281 20.5936 4.95595 20.3128 4.95595 19.9653L4.9667 15.6457H7.69566C9.97918 15.6457 11.5705 14.0668 11.5705 11.7819V7.77245C11.5702 5.4875 9.97893 3.90332 7.69541 3.90332ZM7.44453 10.8661C7.44453 11.2337 7.14526 11.5332 6.77637 11.5332L4.96645 11.5344V8.01965H6.77637C7.14526 8.01965 7.44453 8.31633 7.44453 8.68546V10.8661ZM18.826 3.91939H14.8683C14.5181 3.91939 14.2349 4.18419 14.2349 4.50893V5.61455C14.2349 5.62118 14.2362 5.62934 14.2362 5.63597C14.2362 5.64388 14.2349 5.65205 14.2349 5.65995V7.17475C14.2349 7.51837 14.5355 7.79898 14.9056 7.79898H18.6745C18.9722 7.84567 19.2085 8.06225 19.242 8.40051V8.76684C19.2085 9.08904 18.975 9.32424 18.6906 9.35103H16.8244C14.3422 9.35103 12.574 10.9941 12.574 13.3018V16.6066C12.574 18.9008 14.0941 20.5332 16.5586 20.5332H21.7309C22.6594 20.5332 23.412 19.8327 23.412 18.9702V8.18572C23.412 5.57067 22.0596 3.91939 18.826 3.91939ZM19.2797 16.2288C19.2797 16.2651 19.2743 16.2998 19.2689 16.3332C19.2622 16.3646 19.2532 16.3954 19.242 16.4255C19.1535 16.6742 18.9039 16.8546 18.6074 16.8546H17.4201C17.0499 16.8546 16.7478 16.5737 16.7478 16.2288V15.6926C16.7478 15.686 16.7465 15.6793 16.7465 15.6725L16.7478 14.2459V13.7995L16.7491 13.7954C16.7504 13.4518 17.0496 13.1737 17.4198 13.1737H18.6072C18.9789 13.1737 19.2794 13.4531 19.2794 13.7995V16.2288H19.2797Z" fill="#233266"/>
</g>
<defs>
<clipPath id="clip0_4_369">
<rect width="64" height="20" fill="white" transform="translate(0.842285 0.682617)"/>
</clipPath>
</defs>
</svg>
