<svg width="88" height="25" viewBox="0 0 88 25" fill="none" xmlns="http://www.w3.org/2000/svg">
<g clip-path="url(#clip0_4_365)">
<path d="M77.2908 8.65991C77.7755 8.65991 78.1745 8.40726 78.2284 8.08086L78.7069 2.65523C78.7069 2.11896 78.0803 1.67871 77.2923 1.67871C76.5052 1.67871 75.8791 2.11896 75.8791 2.65532L76.3573 8.08086C76.41 8.40717 76.809 8.65991 77.2924 8.65991H77.2908ZM74.3657 10.3546C74.6089 9.93428 74.5905 9.4619 74.3342 9.25204L69.8857 6.12376C69.4232 5.85524 68.7297 6.17845 68.3362 6.86273C67.9412 7.54613 68.0112 8.3094 68.4725 8.57802L73.3983 10.8772C73.7062 10.9916 74.1261 10.7714 74.3673 10.3514L74.3657 10.3546ZM80.2185 10.3517C80.4612 10.7717 80.8789 10.992 81.1872 10.8775L86.1129 8.57831C86.5771 8.30979 86.643 7.54642 86.2518 6.86302C85.8563 6.17942 85.1615 5.85553 84.7003 6.12405L80.2515 9.25233C79.9972 9.4619 79.9782 9.93467 80.22 10.3549L80.2185 10.3517ZM77.2908 15.4374C77.7755 15.4374 78.1745 15.6879 78.2284 16.0146L78.7069 21.4394C78.7069 21.9773 78.0803 22.4166 77.2923 22.4166C76.5052 22.4166 75.8791 21.9773 75.8791 21.4394L76.3573 16.0146C76.41 15.6879 76.809 15.4374 77.2924 15.4374H77.2908ZM80.2185 13.7423C80.4612 13.3211 80.8789 13.1027 81.1872 13.2185L86.1129 15.5161C86.5771 15.785 86.643 16.549 86.2518 17.233C85.8563 17.9144 85.1615 18.2391 84.7003 17.971L80.2515 14.8456C79.9972 14.6344 79.9782 14.1613 80.22 13.7414H80.2181M74.3657 13.7417C74.6089 14.1613 74.5905 14.6344 74.3342 14.846L69.8857 17.9713C69.4232 18.2394 68.7297 17.9146 68.3362 17.2333C67.9412 16.5493 68.0112 15.7852 68.4725 15.5164L73.3983 13.2188C73.7062 13.103 74.1261 13.3214 74.3673 13.7427H74.3657" fill="#FDBB30"/>
<path d="M49.2303 14.8359C49.2303 15.0024 49.2155 15.1741 49.1701 15.3249C48.9814 15.9513 48.3344 16.481 47.5251 16.481C46.8502 16.481 46.3142 16.0967 46.3142 15.285C46.3142 14.0428 47.6781 13.6997 49.2307 13.7083L49.2303 14.8358V14.8359ZM51.6655 12.671C51.6655 10.6226 50.7925 8.82024 47.8424 8.82024C46.328 8.82024 45.1262 9.24664 44.4701 9.62667L44.9506 11.2734C45.5501 10.894 46.5057 10.5799 47.41 10.5799C48.9064 10.5757 49.1514 11.4294 49.1514 11.9757V12.105C45.8896 12.1002 43.8276 13.2325 43.8276 15.539C43.8276 16.9484 44.8778 18.2685 46.7034 18.2685C47.8251 18.2685 48.7646 17.8196 49.3269 17.0999H49.3824C49.3824 17.0999 49.7544 18.6625 51.8084 18.0646C51.7012 17.4148 51.6659 16.7211 51.6659 15.887L51.6656 12.671M0.842285 6.03066C0.842285 6.03066 2.97383 14.7866 3.31421 16.2076C3.71126 17.8663 4.42686 18.4769 6.48908 18.0646L7.81996 12.6363C8.15743 11.2873 8.38328 10.3255 8.60073 8.95459H8.63859C8.79125 10.34 9.00783 11.2914 9.28553 12.6407C9.28553 12.6407 9.82704 15.1053 10.1048 16.3993C10.3829 17.6929 11.1569 18.5087 13.1772 18.0646L16.3486 6.03027H13.7888L12.7056 11.2336C12.4143 12.7475 12.1504 13.9318 11.9466 15.3166H11.9104C11.7253 13.944 11.4896 12.808 11.1938 11.3326L10.067 6.03027H7.39944L6.19341 11.1989C5.85208 12.77 5.53198 14.038 5.32921 15.3767H5.29232C5.08414 14.1162 4.80701 12.5218 4.5071 11.0017C4.5071 11.0017 3.79111 7.30464 3.53929 6.03027L0.842285 6.03066ZM21.1906 14.8359C21.1906 15.0024 21.1759 15.1741 21.1297 15.3249C20.9414 15.9513 20.2941 16.481 19.4847 16.481C18.8098 16.481 18.2745 16.0967 18.2745 15.285C18.2745 14.0428 19.6381 13.6997 21.1909 13.7083L21.1906 14.8358V14.8359ZM23.6256 12.671C23.6256 10.6226 22.7525 8.82024 19.803 8.82024C18.2882 8.82024 17.0854 9.24664 16.4298 9.62667L16.9097 11.2734C17.5091 10.894 18.4647 10.5799 19.3692 10.5799C20.8667 10.5757 21.1117 11.4294 21.1117 11.9757V12.105C17.8485 12.1002 15.7876 13.2325 15.7876 15.539C15.7876 16.9484 16.8372 18.2685 18.6614 18.2685C19.7846 18.2685 20.7236 17.8196 21.2865 17.0999H21.3414C21.3414 17.0999 21.7145 18.6625 23.7679 18.0646C23.6605 17.4148 23.6256 16.7211 23.6256 15.887V12.671ZM27.6894 15.5101V6.03066H25.2512V18.065H27.6894V15.5101ZM59.5845 6.03066V14.9082C59.5845 16.1327 59.8148 16.9897 60.3058 17.5141C60.736 17.9727 61.443 18.2694 62.2907 18.2694C63.0119 18.2694 63.7208 18.1315 64.0554 18.0071L64.0239 16.0976C63.775 16.1586 63.4891 16.208 63.0979 16.208C62.2671 16.208 61.9893 15.6744 61.9893 14.5757V11.179H64.1124V8.87609H61.9893V6.03066H59.5845ZM53.2913 9.02439V18.065H55.8064V13.436C55.8064 13.1858 55.8215 12.9678 55.861 12.7684C56.047 11.7983 56.7867 11.179 57.8491 11.179C58.1403 11.179 58.3488 11.2107 58.5747 11.2428V8.87609C58.3851 8.83824 58.2565 8.82053 58.0207 8.82053C57.0821 8.82053 56.0143 9.42766 55.5662 10.73H55.4982V9.02439H53.2913ZM29.3965 9.02439V18.065H31.8469V12.7636C31.8469 12.5148 31.8761 12.2517 31.962 12.0236C32.1651 11.4899 32.6606 10.8647 33.4514 10.8647C34.4406 10.8647 34.9025 11.7027 34.9025 12.9122V18.0643H37.351V12.6983C37.351 12.461 37.3834 12.1748 37.4534 11.9656C37.6544 11.358 38.1882 10.8641 38.9234 10.8641C39.9258 10.8641 40.4069 11.6874 40.4069 13.1109V18.064H42.857V12.7391C42.857 9.93121 41.4347 8.81966 39.8289 8.81966C39.1184 8.81966 38.557 8.99806 38.0493 9.30995C37.623 9.57324 37.2406 9.94631 36.907 10.4367H36.8708C36.4836 9.46241 35.5726 8.82014 34.3854 8.82014C32.8602 8.82014 32.1747 9.59522 31.759 10.2525H31.7225V9.0241H29.3965" fill="#1A75CF"/>
<path d="M87.348 17.6262H87.385C87.4341 17.6262 87.4656 17.6059 87.4656 17.5757C87.4656 17.5413 87.436 17.5226 87.3904 17.5226C87.3748 17.5226 87.3588 17.5258 87.3481 17.5258V17.6271V17.6261L87.348 17.6262ZM87.3423 17.87H87.2121V17.4445C87.2416 17.4387 87.3106 17.4284 87.3988 17.4284C87.4947 17.4284 87.5377 17.4419 87.5692 17.4632C87.5957 17.4818 87.615 17.5135 87.615 17.5564C87.615 17.6001 87.575 17.6371 87.5159 17.6532V17.6587C87.564 17.6715 87.5903 17.7066 87.6041 17.768C87.6172 17.8294 87.6254 17.8545 87.6336 17.8703H87.486C87.4732 17.8545 87.4656 17.8168 87.4569 17.7793C87.4486 17.7362 87.4283 17.7146 87.3847 17.7146H87.3421L87.3423 17.87ZM87.3962 17.3059C87.2092 17.3059 87.0681 17.4587 87.0681 17.6534C87.0681 17.8432 87.2096 17.9979 87.4013 17.9979C87.5939 18.0011 87.7353 17.8432 87.7353 17.6503C87.7353 17.4583 87.5939 17.3059 87.3991 17.3059H87.3962ZM87.4046 17.1904C87.6653 17.1904 87.8732 17.3962 87.8732 17.6502C87.8732 17.9072 87.6653 18.1133 87.4011 18.1133C87.1368 18.1133 86.9263 17.9069 86.9263 17.6503C86.9263 17.3962 87.1371 17.1905 87.4011 17.1905H87.404" fill="#FDBB30"/>
</g>
<defs>
<clipPath id="clip0_4_365">
<rect width="87" height="24" fill="white" transform="translate(0.842285 0.682617)"/>
</clipPath>
</defs>
</svg>
