<svg width="389" height="231" viewBox="0 0 389 231" fill="none" xmlns="http://www.w3.org/2000/svg">
<g clip-path="url(#clip0_4_1174)">
<path d="M380.062 27.5195L383.737 21.5893L381.922 20.4646C381.389 20.1334 381.1 19.5298 381.153 18.9038C381.183 18.5576 381.194 18.2096 381.186 17.8603C381.173 17.2336 381.5 16.6506 382.052 16.3544L383.933 15.3447L380.636 9.19326L378.756 10.203C378.204 10.4992 377.538 10.4492 377.024 10.0911C376.737 9.89183 376.441 9.70812 376.137 9.54129C375.587 9.2395 375.244 8.66403 375.264 8.03608L375.331 5.90041L368.362 5.68359L368.297 7.82676C368.279 8.45534 367.894 9.00207 367.326 9.27074C367.172 9.34385 367.019 9.4207 366.868 9.50193C366.716 9.58316 366.567 9.66813 366.422 9.75624C365.887 10.0799 365.222 10.0986 364.691 9.76935L362.863 8.63592L359.187 14.5662L361.005 15.6952C361.538 16.027 361.827 16.6312 361.773 17.2573C361.743 17.6022 361.732 17.949 361.739 18.2964C361.752 18.9225 361.425 19.5048 360.873 19.8004L358.992 20.8101L362.288 26.9616L364.17 25.9518C364.721 25.6557 365.387 25.7057 365.901 26.0624C366.186 26.2605 366.481 26.443 366.785 26.6085C367.336 26.9097 367.679 27.4852 367.66 28.1131L367.594 30.2532L374.563 30.47L374.63 28.3287C374.65 27.7026 375.034 27.1578 375.599 26.8897C375.754 26.8166 375.908 26.7385 376.061 26.6566C376.212 26.5754 376.362 26.4904 376.508 26.4023C377.046 26.0774 377.713 26.0587 378.248 26.3905L380.062 27.5195ZM374.161 23.1157C371.381 24.6078 367.922 23.5625 366.431 20.7807C364.94 17.999 365.982 14.5324 368.761 13.0403C371.541 11.5482 375.007 12.5955 376.498 15.3772C377.989 18.1596 376.94 21.6236 374.161 23.1157Z" fill="#EBEBEB"/>
<path d="M55.4929 173.441L53.0517 169.207L51.7568 169.955C51.376 170.175 50.9077 170.155 50.5393 169.914C50.3358 169.781 50.1248 169.659 49.9069 169.548C49.516 169.349 49.2644 168.954 49.2644 168.515V167.019H44.3783V168.515C44.3783 168.954 44.1267 169.349 43.7359 169.548C43.518 169.658 43.307 169.781 43.1034 169.914C42.7351 170.154 42.2668 170.176 41.886 169.955L40.5911 169.207L38.1499 173.441L39.451 174.19C39.8325 174.41 40.0423 174.829 40.0198 175.269C40.0136 175.388 40.0104 175.508 40.0104 175.629C40.0104 175.749 40.0136 175.869 40.0198 175.989C40.0423 176.427 39.8338 176.843 39.4548 177.063L38.1505 177.817L40.5917 182.051L41.8903 181.302C42.2712 181.082 42.7401 181.104 43.1084 181.345C43.3113 181.477 43.5211 181.599 43.7384 181.71C44.1286 181.909 44.3796 182.304 44.3796 182.742V184.239H49.2657V182.742C49.2657 182.304 49.5167 181.909 49.9069 181.71C50.1235 181.599 50.3339 181.477 50.5368 181.345C50.9052 181.104 51.3735 181.082 51.7549 181.302L53.0536 182.051L55.4947 177.817L54.1961 177.067C53.8159 176.848 53.6074 176.43 53.6292 175.992C53.6355 175.872 53.6379 175.751 53.6379 175.629C53.6379 175.509 53.6348 175.389 53.6292 175.269C53.6067 174.83 53.8165 174.41 54.198 174.19L55.4929 173.441ZM50.8222 175.629C50.8222 177.84 49.0322 179.631 46.8226 179.631C44.6131 179.631 42.8194 177.841 42.8194 175.629C42.8194 173.417 44.6131 171.622 46.8226 171.622C49.0322 171.622 50.8222 173.417 50.8222 175.629Z" fill="#EBEBEB"/>
<path d="M35.6356 111.145C25.1267 111.145 16.6113 119.667 16.6113 130.184C16.6113 140.696 25.1267 149.223 35.6356 149.223C46.1402 149.223 54.66 140.696 54.66 130.184C54.66 119.667 46.1402 111.145 35.6356 111.145ZM35.6356 139.073C30.7277 139.073 26.7488 135.096 26.7488 130.184C26.7488 125.272 30.7277 121.29 35.6356 121.29C40.5436 121.29 44.5225 125.272 44.5225 130.184C44.5225 135.096 40.5436 139.073 35.6356 139.073Z" fill="#EBEBEB"/>
<path d="M39.2936 111.934H31.9775L32.3821 106.751H38.889L39.2936 111.934Z" fill="#EBEBEB"/>
<path d="M25.368 114.401L20.1947 119.578L16.8188 115.627L21.4202 111.022L25.368 114.401Z" fill="#EBEBEB"/>
<path d="M17.2649 125.999V133.321L12.0859 132.916V126.404L17.2649 125.999Z" fill="#EBEBEB"/>
<path d="M19.7298 139.936L24.9031 145.113L20.9548 148.491L16.354 143.886L19.7298 139.936Z" fill="#EBEBEB"/>
<path d="M31.3193 148.045H38.6354L38.2308 153.228H31.7239L31.3193 148.045Z" fill="#EBEBEB"/>
<path d="M45.2441 145.578L50.4174 140.4L53.7933 144.352L49.1925 148.956L45.2441 145.578Z" fill="#EBEBEB"/>
<path d="M53.3481 133.98V126.658L58.5264 127.063V133.575L53.3481 133.98Z" fill="#EBEBEB"/>
<path d="M50.8833 120.044L45.71 114.867L49.6577 111.488L54.2591 116.093L50.8833 120.044Z" fill="#EBEBEB"/>
<path d="M345.864 45.9307C335.355 45.9307 326.84 54.4527 326.84 64.9699C326.84 75.4826 335.355 84.0091 345.864 84.0091C356.369 84.0091 364.888 75.4826 364.888 64.9699C364.888 54.4527 356.369 45.9307 345.864 45.9307ZM345.864 73.8593C340.956 73.8593 336.977 69.8817 336.977 64.9699C336.977 60.0581 340.956 56.076 345.864 56.076C350.772 56.076 354.751 60.0581 354.751 64.9699C354.751 69.8817 350.772 73.8593 345.864 73.8593Z" fill="#EBEBEB"/>
<path d="M349.522 46.7201H342.206L342.61 41.5371H349.117L349.522 46.7201Z" fill="#EBEBEB"/>
<path d="M335.597 49.187L330.423 54.3644L327.047 50.4136L331.648 45.8086L335.597 49.187Z" fill="#EBEBEB"/>
<path d="M327.493 60.7852V68.1069L322.314 67.702V61.19L327.493 60.7852Z" fill="#EBEBEB"/>
<path d="M329.958 74.7217L335.131 79.8984L331.183 83.2775L326.582 78.6725L329.958 74.7217Z" fill="#EBEBEB"/>
<path d="M341.547 82.8311H348.863L348.459 88.014H341.952L341.547 82.8311Z" fill="#EBEBEB"/>
<path d="M355.473 80.3648L360.646 75.1875L364.022 79.1383L359.42 83.7433L355.473 80.3648Z" fill="#EBEBEB"/>
<path d="M363.576 68.7661V61.4443L368.755 61.8492V68.3612L363.576 68.7661Z" fill="#EBEBEB"/>
<path d="M361.111 54.8308L355.938 49.6535L359.886 46.2744L364.487 50.8794L361.111 54.8308Z" fill="#EBEBEB"/>
<path d="M11.0879 196.511L60.7611 196.359L110.434 196.304L209.779 196.199L309.124 196.304L358.797 196.359L408.47 196.511L358.797 196.664L309.124 196.719L209.779 196.823L110.434 196.718L60.7611 196.663L11.0879 196.511Z" fill="#263238"/>
<path d="M347.585 9.26758H71.9717V193.777H347.585V9.26758Z" fill="#DBDBDB"/>
<path d="M345.581 11.5186H73.9746V191.527H345.581V11.5186Z" fill="#263238"/>
<path d="M383.482 207.612H36.0747V220.276H383.482V207.612Z" fill="#C7C7C7"/>
<path d="M36.0747 207.612L71.9719 193.776H347.585L383.482 207.612H36.0747Z" fill="#DBDBDB"/>
<path d="M75.1772 202.705L98.3422 193.776H321.214L344.38 202.705H75.1772Z" fill="#263238"/>
<path d="M330.436 25.1299H89.1201V177.915H330.436V25.1299Z" fill="white"/>
<path d="M330.436 25.1299H89.1201V31.0089H330.436V25.1299Z" fill="#455A64"/>
<path d="M93.7898 28.0697C93.7898 28.8751 93.1374 29.528 92.3332 29.528C91.5284 29.528 90.876 28.8751 90.876 28.0697C90.876 27.2643 91.5284 26.6113 92.3332 26.6113C93.138 26.6113 93.7898 27.2643 93.7898 28.0697Z" fill="#3940A0"/>
<path d="M99.739 28.0697C99.739 28.8751 99.0866 29.528 98.2818 29.528C97.477 29.528 96.8252 28.8751 96.8252 28.0697C96.8252 27.2643 97.4776 26.6113 98.2818 26.6113C99.0866 26.6113 99.739 27.2643 99.739 28.0697Z" fill="#EBEBEB"/>
<path d="M105.689 28.0697C105.689 28.8751 105.036 29.528 104.231 29.528C103.427 29.528 102.775 28.8751 102.775 28.0697C102.775 27.2643 103.427 26.6113 104.231 26.6113C105.036 26.6113 105.689 27.2643 105.689 28.0697Z" fill="white"/>
<path d="M204.514 130.53H248.482V96.7695H204.514V130.53Z" fill="#3940A0"/>
<path opacity="0.6" d="M208.89 104.153C208.357 106.967 210.776 109.388 213.588 108.855C215.159 108.557 216.426 107.289 216.724 105.717C217.256 102.903 214.838 100.482 212.026 101.016C210.455 101.313 209.188 102.581 208.89 104.153Z" fill="white"/>
<path d="M219.019 123.256H248.482L233.75 105.086L219.019 123.256Z" fill="#3940A0"/>
<path opacity="0.2" d="M219.019 123.256H248.482L233.75 105.086L219.019 123.256Z" fill="black"/>
<path d="M204.514 123.272H230.642L217.578 111.44L204.514 123.272Z" fill="#3940A0"/>
<path opacity="0.1" d="M204.514 123.272H230.642L217.578 111.44L204.514 123.272Z" fill="black"/>
<path d="M248.482 123.256H204.514V130.53H248.482V123.256Z" fill="#3940A0"/>
<path opacity="0.1" d="M248.482 123.256H204.514V130.53H248.482V123.256Z" fill="black"/>
<path d="M134.061 96.7686H101.036V99.5497H134.061V96.7686Z" fill="#DBDBDB"/>
<path d="M196.611 103.221H101.036V106.002H196.611V103.221Z" fill="#DBDBDB"/>
<path d="M196.611 109.339H101.036V112.12H196.611V109.339Z" fill="#DBDBDB"/>
<path d="M196.611 115.457H101.036V118.238H196.611V115.457Z" fill="#DBDBDB"/>
<path d="M196.611 121.575H101.036V124.356H196.611V121.575Z" fill="#DBDBDB"/>
<path d="M196.611 127.692H101.036V130.474H196.611V127.692Z" fill="#DBDBDB"/>
<path d="M213.658 42.1807H180.632V49.6199H213.658V42.1807Z" fill="#DBDBDB"/>
<path d="M248.483 54.75H180.632V57.5311H248.483V54.75Z" fill="#DBDBDB"/>
<path d="M248.483 60.8691H180.632V63.6503H248.483V60.8691Z" fill="#DBDBDB"/>
<path d="M248.483 66.9863H180.632V69.7674H248.483V66.9863Z" fill="#DBDBDB"/>
<path d="M248.483 73.1045H180.632V75.8856H248.483V73.1045Z" fill="#DBDBDB"/>
<path d="M248.483 81.2422H180.632V84.0233H248.483V81.2422Z" fill="#DBDBDB"/>
<path d="M248.483 87.3613H180.632V90.1424H248.483V87.3613Z" fill="#DBDBDB"/>
<path d="M318.51 42.1807H258.115V49.7536H318.51V42.1807Z" fill="#3940A0"/>
<path d="M318.355 49.7539H258.283V130.396H318.355V49.7539Z" fill="white"/>
<path d="M318.522 130.529H258.115V49.6201H318.522V130.529ZM258.449 130.263H318.188V49.8869H258.449V130.263Z" fill="#DBDBDB"/>
<path d="M258.437 130.445L258.127 130.346L318.199 49.7041L318.51 49.8028L258.437 130.445Z" fill="#DBDBDB"/>
<path d="M318.199 130.445L258.127 49.8028L258.437 49.7041L318.51 130.346L318.199 130.445Z" fill="#DBDBDB"/>
<path d="M173.14 42.3125H101.164V90.0102H173.14V42.3125Z" fill="white"/>
<path d="M101.049 90.1414V90.0208L101.036 42.2019H101.157L173.254 42.1807L173.269 90.1201H173.148L101.049 90.1414ZM101.277 42.4443L101.291 89.9002L173.027 89.8789L173.012 42.4237L101.277 42.4443Z" fill="#DBDBDB"/>
<path d="M101.277 42.4443C107.332 46.282 113.347 50.181 119.356 54.0893L137.336 65.883L155.231 77.806L164.149 83.8131L173.027 89.8789L163.967 84.0868L154.948 78.2352L136.968 66.4409L119.074 54.5173C113.124 50.519 107.18 46.512 101.277 42.4443Z" fill="#DBDBDB"/>
<path d="M173.027 42.4443C167.124 46.512 161.18 50.519 155.23 54.5167L137.336 66.4403L119.356 78.2346L110.337 84.0861L101.277 89.8783L110.155 83.8125L119.073 77.8054L136.968 65.8823L154.948 54.0887C160.957 50.181 166.972 46.282 173.027 42.4443Z" fill="#DBDBDB"/>
<g opacity="0.8">
<path d="M321.934 104.046H224.435V172.405H321.934V104.046Z" fill="white"/>
<path d="M322.304 172.774H224.065V103.676H322.303L322.304 172.774ZM224.805 172.035H321.564V104.416H224.805V172.035Z" fill="#EBEBEB"/>
<path d="M321.934 104.046H224.435V111.104H321.934V104.046Z" fill="#455A64"/>
<path d="M322.304 111.473H224.065V103.676H322.303L322.304 111.473ZM224.805 110.734H321.564V104.416H224.805V110.734Z" fill="#EBEBEB"/>
<path d="M231.056 107.626C231.056 108.607 230.261 109.402 229.281 109.402C228.301 109.402 227.506 108.607 227.506 107.626C227.506 106.645 228.301 105.85 229.281 105.85C230.261 105.85 231.056 106.644 231.056 107.626Z" fill="#3940A0"/>
<path d="M238.304 107.626C238.304 108.607 237.509 109.402 236.529 109.402C235.549 109.402 234.754 108.607 234.754 107.626C234.754 106.645 235.549 105.85 236.529 105.85C237.509 105.85 238.304 106.644 238.304 107.626Z" fill="#EBEBEB"/>
<path d="M245.552 107.626C245.552 108.607 244.757 109.402 243.777 109.402C242.797 109.402 242.002 108.607 242.002 107.626C242.002 106.645 242.797 105.85 243.777 105.85C244.757 105.85 245.552 106.644 245.552 107.626Z" fill="white"/>
<path d="M235.771 125.145H232.001V126.523H235.771V125.145Z" fill="#EBEBEB"/>
<path d="M281.772 125.145H238.52V126.523H281.772V125.145Z" fill="#EBEBEB"/>
<path d="M291.252 125.145H284.089V126.523H291.252V125.145Z" fill="#3940A0"/>
<path d="M305.189 125.145H292.808V126.523H305.189V125.145Z" fill="#A6A6A6"/>
<path d="M239.542 128.833H235.772V130.211H239.542V128.833Z" fill="#EBEBEB"/>
<path d="M270.581 128.833H242.196V130.211H270.581V128.833Z" fill="#A6A6A6"/>
<path d="M265.632 139.9H238.52V141.279H265.632V139.9Z" fill="#A6A6A6"/>
<path d="M261.216 132.522H242.196V133.901H261.216V132.522Z" fill="#3940A0"/>
<path d="M296.133 136.212H288.878V137.59H296.133V136.212Z" fill="#A6A6A6"/>
<path d="M293.7 132.522H263.326V133.901H293.7V132.522Z" fill="#A6A6A6"/>
<path d="M274.776 143.59H238.52V144.968H274.776V143.59Z" fill="#3940A0"/>
<path d="M311.658 128.833H292.009V130.211H311.658V128.833Z" fill="#3940A0"/>
<path d="M290.452 128.833H272.363V130.211H290.452V128.833Z" fill="#EBEBEB"/>
<path d="M307.335 132.522H295.127V133.901H307.335V132.522Z" fill="#EBEBEB"/>
<path d="M239.542 132.522H235.772V133.901H239.542V132.522Z" fill="#EBEBEB"/>
<path d="M235.771 136.212H232.001V137.59H235.771V136.212Z" fill="#A6A6A6"/>
<path d="M260.804 136.212H238.52V137.59H260.804V136.212Z" fill="#EBEBEB"/>
<path d="M291.251 139.9H267.166V141.279H291.251V139.9Z" fill="#EBEBEB"/>
<path d="M308.133 139.9H292.808V141.279H308.133V139.9Z" fill="#3940A0"/>
<path d="M287.126 136.212H263.069V137.59H287.126V136.212Z" fill="#3940A0"/>
<path d="M235.771 139.9H232.001V141.279H235.771V139.9Z" fill="#EBEBEB"/>
<path d="M235.771 143.59H232.001V144.968H235.771V143.59Z" fill="#EBEBEB"/>
<path d="M234.33 121.514C234.46 121.649 234.46 121.851 234.33 121.981C234.263 122.042 234.186 122.074 234.103 122.074C234.015 122.074 233.932 122.042 233.865 121.981L232.411 120.504C232.396 120.499 232.39 120.488 232.385 120.473C232.38 120.467 232.369 120.462 232.369 120.462C232.359 120.447 232.359 120.436 232.354 120.421C232.343 120.416 232.338 120.405 232.338 120.4C232.333 120.39 232.333 120.374 232.328 120.369C232.328 120.354 232.317 120.349 232.317 120.344C232.317 120.328 232.317 120.317 232.317 120.307C232.317 120.297 232.312 120.292 232.312 120.277C232.312 120.271 232.317 120.255 232.317 120.25C232.317 120.24 232.317 120.224 232.317 120.214C232.317 120.204 232.328 120.199 232.328 120.193C232.333 120.177 232.333 120.167 232.338 120.152C232.338 120.147 232.343 120.147 232.343 120.142C232.354 120.126 232.359 120.105 232.369 120.095C232.369 120.095 232.369 120.085 232.38 120.085C232.385 120.074 232.395 120.059 232.411 120.049L233.865 118.573C233.994 118.448 234.207 118.448 234.331 118.573C234.461 118.702 234.461 118.91 234.331 119.039L233.105 120.277L234.33 121.514Z" fill="#3940A0"/>
<path d="M235.648 121.68L236.916 118.661C236.978 118.516 237.144 118.448 237.294 118.511C237.433 118.567 237.501 118.739 237.438 118.878L236.17 121.903C236.124 122.012 236.015 122.073 235.906 122.073C235.875 122.073 235.834 122.068 235.803 122.053C235.653 121.997 235.587 121.825 235.648 121.68Z" fill="#3940A0"/>
<path d="M239.943 120.463C239.943 120.463 239.943 120.468 239.938 120.468C239.928 120.478 239.917 120.494 239.901 120.504L238.447 121.981C238.385 122.042 238.297 122.074 238.214 122.074C238.126 122.074 238.049 122.042 237.982 121.981C237.852 121.851 237.852 121.649 237.982 121.514L239.208 120.277L237.982 119.039C237.852 118.909 237.852 118.702 237.982 118.573C238.106 118.448 238.319 118.448 238.447 118.573L239.901 120.049C239.918 120.059 239.928 120.074 239.938 120.085C239.943 120.085 239.943 120.095 239.943 120.095C239.953 120.116 239.963 120.127 239.969 120.142C239.969 120.147 239.974 120.147 239.974 120.152C239.979 120.167 239.979 120.178 239.989 120.199C239.989 120.204 239.994 120.204 239.994 120.214C239.994 120.224 239.994 120.24 239.994 120.25C239.994 120.255 240 120.271 240 120.277C240 120.282 239.994 120.297 239.994 120.302C239.994 120.318 239.994 120.329 239.994 120.344C239.994 120.349 239.989 120.349 239.989 120.354C239.979 120.375 239.979 120.39 239.974 120.4C239.974 120.405 239.969 120.405 239.969 120.416C239.963 120.427 239.953 120.442 239.943 120.463Z" fill="#3940A0"/>
</g>
<path d="M243.41 35.9209H221.174V50.6775H243.41V35.9209Z" fill="#3940A0"/>
<path d="M227.212 44.7288C227.404 45.3199 227.963 45.7498 228.618 45.7498C229.434 45.7498 230.1 45.0837 230.1 44.2777V40.012C230.1 39.679 230.368 39.4209 230.701 39.4209C231.023 39.4209 231.292 39.679 231.292 40.012V44.2777C231.292 45.7498 230.089 46.942 228.619 46.942C227.438 46.942 226.429 46.1684 226.085 45.0937C225.978 44.7713 226.16 44.4383 226.461 44.3521C226.783 44.2452 227.115 44.417 227.212 44.7288Z" fill="white"/>
<path d="M232.787 45.0723C232.98 44.8361 233.334 44.8036 233.57 44.9973C234.043 45.3841 234.859 45.8352 235.621 45.8246C236.158 45.8246 236.641 45.6634 236.963 45.4272C237.285 45.1904 237.424 44.9217 237.424 44.6537C237.424 44.5143 237.392 44.4175 237.327 44.31C237.263 44.2032 237.166 44.0951 237.005 43.9876C236.694 43.7839 236.168 43.6008 235.534 43.4827H235.513C235.009 43.3859 234.536 43.2572 234.128 43.0635C233.721 42.8704 233.366 42.6017 233.13 42.2256C232.969 41.9682 232.883 41.667 232.883 41.3446C232.883 40.6997 233.247 40.1411 233.742 39.7762C234.247 39.4113 234.901 39.207 235.599 39.207C236.63 39.207 237.392 39.7119 237.939 40.0668C238.186 40.2386 238.262 40.5823 238.09 40.8297C237.929 41.0871 237.585 41.1627 237.327 40.9909C236.78 40.6254 236.254 40.303 235.599 40.303C235.116 40.303 234.687 40.4536 234.397 40.6685C234.107 40.8834 233.989 41.1196 233.989 41.3458C233.989 41.4752 234.01 41.5608 234.064 41.647C234.118 41.7326 234.215 41.8294 234.354 41.9263C234.633 42.1194 235.116 42.2918 235.696 42.3993H235.717C236.265 42.5068 236.769 42.6461 237.198 42.8504C237.638 43.0654 238.026 43.3447 238.272 43.742C238.433 44.0001 238.529 44.3225 238.529 44.6555C238.529 45.3429 238.143 45.934 237.606 46.3207C237.08 46.7075 236.382 46.9331 235.62 46.9331C234.461 46.9224 233.483 46.3426 232.872 45.859C232.636 45.6634 232.604 45.3091 232.787 45.0723Z" fill="white"/>
<path d="M64.5966 69.4991L55.0176 79.6641L56.0073 80.5982L65.5863 70.4332L64.5966 69.4991Z" fill="#263238"/>
<path d="M65.3258 79.8682H55.5161V81.2297H65.3258V79.8682Z" fill="#455A64"/>
<path d="M65.3258 69.2744H55.5161V70.6359H65.3258V69.2744Z" fill="#455A64"/>
<path d="M56.012 69.489L55.022 70.4229L64.5982 80.5906L65.5882 79.6567L56.012 69.489Z" fill="#455A64"/>
<path d="M64.5971 80.088L55.0181 90.2529L56.0078 91.1871L65.5868 81.0221L64.5971 80.088Z" fill="#263238"/>
<path d="M65.3258 90.4619H55.5161V91.8234H65.3258V90.4619Z" fill="#455A64"/>
<path d="M65.3258 79.8682H55.5161V81.2297H65.3258V79.8682Z" fill="#455A64"/>
<path d="M56.0115 80.0818L55.0215 81.0156L64.5977 91.1834L65.5877 90.2495L56.0115 80.0818Z" fill="#455A64"/>
<path d="M64.5956 90.6866L55.0166 100.852L56.0063 101.786L65.5853 91.6207L64.5956 90.6866Z" fill="#263238"/>
<path d="M65.3258 101.054H55.5161V102.415H65.3258V101.054Z" fill="#455A64"/>
<path d="M65.3258 90.4609H55.5161V91.8224H65.3258V90.4609Z" fill="#455A64"/>
<path d="M56.0115 90.6755L55.0215 91.6094L64.5977 101.777L65.5877 100.843L56.0115 90.6755Z" fill="#455A64"/>
<path d="M64.5966 101.274L55.0176 111.439L56.0073 112.374L65.5863 102.209L64.5966 101.274Z" fill="#263238"/>
<path d="M65.3258 111.647H55.5161V113.009H65.3258V111.647Z" fill="#455A64"/>
<path d="M65.3258 101.054H55.5161V102.415H65.3258V101.054Z" fill="#455A64"/>
<path d="M56.0115 101.268L55.0215 102.202L64.5977 112.37L65.5877 111.436L56.0115 101.268Z" fill="#455A64"/>
<path d="M64.5946 111.874L55.0156 122.039L56.0054 122.973L65.5844 112.808L64.5946 111.874Z" fill="#263238"/>
<path d="M65.3258 122.241H55.5161V123.603H65.3258V122.241Z" fill="#455A64"/>
<path d="M65.3258 111.647H55.5161V113.009H65.3258V111.647Z" fill="#455A64"/>
<path d="M56.012 111.862L55.022 112.796L64.5982 122.964L65.5882 122.03L56.012 111.862Z" fill="#455A64"/>
<path d="M64.5941 122.468L55.0151 132.633L56.0049 133.567L65.5839 123.402L64.5941 122.468Z" fill="#263238"/>
<path d="M65.3258 132.834H55.5161V134.195H65.3258V132.834Z" fill="#455A64"/>
<path d="M65.3258 122.24H55.5161V123.602H65.3258V122.24Z" fill="#455A64"/>
<path d="M56.0115 122.455L55.0215 123.389L64.5977 133.556L65.5877 132.623L56.0115 122.455Z" fill="#455A64"/>
<path d="M64.5932 133.062L55.0142 143.227L56.0039 144.161L65.5829 133.996L64.5932 133.062Z" fill="#263238"/>
<path d="M65.3258 143.428H55.5161V144.789H65.3258V143.428Z" fill="#455A64"/>
<path d="M65.3258 132.834H55.5161V134.195H65.3258V132.834Z" fill="#455A64"/>
<path d="M56.012 133.049L55.022 133.982L64.5982 144.15L65.5882 143.216L56.012 133.049Z" fill="#455A64"/>
<path d="M64.5956 143.649L55.0166 153.813L56.0063 154.748L65.5853 144.583L64.5956 143.649Z" fill="#263238"/>
<path d="M65.3258 154.021H55.5161V155.383H65.3258V154.021Z" fill="#455A64"/>
<path d="M65.3258 143.428H55.5161V144.789H65.3258V143.428Z" fill="#455A64"/>
<path d="M56.012 143.641L55.022 144.575L64.5982 154.743L65.5882 153.809L56.012 143.641Z" fill="#455A64"/>
<path d="M64.598 154.234L55.019 164.399L56.0088 165.334L65.5878 155.169L64.598 154.234Z" fill="#263238"/>
<path d="M65.3258 164.613H55.5161V165.975H65.3258V164.613Z" fill="#455A64"/>
<path d="M65.3258 154.021H55.5161V155.382H65.3258V154.021Z" fill="#455A64"/>
<path d="M56.012 154.234L55.022 155.168L64.5982 165.336L65.5882 164.402L56.012 154.234Z" fill="#455A64"/>
<path d="M64.6007 164.822L55.0259 174.991L56.0156 175.925L65.5904 165.755L64.6007 164.822Z" fill="#263238"/>
<path d="M65.3258 175.207H55.5161V176.569H65.3258V175.207Z" fill="#455A64"/>
<path d="M65.3258 164.613H55.5161V165.975H65.3258V164.613Z" fill="#455A64"/>
<path d="M56.0096 164.832L55.02 165.766L64.5962 175.933L65.5858 175L56.0096 164.832Z" fill="#455A64"/>
<path d="M64.6007 175.416L55.0259 185.585L56.0155 186.518L65.5904 176.349L64.6007 175.416Z" fill="#263238"/>
<path d="M65.3258 185.801H55.5161V187.162H65.3258V185.801Z" fill="#455A64"/>
<path d="M65.3258 175.207H55.5161V176.569H65.3258V175.207Z" fill="#455A64"/>
<path d="M56.0115 175.422L55.022 176.355L64.5982 186.523L65.5877 185.59L56.0115 175.422Z" fill="#455A64"/>
<path d="M67.2915 191.826V185.658H53.1408V191.826H67.2915Z" fill="#455A64"/>
<path d="M56.687 186.046L56.687 69.8291H53.1408L53.1408 186.046H56.687Z" fill="#455A64"/>
<path d="M67.2915 186.046L67.2915 69.8291H63.7452L63.7452 186.046H67.2915Z" fill="#455A64"/>
<path d="M160.499 68.9974L149.899 58.5459L60.4368 41.8604L33.2473 58.6227L32.5337 57.4636L60.1702 40.4258L150.557 57.2831L161.454 68.0276L160.499 68.9974Z" fill="#455A64"/>
<path d="M71.225 60.0109L60.3277 44.8544L49.8987 59.9884L47.6592 58.4432L60.2802 40.127L73.4339 58.4207L71.225 60.0109Z" fill="#263238"/>
<path d="M139.919 59.7475L138.986 60.7383L149.146 70.322L150.079 69.3312L139.919 59.7475Z" fill="#263238"/>
<path d="M150.718 60.0107H149.357V69.8281H150.718V60.0107Z" fill="#455A64"/>
<path d="M140.133 60.0107H138.772V69.8281H140.133V60.0107Z" fill="#455A64"/>
<path d="M149.146 59.7577L138.988 69.3428L139.921 70.3334L150.079 60.7483L149.146 59.7577Z" fill="#455A64"/>
<path d="M129.334 59.7475L128.401 60.7383L138.561 70.322L139.494 69.3312L129.334 59.7475Z" fill="#263238"/>
<path d="M140.133 60.0107H138.772V69.8281H140.133V60.0107Z" fill="#455A64"/>
<path d="M129.548 60.0107H128.188V69.8281H129.548V60.0107Z" fill="#455A64"/>
<path d="M138.561 59.7577L128.403 69.3428L129.336 70.3334L139.495 60.7483L138.561 59.7577Z" fill="#455A64"/>
<path d="M118.75 59.7485L117.817 60.7393L127.977 70.323L128.91 69.3322L118.75 59.7485Z" fill="#263238"/>
<path d="M129.548 60.0107H128.188V69.8281H129.548V60.0107Z" fill="#455A64"/>
<path d="M118.963 60.0107H117.603V69.8281H118.963V60.0107Z" fill="#455A64"/>
<path d="M127.976 59.7567L117.817 69.3418L118.751 70.3324L128.909 60.7473L127.976 59.7567Z" fill="#455A64"/>
<path d="M108.165 59.7485L107.231 60.7393L117.391 70.323L118.324 69.3322L108.165 59.7485Z" fill="#263238"/>
<path d="M118.962 60.0107H117.602V69.8281H118.962V60.0107Z" fill="#455A64"/>
<path d="M108.378 60.0107H107.017V69.8281H108.378V60.0107Z" fill="#455A64"/>
<path d="M117.39 59.7567L107.232 69.3418L108.165 70.3324L118.324 60.7473L117.39 59.7567Z" fill="#455A64"/>
<path d="M97.5796 59.7485L96.6465 60.7393L106.806 70.323L107.739 69.3322L97.5796 59.7485Z" fill="#263238"/>
<path d="M108.378 60.0107H107.017V69.8281H108.378V60.0107Z" fill="#455A64"/>
<path d="M97.7931 60.0107H96.4326V69.8281H97.7931V60.0107Z" fill="#455A64"/>
<path d="M106.803 59.7377L96.646 69.3242L97.5794 70.3147L107.736 60.7282L106.803 59.7377Z" fill="#455A64"/>
<path d="M86.9946 59.7485L86.0615 60.7393L96.2213 70.323L97.1545 69.3322L86.9946 59.7485Z" fill="#263238"/>
<path d="M97.7931 60.0107H96.4326V69.8281H97.7931V60.0107Z" fill="#455A64"/>
<path d="M87.2081 60.0107H85.8477V69.8281H87.2081V60.0107Z" fill="#455A64"/>
<path d="M96.2199 59.7557L86.0615 69.3408L86.9948 70.3315L97.1532 60.7463L96.2199 59.7557Z" fill="#455A64"/>
<path d="M76.4102 59.7485L75.4771 60.7393L85.6369 70.323L86.57 69.3322L76.4102 59.7485Z" fill="#263238"/>
<path d="M87.2081 60.0107H85.8477V69.8281H87.2081V60.0107Z" fill="#455A64"/>
<path d="M76.6231 60.0107H75.2627V69.8281H76.6231V60.0107Z" fill="#455A64"/>
<path d="M85.6346 59.7387L75.4775 69.3252L76.4109 70.3157L86.5679 60.7292L85.6346 59.7387Z" fill="#455A64"/>
<path d="M65.8247 59.7485L64.8916 60.7393L75.0514 70.323L75.9845 69.3322L65.8247 59.7485Z" fill="#263238"/>
<path d="M76.6226 60.0107H75.2622V69.8281H76.6226V60.0107Z" fill="#455A64"/>
<path d="M66.0377 60.0107H64.6772V69.8281H66.0377V60.0107Z" fill="#455A64"/>
<path d="M75.049 59.7557L64.8906 69.3408L65.8239 70.3315L75.9823 60.7463L75.049 59.7557Z" fill="#455A64"/>
<path d="M55.2398 59.7485L54.3066 60.7393L64.4664 70.323L65.3996 69.3322L55.2398 59.7485Z" fill="#263238"/>
<path d="M66.0377 60.0107H64.6772V69.8281H66.0377V60.0107Z" fill="#455A64"/>
<path d="M55.4527 60.0107H54.0923V69.8281H55.4527V60.0107Z" fill="#455A64"/>
<path d="M64.4636 59.7547L54.3052 69.3398L55.2384 70.3305L65.3968 60.7454L64.4636 59.7547Z" fill="#455A64"/>
<path d="M44.6548 59.7495L43.7217 60.7402L53.8815 70.3239L54.8146 69.3332L44.6548 59.7495Z" fill="#263238"/>
<path d="M55.4527 60.0117H54.0923V69.8291H55.4527V60.0117Z" fill="#455A64"/>
<path d="M44.8678 60.0117H43.5073V69.8291H44.8678V60.0117Z" fill="#455A64"/>
<path d="M53.8786 59.7557L43.7202 69.3408L44.6535 70.3315L54.8119 60.7464L53.8786 59.7557Z" fill="#455A64"/>
<path d="M34.0698 59.7485L33.1367 60.7393L43.2965 70.323L44.2296 69.3322L34.0698 59.7485Z" fill="#263238"/>
<path d="M44.8678 60.0107H43.5073V69.8281H44.8678V60.0107Z" fill="#455A64"/>
<path d="M34.2833 60.0107H32.9229V69.8281H34.2833V60.0107Z" fill="#455A64"/>
<path d="M43.2962 59.7406L33.1392 69.3271L34.0726 70.3176L44.2296 60.7311L43.2962 59.7406Z" fill="#455A64"/>
<path d="M32.5195 57.4414H26.3647V71.6032H32.5195V57.4414Z" fill="#263238"/>
<path d="M38.6824 57.4414H32.5195V71.6032H38.6824V57.4414Z" fill="#455A64"/>
<path d="M46.8234 71.6025H35.0059V78.6656H46.8234V71.6025Z" fill="#455A64"/>
<path d="M161.452 68.0537H32.5195V71.6027H161.452V68.0537Z" fill="#455A64"/>
<path d="M154.098 60.9898H32.5195V57.4414H150.632L154.098 60.9898Z" fill="#455A64"/>
<path d="M153.036 60.0107H151.675V69.8281H153.036V60.0107Z" fill="#455A64"/>
<path d="M132.012 133.935C132.832 132.796 133.7 131.701 134.578 130.613C135.449 129.52 136.357 128.458 137.266 127.397L137.509 127.114L137.743 127.406C139.091 129.086 140.433 130.77 141.739 132.482L143.696 135.054C144.329 135.926 144.98 136.784 145.599 137.668C144.867 136.875 144.169 136.055 143.453 135.249L141.36 132.787C139.968 131.144 138.61 129.472 137.258 127.796L137.735 127.805C136.814 128.855 135.892 129.905 134.934 130.923C133.983 131.946 133.022 132.961 132.012 133.935Z" fill="#263238"/>
<path d="M132.292 73.0508H130.932V115.587H132.292V73.0508Z" fill="#263238"/>
<path d="M143.801 73.499H142.44V116.036H143.801V73.499Z" fill="#263238"/>
<path d="M146.429 71.6035H128.49V74.4971H146.429V71.6035Z" fill="#455A64"/>
<path d="M138.14 118.969L137.99 121.989L137.554 121.467C138.073 121.601 138.496 121.792 138.926 122.058C139.344 122.32 139.734 122.671 140.002 123.118C140.559 124.019 140.478 125.176 139.931 125.989C139.398 126.818 138.431 127.28 137.503 127.247C136.551 127.218 135.749 126.619 135.25 125.902C135.822 126.571 136.651 127.045 137.501 126.982C138.335 126.928 139.119 126.43 139.477 125.716C139.85 125.023 139.793 124.135 139.342 123.559C138.909 122.975 138.091 122.63 137.367 122.51L136.954 122.442L136.931 121.989L136.781 118.969H138.14Z" fill="#263238"/>
<path d="M146.43 112.774V117.703L137.458 119.833L128.494 117.703V112.774H146.43Z" fill="#455A64"/>
<path d="M132.607 115.665C132.607 116.241 132.141 116.707 131.566 116.707C130.991 116.707 130.524 116.241 130.524 115.665C130.524 115.09 130.991 114.623 131.566 114.623C132.141 114.623 132.607 115.09 132.607 115.665Z" fill="#263238"/>
<path d="M144.396 115.665C144.396 116.241 143.93 116.707 143.355 116.707C142.78 116.707 142.313 116.241 142.313 115.665C142.313 115.09 142.78 114.623 143.355 114.623C143.931 114.623 144.396 115.09 144.396 115.665Z" fill="#263238"/>
<path d="M62.5997 41.1432C62.5997 42.4122 61.572 43.4407 60.304 43.4407C59.036 43.4407 58.0083 42.4122 58.0083 41.1432C58.0083 39.8742 59.036 38.8457 60.304 38.8457C61.572 38.8457 62.5997 39.8742 62.5997 41.1432Z" fill="#A6A6A6"/>
<path d="M61.3759 41.1431C61.3759 41.7355 60.8958 42.216 60.3039 42.216C59.712 42.216 59.2319 41.7355 59.2319 41.1431C59.2319 40.5508 59.712 40.0703 60.3039 40.0703C60.8958 40.0703 61.3759 40.5508 61.3759 41.1431Z" fill="#455A64"/>
<path d="M70.1213 191.826H50.3115V196.512H70.1213V191.826Z" fill="#263238"/>
<path d="M74.4145 196.511H46.0176V205.7H74.4145V196.511Z" fill="#455A64"/>
<path d="M71.7344 79.7961H50.5361V56.3125H64.3797C66.8052 56.3125 68.8556 58.1101 69.1746 60.5157L71.7344 79.7961Z" fill="#F2F4FC"/>
<path d="M65.9668 72.6604H56.0298C55.9143 72.6604 55.8119 72.6466 55.7101 72.6129C55.2475 72.4766 54.9141 72.0411 54.9141 71.5375V58.9922H61.981C62.2189 58.9922 62.4574 59.0128 62.6884 59.0603C63.2328 59.1553 63.736 59.3596 64.1712 59.6526C64.484 59.8638 64.7631 60.1156 64.9941 60.4012C65.4636 60.9592 65.7832 61.6471 65.885 62.4163L67.075 71.3876C67.1636 72.0611 66.6398 72.6604 65.9668 72.6604Z" fill="#263238"/>
<g opacity="0.4">
<path d="M64.8985 66.1125C64.8985 66.3981 64.7899 66.6842 64.572 66.9023L58.8181 72.6607H56.0291C55.9136 72.6607 55.8112 72.647 55.7095 72.6132L62.9943 65.3227C63.4295 64.8872 64.1368 64.8872 64.572 65.3227C64.7899 65.5408 64.8985 65.8263 64.8985 66.1125Z" fill="white"/>
<path d="M64.9941 60.4015L54.9141 70.4894V68.9167L64.1712 59.6523C64.484 59.8635 64.7624 60.1153 64.9941 60.4015Z" fill="white"/>
<path d="M62.6883 59.0603L56.9612 64.7919C56.6347 65.1186 56.104 65.1186 55.7775 64.7919C55.6145 64.6282 55.5327 64.4176 55.5327 64.1995C55.5327 63.9883 55.6145 63.7778 55.7775 63.6141L60.3957 58.9922H61.9803C62.2188 58.9922 62.4567 59.0122 62.6883 59.0603Z" fill="white"/>
</g>
<path d="M169.375 144.71L112.292 128.054L101.272 165.881L158.355 182.537L169.375 144.71Z" fill="white"/>
<path d="M101.158 165.955L101.186 165.859L112.234 127.934L112.33 127.962L169.511 144.645L158.435 182.666L158.34 182.637L101.158 165.955ZM112.369 128.182L101.405 165.819L158.299 182.418L169.262 144.78L112.369 128.182Z" fill="#DBDBDB"/>
<path d="M141.815 157.191C140.771 160.773 137.024 162.831 133.444 161.786C129.865 160.742 127.809 156.991 128.853 153.409C129.896 149.827 133.644 147.769 137.223 148.814C140.802 149.858 142.858 153.609 141.815 157.191Z" fill="#3940A0"/>
<path d="M131.801 157.244L133.398 151.761L139.45 156.501L131.801 157.244Z" fill="white"/>
<path d="M159.215 179.583L102.133 162.927L101.272 165.882L158.355 182.538L159.215 179.583Z" fill="#EBEBEB"/>
<path d="M153.335 178.994L105.289 164.975L105.034 165.851L153.08 179.87L153.335 178.994Z" fill="#C7C7C7"/>
<path d="M104.359 164.167L102.492 163.622L101.948 165.49L103.814 166.035L104.359 164.167Z" fill="#C7C7C7"/>
<path d="M103.186 164.186L102.832 164.083L102.482 165.285L102.835 165.388L103.186 164.186Z" fill="#A6A6A6"/>
<path d="M103.841 164.375L103.487 164.271L103.137 165.474L103.491 165.577L103.841 164.375Z" fill="#A6A6A6"/>
<path d="M156.109 179.266L154.242 178.722L153.698 180.59L155.564 181.134L156.109 179.266Z" fill="#C7C7C7"/>
<path d="M154.689 179.613L154.325 179.507L154.193 179.96L154.557 180.066L154.689 179.613Z" fill="#A6A6A6"/>
<path d="M154.886 180.485L154.419 180.032L154.551 179.579L155.188 179.449L154.886 180.485Z" fill="#A6A6A6"/>
<path d="M155.408 179.701C155.445 179.681 155.48 179.661 155.516 179.641C155.583 179.764 155.609 179.895 155.588 180.033C155.557 180.24 155.447 180.394 155.267 180.499C155.247 180.462 155.227 180.426 155.208 180.389C155.329 180.321 155.412 180.22 155.451 180.086C155.49 179.953 155.473 179.824 155.408 179.701Z" fill="#A6A6A6"/>
<path d="M155.149 180.281C155.129 180.246 155.109 180.209 155.089 180.173C155.151 180.138 155.194 180.087 155.214 180.018C155.234 179.949 155.225 179.883 155.192 179.82C155.228 179.8 155.264 179.781 155.3 179.761C155.4 179.934 155.342 180.178 155.149 180.281Z" fill="#A6A6A6"/>
<path d="M158.333 179.918L156.466 179.373L155.922 181.241L157.789 181.786L158.333 179.918Z" fill="#C7C7C7"/>
<path d="M157.447 179.987L156.675 179.762L156.45 180.534L157.222 180.759L157.447 179.987Z" fill="#A6A6A6"/>
<path d="M157.819 180.651L157.048 180.426L156.823 181.198L157.594 181.423L157.819 180.651Z" fill="white"/>
<path d="M114.172 168.046C114.126 168.204 114.118 168.364 114.145 168.513L105.044 165.858L105.3 164.979L114.405 167.635C114.302 167.747 114.219 167.889 114.172 168.046Z" fill="#A6A6A6"/>
<path d="M116.171 168.629C116.125 168.786 116.047 168.926 115.944 169.038C115.681 169.323 115.274 169.45 114.879 169.335C114.484 169.22 114.208 168.894 114.145 168.513C114.117 168.363 114.127 168.203 114.172 168.046C114.218 167.889 114.301 167.746 114.405 167.635C114.663 167.348 115.066 167.22 115.462 167.335C115.857 167.45 116.128 167.775 116.196 168.157C116.223 168.307 116.216 168.472 116.171 168.629Z" fill="#A6A6A6"/>
<path d="M272.062 208.509C272.453 207.401 292.735 181.712 294.093 181.237C294.248 181.174 302.941 187.642 302.941 187.642C303.295 188.136 320.14 184.938 320.14 184.938L319.886 205.19L289.348 203.903C289.348 203.903 285.171 206.245 281.355 208.144C281.349 208.145 281.346 208.149 281.342 208.146C278.994 209.324 276.916 210.313 276.326 210.454C274.79 210.813 271.663 209.61 272.062 208.509Z" fill="#EB9481"/>
<path d="M276.327 210.453C276.919 210.315 278.995 209.325 281.342 208.146C281.347 208.151 281.352 208.146 281.356 208.146C285.169 206.247 289.348 203.903 289.348 203.903L296.144 204.191L307.146 187.222C304.801 187.588 303.054 187.799 302.94 187.641C302.94 187.641 294.251 181.174 294.094 181.239C292.735 181.712 272.455 207.401 272.062 208.509C271.664 209.61 274.79 210.816 276.327 210.453Z" fill="white"/>
<path d="M271.881 208.539C272.293 207.404 292.663 181.731 294.058 181.243C294.586 181.056 298.847 183.814 302.942 187.641L289.789 204.177C289.789 204.177 277.847 210.192 276.26 210.563C274.676 210.929 271.469 209.674 271.881 208.539Z" fill="#3940A0"/>
<path d="M273.199 208.986C276.719 204.767 290.52 187.415 293.679 182.976C293.704 182.94 293.681 182.921 293.652 182.955C290.071 187.061 276.412 204.524 273.128 208.931C273.059 209.023 273.125 209.076 273.199 208.986Z" fill="#263238"/>
<path d="M278.493 209.645C279.344 208.658 279.651 207.275 279.485 206.236C279.326 205.238 278.869 204.128 277.953 203.45C277.926 203.431 277.888 203.477 277.911 203.502C279.399 205.085 279.661 207.791 278.438 209.602C278.414 209.639 278.463 209.679 278.493 209.645Z" fill="#263238"/>
<path d="M288.287 205.185C289.677 203.481 290.654 201.001 290.096 198.813C290.074 198.728 289.954 198.759 289.94 198.832C289.507 201.026 288.93 202.981 288.051 205.047C287.989 205.191 288.187 205.306 288.287 205.185Z" fill="#263238"/>
<path d="M286.713 206.102C288.104 204.399 289.081 201.919 288.523 199.729C288.501 199.644 288.381 199.677 288.367 199.749C287.933 201.943 287.356 203.898 286.478 205.963C286.416 206.109 286.614 206.224 286.713 206.102Z" fill="#263238"/>
<path d="M285.141 207.02C286.531 205.317 287.508 202.837 286.95 200.648C286.929 200.563 286.808 200.596 286.794 200.668C286.361 202.862 285.784 204.817 284.905 206.882C284.843 207.027 285.041 207.143 285.141 207.02Z" fill="#263238"/>
<path d="M283.567 207.939C284.958 206.235 285.935 203.755 285.377 201.567C285.355 201.482 285.235 201.513 285.221 201.586C284.787 203.78 284.21 205.735 283.332 207.8C283.27 207.945 283.468 208.06 283.567 207.939Z" fill="#263238"/>
<path d="M296.894 187.318C298.422 185.381 295.416 183.002 293.886 184.942C292.358 186.879 295.363 189.258 296.894 187.318Z" fill="#263238"/>
<path d="M291.402 210.695C292.816 210.397 292.982 208.738 292.658 207.604C292.135 205.768 290.907 203.817 289.499 202.541C289.464 202.51 289.428 202.526 289.408 202.556C289.255 202.494 289.036 202.558 289.023 202.755C288.897 204.655 288.528 206.671 288.989 208.553C289.258 209.652 290.065 210.977 291.402 210.695ZM289.421 205.675C289.461 204.739 289.545 203.811 289.549 202.874C290.163 203.863 290.816 204.821 291.329 205.872C291.574 206.373 291.816 206.893 291.991 207.424C292.263 208.25 292.36 211.084 290.351 209.767C289.244 209.04 289.375 206.791 289.421 205.675Z" fill="#263238"/>
<path d="M292.257 197.755C290.837 199.072 290.036 200.958 289.096 202.613C288.998 202.785 289.146 202.959 289.307 202.992C289.308 203.028 289.33 203.062 289.376 203.055C291.252 202.767 293.351 201.814 294.799 200.57C295.693 199.802 296.468 198.326 295.451 197.298C294.489 196.325 293.086 196.987 292.257 197.755ZM294.062 197.494C296.463 197.502 294.823 199.814 294.142 200.354C293.704 200.701 293.216 201.001 292.735 201.284C291.729 201.879 290.656 202.318 289.6 202.805C290.112 202.02 290.552 201.199 291.035 200.397C291.61 199.439 292.738 197.49 294.062 197.494Z" fill="#263238"/>
<path d="M321.134 180.121L334.908 179.034C334.908 179.034 354.799 173.263 366.296 176.284C379.475 179.747 381.335 195.159 367.935 201.335C354.679 207.445 296.317 205.193 296.317 205.193L308.828 186.649C308.828 186.649 328.043 182.131 344.864 183.049L321.048 185.794L321.134 180.121Z" fill="#37474F"/>
<path d="M321.273 184.043C323.323 183.705 325.395 183.538 327.463 183.346C329.547 183.152 331.637 183.001 333.726 182.869C337.892 182.607 342.08 182.52 346.253 182.68C346.644 182.695 347.035 182.718 347.426 182.74C347.509 182.714 347.598 182.701 347.684 182.682C347.885 182.638 348.085 182.593 348.289 182.558C348.667 182.493 349.048 182.446 349.428 182.396C350.221 182.291 351.015 182.225 351.804 182.093C351.852 182.085 351.869 182.158 351.821 182.168C351.027 182.326 350.246 182.54 349.452 182.695C349.222 182.74 348.993 182.784 348.764 182.826C350.293 182.938 351.818 183.088 353.344 183.259C353.392 183.264 353.392 183.339 353.342 183.335C351.266 183.169 349.171 183.111 347.088 183.103C345.02 183.094 342.953 183.097 340.885 183.173C336.704 183.325 332.523 183.613 328.353 183.962C326.014 184.157 323.667 184.398 321.321 184.448C321.093 184.453 321.041 184.081 321.273 184.043Z" fill="#263238"/>
<path d="M302.293 204.767C303.065 203.587 303.728 202.324 304.438 201.104C305.149 199.882 305.862 198.659 306.575 197.437C307.999 195.001 313.1 186.811 313.599 186.241C313.631 186.205 313.693 186.249 313.677 186.291C313.431 186.928 310.241 192.354 309.508 193.563C308.041 195.982 306.503 198.351 304.986 200.738C304.553 201.42 304.105 202.092 303.666 202.77C303.228 203.447 302.762 204.112 302.357 204.809C302.332 204.85 302.266 204.808 302.293 204.767Z" fill="#263238"/>
<path d="M370.81 212.243C370.472 211.118 351.428 184.497 350.094 183.959C349.941 183.889 340.953 189.938 340.953 189.938C340.575 190.414 323.901 186.422 323.901 186.422L323.196 206.663L353.762 206.825C353.762 206.825 357.824 209.362 361.545 211.44C361.551 211.441 361.554 211.445 361.558 211.442C363.848 212.729 365.876 213.816 366.459 213.985C367.976 214.417 371.157 213.363 370.81 212.243Z" fill="#EB9481"/>
<path d="M366.459 213.984C365.874 213.817 363.848 212.73 361.559 211.442C361.554 211.446 361.549 211.442 361.544 211.441C357.825 209.363 353.763 206.823 353.763 206.823L346.96 206.789L336.772 189.318C339.098 189.794 340.833 190.089 340.954 189.936C340.954 189.936 349.939 183.887 350.093 183.96C351.428 184.497 370.47 211.118 370.81 212.243C371.155 213.363 367.976 214.419 366.459 213.984Z" fill="white"/>
<path d="M370.99 212.283C370.632 211.129 351.499 184.521 350.129 183.967C349.61 183.755 345.223 186.308 340.952 189.937L353.308 207.077C353.308 207.077 364.952 213.652 366.52 214.097C368.085 214.538 371.348 213.436 370.99 212.283Z" fill="#3940A0"/>
<path d="M369.652 212.667C366.336 208.286 353.371 190.3 350.425 185.717C350.401 185.679 350.426 185.662 350.453 185.697C353.836 189.967 366.654 208.058 369.726 212.615C369.79 212.711 369.722 212.76 369.652 212.667Z" fill="#263238"/>
<path d="M364.334 213.075C363.531 212.048 363.289 210.652 363.504 209.623C363.71 208.633 364.22 207.546 365.166 206.912C365.193 206.894 365.229 206.942 365.205 206.966C363.644 208.477 363.254 211.168 364.39 213.034C364.413 213.072 364.362 213.111 364.334 213.075Z" fill="#263238"/>
<path d="M354.762 208.154C353.453 206.386 352.594 203.863 353.256 201.703C353.281 201.619 353.4 201.657 353.41 201.73C353.739 203.942 354.223 205.923 355.003 208.027C355.058 208.175 354.855 208.281 354.762 208.154Z" fill="#263238"/>
<path d="M356.289 209.146C354.981 207.378 354.122 204.855 354.783 202.695C354.809 202.612 354.928 202.649 354.938 202.722C355.267 204.935 355.751 206.915 356.531 209.019C356.586 209.167 356.383 209.273 356.289 209.146Z" fill="#263238"/>
<path d="M357.817 210.138C356.509 208.37 355.65 205.847 356.311 203.687C356.337 203.604 356.455 203.642 356.466 203.714C356.795 205.927 357.279 207.907 358.059 210.011C358.114 210.159 357.911 210.265 357.817 210.138Z" fill="#263238"/>
<path d="M359.345 211.129C358.036 209.362 357.177 206.839 357.839 204.679C357.864 204.595 357.983 204.632 357.993 204.705C358.322 206.918 358.806 208.898 359.586 211.003C359.641 211.151 359.438 211.256 359.345 211.129Z" fill="#263238"/>
<path d="M347.009 189.901C345.574 187.894 348.689 185.659 350.126 187.67C351.56 189.677 348.446 191.911 347.009 189.901Z" fill="#263238"/>
<path d="M353.9 211.487C354.45 209.629 354.176 207.598 354.141 205.694C354.137 205.496 353.921 205.423 353.766 205.476C353.747 205.446 353.711 205.428 353.675 205.458C352.209 206.665 350.89 208.556 350.28 210.365C349.903 211.482 349.99 213.148 351.389 213.512C352.711 213.857 353.58 212.571 353.9 211.487ZM352.482 212.634C350.414 213.854 350.645 211.028 350.955 210.216C351.154 209.693 351.421 209.186 351.689 208.697C352.252 207.671 352.95 206.746 353.609 205.787C353.569 206.724 353.61 207.655 353.605 208.591C353.598 209.708 353.623 211.961 352.482 212.634Z" fill="#263238"/>
<path d="M347.979 199.937C346.915 200.915 347.619 202.427 348.476 203.237C349.863 204.547 351.915 205.598 353.775 205.975C353.821 205.985 353.845 205.951 353.846 205.916C354.009 205.891 354.165 205.724 354.076 205.548C353.214 203.85 352.503 201.928 351.147 200.545C350.356 199.738 348.985 199.011 347.979 199.937ZM352.244 203.241C352.688 204.066 353.088 204.907 353.563 205.715C352.531 205.178 351.481 204.689 350.503 204.048C350.037 203.742 349.563 203.419 349.143 203.052C348.488 202.48 346.958 200.093 349.357 200.199C350.68 200.257 351.714 202.258 352.244 203.241Z" fill="#263238"/>
<path d="M323.14 180.189L309.429 179.825C309.429 179.825 295.27 172.545 283.644 175.017C270.315 177.852 268.181 194.455 277.924 200.604C290.269 208.395 346.119 208.434 346.119 208.434L334.596 187.647C334.596 187.647 316.14 183.245 299.294 183.364L322.954 187.234L323.14 180.189Z" fill="#37474F"/>
<path d="M335.364 188.989C335.35 188.964 335.348 188.912 335.342 188.884C335.336 188.855 335.329 188.826 335.323 188.798C335.308 188.731 335.293 188.664 335.276 188.598C335.241 188.46 335.195 188.328 335.146 188.194C335.098 188.06 335.044 187.93 334.987 187.8C334.929 187.665 334.847 187.556 334.771 187.432C334.764 187.42 334.75 187.417 334.739 187.409C334.733 187.403 334.726 187.398 334.718 187.393C334.708 187.388 334.699 187.382 334.688 187.38C334.678 187.375 334.67 187.369 334.658 187.367C332.627 186.932 318.811 184.578 316.755 184.288C314.682 183.995 312.601 183.746 310.521 183.515C306.372 183.055 302.193 182.771 298.017 182.732C297.625 182.729 297.234 182.734 296.843 182.737C296.761 182.707 296.673 182.69 296.588 182.667C296.389 182.614 296.191 182.559 295.99 182.514C295.615 182.432 295.237 182.367 294.86 182.299C294.073 182.157 293.282 182.052 292.501 181.884C292.454 181.874 292.433 181.945 292.481 181.957C293.266 182.153 294.037 182.402 294.823 182.596C295.049 182.652 295.276 182.707 295.503 182.759C293.97 182.799 292.439 182.877 290.907 182.974C290.859 182.977 290.856 183.052 290.905 183.05C292.987 182.983 295.082 183.023 297.163 183.114C299.229 183.204 301.294 183.305 303.356 183.478C307.525 183.828 311.688 184.314 315.836 184.86C318.162 185.166 332.249 187.607 334.591 187.768C334.601 187.768 334.609 187.765 334.619 187.764C334.637 187.818 334.655 187.873 334.68 187.926C334.741 188.055 334.802 188.183 334.869 188.309C334.932 188.431 334.995 188.551 335.068 188.668C335.105 188.726 335.141 188.784 335.179 188.841C335.198 188.87 335.216 188.899 335.235 188.927C335.251 188.952 335.286 188.989 335.294 189.017C335.31 189.071 335.392 189.038 335.364 188.989Z" fill="#263238"/>
<path d="M341.799 207.075C341.084 205.859 340.481 204.566 339.83 203.315C339.177 202.06 338.523 200.804 337.868 199.55C336.561 197.048 331.853 188.627 331.382 188.033C331.352 187.996 331.288 188.036 331.302 188.08C331.516 188.727 334.447 194.299 335.122 195.541C336.473 198.027 337.897 200.466 339.299 202.922C339.7 203.624 340.115 204.316 340.521 205.014C340.927 205.711 341.361 206.398 341.733 207.113C341.756 207.156 341.824 207.118 341.799 207.075Z" fill="#263238"/>
<path d="M309.107 179.587C309.62 180.13 342.203 180.876 342.367 180.671C342.813 180.11 338.605 159.416 335.2 151.508C330.834 141.367 328.382 140.455 326.919 139.851C325.049 139.078 321.647 139.261 320.826 139.603C319.894 139.986 315.849 144.525 314.636 148.196C312.201 155.568 308.66 179.11 309.107 179.587Z" fill="#3940A0"/>
<path d="M322.71 152.781C322.492 153.193 322.379 153.618 322.286 154.056C322.211 154.487 322.161 154.937 322.205 155.393C322.429 154.98 322.542 154.555 322.635 154.118C322.704 153.687 322.76 153.237 322.71 152.781ZM327.293 174.106C327.081 174.512 326.962 174.944 326.875 175.375C326.793 175.812 326.743 176.249 326.787 176.718C327.006 176.306 327.118 175.875 327.212 175.443C327.287 175 327.343 174.562 327.293 174.106ZM314.862 164.521C314.644 164.934 314.525 165.365 314.438 165.796C314.363 166.24 314.307 166.677 314.357 167.133C314.575 166.727 314.687 166.296 314.781 165.865C314.85 165.427 314.912 164.99 314.862 164.521ZM336.489 162.778C336.271 163.191 336.159 163.615 336.065 164.059C335.99 164.49 335.94 164.934 335.984 165.39C336.209 164.99 336.321 164.553 336.415 164.122C336.483 163.684 336.539 163.247 336.489 162.778ZM326.281 141.384C325.844 141.303 325.401 141.253 324.939 141.296C325.351 141.515 325.776 141.628 326.213 141.721C326.644 141.803 327.093 141.859 327.549 141.803C327.137 141.59 326.712 141.471 326.281 141.384ZM336.502 154.999C336.152 154.837 335.784 154.743 335.416 154.662C334.985 154.587 334.535 154.537 334.08 154.58C334.492 154.799 334.916 154.912 335.353 155.005C335.734 155.074 336.134 155.124 336.533 155.093C336.589 155.099 336.639 155.093 336.689 155.086C336.627 155.055 336.564 155.024 336.502 154.999ZM314.044 150.219C314.019 150.325 313.988 150.431 313.957 150.544C314.35 150.613 314.744 150.65 315.162 150.606C314.806 150.413 314.425 150.307 314.044 150.219ZM318.764 179.08C318.327 179.005 317.884 178.949 317.422 178.999C317.834 179.217 318.265 179.336 318.696 179.424C319.133 179.499 319.576 179.555 320.032 179.505C319.626 179.286 319.195 179.174 318.764 179.08ZM319.564 161.135C319.127 161.066 318.683 161.004 318.221 161.06C318.633 161.279 319.064 161.391 319.495 161.485C319.938 161.56 320.375 161.61 320.831 161.566C320.425 161.341 319.994 161.229 319.564 161.135ZM342.283 179.255C342.09 179.249 341.896 179.249 341.696 179.267C341.902 179.38 342.115 179.461 342.321 179.53C342.308 179.442 342.296 179.349 342.283 179.255ZM331.332 169.376C330.902 169.295 330.452 169.239 329.996 169.289C330.408 169.508 330.833 169.62 331.264 169.714C331.701 169.795 332.15 169.845 332.606 169.795C332.194 169.583 331.769 169.458 331.332 169.376ZM319.963 146.395C319.707 146.039 319.432 145.683 319.07 145.395C319.214 145.839 319.432 146.226 319.67 146.595C319.926 146.957 320.2 147.307 320.562 147.601C320.425 147.157 320.2 146.77 319.963 146.395ZM319.732 172.082C319.476 171.713 319.201 171.37 318.839 171.076C318.977 171.52 319.195 171.901 319.445 172.276C319.695 172.638 319.969 172.988 320.325 173.282C320.194 172.838 319.976 172.457 319.732 172.082ZM332.743 179.155C332.494 178.793 332.219 178.443 331.863 178.149C331.994 178.593 332.219 178.974 332.462 179.349C332.712 179.717 332.987 180.067 333.349 180.355C333.212 179.911 332.993 179.53 332.743 179.155ZM329.622 158.817C329.372 158.454 329.097 158.104 328.735 157.811C328.872 158.254 329.097 158.636 329.334 159.01C329.59 159.373 329.859 159.729 330.227 160.016C330.084 159.573 329.865 159.192 329.622 158.817ZM314.438 155.724C314.082 155.98 313.732 156.249 313.439 156.611C313.882 156.48 314.269 156.249 314.631 156.011C315 155.761 315.349 155.486 315.643 155.118C315.199 155.261 314.812 155.48 314.438 155.724ZM311.94 174.556C311.584 174.806 311.235 175.081 310.941 175.443C311.385 175.306 311.772 175.087 312.14 174.844C312.502 174.587 312.852 174.319 313.145 173.956C312.702 174.088 312.315 174.306 311.94 174.556ZM324.945 165.415C324.577 165.665 324.227 165.94 323.934 166.296C324.377 166.165 324.764 165.946 325.139 165.696C325.501 165.446 325.851 165.171 326.138 164.809C325.695 164.946 325.308 165.165 324.945 165.415ZM337.451 174.019C337.083 174.269 336.739 174.55 336.446 174.912C336.889 174.769 337.276 174.55 337.638 174.306C338.007 174.05 338.356 173.781 338.65 173.419C338.206 173.55 337.819 173.781 337.451 174.019ZM328.641 148.582C328.273 148.838 327.93 149.107 327.636 149.476C328.08 149.338 328.46 149.119 328.835 148.869C329.197 148.619 329.553 148.345 329.84 147.988C329.397 148.12 329.016 148.338 328.641 148.582Z" fill="white"/>
<path d="M332.318 142.596C346.368 153.164 358.517 167.828 357.35 172.471C356.117 177.38 346.404 182.875 337.828 183.995C336.071 184.224 330.637 171.334 332.436 170.741C333.838 170.28 340.212 168.466 340.975 167.591C341.505 166.983 331.612 153.055 328.393 145.784C325.026 138.174 328.556 139.767 332.318 142.596Z" fill="#EB9481"/>
<path d="M336.057 170.35C336.057 170.35 330.696 170.889 327.206 171.407C325.259 171.696 321.965 172.49 320.632 173.357C318.638 174.654 311.125 181.352 312.709 183.21C314.142 184.892 316.306 182.23 316.306 182.23C316.306 182.23 313.668 184.917 315.602 186.148C317.554 187.39 320.035 183.648 320.035 183.648C320.035 183.648 317.036 186.306 319.226 187.423C321.127 188.392 324.453 184.394 324.453 184.394C324.453 184.394 320.999 186.839 322.849 188.023C324.894 189.331 330.632 183.963 330.632 183.963C335.222 184.475 338.047 184.163 341.28 183.255C341.875 183.087 336.057 170.35 336.057 170.35Z" fill="#EB9481"/>
<path d="M319.229 184.545C319.436 184.26 319.651 183.98 319.859 183.694C320.267 183.135 320.671 182.593 321.143 182.084C321.599 181.593 322.075 181.125 322.566 180.669C323.085 180.188 323.656 179.758 324.163 179.264C324.203 179.224 324.259 179.284 324.216 179.322C323.697 179.78 323.247 180.339 322.785 180.853C322.327 181.363 321.876 181.879 321.426 182.396C320.985 182.901 320.515 183.372 320.06 183.864C319.833 184.108 319.618 184.364 319.403 184.618C319.201 184.857 319.013 185.133 318.773 185.333C318.749 185.353 318.718 185.321 318.729 185.296C318.849 185.024 319.055 184.784 319.229 184.545Z" fill="#263238"/>
<path d="M315.769 182.8C316.025 182.262 317.64 180.248 318.083 179.758C318.94 178.811 319.885 177.935 320.913 177.177C320.948 177.151 320.996 177.202 320.966 177.235C320.113 178.189 319.244 179.132 318.378 180.074C317.954 180.534 316.094 182.686 315.871 182.886C315.817 182.935 315.741 182.858 315.769 182.8Z" fill="#263238"/>
<path d="M322.439 186.27C322.709 185.769 324.239 183.895 324.667 183.45C325.07 183.032 326.938 181.511 327.547 181.164C327.585 181.142 327.633 181.191 327.6 181.221C326.702 182.053 325.792 182.867 324.934 183.742C324.517 184.168 322.949 185.962 322.515 186.335C322.476 186.368 322.415 186.314 322.439 186.27Z" fill="#263238"/>
<path d="M347.94 155.623L337.241 162.565C337.241 162.565 329.303 150.265 327.243 144.438C325.182 138.611 327.585 138.599 333.2 142.819C338.814 147.04 347.94 155.623 347.94 155.623Z" fill="#3940A0"/>
<path d="M328.978 148.375C329.028 148.469 329.072 148.563 329.122 148.662C329.384 148.463 329.628 148.25 329.84 147.988C329.528 148.081 329.247 148.213 328.978 148.375ZM341.228 156.229C340.86 156.485 340.516 156.754 340.223 157.123C340.66 156.979 341.047 156.76 341.422 156.517C341.784 156.267 342.14 155.992 342.421 155.629C341.984 155.767 341.603 155.986 341.228 156.229ZM341.097 151.099C340.847 150.743 340.566 150.387 340.21 150.1C340.348 150.543 340.566 150.931 340.803 151.299C341.066 151.662 341.34 152.012 341.696 152.305C341.565 151.862 341.34 151.474 341.097 151.099ZM335.415 154.661C334.985 154.586 334.535 154.536 334.079 154.58C334.491 154.798 334.916 154.911 335.353 155.005C335.784 155.08 336.233 155.136 336.689 155.086C336.277 154.867 335.852 154.755 335.415 154.661ZM347.109 154.855C346.953 154.848 346.797 154.855 346.635 154.867C346.91 155.011 347.184 155.111 347.471 155.186C347.372 155.086 347.247 154.973 347.109 154.855ZM326.519 141.439C326.525 141.546 326.531 141.658 326.55 141.771C326.874 141.821 327.212 141.846 327.549 141.802C327.212 141.627 326.868 141.514 326.519 141.439ZM335.597 145.395C335.378 145.807 335.259 146.232 335.172 146.669C335.097 147.1 335.041 147.544 335.091 148.006C335.309 147.594 335.422 147.169 335.515 146.732C335.59 146.294 335.64 145.851 335.597 145.395Z" fill="white"/>
<path d="M345.508 154.088C341.427 157.337 337.399 159.556 336.601 160.103C336.563 160.129 336.526 160.065 336.565 160.041C337.377 159.546 341.74 156.335 345.47 154.02C345.513 153.993 345.548 154.057 345.508 154.088Z" fill="#263238"/>
<path d="M337.927 162.09C337.855 162.101 337.376 162.37 337.277 162.428C336.087 160.374 334.806 158.293 333.597 156.249C333.005 155.248 332.411 154.247 331.82 153.245C331.207 152.203 330.647 151.113 329.977 150.105C329.957 150.075 329.917 150.1 329.93 150.132C330.343 151.13 330.879 152.087 331.39 153.042C331.281 152.896 331.177 152.746 331.059 152.605C330.795 152.291 330.536 151.976 330.298 151.642C330.261 151.59 330.175 151.639 330.212 151.691C330.439 152.01 330.643 152.34 330.845 152.676C331.048 153.012 331.268 153.331 331.494 153.652C331.711 153.961 331.948 154.254 332.187 154.547C332.217 154.582 332.246 154.619 332.274 154.655C332.601 155.252 332.919 155.853 333.259 156.444C334.449 158.51 337.15 162.674 337.187 162.662C337.331 162.614 337.904 162.195 337.961 162.148C337.989 162.124 337.957 162.085 337.927 162.09Z" fill="#263238"/>
<path d="M314.708 143.086C303.401 149.202 292.813 156.586 290.885 161.628C289.672 164.8 291.325 170.486 292.654 173.902C293.301 175.565 308.964 168.795 307.632 167.431C304.335 164.054 303.797 162.686 304.133 161.986C304.347 161.539 316.648 150.494 320.069 145.55C324.835 138.661 319.654 140.409 314.708 143.086Z" fill="#EB9481"/>
<path d="M313.841 182.812C312.365 183.673 310.553 179.852 310.553 179.852C310.553 179.852 310.519 181.032 309.705 181.822C308.773 182.726 306.947 181.66 306.947 181.66C306.947 181.66 306.666 182.847 305.722 183.595C304.743 184.37 302.748 183.558 302.748 183.558C302.748 183.558 301.878 184.52 300.6 184.581C298.414 184.685 296.511 181.936 295.283 180.2C294.055 178.465 292.196 172.392 291.725 171.271L302.785 163.288C302.785 163.288 310.504 169.501 311.658 171.747C312.63 173.638 316.096 181.496 313.841 182.812Z" fill="#EB9481"/>
<path d="M310.578 179.796C310.026 177.537 308.935 175.414 307.86 173.377C307.836 173.331 307.765 173.37 307.79 173.415C308.883 175.428 309.464 177.783 310.475 179.836C310.502 179.893 310.592 179.858 310.578 179.796Z" fill="#263238"/>
<path d="M307.067 181.52C306.926 181.012 306.62 180.553 306.353 180.104C306.067 179.621 305.771 179.143 305.469 178.669C304.863 177.721 304.237 176.787 303.582 175.873C303.554 175.832 303.484 175.866 303.512 175.911C304.114 176.857 304.702 177.811 305.263 178.781C305.544 179.267 305.821 179.755 306.095 180.245C306.349 180.7 306.58 181.202 306.931 181.593C306.983 181.65 307.088 181.596 307.067 181.52Z" fill="#263238"/>
<path d="M302.724 183.517C302.62 183.071 302.265 182.652 302.014 182.276C301.729 181.85 301.446 181.423 301.166 180.994C300.606 180.135 300.046 179.277 299.517 178.399C299.491 178.356 299.42 178.393 299.447 178.437C299.981 179.332 300.502 180.233 301.044 181.122C301.31 181.559 301.578 181.995 301.849 182.428C302.08 182.797 302.326 183.284 302.682 183.547C302.702 183.562 302.729 183.539 302.724 183.517Z" fill="#263238"/>
<path d="M298.382 152.24L306.863 160.296C306.863 160.296 317.684 150.388 320.776 145.037C323.867 139.686 321.507 139.233 315.215 142.354C308.924 145.475 298.382 152.24 298.382 152.24Z" fill="#3940A0"/>
<path d="M313.339 144.406C312.976 144.656 312.633 144.931 312.34 145.294C312.777 145.156 313.164 144.938 313.532 144.688C313.9 144.438 314.25 144.163 314.537 143.807C314.1 143.938 313.713 144.157 313.339 144.406ZM307.926 156.278C307.67 155.916 307.401 155.566 307.039 155.279C307.176 155.716 307.401 156.097 307.638 156.472C307.888 156.841 308.163 157.191 308.531 157.478C308.388 157.041 308.169 156.653 307.926 156.278ZM319.07 145.394C319.214 145.837 319.432 146.225 319.669 146.593C319.682 146.612 319.694 146.631 319.713 146.65C319.788 146.55 319.863 146.443 319.925 146.343C319.682 146.006 319.413 145.669 319.07 145.394ZM313.888 150.18C313.451 150.105 313.014 150.049 312.546 150.099C312.958 150.317 313.389 150.43 313.826 150.524C314.263 150.599 314.7 150.655 315.162 150.605C314.756 150.386 314.319 150.274 313.888 150.18ZM301.676 152.604C301.233 152.536 300.796 152.473 300.333 152.529C300.746 152.748 301.176 152.86 301.607 152.954C302.044 153.023 302.481 153.079 302.943 153.035C302.537 152.81 302.107 152.698 301.676 152.604ZM307.588 148.774C307.37 149.186 307.257 149.611 307.164 150.049C307.089 150.48 307.033 150.93 307.083 151.386C307.301 150.973 307.414 150.549 307.507 150.111C307.582 149.68 307.632 149.23 307.588 148.774Z" fill="white"/>
<path d="M308.565 158.127C304.655 154.912 301.759 151.552 301.08 150.905C301.048 150.874 301.103 150.827 301.134 150.86C301.764 151.528 305.688 155.015 308.624 158.077C308.658 158.112 308.603 158.158 308.565 158.127Z" fill="#263238"/>
<path d="M314.99 148.515C314.583 149.416 314.18 150.317 313.844 151.246C313.848 151.184 313.851 151.122 313.855 151.06C313.891 150.49 313.967 149.932 314.085 149.374C314.098 149.312 314.002 149.286 313.989 149.348C313.871 149.907 313.767 150.473 313.686 151.038C313.648 151.31 313.627 151.584 313.611 151.858C313.609 151.886 313.604 151.922 313.601 151.956C313.597 151.968 313.593 151.979 313.589 151.991C313.206 153.225 312.968 154.487 312.641 155.734C312.624 155.796 312.72 155.821 312.736 155.76C313.058 154.538 313.528 153.352 313.939 152.157C314.349 150.964 314.676 149.745 315.068 148.547C315.081 148.503 315.009 148.471 314.99 148.515Z" fill="#263238"/>
<path d="M321.944 145.31C323.811 145.67 326.867 142.711 328.025 140.367C328.104 140.206 327.794 138.56 327.513 136.542C327.347 135.316 327.191 133.948 327.138 132.69C327.129 132.431 319.33 134.936 319.33 134.936C319.33 134.936 320.215 137.542 320.292 139.737C320.297 139.921 320.286 140.092 320.26 140.256C320.258 140.279 320.252 140.309 320.252 140.342C320.132 141.33 320.139 144.96 321.944 145.31Z" fill="#EB9481"/>
<path d="M326.654 132.742C326.377 134.885 325.267 140.082 321.063 140.353C320.77 140.372 320.5 140.368 320.253 140.343C320.25 140.308 320.257 140.281 320.26 140.256C320.283 140.091 320.297 139.921 320.294 139.738C320.215 137.54 319.328 134.933 319.328 134.933C319.328 134.933 324.955 133.127 326.654 132.742Z" fill="#263238"/>
<path d="M325.912 122.301C327.416 124.813 327.934 133.024 326.437 135.257C324.266 138.493 319.74 139.877 316.747 137.043C313.847 134.297 313.362 123.583 315.125 121.455C317.721 118.319 323.689 118.589 325.912 122.301Z" fill="#EB9481"/>
<path d="M320.015 129.933C320.018 129.912 320.06 129.956 320.061 129.98C320.081 130.534 320.197 131.165 320.709 131.314C320.725 131.319 320.726 131.347 320.707 131.345C320.091 131.301 319.945 130.462 320.015 129.933Z" fill="#263238"/>
<path d="M320.469 129.322C321.353 129.194 321.544 130.973 320.724 131.092C319.919 131.208 319.728 129.429 320.469 129.322Z" fill="#263238"/>
<path d="M316.935 130.28C316.929 130.26 316.894 130.311 316.897 130.333C316.974 130.883 316.969 131.524 316.491 131.76C316.476 131.768 316.48 131.795 316.498 131.791C317.098 131.64 317.095 130.788 316.935 130.28Z" fill="#263238"/>
<path d="M316.382 129.757C315.489 129.785 315.61 131.57 316.437 131.544C317.251 131.519 317.13 129.734 316.382 129.757Z" fill="#263238"/>
<path d="M321.138 127.827C320.887 127.837 320.654 127.804 320.405 127.787C320.124 127.768 319.898 127.782 319.665 127.603C319.54 127.507 319.513 127.276 319.595 127.146C319.786 126.843 320.136 126.78 320.475 126.789C320.844 126.798 321.125 126.899 321.404 127.139C321.675 127.371 321.469 127.815 321.138 127.827Z" fill="#263238"/>
<path d="M315.427 128.547C315.669 128.48 315.881 128.378 316.114 128.288C316.376 128.185 316.596 128.131 316.764 127.89C316.853 127.76 316.81 127.533 316.692 127.433C316.42 127.202 316.067 127.247 315.746 127.357C315.398 127.477 315.16 127.658 314.965 127.971C314.778 128.273 315.108 128.634 315.427 128.547Z" fill="#263238"/>
<path d="M321.483 134.954C321.365 135.097 321.253 135.289 321.055 135.327C320.865 135.364 320.631 135.302 320.448 135.252C320.43 135.247 320.414 135.268 320.427 135.283C320.593 135.479 320.908 135.579 321.158 135.507C321.403 135.437 321.503 135.208 321.539 134.974C321.544 134.941 321.5 134.933 321.483 134.954Z" fill="#263238"/>
<path d="M320.728 133.367C320.471 133.878 320.046 134.189 319.566 134.336C319.351 134.404 319.122 134.436 318.894 134.439C318.85 134.443 318.805 134.443 318.764 134.439C318.723 134.438 318.687 134.438 318.642 134.433C318.576 134.431 318.535 134.381 318.518 134.322V134.318C318.516 134.298 318.515 134.282 318.517 134.261C318.517 134.261 318.517 134.261 318.517 134.257L318.512 134.209C318.456 133.786 318.427 133.136 318.427 133.136C318.281 133.23 317.529 133.671 317.518 133.448C317.43 131.601 317.334 129.548 317.636 127.692C317.643 127.63 317.737 127.634 317.738 127.695C317.892 129.466 317.734 131.253 317.86 133.035C318.102 132.912 318.494 132.69 318.716 132.671C318.778 132.682 318.748 133.927 318.788 134.115C318.788 134.115 318.789 134.123 318.794 134.135C319.516 134.149 320.029 133.876 320.67 133.324C320.708 133.287 320.756 133.32 320.728 133.367Z" fill="#263238"/>
<path d="M319.122 134.197C319.122 134.197 319.552 134.665 320.086 134.793C320.283 134.841 320.49 134.845 320.698 134.765C321.125 134.602 321.093 134.197 320.975 133.861C320.879 133.583 320.722 133.353 320.722 133.353C320.722 133.353 320.144 134.023 319.122 134.197Z" fill="#263238"/>
<path d="M320.086 134.793C320.283 134.841 320.49 134.845 320.698 134.765C321.125 134.602 321.093 134.197 320.975 133.86C320.509 133.96 320.077 134.33 320.086 134.793Z" fill="#FF98B9"/>
<path d="M327.28 129.223C325.249 129.675 324.022 126.077 324.022 126.077C324.022 126.077 320.409 126.294 319.309 123.782C319.309 123.782 316.479 126.643 313.665 126.287C310.851 125.931 310.733 122.865 310.879 122.17C311.025 121.475 312.731 122.318 312.731 122.318C312.731 122.318 312.519 120.616 312.926 120.345C313.332 120.075 314.043 120.974 314.043 120.974C314.043 120.974 317.139 119.091 320.199 118.491C323.259 117.89 325.456 120.616 325.456 120.616C325.456 120.616 327.159 120.594 327.943 121.615C328.727 122.635 328.574 128.935 327.28 129.223Z" fill="#263238"/>
<path d="M319.237 123.269C319.375 123.807 319.593 124.318 319.906 124.755C320.226 125.186 320.645 125.532 321.135 125.734C321.629 125.93 322.167 125.989 322.71 125.992C322.981 125.983 323.253 125.949 323.527 125.924C323.798 125.878 324.067 125.823 324.345 125.783C324.085 125.881 323.819 125.963 323.553 126.053C323.279 126.106 323.002 126.165 322.722 126.198C322.158 126.246 321.576 126.193 321.032 125.982C320.497 125.756 320.035 125.359 319.735 124.87C319.438 124.38 319.266 123.825 319.237 123.269Z" fill="#263238"/>
<path d="M325.569 121.027C325.171 120.217 324.591 119.498 323.857 119.008C323.128 118.512 322.247 118.274 321.371 118.317C321.152 118.337 320.929 118.316 320.713 118.366L320.063 118.5C319.634 118.61 319.22 118.783 318.801 118.933C318.401 119.133 317.986 119.308 317.595 119.528C317.206 119.754 316.822 119.989 316.425 120.21C316.786 119.939 317.158 119.68 317.527 119.414C317.908 119.168 318.319 118.969 318.715 118.744C319.547 118.381 320.429 118.059 321.363 118.047C322.285 118.024 323.234 118.279 323.976 118.84C324.722 119.39 325.272 120.172 325.569 121.027Z" fill="#263238"/>
<path d="M325.825 129.119C325.825 129.119 327.028 126.161 328.33 126.534C329.631 126.908 329.131 130.912 327.888 131.727C326.644 132.543 325.868 131.406 325.868 131.406L325.825 129.119Z" fill="#EB9481"/>
<path d="M328.158 127.679C328.179 127.672 328.191 127.701 328.174 127.714C327.309 128.317 327.009 129.315 326.866 130.311C327.069 129.894 327.411 129.613 327.96 129.843C327.988 129.854 327.973 129.899 327.945 129.899C327.536 129.904 327.27 130.036 327.077 130.409C326.941 130.673 326.877 130.982 326.801 131.268C326.776 131.364 326.612 131.353 326.622 131.248C326.623 131.24 326.624 131.232 326.625 131.224C326.324 130.014 326.882 128.098 328.158 127.679Z" fill="#263238"/>
<path d="M329.023 140.874C328.212 141.99 327.442 143.126 326.512 144.142C325.641 145.094 324.577 145.973 323.301 146.205C322.066 146.428 320.799 146.283 320.205 144.799C319.734 143.621 319.686 142.371 319.763 140.804C319.766 140.733 319.673 140.725 319.669 140.798C319.561 142.818 319.535 145.935 321.408 146.465C323.502 147.059 325.398 145.839 326.701 144.313C327.582 143.28 328.425 142.118 329.062 140.902C329.075 140.877 329.039 140.852 329.023 140.874Z" fill="#263238"/>
<path d="M332.782 187.087H296.818V188.701H332.782V187.087Z" fill="#C7C7C7"/>
<path d="M325.087 187.087L326.318 188.701H296.818V187.087H325.087Z" fill="#A6A6A6"/>
<path d="M323.548 188.7H288.499L285.582 164.877H320.631L323.548 188.7Z" fill="#C7C7C7"/>
<path d="M306.699 176.788C306.719 177.967 305.781 178.923 304.603 178.923C303.425 178.923 302.453 177.967 302.432 176.788C302.411 175.609 303.35 174.653 304.528 174.653C305.706 174.653 306.677 175.609 306.699 176.788Z" fill="white"/>
</g>
<defs>
<clipPath id="clip0_4_1174">
<rect width="389" height="230" fill="white" transform="translate(0 0.365234)"/>
</clipPath>
</defs>
</svg>
