<svg width="271" height="231" viewBox="0 0 271 231" fill="none" xmlns="http://www.w3.org/2000/svg">
<path d="M248.367 132.832H167.775V14.4375H248.367V132.832ZM169.943 130.662H246.199V16.6073H169.943V130.662Z" fill="#EBEBEB"/>
<path d="M209.123 17.1738H206.955V131.746H209.123V17.1738Z" fill="#EBEBEB"/>
<path d="M250.332 18.8232H165.81V21.8447H250.332V18.8232Z" fill="#EBEBEB"/>
<path d="M250.332 22.2227H165.81V25.2441H250.332V22.2227Z" fill="#EBEBEB"/>
<path d="M250.332 25.6221H165.81V28.6435H250.332V25.6221Z" fill="#EBEBEB"/>
<path d="M250.332 29.0205H165.81V32.042H250.332V29.0205Z" fill="#EBEBEB"/>
<path d="M250.332 32.4199H165.81V35.4414H250.332V32.4199Z" fill="#EBEBEB"/>
<path d="M250.332 35.8193H165.81V38.8408H250.332V35.8193Z" fill="#EBEBEB"/>
<path d="M250.332 39.2188H165.81V42.2402H250.332V39.2188Z" fill="#EBEBEB"/>
<path d="M250.332 42.6182H165.81V45.6396H250.332V42.6182Z" fill="#EBEBEB"/>
<path d="M250.332 46.0166H165.81V49.0381H250.332V46.0166Z" fill="#EBEBEB"/>
<path d="M243.893 18.2109H243.351V87.8548H243.893V18.2109Z" fill="#263238"/>
<path d="M244.586 90.3817H242.661L243.144 87.6152H244.103L244.586 90.3817Z" fill="#263238"/>
<path d="M245.847 18.2109H245.305V113.537H245.847V18.2109Z" fill="#263238"/>
<path d="M246.538 115.571H244.614L245.096 112.805H246.055L246.538 115.571Z" fill="#263238"/>
<path d="M253.697 14.0137H162.445V20.3349H253.697V14.0137Z" fill="#DBDBDB"/>
<path d="M35.7668 76.063C35.7668 75.6095 35.827 74.4004 35.827 73.8861C35.827 71.6789 35.0416 70.6808 32.9874 70.6206C32.0205 70.5603 31.4465 69.9859 31.4465 69.1695C31.4465 68.3526 32.0205 67.7786 32.9874 67.7179C35.0416 67.6273 35.827 66.6596 35.827 64.4219C35.827 63.9082 35.7668 62.6986 35.7668 62.2451C35.7668 59.312 37.0053 57.4373 41.6882 56.4094C42.6247 56.1973 43.3494 56.7723 43.3494 57.6489C43.3494 58.3747 42.8659 58.768 42.5033 58.8884C39.5733 59.7954 39.1494 60.7327 39.1494 62.7886C39.1494 63.3935 39.2101 64.391 39.2101 65.0262C39.2101 67.3848 38.0622 68.5337 36.0676 69.1689C38.092 69.834 39.2101 70.9525 39.2101 73.3111C39.2101 73.9463 39.1494 74.9439 39.1494 75.5487C39.1494 77.6046 39.5727 78.5425 42.5033 79.4495C42.8659 79.5705 43.3494 79.9632 43.3494 80.689C43.3494 81.5662 42.6242 82.1406 41.6882 81.9291C37.0053 80.9011 35.7668 79.0264 35.7668 76.063Z" fill="#EBEBEB"/>
<path d="M53.4703 62.2451C53.4703 62.6986 53.4101 63.9077 53.4101 64.4219C53.4101 66.6596 54.2258 67.6273 56.2805 67.7179C57.2171 67.7781 57.7911 68.3526 57.7911 69.1695C57.7911 69.9859 57.2166 70.5603 56.2805 70.6206C54.2258 70.6808 53.4101 71.6789 53.4101 73.8861C53.4101 74.3998 53.4703 75.6095 53.4703 76.063C53.4703 79.0264 52.2318 80.9011 47.5489 81.9291C46.6123 82.1406 45.8877 81.5662 45.8877 80.689C45.8877 79.9632 46.3712 79.5699 46.7636 79.4495C49.6644 78.5425 50.0871 77.6052 50.0871 75.5487C50.0871 74.9439 50.0269 73.9463 50.0269 73.3111C50.0269 70.9525 51.1749 69.8036 53.1689 69.1689C51.1446 68.5034 50.0269 67.3848 50.0269 65.0262C50.0269 64.391 50.0871 63.3935 50.0871 62.7886C50.0871 60.7327 49.6644 59.7948 46.7636 58.8884C46.3706 58.7674 45.8877 58.3747 45.8877 57.6489C45.8877 56.7723 46.6129 56.1973 47.5489 56.4094C52.2318 57.4373 53.4703 59.312 53.4703 62.2451Z" fill="#EBEBEB"/>
<path d="M115.765 33.8598C116.467 34.5916 116.467 35.6889 115.765 36.393C115.399 36.7304 114.977 36.8997 114.528 36.8997C114.05 36.8997 113.599 36.731 113.234 36.393L105.332 28.3718C105.247 28.3436 105.22 28.2872 105.191 28.2031C105.163 28.1749 105.107 28.1467 105.107 28.1467C105.051 28.062 105.051 28.0062 105.022 27.9216C104.966 27.8934 104.937 27.8369 104.937 27.8087C104.91 27.7523 104.91 27.6677 104.882 27.64C104.882 27.5554 104.825 27.5272 104.825 27.499C104.825 27.4144 104.825 27.3585 104.825 27.3021C104.825 27.2457 104.798 27.2175 104.798 27.1328C104.798 27.1052 104.825 27.0205 104.825 26.9923C104.825 26.9359 104.825 26.8518 104.825 26.7954C104.825 26.739 104.882 26.7108 104.882 26.6826C104.909 26.598 104.909 26.5421 104.937 26.4575C104.937 26.4293 104.966 26.4293 104.966 26.4011C105.022 26.3164 105.051 26.2042 105.106 26.1477C105.106 26.1477 105.106 26.0913 105.162 26.0913C105.19 26.0349 105.247 25.9508 105.331 25.8944L113.233 17.8737C113.935 17.1983 115.088 17.1983 115.763 17.8737C116.466 18.5773 116.466 19.7034 115.763 20.4064L109.098 27.1328L115.765 33.8598Z" fill="#EBEBEB"/>
<path d="M122.935 34.7602L129.824 18.3521C130.163 17.5645 131.062 17.1983 131.878 17.5357C132.637 17.8455 133.002 18.7741 132.665 19.5341L125.776 35.9704C125.523 36.5612 124.932 36.8991 124.341 36.8991C124.173 36.8991 123.948 36.8714 123.78 36.7868C122.963 36.4765 122.597 35.5484 122.935 34.7602Z" fill="#EBEBEB"/>
<path d="M146.274 28.1457C146.274 28.1457 146.274 28.1739 146.247 28.1739C146.19 28.2298 146.134 28.3144 146.05 28.3708L138.148 36.3921C137.811 36.7295 137.332 36.8987 136.883 36.8987C136.405 36.8987 135.983 36.73 135.617 36.3921C134.915 35.688 134.915 34.5911 135.617 33.8588L142.282 27.1319L135.617 20.4054C134.915 19.7019 134.915 18.5757 135.617 17.8727C136.292 17.1974 137.446 17.1974 138.148 17.8727L146.05 25.8934C146.134 25.9498 146.19 26.0345 146.247 26.0903C146.274 26.0903 146.274 26.1468 146.274 26.1468C146.331 26.2596 146.387 26.316 146.415 26.4001C146.415 26.4278 146.444 26.4277 146.444 26.4565C146.472 26.5411 146.472 26.597 146.528 26.7098C146.528 26.738 146.556 26.738 146.556 26.7944C146.556 26.8509 146.556 26.9355 146.556 26.9914C146.556 27.0196 146.584 27.1042 146.584 27.1319C146.584 27.1601 146.556 27.2447 146.556 27.2729C146.556 27.3575 146.556 27.4134 146.556 27.498C146.556 27.5262 146.528 27.5262 146.528 27.5544C146.472 27.6667 146.472 27.7513 146.444 27.8077C146.444 27.836 146.415 27.836 146.415 27.8924C146.387 27.9488 146.331 28.0334 146.274 28.1457Z" fill="#EBEBEB"/>
<path d="M135.5 223.167C195.829 223.167 244.735 219.266 244.735 214.453C244.735 209.641 195.829 205.739 135.5 205.739C75.1714 205.739 26.2654 209.641 26.2654 214.453C26.2654 219.266 75.1714 223.167 135.5 223.167Z" fill="#EBEBEB"/>
<path d="M238.502 203.91H172.854L185.944 127.706H235.033L238.502 203.91Z" fill="#DBDBDB"/>
<path d="M238.502 203.91H232.745L229.515 127.706H235.033L238.502 203.91Z" fill="#A6A6A6"/>
<path d="M22.0818 203.911L50.4365 203.779L78.7907 203.731L135.5 203.641L192.21 203.731L220.564 203.778L248.919 203.911L220.564 204.044L192.21 204.091L135.5 204.181L78.7907 204.091L50.4365 204.043L22.0818 203.911Z" fill="#263238"/>
<path d="M83.7041 14.0137H29.8396V48.4025H83.7041V14.0137Z" fill="white"/>
<path d="M84.0445 48.7435H29.4993V13.6729H84.0445V48.7435ZM30.18 48.0622H83.3638V14.3547H30.18V48.0622Z" fill="#EBEBEB"/>
<path d="M83.7041 14.0137H29.8396V20.5171H83.7041V14.0137Z" fill="#3940A0"/>
<path d="M84.0445 20.8582H29.4993V13.6729H84.0445V20.8582ZM30.18 20.1763H83.3638V14.3547H30.18V20.1763Z" fill="#EBEBEB"/>
<path d="M35.9394 17.3124C35.9394 18.2161 35.2071 18.9489 34.3042 18.9489C33.4006 18.9489 32.6689 18.2161 32.6689 17.3124C32.6689 16.4086 33.4012 15.6758 34.3042 15.6758C35.2077 15.6758 35.9394 16.4086 35.9394 17.3124Z" fill="#A6A6A6"/>
<path d="M42.6178 17.3124C42.6178 18.2161 41.8856 18.9489 40.9826 18.9489C40.0797 18.9489 39.3474 18.2161 39.3474 17.3124C39.3474 16.4086 40.0797 15.6758 40.9826 15.6758C41.8856 15.6758 42.6178 16.4086 42.6178 17.3124Z" fill="#EBEBEB"/>
<path d="M49.2958 17.3124C49.2958 18.2161 48.5636 18.9489 47.6606 18.9489C46.7576 18.9489 46.0254 18.2161 46.0254 17.3124C46.0254 16.4086 46.7576 15.6758 47.6606 15.6758C48.5636 15.6758 49.2958 16.4086 49.2958 17.3124Z" fill="white"/>
<path d="M39.136 33.3757C39.1539 29.7896 42.1587 26.8734 45.7777 26.8555C47.3706 26.8555 48.8183 27.3806 49.9586 28.268C50.3928 28.6304 50.4654 29.264 50.1397 29.7169C49.7782 30.1699 49.1082 30.2425 48.692 29.916C47.8952 29.264 46.9001 28.92 45.7777 28.92C44.5289 28.92 43.3706 29.4272 42.5202 30.2241C41.7056 31.0573 41.1988 32.1444 41.1988 33.3757C41.1988 34.6077 41.7056 35.7305 42.5202 36.5279C43.3706 37.3248 44.5289 37.832 45.7777 37.832C46.9001 37.832 47.8774 37.4881 48.692 36.8361C49.1082 36.5285 49.7776 36.6006 50.1397 37.0351C50.4654 37.4881 50.3928 38.1401 49.9586 38.484C48.8183 39.3715 47.3706 39.8966 45.7777 39.8966C42.1587 39.8966 39.1544 36.9809 39.136 33.3757Z" fill="#EBEBEB"/>
<path d="M53.2524 36.7449C53.5781 36.3462 54.1754 36.292 54.5738 36.618C55.37 37.27 56.7456 38.0305 58.0301 38.0126C58.9352 38.0126 59.7493 37.7414 60.2929 37.3427C60.8355 36.9445 61.0707 36.4916 61.0707 36.0387C61.0707 35.8032 61.0171 35.6399 60.9081 35.4593C60.7997 35.2781 60.6366 35.097 60.3656 34.9158C59.8404 34.5713 58.9542 34.2637 57.8859 34.0641H57.8496C56.9992 33.9008 56.2025 33.6839 55.5152 33.3579C54.828 33.0318 54.2301 32.5789 53.8323 31.9453C53.5602 31.5103 53.4161 31.0036 53.4161 30.4601C53.4161 29.3735 54.0312 28.4313 54.8637 27.8156C55.7141 27.1999 56.8187 26.8555 57.9949 26.8555C59.7325 26.8555 61.0176 27.7071 61.9406 28.3044C62.3569 28.594 62.4832 29.1739 62.1937 29.5905C61.9217 30.0256 61.3428 30.152 60.9087 29.8623C59.9856 29.2466 59.0989 28.7031 57.9949 28.7031C57.1802 28.7031 56.4561 28.9564 55.9678 29.3187C55.48 29.6811 55.2805 30.0798 55.2805 30.4601C55.2805 30.6776 55.3168 30.8224 55.4074 30.9673C55.4979 31.1126 55.6605 31.2754 55.8962 31.4387C56.3662 31.7647 57.1808 32.0543 58.158 32.2355H58.1938C59.1174 32.4167 59.9677 32.6521 60.6919 32.996C61.4339 33.3584 62.0848 33.8292 62.5011 34.4997C62.7731 34.9342 62.9357 35.4778 62.9357 36.0392C62.9357 37.1984 62.2843 38.1949 61.3791 38.8469C60.4919 39.499 59.3157 39.8792 58.0306 39.8792C56.0767 39.8608 54.4296 38.8833 53.3976 38.068C52.9987 37.7414 52.9445 37.1436 53.2524 36.7449Z" fill="#EBEBEB"/>
<path d="M65.1423 36.7449C65.468 36.3462 66.0653 36.292 66.4637 36.618C67.2593 37.27 68.6355 38.0305 69.92 38.0126C70.8252 38.0126 71.6392 37.7414 72.1829 37.3427C72.7254 36.9445 72.9606 36.4916 72.9606 36.0387C72.9606 35.8032 72.907 35.6399 72.798 35.4593C72.6896 35.2781 72.5265 35.097 72.2555 34.9158C71.7303 34.5713 70.8441 34.2637 69.7758 34.0641H69.739C68.8886 33.9008 68.0918 33.6839 67.4046 33.3579C66.7168 33.0318 66.1195 32.5789 65.7217 31.9453C65.4496 31.5103 65.3054 31.0036 65.3054 30.4601C65.3054 29.3735 65.9206 28.4313 66.7531 27.8156C67.6035 27.1999 68.7081 26.8555 69.8842 26.8555C71.6214 26.8555 72.907 27.7071 73.83 28.3044C74.2463 28.594 74.3725 29.1739 74.0831 29.5905C73.811 30.0256 73.2322 30.152 72.798 29.8623C71.875 29.2466 70.9883 28.7031 69.8842 28.7031C69.0696 28.7031 68.3455 28.9564 67.8572 29.3187C67.3694 29.6811 67.1699 30.0798 67.1699 30.4601C67.1699 30.6776 67.2068 30.8224 67.2967 30.9673C67.3873 31.1126 67.5499 31.2754 67.7856 31.4387C68.2555 31.7647 69.0702 32.0543 70.0474 32.2355H70.0832C71.0067 32.4167 71.8571 32.6521 72.5812 32.996C73.3232 33.3584 73.9742 33.8292 74.3904 34.4997C74.6625 34.9342 74.8251 35.4778 74.8251 36.0392C74.8251 37.1984 74.1736 38.1949 73.2685 38.8469C72.3812 39.499 71.2051 39.8792 69.92 39.8792C67.9661 39.8608 66.319 38.8833 65.287 38.068C64.8886 37.7414 64.8339 37.1436 65.1423 36.7449Z" fill="#EBEBEB"/>
<path d="M172.672 112.406H118.808V146.795H172.672V112.406Z" fill="white"/>
<path d="M173.012 147.136H118.468V112.065H173.012V147.136ZM119.148 146.454H172.331V112.747H119.148V146.454Z" fill="#EBEBEB"/>
<path d="M172.672 112.405H118.808V118.909H172.672V112.405Z" fill="#3940A0"/>
<path d="M173.012 119.249H118.468V112.064H173.012V119.249ZM119.148 118.568H172.331V112.746H119.148V118.568Z" fill="#EBEBEB"/>
<path d="M124.908 115.704C124.908 116.608 124.175 117.341 123.272 117.341C122.368 117.341 121.637 116.608 121.637 115.704C121.637 114.8 122.369 114.067 123.272 114.067C124.175 114.067 124.908 114.8 124.908 115.704Z" fill="#A6A6A6"/>
<path d="M131.586 115.704C131.586 116.608 130.853 117.341 129.95 117.341C129.047 117.341 128.315 116.608 128.315 115.704C128.315 114.8 129.047 114.067 129.95 114.067C130.853 114.067 131.586 114.8 131.586 115.704Z" fill="#EBEBEB"/>
<path d="M138.264 115.704C138.264 116.608 137.531 117.341 136.628 117.341C135.725 117.341 134.992 116.608 134.992 115.704C134.992 114.8 135.724 114.067 136.628 114.067C137.531 114.067 138.264 114.8 138.264 115.704Z" fill="white"/>
<path d="M128.865 131.768C128.883 128.182 131.887 125.266 135.506 125.248C137.099 125.248 138.547 125.774 139.687 126.661C140.122 127.023 140.194 127.657 139.868 128.109C139.506 128.562 138.836 128.635 138.42 128.309C137.625 127.657 136.629 127.312 135.506 127.312C134.258 127.312 133.099 127.819 132.249 128.616C131.434 129.449 130.928 130.536 130.928 131.768C130.928 133 131.434 134.123 132.249 134.92C133.099 135.717 134.258 136.224 135.506 136.224C136.629 136.224 137.606 135.88 138.42 135.228C138.836 134.92 139.506 134.992 139.868 135.427C140.194 135.88 140.122 136.532 139.687 136.876C138.547 137.763 137.099 138.288 135.506 138.288C131.886 138.289 128.883 135.373 128.865 131.768Z" fill="#EBEBEB"/>
<path d="M146.22 132.91H143.65C143.107 132.91 142.655 132.475 142.655 131.914C142.655 131.37 143.107 130.918 143.65 130.918H146.22V128.4C146.22 127.821 146.672 127.368 147.251 127.368C147.812 127.368 148.283 127.821 148.283 128.4V130.918H150.853C151.396 130.918 151.848 131.371 151.848 131.914C151.848 132.475 151.396 132.91 150.853 132.91H148.283V135.428C148.283 136.007 147.813 136.46 147.251 136.46C146.672 136.46 146.22 136.007 146.22 135.428V132.91Z" fill="#EBEBEB"/>
<path d="M157.439 132.91H154.87C154.327 132.91 153.875 132.475 153.875 131.914C153.875 131.37 154.327 130.918 154.87 130.918H157.439V128.4C157.439 127.821 157.892 127.368 158.471 127.368C159.032 127.368 159.503 127.821 159.503 128.4V130.918H162.073C162.615 130.918 163.068 131.371 163.068 131.914C163.068 132.475 162.615 132.91 162.073 132.91H159.503V135.428C159.503 136.007 159.032 136.46 158.471 136.46C157.892 136.46 157.439 136.007 157.439 135.428V132.91Z" fill="#EBEBEB"/>
<path d="M147.548 46.3301H57.7173V120.165H147.548V46.3301Z" fill="white"/>
<path d="M147.888 120.506H57.377V45.9893H147.888V120.506ZM58.0577 119.824H147.207V46.6711H58.0577V119.824Z" fill="#EBEBEB"/>
<path d="M147.548 46.3301H57.7173V52.8335H147.548V46.3301Z" fill="#3940A0"/>
<path d="M147.888 53.174H57.377V45.9893H147.888V53.174ZM58.0577 52.4927H147.207V46.6711H58.0577V52.4927Z" fill="#EBEBEB"/>
<path d="M63.8171 49.6288C63.8171 50.533 63.0849 51.2653 62.1814 51.2653C61.2784 51.2653 60.5461 50.5325 60.5461 49.6288C60.5461 48.725 61.2784 47.9922 62.1814 47.9922C63.0849 47.9916 63.8171 48.7245 63.8171 49.6288Z" fill="#A6A6A6"/>
<path d="M70.495 49.6288C70.495 50.533 69.7628 51.2653 68.8598 51.2653C67.9569 51.2653 67.2246 50.5325 67.2246 49.6288C67.2246 48.725 67.9569 47.9922 68.8598 47.9922C69.7628 47.9916 70.495 48.7245 70.495 49.6288Z" fill="#EBEBEB"/>
<path d="M77.1731 49.6288C77.1731 50.533 76.4408 51.2653 75.5373 51.2653C74.6343 51.2653 73.9021 50.5325 73.9021 49.6288C73.9021 48.725 74.6343 47.9922 75.5373 47.9922C76.4408 47.9916 77.1731 48.7245 77.1731 49.6288Z" fill="white"/>
<path d="M68.1622 65.7705H64.688V67.0404H68.1622V65.7705Z" fill="#EBEBEB"/>
<path d="M110.544 65.7705H70.6938V67.0404H110.544V65.7705Z" fill="#EBEBEB"/>
<path d="M119.278 65.7705H112.679V67.0404H119.278V65.7705Z" fill="#3940A0"/>
<path d="M134.371 82.7656H127.772V84.0355H134.371V82.7656Z" fill="#EBEBEB"/>
<path d="M132.12 65.7705H120.713V67.0404H132.12V65.7705Z" fill="#A6A6A6"/>
<path d="M71.6363 69.1699H68.1621V70.4398H71.6363V69.1699Z" fill="#EBEBEB"/>
<path d="M100.233 69.1699H74.0808V70.4398H100.233V69.1699Z" fill="#A6A6A6"/>
<path d="M126.206 82.7656H110.893V84.0355H126.206V82.7656Z" fill="#A6A6A6"/>
<path d="M95.6735 79.3662H70.6938V80.6361H95.6735V79.3662Z" fill="#A6A6A6"/>
<path d="M91.6048 72.5684H74.0808V73.8382H91.6048V72.5684Z" fill="#3940A0"/>
<path d="M123.776 75.9678H117.092V77.2377H123.776V75.9678Z" fill="#A6A6A6"/>
<path d="M121.534 72.5684H93.5496V73.8382H121.534V72.5684Z" fill="#A6A6A6"/>
<path d="M104.098 82.7656H70.6938V84.0355H104.098V82.7656Z" fill="#3940A0"/>
<path d="M138.08 69.1699H119.977V70.4398H138.08V69.1699Z" fill="#3940A0"/>
<path d="M118.542 69.1699H101.875V70.4398H118.542V69.1699Z" fill="#EBEBEB"/>
<path d="M134.096 72.5684H122.849V73.8382H134.096V72.5684Z" fill="#EBEBEB"/>
<path d="M71.6363 72.5684H68.1621V73.8382H71.6363V72.5684Z" fill="#EBEBEB"/>
<path d="M68.1622 75.9678H64.688V77.2377H68.1622V75.9678Z" fill="#A6A6A6"/>
<path d="M91.2259 75.9678H70.6938V77.2377H91.2259V75.9678Z" fill="#EBEBEB"/>
<path d="M94.6129 86.165H74.0808V87.4349H94.6129V86.165Z" fill="#EBEBEB"/>
<path d="M127.975 89.5635H112.365V90.8334H127.975V89.5635Z" fill="#3940A0"/>
<path d="M116.869 86.165H96.2795V87.4349H116.869V86.165Z" fill="#3940A0"/>
<path d="M110.571 89.5635H92.6482V90.8334H110.571V89.5635Z" fill="#EBEBEB"/>
<path d="M80.0255 89.5635H74.0808V90.8334H80.0255V89.5635Z" fill="#A6A6A6"/>
<path d="M119.278 79.3662H97.0872V80.6361H119.278V79.3662Z" fill="#EBEBEB"/>
<path d="M134.833 79.3662H120.713V80.6361H134.833V79.3662Z" fill="#3940A0"/>
<path d="M115.477 75.9678H93.3132V77.2377H115.477V75.9678Z" fill="#3940A0"/>
<path d="M68.1622 79.3662H64.688V80.6361H68.1622V79.3662Z" fill="#EBEBEB"/>
<path d="M68.1622 82.7656H64.688V84.0355H68.1622V82.7656Z" fill="#EBEBEB"/>
<path d="M71.6363 86.165H68.1621V87.4349H71.6363V86.165Z" fill="#A6A6A6"/>
<path d="M71.6363 89.5635H68.1621V90.8334H71.6363V89.5635Z" fill="#EBEBEB"/>
<path d="M68.1622 92.4102H64.688V93.68H68.1622V92.4102Z" fill="#EBEBEB"/>
<path d="M110.544 92.4102H70.6938V93.68H110.544V92.4102Z" fill="#EBEBEB"/>
<path d="M71.6363 95.8096H68.1621V97.0794H71.6363V95.8096Z" fill="#EBEBEB"/>
<path d="M100.233 95.8096H74.0808V97.0794H100.233V95.8096Z" fill="#A6A6A6"/>
<path d="M95.6735 106.007H70.6938V107.277H95.6735V106.007Z" fill="#A6A6A6"/>
<path d="M91.6048 99.209H74.0808V100.479H91.6048V99.209Z" fill="#3940A0"/>
<path d="M121.534 99.209H93.5496V100.479H121.534V99.209Z" fill="#A6A6A6"/>
<path d="M104.098 109.406H70.6938V110.676H104.098V109.406Z" fill="#3940A0"/>
<path d="M138.08 95.8096H119.977V97.0794H138.08V95.8096Z" fill="#3940A0"/>
<path d="M118.542 95.8096H101.875V97.0794H118.542V95.8096Z" fill="#EBEBEB"/>
<path d="M134.096 99.209H122.849V100.479H134.096V99.209Z" fill="#EBEBEB"/>
<path d="M71.6363 99.209H68.1621V100.479H71.6363V99.209Z" fill="#EBEBEB"/>
<path d="M68.1622 102.608H64.688V103.878H68.1622V102.608Z" fill="#A6A6A6"/>
<path d="M91.2259 102.608H70.6938V103.878H91.2259V102.608Z" fill="#EBEBEB"/>
<path d="M119.278 106.007H97.0872V107.277H119.278V106.007Z" fill="#EBEBEB"/>
<path d="M115.477 102.608H93.3132V103.878H115.477V102.608Z" fill="#3940A0"/>
<path d="M68.1622 106.007H64.688V107.277H68.1622V106.007Z" fill="#EBEBEB"/>
<path d="M66.8337 62.4262C66.9535 62.5505 66.9535 62.7365 66.8337 62.8559C66.7719 62.9128 66.7009 62.9416 66.6245 62.9416C66.5432 62.9416 66.4668 62.9128 66.405 62.8559L65.0652 61.4959C65.0505 61.491 65.0457 61.4818 65.0413 61.4672C65.0365 61.4623 65.0267 61.4574 65.0267 61.4574C65.0175 61.4433 65.0175 61.4335 65.0126 61.4194C65.0028 61.4146 64.998 61.4053 64.998 61.4005C64.9931 61.3907 64.9931 61.3766 64.9888 61.3717C64.9888 61.3576 64.9785 61.3527 64.9785 61.3478C64.9785 61.3337 64.9785 61.324 64.9785 61.3147C64.9785 61.305 64.9741 61.3006 64.9741 61.286C64.9741 61.2811 64.9785 61.2665 64.9785 61.2621C64.9785 61.2524 64.9785 61.2383 64.9785 61.229C64.9785 61.2193 64.9888 61.2149 64.9888 61.2095C64.9931 61.1954 64.9931 61.1856 64.998 61.171C64.998 61.1661 65.0028 61.1661 65.0028 61.1618C65.0126 61.1477 65.0175 61.1281 65.0267 61.1189C65.0267 61.1189 65.0267 61.1092 65.0365 61.1092C65.0413 61.0994 65.0505 61.0853 65.0652 61.0761L66.405 59.7161C66.5242 59.6011 66.7194 59.6011 66.8337 59.7161C66.9535 59.8355 66.9535 60.0264 66.8337 60.1458L65.7042 61.2865L66.8337 62.4262Z" fill="#3940A0"/>
<path d="M68.049 62.5783L69.2175 59.7955C69.2744 59.662 69.4267 59.5997 69.5655 59.6572C69.6945 59.7092 69.7563 59.8671 69.6994 59.9956L68.5313 62.7828C68.488 62.8831 68.3883 62.9401 68.288 62.9401C68.2593 62.9401 68.2213 62.9352 68.1931 62.9211C68.0533 62.8696 67.9915 62.7123 68.049 62.5783Z" fill="#3940A0"/>
<path d="M72.0056 61.4565C72.0056 61.4565 72.0056 61.4614 72.0007 61.4614C71.9909 61.4712 71.9812 61.4853 71.9665 61.495L70.6267 62.855C70.5698 62.9119 70.4885 62.9407 70.4121 62.9407C70.3308 62.9407 70.2598 62.9119 70.198 62.855C70.0782 62.7356 70.0782 62.5496 70.198 62.4254L71.3275 61.2846L70.198 60.1438C70.0782 60.0245 70.0782 59.8335 70.198 59.7142C70.3124 59.5992 70.508 59.5992 70.6267 59.7142L71.9665 61.0741C71.9812 61.0833 71.9904 61.098 72.0007 61.1072C72.0056 61.1072 72.0056 61.117 72.0056 61.117C72.0148 61.1359 72.024 61.1457 72.0294 61.1598C72.0294 61.1647 72.0337 61.1647 72.0337 61.169C72.0386 61.1837 72.0386 61.1929 72.0478 61.2124C72.0478 61.2168 72.0522 61.2168 72.0522 61.2265C72.0522 61.2358 72.0522 61.2499 72.0522 61.2596C72.0522 61.264 72.0576 61.2786 72.0576 61.2835C72.0576 61.2884 72.0522 61.3025 72.0522 61.3074C72.0522 61.3215 72.0522 61.3312 72.0522 61.3459C72.0522 61.3508 72.0478 61.3508 72.0478 61.3556C72.0386 61.3746 72.0386 61.3887 72.0337 61.3985C72.0337 61.4034 72.0294 61.4034 72.0294 61.4126C72.024 61.4234 72.0148 61.4381 72.0056 61.4565Z" fill="#3940A0"/>
<path d="M148.868 87.0405L151.163 92.5855L148.872 93.5348L146.565 87.9519L142.778 90.8925V75.2715L153.703 86.3185L148.868 87.0405Z" fill="#263238"/>
<path d="M142.778 73.568C142.668 73.306 142.644 73.0445 142.639 72.7825C142.643 72.5205 142.668 72.2591 142.778 71.9971C142.888 72.2591 142.912 72.5205 142.917 72.7825C142.912 73.0445 142.887 73.3066 142.778 73.568Z" fill="#263238"/>
<path d="M141.426 74.1285C141.164 74.0206 140.962 73.8529 140.773 73.6712C140.591 73.483 140.423 73.2807 140.316 73.0176C140.579 73.125 140.781 73.2926 140.969 73.4749C141.151 73.6636 141.318 73.866 141.426 74.1285Z" fill="#263238"/>
<path d="M140.866 75.4816C140.605 75.5912 140.343 75.6156 140.081 75.6205C139.82 75.6167 139.558 75.5918 139.297 75.4816C139.558 75.3715 139.82 75.3471 140.081 75.3428C140.343 75.3477 140.604 75.3721 140.866 75.4816Z" fill="#263238"/>
<path d="M141.426 76.834C141.318 77.0965 141.151 77.2989 140.969 77.4876C140.781 77.6699 140.579 77.8375 140.316 77.9449C140.423 77.6818 140.591 77.4795 140.773 77.2913C140.962 77.109 141.164 76.9414 141.426 76.834Z" fill="#263238"/>
<path d="M144.689 75.4816C144.951 75.3721 145.212 75.3477 145.474 75.3428C145.736 75.3471 145.997 75.3715 146.259 75.4816C145.997 75.5918 145.736 75.6167 145.474 75.6205C145.213 75.6156 144.951 75.5912 144.689 75.4816Z" fill="#263238"/>
<path d="M144.129 74.1285C144.237 73.866 144.404 73.6636 144.586 73.4749C144.774 73.2926 144.976 73.125 145.239 73.0176C145.132 73.2807 144.964 73.483 144.782 73.6712C144.594 73.8535 144.391 74.0211 144.129 74.1285Z" fill="#263238"/>
<path d="M183.936 140.549C179.757 158.762 171.299 181.823 164.763 186.474C159.491 190.227 131.837 196.838 130.295 197.004C126.477 197.39 118.937 170.398 122.895 169.301C127.881 167.92 151.582 167.181 152.93 165.796C154.329 164.347 162.954 152.658 172.718 139.116C179.458 129.759 186.529 129.248 183.936 140.549Z" fill="#DD6A57"/>
<path d="M133.36 195.522C132.905 195.753 126.448 199.003 122.455 200.162C119.476 201.026 110.834 203.283 109.558 200.095C108.685 197.922 113.611 195.996 117.063 194.556C118.882 193.798 121.124 191.892 120.588 190.721C119.651 188.675 114.968 190.73 111.889 192.521C105.934 195.984 98.0016 202.217 94.3642 199.194C92.9908 198.051 94.587 195.97 96.923 193.929C93.1328 196.307 89.0906 198.258 87.5144 197.049C86.6093 196.361 86.5675 195.415 87.0711 194.336C85.9009 194.716 84.8668 194.642 84.1459 193.879C82.9134 192.588 83.5145 190.684 84.8619 188.732C84.4299 188.687 84.0413 188.466 83.7432 187.996C81.1345 184.015 94.1913 172.585 98.7073 171.516C111.993 168.355 126.126 169.508 126.126 169.508C131.344 173.68 133.37 195.513 133.36 195.522Z" fill="#DD6A57"/>
<path d="M113.824 183.282C110.695 183.772 107.615 184.943 104.962 186.696C101.594 188.92 99.3597 191.525 96.5337 194.148C96.4595 194.216 96.5641 194.334 96.6389 194.265C97.9858 193.019 103.565 188.332 105.007 187.267C107.649 185.315 110.6 183.945 113.836 183.336C113.87 183.329 113.858 183.276 113.824 183.282Z" fill="#263238"/>
<path d="M111.348 177.64C107.856 178.595 104.278 179.561 101.037 181.215C97.4904 183.024 94.7148 185.973 91.9858 188.811C90.3468 190.515 88.7436 192.254 87.1842 194.031C87.1186 194.106 87.2184 194.223 87.2888 194.149C90.0579 191.217 92.9142 188.365 95.8573 185.608C98.6258 183.015 101.714 181.029 105.26 179.677C107.259 178.915 109.311 178.307 111.361 177.702C111.4 177.69 111.387 177.629 111.348 177.64Z" fill="#263238"/>
<path d="M107.618 172.705C104.225 173.402 101.265 173.999 98.2611 175.819C94.2839 178.227 90.4449 182.286 89.0975 183.725C87.6097 185.314 86.1762 186.952 84.7675 188.612C84.71 188.679 84.826 188.781 84.8857 188.714C88.1051 185.085 91.5739 181.639 95.2351 178.456C96.9847 176.936 98.8866 175.611 101.022 174.69C103.133 173.78 105.394 173.265 107.622 172.729C107.637 172.725 107.633 172.702 107.618 172.705Z" fill="#263238"/>
<path d="M153.134 163.141L178.625 162.059C178.625 162.059 183.253 149.418 184.956 138.196C186.658 126.973 177.106 131.001 167.643 143.088C158.181 155.173 153.134 163.141 153.134 163.141Z" fill="#3940A0"/>
<path d="M161.476 155.514C161.649 155.466 161.822 155.445 161.995 155.41C162.156 155.378 162.386 155.371 162.572 155.448C162.963 155.584 163.252 155.991 163.256 156.421C163.25 156.704 163.389 156.959 163.628 157.12C163.751 157.2 163.88 157.244 164.056 157.264C164.229 157.3 164.402 157.321 164.576 157.369C164.402 157.418 164.229 157.439 164.056 157.475C163.886 157.507 163.662 157.502 163.477 157.419C163.089 157.272 162.82 156.843 162.827 156.429C162.83 156.161 162.676 155.9 162.433 155.751C162.305 155.675 162.179 155.64 161.995 155.619C161.822 155.584 161.649 155.563 161.476 155.514ZM179.409 140.017C179.592 140.038 179.719 140.073 179.847 140.149C180.09 140.297 180.244 140.559 180.241 140.827C180.234 141.241 180.504 141.67 180.891 141.817C181.076 141.9 181.3 141.905 181.47 141.873C181.643 141.837 181.816 141.816 181.99 141.767C181.816 141.719 181.643 141.698 181.47 141.662C181.294 141.642 181.165 141.598 181.042 141.518C180.803 141.357 180.663 141.102 180.67 140.819C180.666 140.389 180.377 139.982 179.986 139.846C179.8 139.769 179.57 139.776 179.409 139.808C179.236 139.843 179.063 139.864 178.89 139.912C179.063 139.961 179.236 139.982 179.409 140.017ZM180.056 149.956C179.912 150.071 179.797 150.135 179.653 150.172C179.376 150.239 179.083 150.164 178.895 149.972C178.608 149.674 178.114 149.561 177.737 149.732C177.547 149.804 177.385 149.96 177.288 150.102C177.19 150.25 177.083 150.388 176.995 150.544C177.151 150.456 177.289 150.349 177.436 150.251C177.575 150.141 177.698 150.081 177.841 150.05C178.124 149.994 178.402 150.076 178.598 150.281C178.905 150.582 179.396 150.665 179.769 150.485C179.955 150.408 180.112 150.239 180.204 150.103C180.301 149.956 180.409 149.819 180.498 149.662C180.341 149.751 180.204 149.858 180.056 149.956ZM173.131 138.36C172.984 138.474 172.871 138.539 172.724 138.577C172.448 138.642 172.155 138.566 171.965 138.377C171.922 138.333 171.879 138.295 171.83 138.257C171.727 138.36 171.629 138.463 171.532 138.572C171.581 138.599 171.629 138.642 171.673 138.686C171.976 138.99 172.47 139.071 172.843 138.892C173.028 138.816 173.185 138.648 173.277 138.507C173.375 138.36 173.483 138.225 173.57 138.067C173.413 138.154 173.277 138.263 173.131 138.36ZM170.248 147.914C170.227 148.098 170.191 148.224 170.116 148.352C169.967 148.595 169.706 148.749 169.439 148.747C169.025 148.74 168.596 149.009 168.45 149.396C168.366 149.582 168.362 149.807 168.394 149.976C168.429 150.15 168.45 150.323 168.499 150.497C168.548 150.323 168.568 150.15 168.604 149.976C168.624 149.801 168.668 149.672 168.748 149.548C168.909 149.309 169.163 149.17 169.446 149.176C169.877 149.172 170.283 148.883 170.419 148.491C170.496 148.305 170.488 148.075 170.457 147.913C170.422 147.74 170.401 147.567 170.352 147.393C170.304 147.567 170.283 147.74 170.248 147.914ZM177.545 157.629C177.525 157.813 177.489 157.939 177.413 158.067C177.265 158.311 177.004 158.465 176.736 158.462C176.323 158.455 175.894 158.724 175.747 159.112C175.664 159.297 175.659 159.521 175.691 159.692C175.727 159.865 175.748 160.038 175.796 160.212C175.845 160.038 175.866 159.865 175.901 159.692C175.922 159.516 175.966 159.387 176.046 159.263C176.206 159.024 176.461 158.885 176.744 158.891C177.174 158.887 177.58 158.598 177.716 158.206C177.794 158.02 177.786 157.79 177.755 157.629C177.719 157.455 177.698 157.282 177.65 157.109C177.601 157.282 177.581 157.456 177.545 157.629Z" fill="white"/>
<path d="M179.494 156.521C173.981 156.38 168.451 156.625 162.94 156.978C161.38 157.078 159.823 157.215 158.27 157.388C158.226 157.393 158.221 157.458 158.268 157.458C161.022 157.47 163.776 157.37 166.531 157.285C169.293 157.2 172.059 157.093 174.818 156.931C176.377 156.839 177.934 156.749 179.491 156.625C179.557 156.62 179.563 156.522 179.494 156.521Z" fill="#263238"/>
<path d="M160.285 203.911H225.344C226.061 202.595 215.398 145.558 193.457 129.499C188.589 125.936 179.953 128.227 177.551 131.692C165.478 149.105 160.285 203.911 160.285 203.911Z" fill="#3940A0"/>
<path d="M187.878 155.514C188.052 155.466 188.225 155.444 188.398 155.409C188.559 155.378 188.789 155.37 188.975 155.448C189.366 155.584 189.655 155.99 189.659 156.421C189.652 156.704 189.791 156.958 190.03 157.12C190.154 157.199 190.283 157.244 190.459 157.264C190.632 157.3 190.805 157.32 190.978 157.369C190.805 157.418 190.632 157.439 190.459 157.474C190.289 157.506 190.065 157.502 189.879 157.418C189.492 157.271 189.223 156.842 189.23 156.428C189.233 156.16 189.079 155.9 188.835 155.751C188.707 155.675 188.581 155.639 188.398 155.619C188.225 155.583 188.051 155.562 187.878 155.514ZM197.985 189.943C198.169 189.963 198.295 189.999 198.423 190.075C198.666 190.223 198.82 190.485 198.817 190.753C198.81 191.167 199.079 191.596 199.467 191.743C199.652 191.826 199.876 191.831 200.046 191.799C200.22 191.763 200.392 191.742 200.566 191.693C200.392 191.645 200.22 191.624 200.046 191.588C199.871 191.568 199.742 191.524 199.618 191.444C199.379 191.283 199.24 191.028 199.246 190.745C199.242 190.315 198.953 189.908 198.562 189.772C198.376 189.694 198.146 189.702 197.985 189.733C197.812 189.769 197.639 189.79 197.466 189.838C197.639 189.886 197.813 189.908 197.985 189.943ZM209.92 157.474C210.103 157.494 210.229 157.53 210.357 157.606C210.6 157.754 210.754 158.016 210.752 158.284C210.745 158.698 211.013 159.127 211.401 159.274C211.586 159.357 211.81 159.361 211.98 159.329C212.154 159.294 212.327 159.273 212.5 159.224C212.327 159.175 212.154 159.155 211.98 159.119C211.805 159.099 211.676 159.054 211.552 158.975C211.313 158.814 211.174 158.559 211.18 158.276C211.177 157.846 210.888 157.439 210.496 157.303C210.311 157.225 210.081 157.233 209.92 157.264C209.746 157.3 209.573 157.321 209.4 157.369C209.573 157.417 209.746 157.438 209.92 157.474ZM179.409 140.017C179.593 140.037 179.719 140.073 179.847 140.149C180.09 140.297 180.244 140.558 180.241 140.826C180.234 141.24 180.504 141.669 180.891 141.816C181.076 141.9 181.301 141.904 181.47 141.872C181.644 141.836 181.816 141.816 181.99 141.767C181.816 141.718 181.644 141.698 181.47 141.662C181.295 141.642 181.166 141.597 181.042 141.518C180.803 141.356 180.664 141.102 180.67 140.819C180.666 140.389 180.377 139.982 179.986 139.846C179.8 139.768 179.57 139.776 179.409 139.807C179.236 139.842 179.063 139.864 178.89 139.912C179.063 139.96 179.236 139.981 179.409 140.017ZM198.189 139.623C198.373 139.644 198.499 139.68 198.627 139.756C198.87 139.904 199.024 140.165 199.021 140.433C199.014 140.847 199.283 141.276 199.671 141.423C199.856 141.507 200.08 141.511 200.25 141.479C200.423 141.443 200.596 141.423 200.77 141.374C200.596 141.325 200.423 141.304 200.25 141.269C200.074 141.248 199.945 141.204 199.822 141.124C199.583 140.963 199.444 140.709 199.45 140.426C199.446 139.995 199.157 139.589 198.766 139.452C198.58 139.375 198.35 139.382 198.189 139.414C198.016 139.449 197.843 139.47 197.669 139.519C197.843 139.567 198.016 139.587 198.189 139.623ZM174.8 169.98C174.984 170.001 175.109 170.036 175.237 170.112C175.481 170.26 175.634 170.522 175.632 170.79C175.625 171.204 175.894 171.633 176.281 171.78C176.466 171.863 176.69 171.868 176.86 171.836C177.033 171.8 177.207 171.779 177.38 171.731C177.207 171.682 177.034 171.661 176.86 171.625C176.685 171.605 176.556 171.561 176.432 171.481C176.193 171.32 176.054 171.065 176.06 170.782C176.057 170.352 175.768 169.945 175.376 169.809C175.19 169.732 174.96 169.739 174.799 169.771C174.626 169.806 174.453 169.827 174.279 169.875C174.453 169.924 174.626 169.945 174.8 169.98ZM195.279 201.43C195.463 201.45 195.589 201.486 195.717 201.562C195.96 201.711 196.114 201.972 196.111 202.24C196.104 202.654 196.373 203.083 196.761 203.23C196.946 203.313 197.17 203.318 197.34 203.286C197.513 203.25 197.686 203.229 197.86 203.18C197.686 203.131 197.513 203.111 197.34 203.075C197.164 203.055 197.035 203.01 196.912 202.931C196.673 202.77 196.534 202.515 196.54 202.232C196.536 201.801 196.247 201.395 195.856 201.259C195.67 201.181 195.44 201.189 195.279 201.22C195.106 201.256 194.933 201.277 194.759 201.325C194.933 201.373 195.106 201.395 195.279 201.43ZM185.196 184.531C185.38 184.551 185.505 184.587 185.633 184.663C185.877 184.812 186.031 185.073 186.028 185.341C186.021 185.755 186.29 186.184 186.677 186.331C186.863 186.414 187.086 186.418 187.257 186.386C187.43 186.351 187.603 186.33 187.776 186.281C187.603 186.232 187.43 186.212 187.257 186.176C187.081 186.156 186.952 186.111 186.828 186.032C186.589 185.871 186.451 185.616 186.457 185.333C186.453 184.903 186.164 184.496 185.773 184.36C185.587 184.282 185.357 184.29 185.196 184.321C185.022 184.357 184.85 184.378 184.676 184.426C184.849 184.475 185.022 184.496 185.196 184.531ZM162.107 201.854C161.933 201.832 161.803 201.789 161.678 201.708C161.44 201.55 161.299 201.295 161.31 201.008C161.305 200.606 161.05 200.221 160.692 200.069C160.676 200.21 160.66 200.341 160.649 200.471C160.795 200.617 160.882 200.812 160.876 201.019C160.871 201.431 161.142 201.859 161.527 202.006C161.711 202.093 161.939 202.098 162.107 202.066C162.28 202.028 162.454 202.006 162.627 201.957C162.454 201.908 162.28 201.887 162.107 201.854ZM166.542 187.602C166.726 187.622 166.851 187.658 166.979 187.734C167.223 187.882 167.377 188.144 167.374 188.411C167.367 188.825 167.636 189.254 168.023 189.401C168.209 189.485 168.433 189.489 168.603 189.457C168.776 189.422 168.949 189.401 169.122 189.352C168.949 189.303 168.776 189.283 168.603 189.247C168.427 189.227 168.298 189.182 168.174 189.103C167.935 188.941 167.797 188.687 167.803 188.404C167.799 187.974 167.51 187.567 167.119 187.431C166.933 187.353 166.702 187.361 166.541 187.392C166.368 187.427 166.195 187.449 166.022 187.497C166.196 187.545 166.369 187.566 166.542 187.602ZM193.783 170.394C193.967 170.415 194.092 170.45 194.22 170.526C194.464 170.674 194.617 170.936 194.615 171.204C194.608 171.618 194.877 172.047 195.264 172.194C195.449 172.277 195.673 172.282 195.843 172.25C196.017 172.214 196.19 172.193 196.363 172.144C196.19 172.096 196.017 172.075 195.843 172.039C195.668 172.019 195.539 171.975 195.415 171.895C195.176 171.734 195.038 171.479 195.043 171.196C195.04 170.766 194.751 170.359 194.359 170.223C194.174 170.145 193.944 170.153 193.783 170.185C193.609 170.22 193.436 170.241 193.263 170.289C193.436 170.337 193.609 170.359 193.783 170.394ZM217.638 193.532C217.822 193.552 217.947 193.588 218.075 193.664C218.319 193.813 218.472 194.074 218.47 194.342C218.463 194.755 218.732 195.185 219.119 195.332C219.304 195.415 219.528 195.419 219.698 195.387C219.872 195.352 220.045 195.331 220.218 195.282C220.045 195.233 219.872 195.213 219.698 195.177C219.523 195.157 219.394 195.112 219.27 195.033C219.031 194.872 218.893 194.617 218.899 194.334C218.895 193.904 218.606 193.497 218.214 193.361C218.028 193.283 217.799 193.291 217.638 193.322C217.464 193.358 217.291 193.379 217.118 193.427C217.291 193.475 217.465 193.496 217.638 193.532ZM208.168 179.407C208.352 179.428 208.477 179.464 208.605 179.54C208.849 179.688 209.003 179.949 209 180.217C208.993 180.631 209.262 181.06 209.649 181.207C209.835 181.291 210.058 181.295 210.229 181.263C210.402 181.227 210.575 181.207 210.748 181.158C210.575 181.109 210.402 181.088 210.229 181.053C210.053 181.032 209.924 180.988 209.8 180.908C209.561 180.747 209.423 180.493 209.429 180.21C209.425 179.779 209.136 179.373 208.745 179.236C208.559 179.159 208.329 179.166 208.168 179.198C207.995 179.233 207.822 179.254 207.648 179.303C207.822 179.351 207.995 179.372 208.168 179.407ZM180.056 149.955C179.912 150.071 179.798 150.134 179.653 150.171C179.376 150.239 179.083 150.163 178.896 149.972C178.608 149.674 178.115 149.561 177.737 149.731C177.547 149.803 177.385 149.959 177.288 150.102C177.191 150.249 177.083 150.387 176.995 150.544C177.151 150.456 177.289 150.348 177.437 150.25C177.575 150.14 177.698 150.081 177.841 150.049C178.124 149.994 178.402 150.076 178.598 150.28C178.905 150.582 179.396 150.665 179.769 150.484C179.955 150.407 180.112 150.239 180.204 150.103C180.302 149.955 180.409 149.818 180.498 149.661C180.341 149.75 180.204 149.858 180.056 149.955ZM208.087 170.142C207.943 170.257 207.829 170.321 207.685 170.358C207.408 170.425 207.114 170.349 206.927 170.158C206.639 169.86 206.146 169.747 205.768 169.918C205.578 169.99 205.416 170.145 205.319 170.288C205.222 170.436 205.114 170.573 205.025 170.73C205.182 170.642 205.32 170.534 205.467 170.437C205.605 170.327 205.728 170.267 205.872 170.236C206.154 170.18 206.433 170.262 206.629 170.467C206.935 170.768 207.427 170.851 207.799 170.671C207.986 170.594 208.143 170.425 208.235 170.289C208.332 170.142 208.44 170.004 208.528 169.848C208.372 169.937 208.235 170.044 208.087 170.142ZM190.594 132.558C190.45 132.673 190.336 132.737 190.191 132.774C189.915 132.841 189.621 132.766 189.434 132.574C189.146 132.276 188.653 132.163 188.275 132.334C188.085 132.406 187.923 132.562 187.826 132.704C187.729 132.852 187.621 132.99 187.533 133.146C187.69 133.059 187.827 132.951 187.975 132.853C188.113 132.743 188.236 132.683 188.38 132.652C188.662 132.596 188.941 132.678 189.136 132.883C189.443 133.184 189.935 133.267 190.307 133.087C190.494 133.01 190.651 132.842 190.743 132.705C190.84 132.558 190.948 132.421 191.036 132.264C190.879 132.352 190.742 132.46 190.594 132.558ZM190.25 143.69C190.229 143.874 190.194 144 190.118 144.128C189.97 144.371 189.709 144.525 189.441 144.523C189.027 144.516 188.599 144.785 188.452 145.173C188.368 145.358 188.364 145.583 188.396 145.752C188.432 145.926 188.452 146.099 188.501 146.273C188.55 146.099 188.57 145.926 188.606 145.752C188.626 145.577 188.671 145.448 188.75 145.324C188.911 145.085 189.165 144.945 189.448 144.952C189.878 144.948 190.285 144.659 190.421 144.267C190.498 144.081 190.491 143.851 190.459 143.69C190.424 143.516 190.403 143.343 190.355 143.17C190.306 143.343 190.286 143.516 190.25 143.69ZM186.122 174.192C186.101 174.376 186.065 174.501 185.989 174.629C185.841 174.873 185.58 175.027 185.312 175.024C184.899 175.017 184.47 175.287 184.323 175.674C184.24 175.86 184.235 176.084 184.267 176.254C184.303 176.428 184.324 176.601 184.373 176.774C184.421 176.601 184.442 176.428 184.478 176.254C184.498 176.078 184.542 175.949 184.622 175.825C184.783 175.586 185.037 175.447 185.32 175.453C185.75 175.45 186.156 175.16 186.292 174.769C186.37 174.583 186.362 174.353 186.331 174.192C186.296 174.019 186.274 173.845 186.226 173.671C186.177 173.845 186.157 174.018 186.122 174.192ZM207.748 147.62C207.721 147.625 207.694 147.625 207.662 147.625C207.244 147.62 206.816 147.885 206.67 148.276C206.589 148.46 206.583 148.683 206.616 148.856C206.648 149.03 206.67 149.204 206.719 149.377C206.767 149.204 206.789 149.03 206.827 148.856C206.843 148.677 206.892 148.553 206.968 148.428C207.131 148.189 207.385 148.048 207.667 148.054C207.765 148.054 207.857 148.037 207.949 148.005C207.884 147.875 207.814 147.75 207.748 147.62ZM207.599 196.887C207.579 197.071 207.543 197.196 207.467 197.325C207.319 197.568 207.058 197.722 206.79 197.719C206.377 197.712 205.948 197.981 205.801 198.369C205.718 198.555 205.713 198.779 205.745 198.949C205.781 199.123 205.802 199.296 205.85 199.469C205.899 199.296 205.92 199.123 205.956 198.949C205.976 198.773 206.02 198.644 206.1 198.521C206.26 198.281 206.515 198.142 206.798 198.149C207.228 198.145 207.634 197.856 207.77 197.464C207.848 197.278 207.84 197.048 207.809 196.886C207.773 196.713 207.752 196.54 207.704 196.366C207.655 196.54 207.635 196.714 207.599 196.887ZM216.903 169.236C216.897 169.253 216.892 169.263 216.881 169.28C216.735 169.524 216.475 169.681 216.204 169.676C215.792 169.67 215.364 169.942 215.217 170.327C215.131 170.511 215.125 170.739 215.158 170.907C215.196 171.081 215.217 171.254 215.266 171.428C215.315 171.254 215.336 171.081 215.369 170.907C215.391 170.733 215.434 170.603 215.515 170.479C215.673 170.24 215.927 170.099 216.215 170.104C216.54 170.104 216.86 169.931 217.049 169.676C217.049 169.676 217.049 169.676 217.049 169.67C217 169.529 216.952 169.383 216.903 169.236ZM169.321 175.283C169.301 175.467 169.265 175.593 169.189 175.721C169.04 175.964 168.78 176.118 168.512 176.116C168.098 176.109 167.67 176.378 167.523 176.766C167.439 176.951 167.435 177.175 167.467 177.345C167.503 177.519 167.523 177.692 167.572 177.866C167.621 177.693 167.642 177.519 167.677 177.345C167.697 177.17 167.742 177.041 167.822 176.917C167.982 176.678 168.237 176.538 168.52 176.545C168.949 176.541 169.356 176.252 169.492 175.86C169.569 175.674 169.562 175.444 169.53 175.283C169.495 175.109 169.474 174.936 169.426 174.763C169.378 174.936 169.356 175.109 169.321 175.283ZM170.464 147.95C170.372 148.254 170.28 148.553 170.188 148.856C170.291 148.753 170.372 148.629 170.421 148.493C170.491 148.319 170.486 148.108 170.464 147.95ZM180.224 130.123C180.203 130.307 180.167 130.432 180.091 130.561C179.943 130.804 179.682 130.958 179.414 130.955C179 130.948 178.572 131.217 178.425 131.605C178.342 131.791 178.337 132.015 178.369 132.185C178.405 132.359 178.426 132.532 178.475 132.705C178.523 132.532 178.544 132.359 178.58 132.185C178.6 132.009 178.644 131.88 178.724 131.757C178.885 131.517 179.139 131.378 179.422 131.384C179.852 131.381 180.258 131.092 180.394 130.7C180.472 130.514 180.464 130.284 180.433 130.123C180.398 129.949 180.376 129.776 180.328 129.603C180.279 129.776 180.259 129.949 180.224 130.123ZM177.546 157.629C177.525 157.813 177.489 157.939 177.413 158.067C177.265 158.31 177.004 158.464 176.736 158.462C176.323 158.455 175.894 158.724 175.747 159.111C175.664 159.297 175.659 159.521 175.691 159.691C175.727 159.864 175.748 160.038 175.796 160.212C175.845 160.038 175.866 159.865 175.902 159.691C175.922 159.516 175.966 159.386 176.046 159.263C176.206 159.024 176.461 158.885 176.744 158.891C177.174 158.887 177.58 158.598 177.716 158.206C177.794 158.02 177.786 157.789 177.755 157.628C177.72 157.455 177.698 157.282 177.65 157.108C177.601 157.282 177.581 157.455 177.546 157.629ZM201.592 161.326C201.571 161.51 201.536 161.636 201.46 161.764C201.312 162.008 201.05 162.162 200.783 162.159C200.369 162.152 199.94 162.421 199.794 162.809C199.71 162.994 199.706 163.219 199.738 163.389C199.773 163.562 199.794 163.735 199.843 163.909C199.892 163.735 199.912 163.562 199.948 163.389C199.968 163.213 200.013 163.084 200.092 162.96C200.253 162.721 200.507 162.582 200.79 162.588C201.22 162.584 201.627 162.295 201.763 161.903C201.84 161.717 201.833 161.487 201.801 161.326C201.766 161.153 201.745 160.98 201.697 160.806C201.648 160.979 201.627 161.153 201.592 161.326ZM179.367 192.213C179.347 192.397 179.311 192.523 179.235 192.651C179.086 192.894 178.826 193.048 178.558 193.046C178.144 193.039 177.716 193.308 177.569 193.696C177.485 193.881 177.481 194.106 177.513 194.275C177.549 194.449 177.569 194.622 177.618 194.796C177.667 194.622 177.688 194.449 177.723 194.275C177.743 194.1 177.788 193.971 177.867 193.847C178.028 193.608 178.283 193.469 178.566 193.475C178.995 193.471 179.402 193.182 179.538 192.79C179.615 192.604 179.608 192.374 179.576 192.213C179.541 192.039 179.52 191.866 179.472 191.693C179.424 191.866 179.402 192.04 179.367 192.213ZM198.017 151.781C198.161 151.666 198.275 151.602 198.42 151.565C198.697 151.498 198.99 151.574 199.177 151.765C199.465 152.063 199.958 152.176 200.336 152.005C200.526 151.933 200.688 151.777 200.785 151.635C200.882 151.487 200.99 151.349 201.079 151.193C200.922 151.281 200.784 151.389 200.637 151.486C200.499 151.596 200.376 151.656 200.232 151.687C199.95 151.743 199.671 151.661 199.476 151.456C199.169 151.155 198.678 151.072 198.305 151.252C198.118 151.329 197.961 151.498 197.869 151.634C197.772 151.781 197.664 151.919 197.576 152.075C197.732 151.986 197.869 151.879 198.017 151.781ZM183.989 164.497C184.134 164.382 184.248 164.318 184.392 164.282C184.669 164.214 184.962 164.29 185.15 164.481C185.438 164.779 185.931 164.892 186.309 164.721C186.498 164.649 186.66 164.494 186.757 164.351C186.854 164.203 186.962 164.066 187.051 163.909C186.894 163.997 186.756 164.105 186.609 164.202C186.471 164.312 186.348 164.372 186.204 164.404C185.922 164.459 185.643 164.377 185.447 164.173C185.141 163.871 184.649 163.788 184.277 163.969C184.09 164.046 183.933 164.214 183.841 164.35C183.744 164.497 183.636 164.635 183.548 164.791C183.705 164.702 183.842 164.595 183.989 164.497ZM174.486 183.231C174.631 183.115 174.745 183.051 174.889 183.015C175.166 182.947 175.459 183.023 175.647 183.214C175.935 183.512 176.428 183.625 176.806 183.455C176.995 183.382 177.157 183.227 177.254 183.084C177.351 182.937 177.459 182.799 177.548 182.642C177.391 182.73 177.253 182.838 177.106 182.935C176.968 183.046 176.845 183.105 176.701 183.137C176.419 183.192 176.14 183.11 175.945 182.906C175.638 182.604 175.147 182.521 174.774 182.702C174.587 182.779 174.43 182.947 174.339 183.083C174.241 183.231 174.133 183.368 174.045 183.525C174.202 183.436 174.339 183.328 174.486 183.231ZM178.594 202.696C178.738 202.581 178.853 202.517 178.997 202.481C179.273 202.413 179.567 202.489 179.755 202.68C180.043 202.978 180.536 203.091 180.914 202.92C181.103 202.848 181.265 202.693 181.363 202.55C181.46 202.402 181.568 202.265 181.656 202.108C181.499 202.196 181.362 202.304 181.214 202.401C181.076 202.511 180.953 202.571 180.809 202.603C180.527 202.658 180.248 202.576 180.053 202.372C179.747 202.07 179.255 201.987 178.882 202.168C178.696 202.245 178.539 202.413 178.447 202.549C178.349 202.696 178.241 202.834 178.153 202.99C178.31 202.902 178.447 202.794 178.594 202.696ZM196.983 181.305C197.127 181.189 197.241 181.125 197.385 181.089C197.662 181.022 197.956 181.097 198.143 181.289C198.431 181.586 198.924 181.699 199.302 181.529C199.492 181.457 199.654 181.301 199.751 181.158C199.848 181.011 199.956 180.873 200.044 180.716C199.887 180.805 199.75 180.912 199.602 181.01C199.464 181.12 199.341 181.18 199.197 181.211C198.915 181.266 198.636 181.184 198.441 180.98C198.134 180.678 197.642 180.595 197.269 180.776C197.083 180.853 196.926 181.021 196.834 181.157C196.737 181.305 196.629 181.442 196.54 181.599C196.698 181.51 196.835 181.402 196.983 181.305ZM209.64 189.058C209.784 188.943 209.899 188.879 210.043 188.842C210.32 188.775 210.613 188.851 210.8 189.042C211.088 189.34 211.582 189.452 211.959 189.282C212.149 189.21 212.311 189.054 212.409 188.912C212.506 188.764 212.613 188.626 212.702 188.47C212.545 188.558 212.408 188.665 212.26 188.763C212.122 188.873 211.999 188.933 211.855 188.964C211.573 189.02 211.294 188.938 211.099 188.733C210.792 188.432 210.3 188.349 209.928 188.529C209.741 188.606 209.584 188.774 209.493 188.911C209.395 189.058 209.287 189.195 209.199 189.352C209.356 189.263 209.493 189.156 209.64 189.058ZM188.35 194.943C188.494 194.828 188.608 194.764 188.752 194.727C189.029 194.66 189.323 194.735 189.51 194.927C189.798 195.225 190.291 195.338 190.669 195.167C190.859 195.095 191.021 194.939 191.118 194.797C191.215 194.649 191.323 194.511 191.411 194.355C191.254 194.443 191.117 194.55 190.969 194.648C190.831 194.758 190.708 194.818 190.564 194.849C190.282 194.905 190.003 194.823 189.808 194.618C189.501 194.317 189.009 194.234 188.636 194.414C188.45 194.491 188.293 194.659 188.201 194.796C188.104 194.943 187.996 195.08 187.907 195.237C188.065 195.149 188.202 195.041 188.35 194.943ZM215.809 202.696C215.953 202.581 216.067 202.517 216.211 202.481C216.488 202.413 216.781 202.489 216.969 202.68C217.257 202.978 217.75 203.091 218.128 202.92C218.317 202.848 218.48 202.693 218.577 202.55C218.674 202.402 218.782 202.265 218.87 202.108C218.714 202.196 218.576 202.304 218.429 202.401C218.29 202.511 218.167 202.571 218.024 202.603C217.741 202.658 217.463 202.576 217.267 202.372C216.96 202.07 216.469 201.987 216.096 202.168C215.909 202.245 215.752 202.413 215.661 202.549C215.563 202.696 215.455 202.834 215.367 202.99C215.523 202.902 215.661 202.794 215.809 202.696ZM220.708 181.626C220.578 181.588 220.464 181.517 220.366 181.42C220.063 181.121 219.57 181.035 219.196 181.219C219.011 181.295 218.854 181.463 218.762 181.599C218.664 181.745 218.556 181.881 218.469 182.038C218.626 181.951 218.762 181.843 218.908 181.745C219.055 181.631 219.168 181.566 219.309 181.528C219.586 181.463 219.884 181.539 220.068 181.729C220.258 181.93 220.54 182.044 220.822 182.049C220.784 181.908 220.746 181.767 220.708 181.626ZM168.758 197.624C168.902 197.509 169.016 197.445 169.16 197.409C169.437 197.341 169.73 197.417 169.918 197.608C170.206 197.906 170.699 198.019 171.077 197.849C171.266 197.776 171.429 197.621 171.526 197.478C171.623 197.33 171.73 197.193 171.819 197.036C171.662 197.124 171.524 197.232 171.377 197.329C171.239 197.44 171.116 197.499 170.972 197.531C170.69 197.586 170.411 197.504 170.216 197.3C169.909 196.998 169.417 196.915 169.044 197.096C168.858 197.173 168.701 197.341 168.609 197.477C168.511 197.624 168.404 197.762 168.315 197.919C168.472 197.83 168.61 197.722 168.758 197.624ZM167.189 164.938C167.333 164.823 167.448 164.759 167.592 164.723C167.869 164.655 168.162 164.731 168.349 164.922C168.637 165.22 169.13 165.333 169.508 165.162C169.698 165.09 169.86 164.935 169.958 164.792C170.055 164.644 170.162 164.507 170.251 164.35C170.094 164.438 169.956 164.546 169.809 164.643C169.671 164.753 169.548 164.813 169.404 164.845C169.122 164.9 168.843 164.818 168.648 164.614C168.341 164.312 167.849 164.229 167.476 164.41C167.29 164.487 167.133 164.655 167.041 164.791C166.943 164.938 166.836 165.076 166.747 165.232C166.904 165.144 167.042 165.036 167.189 164.938Z" fill="white"/>
<path d="M170.621 146.863C170.023 149.028 169.445 151.196 168.886 153.368C168.959 152.42 169.062 151.474 169.184 150.532C169.191 150.476 169.107 150.452 169.095 150.51C168.855 151.684 168.738 152.871 168.706 154.063C168.039 156.683 167.406 159.311 166.824 161.954C165.709 167.02 164.719 172.122 163.898 177.24C163.435 180.127 163.076 183.033 162.582 185.913C162.573 185.967 162.658 185.988 162.668 185.934C163.121 183.379 163.722 180.837 164.278 178.301C164.831 175.781 165.366 173.257 165.889 170.731C166.941 165.653 168.053 160.586 169.099 155.506C169.688 152.644 170.237 149.774 170.827 146.913C170.853 146.784 170.657 146.735 170.621 146.863Z" fill="#263238"/>
<path d="M168.08 113.075C168.802 117.026 166.579 120.741 163.116 121.374C159.654 122.007 156.262 119.319 155.541 115.369C154.82 111.419 157.042 107.703 160.505 107.07C163.967 106.437 167.359 109.125 168.08 113.075Z" fill="#455A64"/>
<path d="M170.157 112.954C170.96 117.348 168.487 121.482 164.635 122.186C160.783 122.891 157.01 119.9 156.207 115.505C155.405 111.111 157.877 106.977 161.729 106.273C165.581 105.568 169.355 108.559 170.157 112.954Z" fill="#C7C7C7"/>
<path d="M181.142 143.955C185.065 143.932 190.06 136.711 191.461 131.5C191.555 131.143 187.189 118.847 186.578 116.32C186.454 115.801 171.678 124.014 171.678 124.014C171.678 124.014 174.519 128.931 175.559 133.343C175.642 133.713 177.349 143.975 181.142 143.955Z" fill="#DD6A57"/>
<path d="M177.368 134.275C176.81 134.421 176.295 134.525 175.802 134.562C175.737 134.253 175.683 133.993 175.645 133.792C175.645 133.787 175.645 133.776 175.639 133.765C175.639 133.743 175.634 133.716 175.628 133.695C175.612 133.619 175.601 133.537 175.58 133.456C175.58 133.44 175.574 133.423 175.569 133.407C175.563 133.385 175.558 133.364 175.553 133.342C175.325 132.376 175.011 131.389 174.664 130.434C173.862 128.243 172.859 126.225 172.246 125.059C172.17 124.912 172.1 124.782 172.035 124.668C171.84 124.305 171.715 124.082 171.688 124.028C171.677 124.023 171.677 124.017 171.677 124.017C171.677 124.017 171.677 124.017 171.683 124.017C171.715 123.996 171.851 123.92 172.073 123.795C172.214 123.719 172.387 123.621 172.593 123.507C172.604 123.507 172.609 123.502 172.615 123.496C172.723 123.437 172.843 123.372 172.962 123.307C173.097 123.231 173.238 123.155 173.39 123.068C173.515 123.003 173.65 122.927 173.786 122.851C173.807 122.84 173.834 122.824 173.862 122.808C174.024 122.721 174.198 122.629 174.376 122.525C174.414 122.504 174.458 122.482 174.496 122.46C174.664 122.368 174.837 122.276 175.011 122.178C175.097 122.129 175.189 122.081 175.282 122.032C175.553 121.885 175.829 121.733 176.116 121.576C176.328 121.462 176.539 121.348 176.756 121.229C176.935 121.131 177.119 121.034 177.298 120.936C177.905 120.605 178.528 120.269 179.151 119.938C179.352 119.829 179.553 119.721 179.748 119.612C180.479 119.222 181.2 118.842 181.889 118.484C182.046 118.403 182.197 118.321 182.349 118.245C182.452 118.191 182.555 118.137 182.653 118.088C182.777 118.023 182.897 117.963 183.016 117.898C183.287 117.757 183.547 117.627 183.796 117.502C183.959 117.421 184.122 117.34 184.273 117.264C184.506 117.144 184.723 117.041 184.929 116.944C185.032 116.889 185.135 116.846 185.227 116.803C185.509 116.667 185.753 116.558 185.954 116.477C186.002 116.455 186.046 116.439 186.084 116.423V116.428C186.268 120.708 185.926 131.986 177.368 134.275Z" fill="#263238"/>
<path d="M182.144 97.2871C185.643 102.214 188.025 119.024 185.304 123.856C181.359 130.863 172.27 134.438 165.659 129.091C159.25 123.907 156.533 101.945 159.817 97.2828C164.656 90.4153 176.975 90.0096 182.144 97.2871Z" fill="#DD6A57"/>
<path d="M169.617 112.125C169.62 112.08 169.714 112.165 169.718 112.212C169.848 113.349 170.189 114.629 171.267 114.854C171.301 114.861 171.305 114.918 171.267 114.918C169.993 114.927 169.558 113.223 169.617 112.125Z" fill="#263238"/>
<path d="M170.453 110.795C172.251 110.39 172.929 114.018 171.263 114.394C169.623 114.764 168.946 111.135 170.453 110.795Z" fill="#263238"/>
<path d="M163.445 113.454C163.429 113.413 163.367 113.524 163.378 113.569C163.623 114.687 163.716 116.008 162.77 116.571C162.741 116.589 162.754 116.645 162.791 116.633C163.999 116.226 163.857 114.473 163.445 113.454Z" fill="#263238"/>
<path d="M162.223 112.468C160.391 112.668 160.927 116.321 162.624 116.135C164.295 115.952 163.759 112.299 162.223 112.468Z" fill="#263238"/>
<path d="M171.574 108.868C171.057 108.836 170.585 108.72 170.078 108.636C169.504 108.54 169.038 108.524 168.596 108.108C168.359 107.885 168.351 107.406 168.546 107.156C169.001 106.572 169.731 106.514 170.426 106.601C171.18 106.694 171.737 106.96 172.261 107.509C172.769 108.04 172.256 108.91 171.574 108.868Z" fill="#263238"/>
<path d="M160.48 110.904C160.967 110.727 161.387 110.484 161.851 110.26C162.375 110.007 162.818 109.859 163.125 109.336C163.289 109.055 163.163 108.595 162.906 108.409C162.306 107.977 161.589 108.127 160.946 108.405C160.249 108.707 159.789 109.119 159.44 109.793C159.101 110.445 159.837 111.136 160.48 110.904Z" fill="#263238"/>
<path d="M172.901 122.292C172.681 122.606 172.48 123.019 172.079 123.129C171.694 123.235 171.203 123.144 170.819 123.072C170.781 123.065 170.752 123.109 170.781 123.139C171.153 123.516 171.817 123.671 172.321 123.482C172.813 123.298 172.982 122.811 173.018 122.322C173.023 122.254 172.933 122.247 172.901 122.292Z" fill="#263238"/>
<path d="M171.091 119.148C170.645 120.242 169.82 120.948 168.857 121.329C168.427 121.502 167.961 121.605 167.493 121.649C167.403 121.665 167.31 121.671 167.225 121.668C167.141 121.674 167.065 121.678 166.972 121.676C166.837 121.682 166.745 121.587 166.7 121.467L166.698 121.459C166.691 121.418 166.685 121.385 166.687 121.342C166.687 121.342 166.687 121.342 166.685 121.334L166.669 121.235C166.484 120.374 166.322 119.042 166.322 119.042C166.035 119.259 164.56 120.286 164.501 119.829C164.025 116.044 163.496 111.835 163.82 107.968C163.825 107.84 164.018 107.833 164.031 107.958C164.632 111.578 164.593 115.279 165.139 118.924C165.617 118.632 166.388 118.114 166.842 118.038C166.971 118.051 167.109 120.618 167.223 120.998C167.223 120.998 167.225 121.015 167.238 121.038C168.726 120.952 169.739 120.308 170.967 119.067C171.039 118.987 171.142 119.046 171.091 119.148Z" fill="#263238"/>
<path d="M167.921 121.115C167.921 121.115 168.881 122.007 170.001 122.184C170.413 122.251 170.84 122.227 171.255 122.029C172.108 121.626 171.976 120.797 171.68 120.124C171.438 119.569 171.076 119.12 171.076 119.12C171.076 119.12 169.996 120.592 167.921 121.115Z" fill="#263238"/>
<path d="M170.001 122.184C170.413 122.251 170.84 122.228 171.255 122.03C172.108 121.626 171.976 120.798 171.68 120.124C170.737 120.402 169.908 121.234 170.001 122.184Z" fill="#FF99BA"/>
<path opacity="0.2" d="M181.514 104.343C182.631 105.76 185.073 109.152 185.902 109.195C185.046 103.723 183.648 98.9432 181.471 96.4024C180.528 95.3028 179.492 94.4902 178.271 93.8154C178.583 95.2567 180.33 102.86 181.514 104.343Z" fill="#263238"/>
<path d="M165.221 101.015C166.6 102.288 168.542 102.801 170.361 102.292C172.132 101.796 173.782 100.346 174.233 98.523C174.246 98.4687 174.33 98.4894 174.317 98.5441C173.835 100.494 172.493 102.206 170.485 102.716C168.6 103.195 166.444 102.546 165.129 101.113C165.071 101.05 165.157 100.956 165.221 101.015Z" fill="#263238"/>
<path d="M169.31 87.0413C172.447 86.7571 175.516 88.1669 176.901 90.1724C177.742 91.3907 177.994 92.6953 177.935 94.058C177.933 94.1133 177.82 94.1144 177.818 94.059C177.759 91.918 176.44 89.6196 174.003 88.3953C171.662 87.2193 168.717 87.1048 166.316 88.3383C165.063 88.9822 164.096 89.9331 163.666 91.0077C163.618 91.1282 163.375 91.0804 163.413 90.9589C164.042 88.9074 166.47 87.2985 169.31 87.0413Z" fill="#263238"/>
<path d="M151.895 95.8809C152.216 94.2828 153.144 92.8388 154.418 91.8353C156.205 90.4292 158.396 90.3598 160.575 90.3359C160.634 90.3354 160.636 90.4271 160.577 90.4276C158.722 90.4542 156.842 90.5898 155.252 91.6433C153.957 92.502 152.938 93.8066 152.486 95.3021C151.548 98.4055 153.162 101.941 156.151 103.214C157.843 103.935 159.835 103.914 161.51 103.156C161.577 103.126 161.638 103.221 161.571 103.254C158.52 104.732 154.617 103.705 152.827 100.781C151.943 99.339 151.561 97.5495 151.895 95.8809Z" fill="#263238"/>
<path d="M183.895 100.879C183.895 100.879 186.211 94.9315 183.348 91.9795C181.726 90.3071 177.085 91.0964 177.085 91.0964C177.085 91.0964 175.265 88.5859 171.294 88.1541C167.28 87.718 162.901 90.5474 162.901 90.5474C162.901 90.5474 158.941 88.8566 155.697 91.2537C151.175 94.5957 152.647 101.914 157.805 103.717C161.427 104.983 165.723 101.401 165.723 101.401C166.178 101.409 171.083 103.635 174.066 99.1377C174.066 99.1377 177.175 101.311 179.495 99.2592C179.495 99.2592 181.073 101.649 183.895 100.879Z" fill="#263238"/>
<path d="M171.999 117.053C169.307 117.218 166.984 115.16 166.819 112.467C166.655 109.773 168.71 107.447 171.402 107.283C174.093 107.118 176.417 109.175 176.582 111.87C176.721 114.148 175.272 116.163 173.194 116.829C172.814 116.951 172.414 117.028 171.999 117.053ZM167.471 112.427C167.614 114.76 169.627 116.543 171.959 116.4C174.29 116.26 176.071 114.243 175.929 111.909C175.786 109.576 173.773 107.793 171.441 107.936C171.082 107.958 170.734 108.024 170.406 108.13C168.606 108.708 167.351 110.453 167.471 112.427Z" fill="#3940A0"/>
<path d="M161.858 119.011C159.888 119.397 157.864 117.556 157.345 114.908C157.097 113.644 157.224 112.381 157.701 111.352C158.195 110.287 159 109.594 159.978 109.405C160.952 109.214 161.961 109.549 162.819 110.349C163.65 111.121 164.244 112.243 164.491 113.508C164.981 116.014 163.95 118.36 162.168 118.932C162.067 118.963 161.964 118.99 161.858 119.011ZM158.295 111.627C157.875 112.532 157.765 113.653 157.986 114.783C158.436 117.076 160.116 118.686 161.732 118.369C163.354 118.053 164.298 115.928 163.85 113.633C163.628 112.503 163.104 111.506 162.374 110.827C161.672 110.175 160.865 109.897 160.103 110.047C160.021 110.063 159.941 110.084 159.863 110.109C159.206 110.32 158.655 110.85 158.295 111.627Z" fill="#3940A0"/>
<path d="M167.088 112.99L167.404 112.417C166.557 111.948 164.712 111.456 163.787 112.941L164.341 113.287C165.169 111.956 167.01 112.949 167.088 112.99Z" fill="#3940A0"/>
<path d="M188.715 110.034L189.227 109.628C189.036 109.389 187.332 107.294 185.854 107.342C184.473 107.39 176.031 109.883 175.672 109.99L175.858 110.617C178.278 109.9 184.809 108.031 185.876 107.996C186.852 107.964 188.255 109.457 188.715 110.034Z" fill="#3940A0"/>
<path d="M183.06 111.33C183.06 111.33 185.06 105.051 187.798 105.608C190.536 106.166 190.15 114.485 187.723 116.362C185.296 118.24 183.516 116.026 183.516 116.026L183.06 111.33Z" fill="#DD6A57"/>
<path d="M187.628 107.99C187.671 107.973 187.699 108.032 187.666 108.06C185.984 109.439 185.526 111.541 185.392 113.614C185.743 112.723 186.401 112.09 187.567 112.474C187.628 112.494 187.605 112.588 187.547 112.594C186.706 112.67 186.18 112.984 185.844 113.782C185.606 114.346 185.524 114.992 185.414 115.593C185.378 115.794 185.038 115.799 185.043 115.579C185.043 115.564 185.044 115.546 185.044 115.53C184.232 113.089 185.071 109.058 187.628 107.99Z" fill="#263238"/>
<path d="M186.086 106.576C186.086 106.576 185.696 97.7985 182.61 93.2772C179.175 88.2443 169.69 84.8729 162.902 90.5475C162.902 90.5475 172.759 87.985 179.211 94.0458C182.179 96.8335 183.205 107.133 183.205 107.133L186.086 106.576Z" fill="#C7C7C7"/>
<path d="M178.423 111.889C178.873 116.334 182.397 119.616 186.293 119.221C190.189 118.825 192.982 114.902 192.531 110.457C192.081 106.013 188.557 102.731 184.661 103.126C180.765 103.521 177.972 107.445 178.423 111.889Z" fill="#C7C7C7"/>
<path d="M180.452 111.429C180.857 115.424 184.024 118.375 187.526 118.019C191.028 117.663 193.539 114.136 193.134 110.141C192.729 106.146 189.562 103.196 186.06 103.552C182.558 103.907 180.047 107.434 180.452 111.429Z" fill="#455A64"/>
<path d="M201.782 135.132C212.287 146.393 237.275 188.649 229.174 196.44C221.014 204.287 176.111 193.744 163.481 187.722C159.725 185.931 174 162.489 178.416 161.941C182.092 161.486 200.887 170.09 201.43 169.008C202.044 167.785 197.776 159.936 193.254 143.595C188.041 124.751 197.142 130.159 201.782 135.132Z" fill="#DD6A57"/>
<path d="M159.752 154.375C150.621 153.102 148.081 154.178 140.945 149.009C136.263 145.616 132.089 147.153 134.761 152.543C139.13 161.36 150.566 165.478 154.942 165.763L159.752 154.375Z" fill="#DD6A57"/>
<path d="M184.005 163.172C184.005 163.172 173.745 157.47 164.149 155.15C157.513 153.546 142.686 151.667 128.501 166.307C125.136 169.78 122.802 177.116 130.356 173.442C135.722 170.832 138.337 167.555 141.733 166.605C141.733 166.605 139.872 176.29 143.479 179.528C145.091 180.975 149.584 184.821 153.509 187.316C153.509 187.316 154.282 186.607 155.133 185.568C155.133 185.568 158.789 188.275 165.67 187.619L184.005 163.172Z" fill="#DD6A57"/>
<path d="M157.571 154.632C154.398 156.288 147.733 159.91 143.31 164.771C138.397 170.17 130.388 181.897 134.407 185.485C137.355 188.116 140.806 183.908 140.806 183.908C140.806 183.908 138.516 189.453 141.698 191.247C144.598 192.882 147.073 189.467 147.073 189.467C147.073 189.467 146.262 193.07 149.358 194.106C153.082 195.352 154.171 187.597 159.034 185.598C160.125 185.149 157.571 154.632 157.571 154.632Z" fill="#DD6A57"/>
<path d="M149.876 169.015C147.147 171.061 142.142 177.301 140.757 183.765C140.725 183.912 140.819 184.014 140.876 183.886C143.911 177.094 148.032 171.381 149.926 169.061C149.952 169.03 149.907 168.992 149.876 169.015Z" fill="#263238"/>
<path d="M155.178 174.137C153.005 176.145 148.132 182.807 146.954 189.405C146.928 189.553 147.029 189.649 147.08 189.519C149.959 182.291 153.479 176.609 155.231 174.18C155.255 174.148 155.206 174.111 155.178 174.137Z" fill="#263238"/>
<path d="M141.731 166.546C138.756 167.423 136.82 168.884 134.309 170.629C133.067 171.492 131.808 172.339 130.476 173.059C129.264 173.715 127.476 174.707 126.185 173.679C125.466 173.108 125.477 172.067 125.637 171.247C125.816 170.325 126.168 169.439 126.715 168.674C126.742 168.636 126.676 168.586 126.647 168.624C126.143 169.305 125.709 170.029 125.416 170.826C125.151 171.547 124.944 172.386 125.147 173.15C125.585 174.793 127.519 175.008 128.89 174.556C129.709 174.286 130.485 173.85 131.232 173.422C131.953 173.008 132.654 172.559 133.343 172.093C134.758 171.137 136.116 170.1 137.519 169.127C139.061 168.059 140.125 167.536 141.776 166.646C141.832 166.616 141.79 166.529 141.731 166.546Z" fill="#263238"/>
<path d="M135.5 177.024C136.27 175.326 140.44 168.254 141.793 166.617C141.827 166.575 141.771 166.521 141.731 166.558C139.412 168.759 135.685 174.603 134.816 176.476C133.957 178.326 132.969 180.691 132.969 182.754C132.968 185.865 135.031 186.455 135.793 186.608C136.703 186.789 137.622 186.598 138.439 186.174C139.349 185.703 140.229 184.725 140.838 183.919C140.869 183.876 140.813 183.818 140.776 183.86C139.699 185.085 137.909 186.296 136.22 186.073C135.487 185.977 134.744 185.643 134.297 185.035C133.77 184.321 133.729 183.38 133.8 182.529C133.961 180.601 134.71 178.769 135.5 177.024Z" fill="#263238"/>
<path d="M146.954 189.405C146.521 189.776 145.629 191.066 144.213 191.341C143.177 191.543 142.093 191.445 141.297 190.69C140.518 189.95 140.226 188.905 140.178 187.86C140.151 187.269 140.622 184.714 140.829 183.944C140.845 183.883 140.769 183.856 140.751 183.913C140.301 185.286 139.817 186.781 139.817 188.126C139.816 189.245 140.17 190.446 141.008 191.228C141.874 192.036 143.145 192.322 144.262 191.903C144.816 191.696 146.565 190.574 147.074 189.467C147.084 189.443 146.973 189.389 146.954 189.405Z" fill="#263238"/>
<path d="M158.739 185.039C158.25 185.328 157.828 185.76 157.421 186.152C156.985 186.572 156.564 187.01 156.153 187.455C155.331 188.345 154.621 189.364 154.002 190.404C153.374 191.459 152.796 192.636 151.771 193.37C150.768 194.089 149.39 194.203 148.368 193.455C147.835 193.065 147.476 192.511 147.304 191.877C147.127 191.223 147.009 190.428 147.106 189.754C147.114 189.693 147.027 189.683 147.022 189.745C146.971 190.4 146.794 191.009 146.869 191.673C146.937 192.258 147.127 192.836 147.479 193.312C148.2 194.287 149.478 194.715 150.653 194.499C151.952 194.26 152.905 193.283 153.61 192.226C154.395 191.049 155.042 189.794 155.881 188.65C156.322 188.048 156.756 187.441 157.239 186.872C157.742 186.28 158.346 185.75 158.81 185.128C158.848 185.078 158.799 185.004 158.739 185.039Z" fill="#263238"/>
<path d="M162.377 187.694C161.4 187.61 159.147 187.233 157.37 186.655C157.318 186.638 157.244 186.784 157.292 186.81C157.955 187.177 159.343 187.541 159.761 187.626C160.597 187.797 161.512 187.872 162.364 187.785C162.412 187.78 162.434 187.699 162.377 187.694Z" fill="#263238"/>
<path d="M218.433 177.225C215.812 175.433 213.017 173.892 210.167 172.498C207.345 171.117 204.386 170.047 201.395 169.097C199.686 168.554 197.957 168.096 196.228 167.626C196.175 167.612 196.155 167.692 196.207 167.708C199.224 168.615 202.176 169.79 205.067 171.038C207.946 172.28 210.798 173.573 213.63 174.921C215.231 175.683 216.797 176.521 218.372 177.337C218.445 177.375 218.5 177.271 218.433 177.225Z" fill="#263238"/>
<path d="M223.297 161.691L197.799 160.846C197.799 160.846 193.052 148.249 191.245 137.043C189.438 125.837 198.609 129.258 208.184 141.255C217.759 153.252 223.297 161.691 223.297 161.691Z" fill="#3940A0"/>
<path d="M200.637 151.487C200.497 151.596 200.377 151.655 200.231 151.688C199.949 151.742 199.673 151.661 199.478 151.455C199.169 151.156 198.675 151.069 198.307 151.254C198.117 151.33 197.96 151.498 197.868 151.634C197.77 151.78 197.662 151.916 197.575 152.073C197.732 151.986 197.868 151.878 198.02 151.78C198.161 151.666 198.274 151.601 198.421 151.563C198.697 151.498 198.99 151.574 199.18 151.764C199.467 152.062 199.96 152.176 200.334 152.008C200.524 151.932 200.686 151.78 200.784 151.634C200.881 151.487 200.99 151.352 201.077 151.194C200.919 151.281 200.784 151.39 200.637 151.487ZM208.681 146.795C208.643 146.621 208.621 146.448 208.572 146.274C208.524 146.448 208.502 146.621 208.469 146.795C208.448 146.974 208.415 147.104 208.339 147.229C208.188 147.473 207.927 147.63 207.662 147.625C207.244 147.619 206.816 147.885 206.67 148.276C206.589 148.46 206.583 148.683 206.616 148.856C206.648 149.03 206.67 149.203 206.719 149.377C206.768 149.203 206.789 149.03 206.827 148.856C206.843 148.677 206.892 148.553 206.968 148.428C207.131 148.189 207.385 148.048 207.667 148.053C208.095 148.048 208.502 147.761 208.637 147.37C208.719 147.186 208.708 146.952 208.681 146.795ZM199.722 132.762C199.722 132.827 199.727 132.886 199.738 132.946C199.776 133.114 199.792 133.288 199.841 133.461C199.89 133.288 199.911 133.114 199.949 132.946C199.949 132.941 199.949 132.941 199.949 132.935C199.873 132.87 199.797 132.816 199.722 132.762ZM217.9 153.988C217.705 153.982 217.526 153.901 217.396 153.765C217.109 153.467 216.616 153.359 216.236 153.527C216.047 153.597 215.884 153.755 215.786 153.896C215.689 154.048 215.58 154.183 215.494 154.34C215.651 154.254 215.786 154.145 215.938 154.048C216.074 153.934 216.198 153.874 216.339 153.847C216.621 153.787 216.903 153.874 217.098 154.075C217.369 154.346 217.792 154.438 218.144 154.33C218.068 154.221 217.987 154.107 217.9 153.988ZM200.253 141.267C200.074 141.246 199.944 141.202 199.819 141.126C199.581 140.964 199.445 140.709 199.451 140.427C199.445 139.993 199.158 139.586 198.768 139.45C198.578 139.374 198.35 139.38 198.188 139.412C198.014 139.45 197.841 139.472 197.667 139.521C197.841 139.564 198.014 139.586 198.188 139.624C198.372 139.645 198.497 139.678 198.627 139.754C198.871 139.906 199.022 140.166 199.022 140.432C199.017 140.844 199.282 141.278 199.673 141.425C199.857 141.506 200.079 141.511 200.253 141.479C200.421 141.441 200.594 141.425 200.768 141.376C200.594 141.327 200.421 141.305 200.253 141.267ZM211.982 159.119C211.803 159.098 211.678 159.054 211.553 158.973C211.315 158.816 211.174 158.561 211.179 158.273C211.174 157.845 210.887 157.438 210.496 157.302C210.312 157.226 210.079 157.232 209.922 157.264C209.749 157.302 209.575 157.319 209.402 157.367C209.575 157.416 209.749 157.438 209.922 157.476C210.101 157.492 210.231 157.53 210.356 157.606C210.599 157.753 210.757 158.013 210.751 158.284C210.746 158.696 211.011 159.125 211.402 159.271C211.586 159.358 211.808 159.364 211.982 159.331C212.155 159.293 212.328 159.271 212.502 159.223C212.328 159.174 212.155 159.152 211.982 159.119Z" fill="white"/>
<path d="M198.847 160.76C198.71 160.759 197.813 160.602 197.809 160.602C197.745 160.267 196.291 155.002 195.909 153.856C195.13 151.522 194.214 149.227 193.33 146.931C193.302 146.858 193.19 146.889 193.213 146.966C193.788 148.942 194.328 150.931 194.919 152.902C194.741 152.623 194.565 152.341 194.396 152.056C194.051 151.471 193.749 150.863 193.427 150.266C193.398 150.213 193.314 150.253 193.331 150.31C193.583 151.139 193.998 151.924 194.455 152.657C194.652 152.973 194.88 153.271 195.118 153.559C195.168 153.723 195.216 153.888 195.267 154.051C195.629 155.203 197.496 160.903 197.591 160.909C197.615 160.911 198.536 160.931 198.821 160.933C198.892 160.933 198.918 160.76 198.847 160.76Z" fill="#263238"/>
<path d="M219.17 156.75C213.671 156.339 208.135 156.313 202.613 156.395C201.051 156.418 199.489 156.478 197.929 156.575C197.885 156.578 197.877 156.642 197.923 156.645C200.674 156.792 203.429 156.826 206.185 156.877C208.948 156.928 211.715 156.956 214.479 156.93C216.04 156.915 217.6 156.902 219.161 156.854C219.229 156.852 219.239 156.755 219.17 156.75Z" fill="#263238"/>
<path d="M130.882 205.772H134.775V203.228H130.882V205.772Z" fill="#455A64"/>
<path d="M125.833 205.604H129.727V203.06H125.833V205.604Z" fill="#455A64"/>
<path d="M120.785 205.437H124.678V202.892H120.785V205.437Z" fill="#455A64"/>
<path d="M115.736 205.269H119.629V202.724H115.736V205.269Z" fill="#455A64"/>
<path d="M110.687 205.1H114.58V202.556H110.687V205.1Z" fill="#455A64"/>
<path d="M105.638 204.932H109.531V202.388H105.638V204.932Z" fill="#455A64"/>
<path d="M100.59 204.764H104.483V202.22H100.59V204.764Z" fill="#455A64"/>
<path d="M95.5411 204.596H99.4343V202.052H95.5411V204.596Z" fill="#455A64"/>
<path d="M90.4926 204.428H94.3857V201.884H90.4926V204.428Z" fill="#455A64"/>
<path d="M89.5396 207.236H135.728V204.14L89.5396 202.852V207.236Z" fill="#37474F"/>
<path d="M44.4577 195.029H120.709L108.582 138.215H32.3315L44.4577 195.029Z" fill="#455A64"/>
<path d="M41.6372 195.029H117.888L105.762 138.215H29.511L41.6372 195.029Z" fill="#37474F"/>
<path d="M67.11 163.33C67.5225 165.936 69.9674 168.048 72.5712 168.048C75.175 168.048 76.9517 165.936 76.5392 163.33C76.1267 160.724 73.6818 158.611 71.078 158.611C68.4742 158.611 66.6976 160.724 67.11 163.33Z" fill="#263238"/>
<path d="M63.2029 209.867H100.705V206.952L63.2029 205.738V209.867Z" fill="#455A64"/>
<path d="M53.0066 209.863H73.1419L85.2681 178.027H65.1328L53.0066 209.863Z" fill="#455A64"/>
<path d="M49.6924 209.863H69.8277L81.9538 178.027H61.8191L49.6924 209.863Z" fill="#263238"/>
<path d="M137.154 210.641C137.154 210.641 172.518 210.641 175.819 210.641C179.119 210.641 174.344 201.238 162.302 197.631C150.259 194.023 133.356 207.114 137.154 210.641Z" fill="#37474F"/>
<path d="M152.326 210.641C152.091 209.605 151.763 208.604 151.392 207.627C151.009 206.654 150.56 205.712 150.022 204.825C149.504 203.924 148.854 203.11 148.145 202.355L147.595 201.8L146.996 201.297C146.617 200.927 146.145 200.689 145.727 200.352C146.692 200.78 147.66 201.298 148.438 202.051C149.237 202.773 149.939 203.614 150.486 204.545C151.036 205.473 151.48 206.462 151.79 207.49C152.103 208.514 152.299 209.577 152.326 210.641Z" fill="#263238"/>
<path d="M147.745 201.694C147.216 201.979 146.685 202.251 146.167 202.55C145.643 202.834 145.123 203.126 144.612 203.431C143.592 204.044 142.578 204.662 141.62 205.356C140.653 206.037 139.739 206.787 138.924 207.631C138.52 208.056 138.15 208.515 137.845 209.015C137.525 209.508 137.29 210.056 137.154 210.642C137.168 210.037 137.359 209.443 137.612 208.888C137.882 208.339 138.23 207.832 138.612 207.356C139.386 206.409 140.326 205.621 141.306 204.915C142.294 204.216 143.335 203.599 144.414 203.067C145.493 202.534 146.597 202.052 147.745 201.694Z" fill="#263238"/>
<path d="M209.747 188.126L207.453 217.003H191.579L189.284 188.126H209.747Z" fill="#3940A0"/>
<path opacity="0.1" d="M209.747 188.126L207.453 217.003H191.579L189.284 188.126H209.747Z" fill="black"/>
<path d="M211.114 185.519H187.783V189.729H211.114V185.519Z" fill="#455A64"/>
<path d="M209.516 185.519H189.382L190.559 180.789H208.339L209.516 185.519Z" fill="#37474F"/>
<path d="M205.027 202.819C205.027 206.567 202.56 209.607 199.516 209.607C196.473 209.607 194.005 206.567 194.005 202.819C194.005 199.07 196.473 196.03 199.516 196.03C202.56 196.03 205.027 199.07 205.027 202.819Z" fill="white"/>
</svg>
