<svg width="84" height="85" viewBox="0 0 84 85" fill="none" xmlns="http://www.w3.org/2000/svg">
<g clip-path="url(#clip0_4_2452)">
<path d="M80.3386 73.3713C80.3386 67.0714 75.2068 61.9246 68.9069 61.8903C67.7257 61.8838 66.5969 62.0745 65.5207 62.4099L57.3833 50.0543C59.7327 47.6521 61.2158 44.3527 61.2158 40.6646C61.2158 34.1677 56.6746 28.7223 50.7159 27.561L50.7159 18.5704C54.6403 17.5681 57.5408 14.0401 57.5408 9.80077C57.5408 4.77389 53.459 0.65663 48.4191 0.629144C43.3792 0.601658 39.2842 4.67433 39.2842 9.71433C39.2842 13.9406 42.1848 17.5264 46.1091 18.5584L46.1091 27.549C42.7885 28.1609 39.9142 30.114 38.0374 32.8469L26.1332 26.9282C26.3825 25.9977 26.5269 25.0273 26.5269 24.0429C26.5269 17.7429 21.3951 12.583 15.0952 12.5487C8.7953 12.5143 3.66351 17.6182 3.66351 23.9182C3.66351 30.2182 8.7953 35.378 15.0952 35.4124C18.7439 35.4323 21.9595 33.7042 24.0595 31.0382L36.0818 37.0362C35.7799 38.1502 35.6093 39.3305 35.6093 40.538C35.6093 43.4387 36.528 46.1343 38.0505 48.3476L31.2781 55.1094C29.9262 54.3145 28.3513 53.8203 26.6844 53.8112C21.6445 53.7837 17.5495 57.8564 17.5495 62.8964C17.5495 67.9233 21.6445 72.0537 26.6844 72.0812C31.7112 72.1086 35.8193 68.0229 35.8193 62.9961C35.8193 61.0404 35.1762 59.2388 34.1262 57.7499L40.7017 51.1577C41.6861 51.9374 42.7754 52.5734 43.9698 53.0393C45.3479 53.5849 46.8572 53.8819 48.4191 53.8904C50.2828 53.9006 52.0415 53.4639 53.6296 52.7244L61.4914 64.6586C59.0502 66.7321 57.4752 69.8079 57.4752 73.2598C57.4752 79.5598 62.607 84.7197 68.9069 84.754C75.2068 84.7884 80.3386 79.6713 80.3386 73.3713Z" fill="white"/>
</g>
<defs>
<clipPath id="clip0_4_2452">
<rect width="84" height="84" fill="white" transform="matrix(-4.37114e-08 1 -0.999985 -0.00545359 83.999 0.822754)"/>
</clipPath>
</defs>
</svg>
