<svg width="72" height="83" viewBox="0 0 72 83" fill="none" xmlns="http://www.w3.org/2000/svg">
<path d="M65.2471 20.8657H37.5878L37.1221 20.3353V14.3301C39.6859 13.7343 41.6221 11.1474 41.6221 8.05322C41.6221 4.52082 39.0987 1.64697 35.9971 1.64697C32.8954 1.64697 30.3721 4.52082 30.3721 8.05322C30.3721 11.1462 32.3082 13.7343 34.8721 14.3301V20.3353L34.4063 20.8657H6.74707C3.64545 20.8657 1.12207 23.7396 1.12207 27.272V65.7095C1.12207 69.2419 3.64545 72.1157 6.74707 72.1157H20.2471V78.522H15.7471V81.0845H56.2471V78.522H51.7471V72.1157H65.2471C68.3487 72.1157 70.8721 69.2419 70.8721 65.7095V27.272C70.8721 23.7396 68.3487 20.8657 65.2471 20.8657ZM42.0878 28.5532H53.9971V34.9595H49.4971V45.2095H53.9971V51.6157H40.3373C39.8344 49.412 38.0884 47.772 35.9971 47.772C33.9057 47.772 32.1597 49.412 31.6568 51.6157H17.9971V45.2095H22.4971V34.9595H17.9971V28.5532H29.9063L35.9971 35.4899L42.0878 28.5532ZM51.7471 42.647V37.522H58.4971V42.647H51.7471ZM38.2471 52.897C38.2471 54.3102 37.2379 55.4595 35.9971 55.4595C34.7562 55.4595 33.7471 54.3102 33.7471 52.897C33.7471 51.4838 34.7562 50.3345 35.9971 50.3345C37.2379 50.3345 38.2471 51.4838 38.2471 52.897ZM20.2471 37.522V42.647H13.4971V37.522H20.2471ZM35.9971 31.8665L31.9628 27.272L35.9971 22.6774L40.0313 27.272L35.9971 31.8665ZM32.6221 8.05322C32.6221 5.93404 34.1363 4.20947 35.9971 4.20947C37.8578 4.20947 39.3721 5.93404 39.3721 8.05322C39.3721 10.1724 37.8578 11.897 35.9971 11.897C34.1363 11.897 32.6221 10.1724 32.6221 8.05322ZM6.74707 23.4282H32.1563L29.9063 25.9907H15.7471V34.9595H11.2471V45.2095H15.7471V54.1782H31.6568C32.1597 56.382 33.9057 58.022 35.9971 58.022C38.0884 58.022 39.8344 56.382 40.3373 54.1782H56.2471V45.2095H60.7471V34.9595H56.2471V25.9907H42.0878L39.8378 23.4282H65.2471C67.1078 23.4282 68.6221 25.1528 68.6221 27.272V60.5845H3.37207V27.272C3.37207 25.1528 4.88632 23.4282 6.74707 23.4282ZM49.4971 78.522H22.4971V72.1157H49.4971V78.522ZM65.2471 69.5532H6.74707C4.88632 69.5532 3.37207 67.8287 3.37207 65.7095V63.147H68.6221V65.7095C68.6221 67.8287 67.1078 69.5532 65.2471 69.5532Z" fill="white"/>
</svg>
