<svg width="126" height="141" viewBox="0 0 126 141" fill="none" xmlns="http://www.w3.org/2000/svg">
<g filter="url(#filter0_d_4_2440)">
<path d="M111.753 33.8657H65.6542L64.8779 32.9989V23.1855C69.1511 22.2119 72.3779 17.9846 72.3779 12.9282C72.3779 7.15575 68.1723 2.45947 63.0029 2.45947C57.8336 2.45947 53.6279 7.15575 53.6279 12.9282C53.6279 17.9825 56.8548 22.2119 61.1279 23.1855V32.9989L60.3517 33.8657H14.2529C9.08355 33.8657 4.87793 38.562 4.87793 44.3345V107.147C4.87793 112.919 9.08355 117.616 14.2529 117.616H36.7529V128.084H29.2529V132.272H96.7529V128.084H89.2529V117.616H111.753C116.922 117.616 121.128 112.919 121.128 107.147V44.3345C121.128 38.562 116.922 33.8657 111.753 33.8657ZM73.1542 46.4282H93.0029V56.897H85.5029V73.647H93.0029V84.1157H70.2367C69.3986 80.5145 66.4886 77.8345 63.0029 77.8345C59.5173 77.8345 56.6073 80.5145 55.7692 84.1157H33.0029V73.647H40.5029V56.897H33.0029V46.4282H52.8517L63.0029 57.7638L73.1542 46.4282ZM89.2529 69.4595V61.0845H100.503V69.4595H89.2529ZM66.7529 86.2095C66.7529 88.5189 65.0711 90.397 63.0029 90.397C60.9348 90.397 59.2529 88.5189 59.2529 86.2095C59.2529 83.9001 60.9348 82.022 63.0029 82.022C65.0711 82.022 66.7529 83.9001 66.7529 86.2095ZM36.7529 61.0845V69.4595H25.5029V61.0845H36.7529ZM63.0029 51.8427L56.2792 44.3345L63.0029 36.8263L69.7267 44.3345L63.0029 51.8427ZM57.3779 12.9282C57.3779 9.46516 59.9017 6.64697 63.0029 6.64697C66.1042 6.64697 68.6279 9.46516 68.6279 12.9282C68.6279 16.3913 66.1042 19.2095 63.0029 19.2095C59.9017 19.2095 57.3779 16.3913 57.3779 12.9282ZM14.2529 38.0532H56.6017L52.8517 42.2407H29.2529V56.897H21.7529V73.647H29.2529V88.3032H55.7692C56.6073 91.9045 59.5173 94.5845 63.0029 94.5845C66.4886 94.5845 69.3986 91.9045 70.2367 88.3032H96.7529V73.647H104.253V56.897H96.7529V42.2407H73.1542L69.4042 38.0532H111.753C114.854 38.0532 117.378 40.8714 117.378 44.3345V98.772H8.62793V44.3345C8.62793 40.8714 11.1517 38.0532 14.2529 38.0532ZM85.5029 128.084H40.5029V117.616H85.5029V128.084ZM111.753 113.428H14.2529C11.1517 113.428 8.62793 110.61 8.62793 107.147V102.959H117.378V107.147C117.378 110.61 114.854 113.428 111.753 113.428Z" fill="white" fill-opacity="0.13"/>
</g>
<defs>
<filter id="filter0_d_4_2440" x="-1" y="0.365723" width="128" height="142" filterUnits="userSpaceOnUse" color-interpolation-filters="sRGB">
<feFlood flood-opacity="0" result="BackgroundImageFix"/>
<feColorMatrix in="SourceAlpha" type="matrix" values="0 0 0 0 0 0 0 0 0 0 0 0 0 0 0 0 0 0 127 0" result="hardAlpha"/>
<feOffset dy="4"/>
<feGaussianBlur stdDeviation="2"/>
<feComposite in2="hardAlpha" operator="out"/>
<feColorMatrix type="matrix" values="0 0 0 0 0 0 0 0 0 0 0 0 0 0 0 0 0 0 0.25 0"/>
<feBlend mode="normal" in2="BackgroundImageFix" result="effect1_dropShadow_4_2440"/>
<feBlend mode="normal" in="SourceGraphic" in2="effect1_dropShadow_4_2440" result="shape"/>
</filter>
</defs>
</svg>
