<svg width="120" height="117" viewBox="0 0 120 117" fill="none" xmlns="http://www.w3.org/2000/svg">
<g clip-path="url(#clip0_4_2469)">
<path d="M59.1911 0.674232C49.1657 2.44582 40.897 9.41862 37.7348 18.799C35.0879 26.6349 36.3528 35.1748 41.1781 42.1022C42.5367 44.0555 45.371 47.0082 47.0107 48.1665C48.2053 49.0296 48.4161 49.393 47.7134 49.393C46.9404 49.393 43.6376 50.3242 42.1854 50.9375L40.7565 51.5507L22.4859 51.6643L4.21522 51.7778L3.0206 52.3911C0.678207 53.5948 -0.586684 55.7071 -0.586684 58.3418C-0.56326 60.1361 2.83321 95.7269 3.0206 96.2039C3.16114 96.5219 2.9269 96.59 1.21696 96.6808C-1.21913 96.7944 -2.9525 97.5439 -4.31108 99.043C-7.44989 102.495 -6.02103 108.196 -1.61734 109.809C-0.329021 110.263 -0.258747 110.263 54.2955 110.218L108.92 110.149L109.998 109.627C111.426 108.946 112.715 107.674 113.394 106.288C114.261 104.539 114.19 102.155 113.23 100.292C111.965 97.8392 109.693 96.6354 106.297 96.6354H104.587V85.756C104.587 74.0136 104.493 72.9006 103.275 69.1076C101.026 62.1802 96.1306 56.2749 89.5485 52.5501C87.4403 51.3463 83.8331 49.9835 81.4907 49.4838L79.5933 49.075L80.9285 48.1211C82.6619 46.8492 85.5196 43.9192 86.7845 42.1476C92.3594 34.1528 93.1323 23.5914 88.7521 15.0287C84.8871 7.44262 77.5555 2.15056 68.8886 0.674232C66.3823 0.265404 61.5804 0.265404 59.1911 0.674232ZM67.6471 5.67103C72.0508 6.42055 76.0563 8.39655 79.3591 11.44C82.5213 14.37 84.5124 17.6179 85.6601 21.6835C86.4331 24.4544 86.4097 29.5648 85.6367 32.3585C83.5285 40.0126 77.9068 45.6 70.0364 47.9394C68.0922 48.5299 67.6003 48.5753 64.0633 48.5753C61.0416 48.5753 59.8704 48.4845 58.6758 48.1665C51.836 46.3495 46.8936 42.4656 43.9187 36.6057C42.1385 33.0853 41.7403 31.3591 41.7403 27.1345C41.7403 24.2273 41.8106 23.2961 42.2322 21.8198C42.8881 19.5031 44.0359 16.9365 45.207 15.2104C46.6359 13.0527 50.5243 9.48676 52.6793 8.3057C57.3641 5.73917 62.611 4.80795 67.6471 5.67103ZM79.3591 54.1854C89.1971 56.116 96.9504 63.6793 98.9649 73.264C99.3865 75.2855 99.4334 76.3984 99.4334 85.9377V96.4083H94.7486H90.0638L90.298 95.8405C90.5791 95.1364 91.4692 90.1169 91.4692 89.2765C91.4692 88.5043 90.9071 87.4368 90.3683 87.1869C90.1341 87.0734 86.316 86.9371 81.8655 86.8689L73.7842 86.7554L73.1518 79.9416C70.9031 56.1614 70.9499 56.4566 70.1769 55.0257L69.4742 53.7084H73.2455C76.1032 53.7084 77.5555 53.822 79.3591 54.1854ZM65.1642 57.0017C65.4453 57.2062 65.7498 57.6831 65.8201 58.092C65.9372 58.7506 69.4508 95.795 69.4508 96.3856C69.4508 96.5673 61.8146 96.6354 39.4916 96.59L9.53244 96.5218L8.9 95.954C8.54864 95.6361 8.17386 95.1818 8.08016 94.932C7.98646 94.6821 7.1432 86.2103 6.18282 76.1031L4.47288 57.7513L5.10532 57.2062L5.76119 56.6611H35.205C61.2524 56.6611 64.7192 56.7065 65.1642 57.0017ZM85.5899 92.9787C85.3556 94.4777 84.8403 95.3635 83.9033 95.9313C83.1538 96.3629 82.7556 96.4083 78.9843 96.4083H74.8617L74.7446 95.6588C74.6743 95.2727 74.5572 94.2506 74.4869 93.3875L74.3464 91.8657H80.0618H85.7772L85.5899 92.9787ZM108.217 102.2C109.061 102.995 109.084 103.926 108.264 104.767L107.796 105.266H54.0144H0.256577L-0.282173 104.767C-1.05516 104.062 -1.03174 102.722 -0.211901 102.109L0.420544 101.632H54.0379H107.655L108.217 102.2Z" fill="white" fill-opacity="0.12"/>
<path d="M33.1826 66.7742C28.7983 68.6811 26.5624 74.2717 28.4038 78.6489C29.8944 82.2027 33.2264 84.3696 37.1284 84.3696C45.327 84.3696 49.492 75.1385 44.0117 69.1145C43.1349 68.1177 41.7757 67.0775 40.9866 66.7308C39.189 65.9941 34.8925 66.0374 33.1826 66.7742Z" fill="white" fill-opacity="0.12"/>
</g>
<defs>
<clipPath id="clip0_4_2469">
<path d="M0 10.3657C0 4.84288 4.47715 0.365723 10 0.365723H110C115.523 0.365723 120 4.84288 120 10.3657V116.366H0V10.3657Z" fill="white"/>
</clipPath>
</defs>
</svg>
