<svg width="72" height="73" viewBox="0 0 72 73" fill="none" xmlns="http://www.w3.org/2000/svg">
<g clip-path="url(#clip0_4_2464)">
<path d="M39.1208 2.67181C33.102 3.77277 28.138 8.10608 26.2395 13.9356C24.6505 18.8052 25.4098 24.1125 28.3067 28.4175C29.1223 29.6314 30.8239 31.4664 31.8083 32.1862C32.5255 32.7226 32.652 32.9484 32.2302 32.9484C31.7661 32.9484 29.7833 33.5271 28.9114 33.9082L28.0536 34.2893L17.0848 34.3599L6.11609 34.4305L5.3989 34.8116C3.99265 35.5597 3.23327 36.8724 3.23327 38.5097C3.24734 39.6248 5.2864 61.743 5.3989 62.0394C5.48327 62.237 5.34265 62.2793 4.31609 62.3358C2.85359 62.4064 1.81296 62.8722 0.997336 63.8038C-0.887039 65.9492 -0.0292265 69.4921 2.61452 70.4942C3.38796 70.7765 3.43015 70.7765 36.1817 70.7483L68.9755 70.706L69.6223 70.3813C70.4802 69.9579 71.2536 69.1674 71.6614 68.3064C72.1817 67.2196 72.1395 65.7375 71.563 64.5801C70.8036 63.0557 69.4395 62.3076 67.4005 62.3076H66.3739V55.5465C66.3739 48.2491 66.3177 47.5574 65.5864 45.2002C64.2364 40.8952 61.2973 37.2253 57.3458 34.9104C56.0802 34.1623 53.9145 33.3154 52.5083 33.0049L51.3692 32.7508L52.1708 32.158C53.2114 31.3675 54.927 29.5467 55.6864 28.4458C59.0333 23.4773 59.4973 16.9138 56.8677 11.5925C54.5473 6.87807 50.1458 3.58928 44.9427 2.67181C43.438 2.41774 40.5552 2.41774 39.1208 2.67181ZM44.1973 5.7771C46.8411 6.2429 49.2458 7.4709 51.2286 9.3623C53.127 11.1831 54.3223 13.2016 55.0114 15.7282C55.4755 17.4502 55.4614 20.6261 54.9973 22.3622C53.7317 27.1189 50.3567 30.5912 45.6317 32.0451C44.4645 32.4121 44.1692 32.4403 42.0458 32.4403C40.2317 32.4403 39.5286 32.3838 38.8114 32.1862C34.7052 31.057 31.738 28.6434 29.952 25.0017C28.8833 22.8139 28.6442 21.7411 28.6442 19.1158C28.6442 17.309 28.6864 16.7303 28.9395 15.8129C29.3333 14.3731 30.0223 12.7781 30.7255 11.7054C31.5833 10.3645 33.9177 8.14842 35.2114 7.41444C38.0239 5.81945 41.1739 5.24073 44.1973 5.7771ZM51.2286 35.9267C57.1348 37.1265 61.7895 41.8267 62.9989 47.7833C63.252 49.0395 63.2802 49.7311 63.2802 55.6594V62.1664H60.4677H57.6552L57.7958 61.8135C57.9645 61.376 58.4989 58.2566 58.4989 57.7343C58.4989 57.2544 58.1614 56.591 57.838 56.4357C57.6973 56.3652 55.4052 56.2805 52.7333 56.2381L47.8817 56.1676L47.502 51.9331C46.152 37.1547 46.1802 37.3382 45.7161 36.4489L45.2942 35.6303H47.5583C49.2739 35.6303 50.1458 35.7008 51.2286 35.9267ZM42.7067 37.6769C42.8755 37.804 43.0583 38.1004 43.1005 38.3545C43.1708 38.7638 45.2802 61.7853 45.2802 62.1523C45.2802 62.2652 40.6958 62.3076 27.2942 62.2793L9.30828 62.237L8.92859 61.8841C8.71765 61.6865 8.49265 61.4042 8.4364 61.2489C8.38015 61.0937 7.8739 55.8288 7.29734 49.5476L6.27077 38.1427L6.65046 37.804L7.04421 37.4652H24.7208C40.3583 37.4652 42.4395 37.4934 42.7067 37.6769ZM54.9692 60.0351C54.8286 60.9666 54.5192 61.5171 53.9567 61.87C53.5067 62.1382 53.2677 62.1664 51.0036 62.1664H48.5286L48.4583 61.7006C48.4161 61.4607 48.3458 60.8255 48.3036 60.2891L48.2192 59.3434H51.6505H55.0817L54.9692 60.0351ZM68.5536 65.7657C69.0598 66.2598 69.0739 66.8385 68.5817 67.3607L68.3005 67.6713H36.013H3.73952L3.41609 67.3607C2.95202 66.9232 2.96609 66.0904 3.45827 65.7093L3.83796 65.4129H36.027H68.2161L68.5536 65.7657Z" fill="white"/>
<path d="M23.5031 43.7512C20.871 44.9363 19.5286 48.4106 20.6341 51.1309C21.529 53.3394 23.5294 54.686 25.8719 54.686C30.7939 54.686 33.2944 48.9493 30.0043 45.2056C29.4779 44.5861 28.6619 43.9397 28.1882 43.7243C27.109 43.2664 24.5296 43.2934 23.5031 43.7512Z" fill="white"/>
</g>
<defs>
<clipPath id="clip0_4_2464">
<path d="M0 10.3657C0 4.84288 4.47715 0.365723 10 0.365723H62C67.5229 0.365723 72 4.84288 72 10.3657V72.3657H0V10.3657Z" fill="white"/>
</clipPath>
</defs>
</svg>
